<svg width="58" height="58" viewBox="0 0 58 58" fill="none" xmlns="http://www.w3.org/2000/svg">
<rect width="58" height="58" rx="20" fill="url(#paint0_linear_185_8764)"/>
<path d="M14.1655 30.955C13.9985 30.317 13.6527 28.051 13.5563 26.638C13.4167 24.7061 13.5308 24.0154 13.9795 23.7315C14.3265 23.5313 15.5525 23.674 16.9877 24.071C18.3092 24.4336 20.1001 25.2629 20.9774 25.8629C21.9639 26.5438 22.9233 27.5027 23.4119 28.2521C23.8586 28.9506 24.3738 30.1471 24.5543 30.9366C24.7348 31.7262 24.8283 32.9284 24.7861 33.6027C24.7648 34.3025 24.609 34.9423 24.4564 35.0679C24.3292 35.1725 23.4383 34.7115 22.4773 34.0097C21.4071 33.2271 20.3222 32.1156 19.5154 31.0311C18.8385 30.0529 18.2081 29.0792 18.0916 28.8339C17.9751 28.5886 17.6552 28.5107 17.3844 28.6481C17.012 28.8692 16.9969 29.2654 17.2791 29.9713C17.503 30.5546 18.2381 31.6554 18.8657 32.4183C19.4933 33.1812 21.1582 34.5831 22.5602 35.5618C23.9876 36.5195 25.5824 37.6806 26.1189 38.1773C26.6554 38.674 27.292 39.3442 27.5176 39.6703C27.7875 40.102 27.7575 40.411 27.4274 40.5973C27.0296 40.8393 26.6768 40.6178 25.7264 39.5662C24.6042 38.3574 24.3351 38.2377 22.6874 38.1007C21.7096 38.0523 20.2444 37.7226 19.4581 37.3888C18.2891 36.9007 17.3616 36.2915 16.211 34.8928C15.3742 33.8756 14.5236 32.3233 14.1655 30.955Z" fill="#CDFF64"/>
<path d="M26.0391 30.8238C26.2294 30.0703 26.8028 28.7458 27.3011 27.9521C27.8294 27.0912 29.0307 25.8044 30.0779 24.9004C31.2731 23.9172 32.5893 23.1329 33.9502 22.6103C35.0658 22.2042 37.1011 21.7238 38.5186 21.581C39.9153 21.4128 41.4628 21.3763 41.9472 21.4468C42.7934 21.6461 42.8562 21.7224 43.1081 23.2207C43.2796 24.103 43.28 26.0214 43.1357 27.5046C42.9598 29.3122 42.4594 31.0882 41.7154 32.7236C40.7619 34.8299 40.2516 35.5054 38.6315 37.0087C37.3001 38.1893 36.0975 39.008 34.9474 39.5277C33.9963 39.9264 32.8388 40.2817 32.4126 40.3338C31.6366 40.3752 31.6202 40.3034 31.9011 37.8978C32.0573 36.5327 32.4904 34.7268 32.8751 33.8986C33.2389 33.045 34.0276 31.6713 34.6231 30.8403C35.1978 29.9839 36.3573 28.6463 37.1845 27.8378C38.2497 26.7484 38.552 26.2865 38.3219 26.0068C38.1545 25.8033 37.7419 25.7164 37.4503 25.8284C37.1123 25.9358 36.0262 26.9999 34.9984 28.1865C33.9705 29.3732 32.6851 31.2834 32.1253 32.4688C31.5445 33.6288 30.9498 35.653 30.7517 36.9672C30.5537 38.2813 30.4672 40.6123 30.5292 42.139C30.5912 43.6656 30.5785 44.9979 30.4558 45.0561C30.3287 45.1607 30.097 45.1382 29.9161 45.0738C29.7352 45.0094 29.4977 44.5652 29.3992 44.1345C29.3053 43.6575 29.2027 42.548 29.2002 41.612C29.201 40.1616 28.9934 39.6501 27.84 38.0407C26.8285 36.6555 26.3879 35.6535 26.1106 34.1761C25.8899 33.0785 25.8742 31.5563 26.0391 30.8238Z" fill="#CDFF64"/>
<circle cx="50.6268" cy="50.627" r="7.37288" fill="#57E094"/>
<defs>
<linearGradient id="paint0_linear_185_8764" x1="29" y1="0" x2="29" y2="58" gradientUnits="userSpaceOnUse">
<stop stop-color="#102A52"/>
<stop offset="1" stop-color="#245EB8"/>
</linearGradient>
</defs>
</svg>
