<svg width="104" height="138" viewBox="0 0 104 138" fill="none" xmlns="http://www.w3.org/2000/svg">
<path d="M12.6422 81.4219V90H11.5582V82.7754L9.37266 83.5723V82.5938L12.4723 81.4219H12.6422ZM21.8195 89.1094V90H16.2355V89.2207L19.0305 86.1094C19.3742 85.7266 19.6398 85.4023 19.8273 85.1367C20.0188 84.8672 20.1516 84.627 20.2258 84.416C20.3039 84.2012 20.343 83.9824 20.343 83.7598C20.343 83.4785 20.2844 83.2246 20.1672 82.998C20.0539 82.7676 19.8859 82.584 19.6633 82.4473C19.4406 82.3105 19.1711 82.2422 18.8547 82.2422C18.4758 82.2422 18.1594 82.3164 17.9055 82.4648C17.6555 82.6094 17.468 82.8125 17.343 83.0742C17.218 83.3359 17.1555 83.6367 17.1555 83.9766H16.0715C16.0715 83.4961 16.177 83.0566 16.3879 82.6582C16.5988 82.2598 16.9113 81.9434 17.3254 81.709C17.7395 81.4707 18.2492 81.3516 18.8547 81.3516C19.3938 81.3516 19.8547 81.4473 20.2375 81.6387C20.6203 81.8262 20.9133 82.0918 21.1164 82.4355C21.3234 82.7754 21.427 83.1738 21.427 83.6309C21.427 83.8809 21.384 84.1348 21.298 84.3926C21.216 84.6465 21.1008 84.9004 20.9523 85.1543C20.8078 85.4082 20.6379 85.6582 20.4426 85.9043C20.2512 86.1504 20.0461 86.3926 19.8273 86.6309L17.5422 89.1094H21.8195ZM28.9695 89.1094V90H23.3855V89.2207L26.1805 86.1094C26.5242 85.7266 26.7898 85.4023 26.9773 85.1367C27.1688 84.8672 27.3016 84.627 27.3758 84.416C27.4539 84.2012 27.493 83.9824 27.493 83.7598C27.493 83.4785 27.4344 83.2246 27.3172 82.998C27.2039 82.7676 27.0359 82.584 26.8133 82.4473C26.5906 82.3105 26.3211 82.2422 26.0047 82.2422C25.6258 82.2422 25.3094 82.3164 25.0555 82.4648C24.8055 82.6094 24.618 82.8125 24.493 83.0742C24.368 83.3359 24.3055 83.6367 24.3055 83.9766H23.2215C23.2215 83.4961 23.327 83.0566 23.5379 82.6582C23.7488 82.2598 24.0613 81.9434 24.4754 81.709C24.8895 81.4707 25.3992 81.3516 26.0047 81.3516C26.5438 81.3516 27.0047 81.4473 27.3875 81.6387C27.7703 81.8262 28.0633 82.0918 28.2664 82.4355C28.4734 82.7754 28.577 83.1738 28.577 83.6309C28.577 83.8809 28.534 84.1348 28.448 84.3926C28.366 84.6465 28.2508 84.9004 28.1023 85.1543C27.9578 85.4082 27.7879 85.6582 27.5926 85.9043C27.4012 86.1504 27.1961 86.3926 26.9773 86.6309L24.6922 89.1094H28.9695ZM37.3457 82.2246L34.5215 90H33.3672L36.6191 81.4688H37.3633L37.3457 82.2246ZM39.7129 90L36.8828 82.2246L36.8652 81.4688H37.6094L40.873 90H39.7129ZM39.5664 86.8418V87.7676H34.7734V86.8418H39.5664ZM43.8863 89.0215L45.6207 83.6602H46.7281L44.4488 90H43.7223L43.8863 89.0215ZM42.4391 83.6602L44.2262 89.0508L44.3492 90H43.6227L41.3258 83.6602H42.4391ZM51.8156 88.916V85.6523C51.8156 85.4023 51.7648 85.1855 51.6633 85.002C51.5656 84.8145 51.4172 84.6699 51.218 84.5684C51.0188 84.4668 50.7727 84.416 50.4797 84.416C50.2063 84.416 49.966 84.4629 49.759 84.5566C49.5559 84.6504 49.3957 84.7734 49.2785 84.9258C49.1652 85.0781 49.1086 85.2422 49.1086 85.418H48.0246C48.0246 85.1914 48.0832 84.9668 48.2004 84.7441C48.3176 84.5215 48.4855 84.3203 48.7043 84.1406C48.927 83.957 49.1926 83.8125 49.5012 83.707C49.8137 83.5977 50.1613 83.543 50.5441 83.543C51.0051 83.543 51.4113 83.6211 51.7629 83.7773C52.1184 83.9336 52.3957 84.1699 52.5949 84.4863C52.798 84.7988 52.8996 85.1914 52.8996 85.6641V88.6172C52.8996 88.8281 52.9172 89.0527 52.9523 89.291C52.9914 89.5293 53.048 89.7344 53.1223 89.9062V90H51.9914C51.9367 89.875 51.8938 89.709 51.8625 89.502C51.8313 89.291 51.8156 89.0957 51.8156 88.916ZM52.0031 86.1562L52.0148 86.918H50.9191C50.6105 86.918 50.3352 86.9434 50.093 86.9941C49.8508 87.041 49.6477 87.1133 49.4836 87.2109C49.3195 87.3086 49.1945 87.4316 49.1086 87.5801C49.0227 87.7246 48.9797 87.8945 48.9797 88.0898C48.9797 88.2891 49.0246 88.4707 49.1145 88.6348C49.2043 88.7988 49.3391 88.9297 49.5188 89.0273C49.7023 89.1211 49.927 89.168 50.1926 89.168C50.5246 89.168 50.8176 89.0977 51.0715 88.957C51.3254 88.8164 51.5266 88.6445 51.675 88.4414C51.8273 88.2383 51.9094 88.041 51.9211 87.8496L52.384 88.3711C52.3566 88.5352 52.2824 88.7168 52.1613 88.916C52.0402 89.1152 51.8781 89.3066 51.675 89.4902C51.4758 89.6699 51.2375 89.8203 50.9602 89.9414C50.6867 90.0586 50.3781 90.1172 50.0344 90.1172C49.6047 90.1172 49.2277 90.0332 48.9035 89.8652C48.5832 89.6973 48.3332 89.4727 48.1535 89.1914C47.9777 88.9062 47.8898 88.5879 47.8898 88.2363C47.8898 87.8965 47.9563 87.5977 48.0891 87.3398C48.2219 87.0781 48.4133 86.8613 48.6633 86.6895C48.9133 86.5137 49.2141 86.3809 49.5656 86.291C49.9172 86.2012 50.3098 86.1562 50.7434 86.1562H52.0031ZM56.1824 81V90H55.0926V81H56.1824ZM59.5004 83.6602V90H58.4105V83.6602H59.5004ZM58.3285 81.9785C58.3285 81.8027 58.3813 81.6543 58.4867 81.5332C58.5961 81.4121 58.7563 81.3516 58.9672 81.3516C59.1742 81.3516 59.3324 81.4121 59.4418 81.5332C59.5551 81.6543 59.6117 81.8027 59.6117 81.9785C59.6117 82.1465 59.5551 82.291 59.4418 82.4121C59.3324 82.5293 59.1742 82.5879 58.9672 82.5879C58.7563 82.5879 58.5961 82.5293 58.4867 82.4121C58.3813 82.291 58.3285 82.1465 58.3285 81.9785ZM65.3789 88.916V85.6523C65.3789 85.4023 65.3281 85.1855 65.2266 85.002C65.1289 84.8145 64.9805 84.6699 64.7812 84.5684C64.582 84.4668 64.3359 84.416 64.043 84.416C63.7695 84.416 63.5293 84.4629 63.3223 84.5566C63.1191 84.6504 62.959 84.7734 62.8418 84.9258C62.7285 85.0781 62.6719 85.2422 62.6719 85.418H61.5879C61.5879 85.1914 61.6465 84.9668 61.7637 84.7441C61.8809 84.5215 62.0488 84.3203 62.2676 84.1406C62.4902 83.957 62.7559 83.8125 63.0645 83.707C63.377 83.5977 63.7246 83.543 64.1074 83.543C64.5684 83.543 64.9746 83.6211 65.3262 83.7773C65.6816 83.9336 65.959 84.1699 66.1582 84.4863C66.3613 84.7988 66.4629 85.1914 66.4629 85.6641V88.6172C66.4629 88.8281 66.4805 89.0527 66.5156 89.291C66.5547 89.5293 66.6113 89.7344 66.6855 89.9062V90H65.5547C65.5 89.875 65.457 89.709 65.4258 89.502C65.3945 89.291 65.3789 89.0957 65.3789 88.916ZM65.5664 86.1562L65.5781 86.918H64.4824C64.1738 86.918 63.8984 86.9434 63.6562 86.9941C63.4141 87.041 63.2109 87.1133 63.0469 87.2109C62.8828 87.3086 62.7578 87.4316 62.6719 87.5801C62.5859 87.7246 62.543 87.8945 62.543 88.0898C62.543 88.2891 62.5879 88.4707 62.6777 88.6348C62.7676 88.7988 62.9023 88.9297 63.082 89.0273C63.2656 89.1211 63.4902 89.168 63.7559 89.168C64.0879 89.168 64.3809 89.0977 64.6348 88.957C64.8887 88.8164 65.0898 88.6445 65.2383 88.4414C65.3906 88.2383 65.4727 88.041 65.4844 87.8496L65.9473 88.3711C65.9199 88.5352 65.8457 88.7168 65.7246 88.916C65.6035 89.1152 65.4414 89.3066 65.2383 89.4902C65.0391 89.6699 64.8008 89.8203 64.5234 89.9414C64.25 90.0586 63.9414 90.1172 63.5977 90.1172C63.168 90.1172 62.791 90.0332 62.4668 89.8652C62.1465 89.6973 61.8965 89.4727 61.7168 89.1914C61.541 88.9062 61.4531 88.5879 61.4531 88.2363C61.4531 87.8965 61.5195 87.5977 61.6523 87.3398C61.7852 87.0781 61.9766 86.8613 62.2266 86.6895C62.4766 86.5137 62.7773 86.3809 63.1289 86.291C63.4805 86.2012 63.873 86.1562 64.3066 86.1562H65.5664ZM71.1051 89.2266C71.3629 89.2266 71.6012 89.1738 71.8199 89.0684C72.0387 88.9629 72.2184 88.8184 72.359 88.6348C72.4996 88.4473 72.5797 88.2344 72.5992 87.9961H73.6305C73.6109 88.3711 73.484 88.7207 73.2496 89.0449C73.0191 89.3652 72.7164 89.625 72.3414 89.8242C71.9664 90.0195 71.5543 90.1172 71.1051 90.1172C70.6285 90.1172 70.2125 90.0332 69.857 89.8652C69.5055 89.6973 69.2125 89.4668 68.9781 89.1738C68.7477 88.8809 68.5738 88.5449 68.4566 88.166C68.3434 87.7832 68.2867 87.3789 68.2867 86.9531V86.707C68.2867 86.2812 68.3434 85.8789 68.4566 85.5C68.5738 85.1172 68.7477 84.7793 68.9781 84.4863C69.2125 84.1934 69.5055 83.9629 69.857 83.7949C70.2125 83.627 70.6285 83.543 71.1051 83.543C71.6012 83.543 72.0348 83.6445 72.4059 83.8477C72.777 84.0469 73.068 84.3203 73.2789 84.668C73.4938 85.0117 73.6109 85.4023 73.6305 85.8398H72.5992C72.5797 85.5781 72.5055 85.3418 72.3766 85.1309C72.2516 84.9199 72.0797 84.752 71.8609 84.627C71.6461 84.498 71.3941 84.4336 71.1051 84.4336C70.773 84.4336 70.4938 84.5 70.2672 84.6328C70.0445 84.7617 69.8668 84.9375 69.734 85.1602C69.6051 85.3789 69.5113 85.623 69.4527 85.8926C69.398 86.1582 69.3707 86.4297 69.3707 86.707V86.9531C69.3707 87.2305 69.398 87.5039 69.4527 87.7734C69.5074 88.043 69.5992 88.2871 69.7281 88.5059C69.8609 88.7246 70.0387 88.9004 70.2613 89.0332C70.4879 89.1621 70.7691 89.2266 71.1051 89.2266ZM70.5074 90.0586H71.2867L71.2164 90.3691C71.443 90.4082 71.648 90.502 71.8316 90.6504C72.0191 90.7988 72.1129 91.043 72.1129 91.3828C72.1129 91.5664 72.0738 91.7324 71.9957 91.8809C71.9215 92.0332 71.8102 92.1621 71.6617 92.2676C71.5133 92.377 71.3277 92.4609 71.1051 92.5195C70.8863 92.5781 70.6305 92.6074 70.3375 92.6074L70.2965 91.9805C70.4762 91.9805 70.6383 91.9609 70.7828 91.9219C70.9313 91.8828 71.0484 91.8203 71.1344 91.7344C71.2242 91.6484 71.2691 91.5371 71.2691 91.4004C71.2691 91.2715 71.2359 91.1699 71.1695 91.0957C71.1031 91.0215 70.9996 90.9648 70.859 90.9258C70.7223 90.8906 70.5445 90.8652 70.3258 90.8496L70.5074 90.0586ZM74.9621 86.9004V86.7656C74.9621 86.3086 75.0285 85.8848 75.1613 85.4941C75.2941 85.0996 75.4855 84.7578 75.7355 84.4688C75.9855 84.1758 76.2883 83.9492 76.6438 83.7891C76.9992 83.625 77.3977 83.543 77.8391 83.543C78.2844 83.543 78.6848 83.625 79.0402 83.7891C79.3996 83.9492 79.7043 84.1758 79.9543 84.4688C80.2082 84.7578 80.4016 85.0996 80.5344 85.4941C80.6672 85.8848 80.7336 86.3086 80.7336 86.7656V86.9004C80.7336 87.3574 80.6672 87.7812 80.5344 88.1719C80.4016 88.5625 80.2082 88.9043 79.9543 89.1973C79.7043 89.4863 79.4016 89.7129 79.0461 89.877C78.6945 90.0371 78.2961 90.1172 77.8508 90.1172C77.4055 90.1172 77.0051 90.0371 76.6496 89.877C76.2941 89.7129 75.9895 89.4863 75.7355 89.1973C75.4855 88.9043 75.2941 88.5625 75.1613 88.1719C75.0285 87.7812 74.9621 87.3574 74.9621 86.9004ZM76.0461 86.7656V86.9004C76.0461 87.2168 76.0832 87.5156 76.1574 87.7969C76.2316 88.0742 76.343 88.3203 76.4914 88.5352C76.6438 88.75 76.8332 88.9199 77.0598 89.0449C77.2863 89.166 77.55 89.2266 77.8508 89.2266C78.1477 89.2266 78.4074 89.166 78.6301 89.0449C78.8566 88.9199 79.0441 88.75 79.1926 88.5352C79.341 88.3203 79.4523 88.0742 79.5266 87.7969C79.6047 87.5156 79.6438 87.2168 79.6438 86.9004V86.7656C79.6438 86.4531 79.6047 86.1582 79.5266 85.8809C79.4523 85.5996 79.3391 85.3516 79.1867 85.1367C79.0383 84.918 78.8508 84.7461 78.6242 84.6211C78.4016 84.4961 78.1398 84.4336 77.8391 84.4336C77.5422 84.4336 77.2805 84.4961 77.0539 84.6211C76.8313 84.7461 76.6438 84.918 76.4914 85.1367C76.343 85.3516 76.2316 85.5996 76.1574 85.8809C76.0832 86.1582 76.0461 86.4531 76.0461 86.7656ZM79.1398 81.1172L79.8723 81.1816C79.8723 81.4668 79.8156 81.7168 79.7023 81.9316C79.5891 82.1465 79.4367 82.3125 79.2453 82.4297C79.0578 82.5469 78.8449 82.6055 78.6066 82.6055C78.4074 82.6055 78.2434 82.5781 78.1145 82.5234C77.9855 82.4648 77.8703 82.4004 77.7688 82.3301C77.6672 82.2559 77.5598 82.1914 77.4465 82.1367C77.3371 82.0781 77.2004 82.0488 77.0363 82.0488C76.8723 82.0488 76.7336 82.1113 76.6203 82.2363C76.5109 82.3613 76.4563 82.5156 76.4563 82.6992L75.7238 82.6641C75.7238 82.3789 75.7785 82.1289 75.8879 81.9141C76.0012 81.6953 76.1535 81.5254 76.3449 81.4043C76.5363 81.2793 76.7492 81.2168 76.9836 81.2168C77.1516 81.2168 77.298 81.2461 77.423 81.3047C77.552 81.3594 77.673 81.4238 77.7863 81.498C77.8996 81.5684 78.0168 81.6328 78.1379 81.6914C78.259 81.7461 78.3977 81.7734 78.5539 81.7734C78.718 81.7734 78.8566 81.7109 78.9699 81.5859C79.0832 81.457 79.1398 81.3008 79.1398 81.1172ZM85.1238 90.1172C84.6824 90.1172 84.282 90.043 83.9227 89.8945C83.5672 89.7422 83.2606 89.5293 83.0027 89.2559C82.7488 88.9824 82.5535 88.6582 82.4168 88.2832C82.2801 87.9082 82.2117 87.498 82.2117 87.0527V86.8066C82.2117 86.291 82.2879 85.832 82.4402 85.4297C82.5926 85.0234 82.7996 84.6797 83.0613 84.3984C83.3231 84.1172 83.6199 83.9043 83.952 83.7598C84.284 83.6152 84.6277 83.543 84.9832 83.543C85.4363 83.543 85.827 83.6211 86.1551 83.7773C86.4871 83.9336 86.7586 84.1523 86.9695 84.4336C87.1805 84.7109 87.3367 85.0391 87.4383 85.418C87.5398 85.793 87.5906 86.2031 87.5906 86.6484V87.1348H82.8563V86.25H86.5066V86.168C86.491 85.8867 86.4324 85.6133 86.3309 85.3477C86.2332 85.082 86.077 84.8633 85.8621 84.6914C85.6473 84.5195 85.3543 84.4336 84.9832 84.4336C84.7371 84.4336 84.5106 84.4863 84.3035 84.5918C84.0965 84.6934 83.9188 84.8457 83.7703 85.0488C83.6219 85.252 83.5066 85.5 83.4246 85.793C83.3426 86.0859 83.3016 86.4238 83.3016 86.8066V87.0527C83.3016 87.3535 83.3426 87.6367 83.4246 87.9023C83.5106 88.1641 83.6336 88.3945 83.7938 88.5938C83.9578 88.793 84.1551 88.9492 84.3856 89.0625C84.6199 89.1758 84.8856 89.2324 85.1824 89.2324C85.5652 89.2324 85.8895 89.1543 86.1551 88.998C86.4207 88.8418 86.6531 88.6328 86.8523 88.3711L87.5086 88.8926C87.3719 89.0996 87.1981 89.2969 86.9871 89.4844C86.7762 89.6719 86.5164 89.8242 86.2078 89.9414C85.9031 90.0586 85.5418 90.1172 85.1238 90.1172ZM92.9477 88.3184C92.9477 88.1621 92.9125 88.0176 92.8422 87.8848C92.7758 87.748 92.6371 87.625 92.4262 87.5156C92.2191 87.4023 91.9066 87.3047 91.4887 87.2227C91.1371 87.1484 90.8187 87.0605 90.5336 86.959C90.2523 86.8574 90.0121 86.7344 89.8129 86.5898C89.6176 86.4453 89.4672 86.2754 89.3617 86.0801C89.2562 85.8848 89.2035 85.6562 89.2035 85.3945C89.2035 85.1445 89.2582 84.9082 89.3676 84.6855C89.4809 84.4629 89.6391 84.2656 89.8422 84.0938C90.0492 83.9219 90.2973 83.7871 90.5863 83.6895C90.8754 83.5918 91.1977 83.543 91.5531 83.543C92.0609 83.543 92.4945 83.6328 92.8539 83.8125C93.2133 83.9922 93.4887 84.2324 93.6801 84.5332C93.8715 84.8301 93.9672 85.1602 93.9672 85.5234H92.8832C92.8832 85.3477 92.8305 85.1777 92.725 85.0137C92.6234 84.8457 92.473 84.707 92.2738 84.5977C92.0785 84.4883 91.8383 84.4336 91.5531 84.4336C91.2523 84.4336 91.0082 84.4805 90.8207 84.5742C90.6371 84.6641 90.5023 84.7793 90.4164 84.9199C90.3344 85.0605 90.2934 85.209 90.2934 85.3652C90.2934 85.4824 90.3129 85.5879 90.352 85.6816C90.3949 85.7715 90.4691 85.8555 90.5746 85.9336C90.6801 86.0078 90.8285 86.0781 91.0199 86.1445C91.2113 86.2109 91.4555 86.2773 91.7523 86.3438C92.2719 86.4609 92.6996 86.6016 93.0355 86.7656C93.3715 86.9297 93.6215 87.1309 93.7855 87.3691C93.9496 87.6074 94.0316 87.8965 94.0316 88.2363C94.0316 88.5137 93.973 88.7676 93.8559 88.998C93.7426 89.2285 93.5766 89.4277 93.3578 89.5957C93.143 89.7598 92.8852 89.8887 92.5844 89.9824C92.2875 90.0723 91.9535 90.1172 91.5824 90.1172C91.0238 90.1172 90.5512 90.0176 90.1645 89.8184C89.7777 89.6191 89.4848 89.3613 89.2855 89.0449C89.0863 88.7285 88.9867 88.3945 88.9867 88.043H90.0766C90.0922 88.3398 90.1781 88.5762 90.3344 88.752C90.4906 88.9238 90.682 89.0469 90.9086 89.1211C91.1352 89.1914 91.3598 89.2266 91.5824 89.2266C91.8793 89.2266 92.1273 89.1875 92.3266 89.1094C92.5297 89.0312 92.684 88.9238 92.7895 88.7871C92.8949 88.6504 92.9477 88.4941 92.9477 88.3184Z" fill="black" fill-opacity="0.38"/>
<path fill-rule="evenodd" clip-rule="evenodd" d="M73.0284 32L78.8083 45.7129L93 47.3105L82.3743 57.3243L85.3137 72L72.9675 64.4754L60.5925 71.9488L63.5874 57.2843L53 47.227L67.1969 45.6886L73.0284 32Z" fill="#FFB400"/>
<path d="M23.125 58.625V61.2734H10.832L10.668 59.2227L17.7812 47.9375H20.4648L17.5586 52.8008L14.0195 58.625H23.125ZM21.1914 47.9375V65H17.8164V47.9375H21.1914ZM25.4278 63.3711C25.4278 62.8711 25.5997 62.4531 25.9434 62.1172C26.295 61.7812 26.7598 61.6133 27.338 61.6133C27.9161 61.6133 28.377 61.7812 28.7208 62.1172C29.0723 62.4531 29.2481 62.8711 29.2481 63.3711C29.2481 63.8711 29.0723 64.2891 28.7208 64.625C28.377 64.9609 27.9161 65.1289 27.338 65.1289C26.7598 65.1289 26.295 64.9609 25.9434 64.625C25.5997 64.2891 25.4278 63.8711 25.4278 63.3711ZM34.6447 62.4336H34.8673C35.8048 62.4336 36.6095 62.3203 37.2814 62.0938C37.9611 61.8594 38.5197 61.5234 38.9572 61.0859C39.3947 60.6484 39.7189 60.1133 39.9298 59.4805C40.1408 58.8398 40.2463 58.1133 40.2463 57.3008V54.0664C40.2463 53.4492 40.1838 52.9062 40.0588 52.4375C39.9416 51.9688 39.7697 51.582 39.5431 51.2773C39.3244 50.9648 39.0666 50.7305 38.7697 50.5742C38.4806 50.418 38.1603 50.3398 37.8088 50.3398C37.4338 50.3398 37.1017 50.4336 36.8127 50.6211C36.5236 50.8008 36.2775 51.0469 36.0744 51.3594C35.8791 51.6719 35.7267 52.0312 35.6173 52.4375C35.5158 52.8359 35.465 53.2539 35.465 53.6914C35.465 54.1289 35.5158 54.5469 35.6173 54.9453C35.7189 55.3359 35.8713 55.6836 36.0744 55.9883C36.2775 56.2852 36.5314 56.5234 36.8361 56.7031C37.1408 56.875 37.5002 56.9609 37.9142 56.9609C38.3127 56.9609 38.6681 56.8867 38.9806 56.7383C39.3009 56.582 39.5705 56.3789 39.7892 56.1289C40.0158 55.8789 40.1877 55.6016 40.3048 55.2969C40.4298 54.9922 40.4923 54.6836 40.4923 54.3711L41.6056 54.9805C41.6056 55.5273 41.4884 56.0664 41.2541 56.5977C41.0197 57.1289 40.6916 57.6133 40.2697 58.0508C39.8556 58.4805 39.3752 58.8242 38.8283 59.082C38.2814 59.3398 37.6955 59.4688 37.0705 59.4688C36.2736 59.4688 35.5666 59.3242 34.9494 59.0352C34.3322 58.7383 33.8088 58.332 33.3791 57.8164C32.9572 57.293 32.6369 56.6836 32.4181 55.9883C32.1994 55.293 32.09 54.5391 32.09 53.7266C32.09 52.8984 32.2228 52.1211 32.4884 51.3945C32.7619 50.668 33.1486 50.0273 33.6486 49.4727C34.1564 48.918 34.7619 48.4844 35.465 48.1719C36.1759 47.8516 36.965 47.6914 37.8322 47.6914C38.6994 47.6914 39.4884 47.8594 40.1994 48.1953C40.9103 48.5312 41.5197 49.0078 42.0275 49.625C42.5353 50.2344 42.9259 50.9648 43.1994 51.8164C43.4806 52.668 43.6213 53.6133 43.6213 54.6523V55.8242C43.6213 56.9336 43.5002 57.9648 43.258 58.918C43.0236 59.8711 42.6681 60.7344 42.1916 61.5078C41.7228 62.2734 41.1369 62.9297 40.4338 63.4766C39.7384 64.0234 38.9298 64.4414 38.008 64.7305C37.0861 65.0195 36.0548 65.1641 34.9142 65.1641H34.6447V62.4336Z" fill="#555555"/>
<path d="M1.34766 2.46875H2.44336L5.23828 9.42383L8.02734 2.46875H9.12891L5.66016 11H4.80469L1.34766 2.46875ZM0.990234 2.46875H1.95703L2.11523 7.67188V11H0.990234V2.46875ZM8.51367 2.46875H9.48047V11H8.35547V7.67188L8.51367 2.46875ZM13.9336 11.1172C13.4922 11.1172 13.0918 11.043 12.7324 10.8945C12.377 10.7422 12.0703 10.5293 11.8125 10.2559C11.5586 9.98242 11.3633 9.6582 11.2266 9.2832C11.0898 8.9082 11.0215 8.49805 11.0215 8.05273V7.80664C11.0215 7.29102 11.0977 6.83203 11.25 6.42969C11.4023 6.02344 11.6094 5.67969 11.8711 5.39844C12.1328 5.11719 12.4297 4.9043 12.7617 4.75977C13.0938 4.61523 13.4375 4.54297 13.793 4.54297C14.2461 4.54297 14.6367 4.62109 14.9648 4.77734C15.2969 4.93359 15.5684 5.15234 15.7793 5.43359C15.9902 5.71094 16.1465 6.03906 16.248 6.41797C16.3496 6.79297 16.4004 7.20312 16.4004 7.64844V8.13477H11.666V7.25H15.3164V7.16797C15.3008 6.88672 15.2422 6.61328 15.1406 6.34766C15.043 6.08203 14.8867 5.86328 14.6719 5.69141C14.457 5.51953 14.1641 5.43359 13.793 5.43359C13.5469 5.43359 13.3203 5.48633 13.1133 5.5918C12.9062 5.69336 12.7285 5.8457 12.5801 6.04883C12.4316 6.25195 12.3164 6.5 12.2344 6.79297C12.1523 7.08594 12.1113 7.42383 12.1113 7.80664V8.05273C12.1113 8.35352 12.1523 8.63672 12.2344 8.90234C12.3203 9.16406 12.4434 9.39453 12.6035 9.59375C12.7676 9.79297 12.9648 9.94922 13.1953 10.0625C13.4297 10.1758 13.6953 10.2324 13.9922 10.2324C14.375 10.2324 14.6992 10.1543 14.9648 9.99805C15.2305 9.8418 15.4629 9.63281 15.6621 9.37109L16.3184 9.89258C16.1816 10.0996 16.0078 10.2969 15.7969 10.4844C15.5859 10.6719 15.3262 10.8242 15.0176 10.9414C14.7129 11.0586 14.3516 11.1172 13.9336 11.1172ZM13.1895 3.72266L14.3262 2H15.6328L14.0625 3.72266H13.1895ZM21.6621 9.76953V2H22.752V11H21.7559L21.6621 9.76953ZM17.3965 7.90039V7.77734C17.3965 7.29297 17.4551 6.85352 17.5723 6.45898C17.6934 6.06055 17.8633 5.71875 18.082 5.43359C18.3047 5.14844 18.5684 4.92969 18.873 4.77734C19.1816 4.62109 19.5254 4.54297 19.9043 4.54297C20.3027 4.54297 20.6504 4.61328 20.9473 4.75391C21.248 4.89062 21.502 5.0918 21.709 5.35742C21.9199 5.61914 22.0859 5.93555 22.207 6.30664C22.3281 6.67773 22.4121 7.09766 22.459 7.56641V8.10547C22.416 8.57031 22.332 8.98828 22.207 9.35938C22.0859 9.73047 21.9199 10.0469 21.709 10.3086C21.502 10.5703 21.248 10.7715 20.9473 10.9121C20.6465 11.0488 20.2949 11.1172 19.8926 11.1172C19.5215 11.1172 19.1816 11.0371 18.873 10.877C18.5684 10.7168 18.3047 10.4922 18.082 10.2031C17.8633 9.91406 17.6934 9.57422 17.5723 9.18359C17.4551 8.78906 17.3965 8.36133 17.3965 7.90039ZM18.4863 7.77734V7.90039C18.4863 8.2168 18.5176 8.51367 18.5801 8.79102C18.6465 9.06836 18.748 9.3125 18.8848 9.52344C19.0215 9.73438 19.1953 9.90039 19.4062 10.0215C19.6172 10.1387 19.8691 10.1973 20.1621 10.1973C20.5215 10.1973 20.8164 10.1211 21.0469 9.96875C21.2812 9.81641 21.4688 9.61523 21.6094 9.36523C21.75 9.11523 21.8594 8.84375 21.9375 8.55078V7.13867C21.8906 6.92383 21.8223 6.7168 21.7324 6.51758C21.6465 6.31445 21.5332 6.13477 21.3926 5.97852C21.2559 5.81836 21.0859 5.69141 20.8828 5.59766C20.6836 5.50391 20.4473 5.45703 20.1738 5.45703C19.877 5.45703 19.6211 5.51953 19.4062 5.64453C19.1953 5.76562 19.0215 5.93359 18.8848 6.14844C18.748 6.35938 18.6465 6.60547 18.5801 6.88672C18.5176 7.16406 18.4863 7.46094 18.4863 7.77734ZM25.6172 4.66016V11H24.5273V4.66016H25.6172ZM24.4453 2.97852C24.4453 2.80273 24.498 2.6543 24.6035 2.5332C24.7129 2.41211 24.873 2.35156 25.084 2.35156C25.291 2.35156 25.4492 2.41211 25.5586 2.5332C25.6719 2.6543 25.7285 2.80273 25.7285 2.97852C25.7285 3.14648 25.6719 3.29102 25.5586 3.41211C25.4492 3.5293 25.291 3.58789 25.084 3.58789C24.873 3.58789 24.7129 3.5293 24.6035 3.41211C24.498 3.29102 24.4453 3.14648 24.4453 2.97852ZM31.0957 9.91602V6.65234C31.0957 6.40234 31.0449 6.18555 30.9434 6.00195C30.8457 5.81445 30.6973 5.66992 30.498 5.56836C30.2988 5.4668 30.0527 5.41602 29.7598 5.41602C29.4863 5.41602 29.2461 5.46289 29.0391 5.55664C28.8359 5.65039 28.6758 5.77344 28.5586 5.92578C28.4453 6.07812 28.3887 6.24219 28.3887 6.41797H27.3047C27.3047 6.19141 27.3633 5.9668 27.4805 5.74414C27.5977 5.52148 27.7656 5.32031 27.9844 5.14062C28.207 4.95703 28.4727 4.8125 28.7812 4.70703C29.0938 4.59766 29.4414 4.54297 29.8242 4.54297C30.2852 4.54297 30.6914 4.62109 31.043 4.77734C31.3984 4.93359 31.6758 5.16992 31.875 5.48633C32.0781 5.79883 32.1797 6.19141 32.1797 6.66406V9.61719C32.1797 9.82812 32.1973 10.0527 32.2324 10.291C32.2715 10.5293 32.3281 10.7344 32.4023 10.9062V11H31.2715C31.2168 10.875 31.1738 10.709 31.1426 10.502C31.1113 10.291 31.0957 10.0957 31.0957 9.91602ZM31.2832 7.15625L31.2949 7.91797H30.1992C29.8906 7.91797 29.6152 7.94336 29.373 7.99414C29.1309 8.04102 28.9277 8.11328 28.7637 8.21094C28.5996 8.30859 28.4746 8.43164 28.3887 8.58008C28.3027 8.72461 28.2598 8.89453 28.2598 9.08984C28.2598 9.28906 28.3047 9.4707 28.3945 9.63477C28.4844 9.79883 28.6191 9.92969 28.7988 10.0273C28.9824 10.1211 29.207 10.168 29.4727 10.168C29.8047 10.168 30.0977 10.0977 30.3516 9.95703C30.6055 9.81641 30.8066 9.64453 30.9551 9.44141C31.1074 9.23828 31.1895 9.04102 31.2012 8.84961L31.6641 9.37109C31.6367 9.53516 31.5625 9.7168 31.4414 9.91602C31.3203 10.1152 31.1582 10.3066 30.9551 10.4902C30.7559 10.6699 30.5176 10.8203 30.2402 10.9414C29.9668 11.0586 29.6582 11.1172 29.3145 11.1172C28.8848 11.1172 28.5078 11.0332 28.1836 10.8652C27.8633 10.6973 27.6133 10.4727 27.4336 10.1914C27.2578 9.90625 27.1699 9.58789 27.1699 9.23633C27.1699 8.89648 27.2363 8.59766 27.3691 8.33984C27.502 8.07812 27.6934 7.86133 27.9434 7.68945C28.1934 7.51367 28.4941 7.38086 28.8457 7.29102C29.1973 7.20117 29.5898 7.15625 30.0234 7.15625H31.2832ZM40.8574 9.76953V2H41.9473V11H40.9512L40.8574 9.76953ZM36.5918 7.90039V7.77734C36.5918 7.29297 36.6504 6.85352 36.7676 6.45898C36.8887 6.06055 37.0586 5.71875 37.2773 5.43359C37.5 5.14844 37.7637 4.92969 38.0684 4.77734C38.377 4.62109 38.7207 4.54297 39.0996 4.54297C39.498 4.54297 39.8457 4.61328 40.1426 4.75391C40.4434 4.89062 40.6973 5.0918 40.9043 5.35742C41.1152 5.61914 41.2812 5.93555 41.4023 6.30664C41.5234 6.67773 41.6074 7.09766 41.6543 7.56641V8.10547C41.6113 8.57031 41.5273 8.98828 41.4023 9.35938C41.2812 9.73047 41.1152 10.0469 40.9043 10.3086C40.6973 10.5703 40.4434 10.7715 40.1426 10.9121C39.8418 11.0488 39.4902 11.1172 39.0879 11.1172C38.7168 11.1172 38.377 11.0371 38.0684 10.877C37.7637 10.7168 37.5 10.4922 37.2773 10.2031C37.0586 9.91406 36.8887 9.57422 36.7676 9.18359C36.6504 8.78906 36.5918 8.36133 36.5918 7.90039ZM37.6816 7.77734V7.90039C37.6816 8.2168 37.7129 8.51367 37.7754 8.79102C37.8418 9.06836 37.9434 9.3125 38.0801 9.52344C38.2168 9.73438 38.3906 9.90039 38.6016 10.0215C38.8125 10.1387 39.0645 10.1973 39.3574 10.1973C39.7168 10.1973 40.0117 10.1211 40.2422 9.96875C40.4766 9.81641 40.6641 9.61523 40.8047 9.36523C40.9453 9.11523 41.0547 8.84375 41.1328 8.55078V7.13867C41.0859 6.92383 41.0176 6.7168 40.9277 6.51758C40.8418 6.31445 40.7285 6.13477 40.5879 5.97852C40.4512 5.81836 40.2812 5.69141 40.0781 5.59766C39.8789 5.50391 39.6426 5.45703 39.3691 5.45703C39.0723 5.45703 38.8164 5.51953 38.6016 5.64453C38.3906 5.76562 38.2168 5.93359 38.0801 6.14844C37.9434 6.35938 37.8418 6.60547 37.7754 6.88672C37.7129 7.16406 37.6816 7.46094 37.6816 7.77734ZM46.2656 11.1172C45.8242 11.1172 45.4238 11.043 45.0645 10.8945C44.709 10.7422 44.4023 10.5293 44.1445 10.2559C43.8906 9.98242 43.6953 9.6582 43.5586 9.2832C43.4219 8.9082 43.3535 8.49805 43.3535 8.05273V7.80664C43.3535 7.29102 43.4297 6.83203 43.582 6.42969C43.7344 6.02344 43.9414 5.67969 44.2031 5.39844C44.4648 5.11719 44.7617 4.9043 45.0938 4.75977C45.4258 4.61523 45.7695 4.54297 46.125 4.54297C46.5781 4.54297 46.9688 4.62109 47.2969 4.77734C47.6289 4.93359 47.9004 5.15234 48.1113 5.43359C48.3223 5.71094 48.4785 6.03906 48.5801 6.41797C48.6816 6.79297 48.7324 7.20312 48.7324 7.64844V8.13477H43.998V7.25H47.6484V7.16797C47.6328 6.88672 47.5742 6.61328 47.4727 6.34766C47.375 6.08203 47.2188 5.86328 47.0039 5.69141C46.7891 5.51953 46.4961 5.43359 46.125 5.43359C45.8789 5.43359 45.6523 5.48633 45.4453 5.5918C45.2383 5.69336 45.0605 5.8457 44.9121 6.04883C44.7637 6.25195 44.6484 6.5 44.5664 6.79297C44.4844 7.08594 44.4434 7.42383 44.4434 7.80664V8.05273C44.4434 8.35352 44.4844 8.63672 44.5664 8.90234C44.6523 9.16406 44.7754 9.39453 44.9355 9.59375C45.0996 9.79297 45.2969 9.94922 45.5273 10.0625C45.7617 10.1758 46.0273 10.2324 46.3242 10.2324C46.707 10.2324 47.0312 10.1543 47.2969 9.99805C47.5625 9.8418 47.7949 9.63281 47.9941 9.37109L48.6504 9.89258C48.5137 10.0996 48.3398 10.2969 48.1289 10.4844C47.918 10.6719 47.6582 10.8242 47.3496 10.9414C47.0449 11.0586 46.6836 11.1172 46.2656 11.1172ZM56.2969 3.22461L53.4727 11H52.3184L55.5703 2.46875H56.3145L56.2969 3.22461ZM58.6641 11L55.834 3.22461L55.8164 2.46875H56.5605L59.8242 11H58.6641ZM58.5176 7.8418V8.76758H53.7246V7.8418H58.5176ZM62.4375 10.0215L64.1719 4.66016H65.2793L63 11H62.2734L62.4375 10.0215ZM60.9902 4.66016L62.7773 10.0508L62.9004 11H62.1738L59.877 4.66016H60.9902ZM69.9668 9.91602V6.65234C69.9668 6.40234 69.916 6.18555 69.8145 6.00195C69.7168 5.81445 69.5684 5.66992 69.3691 5.56836C69.1699 5.4668 68.9238 5.41602 68.6309 5.41602C68.3574 5.41602 68.1172 5.46289 67.9102 5.55664C67.707 5.65039 67.5469 5.77344 67.4297 5.92578C67.3164 6.07812 67.2598 6.24219 67.2598 6.41797H66.1758C66.1758 6.19141 66.2344 5.9668 66.3516 5.74414C66.4688 5.52148 66.6367 5.32031 66.8555 5.14062C67.0781 4.95703 67.3438 4.8125 67.6523 4.70703C67.9648 4.59766 68.3125 4.54297 68.6953 4.54297C69.1562 4.54297 69.5625 4.62109 69.9141 4.77734C70.2695 4.93359 70.5469 5.16992 70.7461 5.48633C70.9492 5.79883 71.0508 6.19141 71.0508 6.66406V9.61719C71.0508 9.82812 71.0684 10.0527 71.1035 10.291C71.1426 10.5293 71.1992 10.7344 71.2734 10.9062V11H70.1426C70.0879 10.875 70.0449 10.709 70.0137 10.502C69.9824 10.291 69.9668 10.0957 69.9668 9.91602ZM70.1543 7.15625L70.166 7.91797H69.0703C68.7617 7.91797 68.4863 7.94336 68.2441 7.99414C68.002 8.04102 67.7988 8.11328 67.6348 8.21094C67.4707 8.30859 67.3457 8.43164 67.2598 8.58008C67.1738 8.72461 67.1309 8.89453 67.1309 9.08984C67.1309 9.28906 67.1758 9.4707 67.2656 9.63477C67.3555 9.79883 67.4902 9.92969 67.6699 10.0273C67.8535 10.1211 68.0781 10.168 68.3438 10.168C68.6758 10.168 68.9688 10.0977 69.2227 9.95703C69.4766 9.81641 69.6777 9.64453 69.8262 9.44141C69.9785 9.23828 70.0605 9.04102 70.0723 8.84961L70.5352 9.37109C70.5078 9.53516 70.4336 9.7168 70.3125 9.91602C70.1914 10.1152 70.0293 10.3066 69.8262 10.4902C69.627 10.6699 69.3887 10.8203 69.1113 10.9414C68.8379 11.0586 68.5293 11.1172 68.1855 11.1172C67.7559 11.1172 67.3789 11.0332 67.0547 10.8652C66.7344 10.6973 66.4844 10.4727 66.3047 10.1914C66.1289 9.90625 66.041 9.58789 66.041 9.23633C66.041 8.89648 66.1074 8.59766 66.2402 8.33984C66.373 8.07812 66.5645 7.86133 66.8145 7.68945C67.0645 7.51367 67.3652 7.38086 67.7168 7.29102C68.0684 7.20117 68.4609 7.15625 68.8945 7.15625H70.1543ZM73.9336 2V11H72.8438V2H73.9336ZM76.8516 4.66016V11H75.7617V4.66016H76.8516ZM75.6797 2.97852C75.6797 2.80273 75.7324 2.6543 75.8379 2.5332C75.9473 2.41211 76.1074 2.35156 76.3184 2.35156C76.5254 2.35156 76.6836 2.41211 76.793 2.5332C76.9062 2.6543 76.9629 2.80273 76.9629 2.97852C76.9629 3.14648 76.9062 3.29102 76.793 3.41211C76.6836 3.5293 76.5254 3.58789 76.3184 3.58789C76.1074 3.58789 75.9473 3.5293 75.8379 3.41211C75.7324 3.29102 75.6797 3.14648 75.6797 2.97852ZM82.3301 9.91602V6.65234C82.3301 6.40234 82.2793 6.18555 82.1777 6.00195C82.0801 5.81445 81.9316 5.66992 81.7324 5.56836C81.5332 5.4668 81.2871 5.41602 80.9941 5.41602C80.7207 5.41602 80.4805 5.46289 80.2734 5.55664C80.0703 5.65039 79.9102 5.77344 79.793 5.92578C79.6797 6.07812 79.623 6.24219 79.623 6.41797H78.5391C78.5391 6.19141 78.5977 5.9668 78.7148 5.74414C78.832 5.52148 79 5.32031 79.2188 5.14062C79.4414 4.95703 79.707 4.8125 80.0156 4.70703C80.3281 4.59766 80.6758 4.54297 81.0586 4.54297C81.5195 4.54297 81.9258 4.62109 82.2773 4.77734C82.6328 4.93359 82.9102 5.16992 83.1094 5.48633C83.3125 5.79883 83.4141 6.19141 83.4141 6.66406V9.61719C83.4141 9.82812 83.4316 10.0527 83.4668 10.291C83.5059 10.5293 83.5625 10.7344 83.6367 10.9062V11H82.5059C82.4512 10.875 82.4082 10.709 82.377 10.502C82.3457 10.291 82.3301 10.0957 82.3301 9.91602ZM82.5176 7.15625L82.5293 7.91797H81.4336C81.125 7.91797 80.8496 7.94336 80.6074 7.99414C80.3652 8.04102 80.1621 8.11328 79.998 8.21094C79.834 8.30859 79.709 8.43164 79.623 8.58008C79.5371 8.72461 79.4941 8.89453 79.4941 9.08984C79.4941 9.28906 79.5391 9.4707 79.6289 9.63477C79.7188 9.79883 79.8535 9.92969 80.0332 10.0273C80.2168 10.1211 80.4414 10.168 80.707 10.168C81.0391 10.168 81.332 10.0977 81.5859 9.95703C81.8398 9.81641 82.041 9.64453 82.1895 9.44141C82.3418 9.23828 82.4238 9.04102 82.4355 8.84961L82.8984 9.37109C82.8711 9.53516 82.7969 9.7168 82.6758 9.91602C82.5547 10.1152 82.3926 10.3066 82.1895 10.4902C81.9902 10.6699 81.752 10.8203 81.4746 10.9414C81.2012 11.0586 80.8926 11.1172 80.5488 11.1172C80.1191 11.1172 79.7422 11.0332 79.418 10.8652C79.0977 10.6973 78.8477 10.4727 78.668 10.1914C78.4922 9.90625 78.4043 9.58789 78.4043 9.23633C78.4043 8.89648 78.4707 8.59766 78.6035 8.33984C78.7363 8.07812 78.9277 7.86133 79.1777 7.68945C79.4277 7.51367 79.7285 7.38086 80.0801 7.29102C80.4316 7.20117 80.8242 7.15625 81.2578 7.15625H82.5176ZM87.6562 10.2266C87.9141 10.2266 88.1523 10.1738 88.3711 10.0684C88.5898 9.96289 88.7695 9.81836 88.9102 9.63477C89.0508 9.44727 89.1309 9.23438 89.1504 8.99609H90.1816C90.1621 9.37109 90.0352 9.7207 89.8008 10.0449C89.5703 10.3652 89.2676 10.625 88.8926 10.8242C88.5176 11.0195 88.1055 11.1172 87.6562 11.1172C87.1797 11.1172 86.7637 11.0332 86.4082 10.8652C86.0566 10.6973 85.7637 10.4668 85.5293 10.1738C85.2988 9.88086 85.125 9.54492 85.0078 9.16602C84.8945 8.7832 84.8379 8.37891 84.8379 7.95312V7.70703C84.8379 7.28125 84.8945 6.87891 85.0078 6.5C85.125 6.11719 85.2988 5.7793 85.5293 5.48633C85.7637 5.19336 86.0566 4.96289 86.4082 4.79492C86.7637 4.62695 87.1797 4.54297 87.6562 4.54297C88.1523 4.54297 88.5859 4.64453 88.957 4.84766C89.3281 5.04688 89.6191 5.32031 89.8301 5.66797C90.0449 6.01172 90.1621 6.40234 90.1816 6.83984H89.1504C89.1309 6.57812 89.0566 6.3418 88.9277 6.13086C88.8027 5.91992 88.6309 5.75195 88.4121 5.62695C88.1973 5.49805 87.9453 5.43359 87.6562 5.43359C87.3242 5.43359 87.0449 5.5 86.8184 5.63281C86.5957 5.76172 86.418 5.9375 86.2852 6.16016C86.1562 6.37891 86.0625 6.62305 86.0039 6.89258C85.9492 7.1582 85.9219 7.42969 85.9219 7.70703V7.95312C85.9219 8.23047 85.9492 8.50391 86.0039 8.77344C86.0586 9.04297 86.1504 9.28711 86.2793 9.50586C86.4121 9.72461 86.5898 9.90039 86.8125 10.0332C87.0391 10.1621 87.3203 10.2266 87.6562 10.2266ZM87.0586 11.0586H87.8379L87.7676 11.3691C87.9941 11.4082 88.1992 11.502 88.3828 11.6504C88.5703 11.7988 88.6641 12.043 88.6641 12.3828C88.6641 12.5664 88.625 12.7324 88.5469 12.8809C88.4727 13.0332 88.3613 13.1621 88.2129 13.2676C88.0645 13.377 87.8789 13.4609 87.6562 13.5195C87.4375 13.5781 87.1816 13.6074 86.8887 13.6074L86.8477 12.9805C87.0273 12.9805 87.1895 12.9609 87.334 12.9219C87.4824 12.8828 87.5996 12.8203 87.6855 12.7344C87.7754 12.6484 87.8203 12.5371 87.8203 12.4004C87.8203 12.2715 87.7871 12.1699 87.7207 12.0957C87.6543 12.0215 87.5508 11.9648 87.4102 11.9258C87.2734 11.8906 87.0957 11.8652 86.877 11.8496L87.0586 11.0586ZM95.1387 9.91602V6.65234C95.1387 6.40234 95.0879 6.18555 94.9863 6.00195C94.8887 5.81445 94.7402 5.66992 94.541 5.56836C94.3418 5.4668 94.0957 5.41602 93.8027 5.41602C93.5293 5.41602 93.2891 5.46289 93.082 5.55664C92.8789 5.65039 92.7188 5.77344 92.6016 5.92578C92.4883 6.07812 92.4316 6.24219 92.4316 6.41797H91.3477C91.3477 6.19141 91.4062 5.9668 91.5234 5.74414C91.6406 5.52148 91.8086 5.32031 92.0273 5.14062C92.25 4.95703 92.5156 4.8125 92.8242 4.70703C93.1367 4.59766 93.4844 4.54297 93.8672 4.54297C94.3281 4.54297 94.7344 4.62109 95.0859 4.77734C95.4414 4.93359 95.7188 5.16992 95.918 5.48633C96.1211 5.79883 96.2227 6.19141 96.2227 6.66406V9.61719C96.2227 9.82812 96.2402 10.0527 96.2754 10.291C96.3145 10.5293 96.3711 10.7344 96.4453 10.9062V11H95.3145C95.2598 10.875 95.2168 10.709 95.1855 10.502C95.1543 10.291 95.1387 10.0957 95.1387 9.91602ZM95.3262 7.15625L95.3379 7.91797H94.2422C93.9336 7.91797 93.6582 7.94336 93.416 7.99414C93.1738 8.04102 92.9707 8.11328 92.8066 8.21094C92.6426 8.30859 92.5176 8.43164 92.4316 8.58008C92.3457 8.72461 92.3027 8.89453 92.3027 9.08984C92.3027 9.28906 92.3477 9.4707 92.4375 9.63477C92.5273 9.79883 92.6621 9.92969 92.8418 10.0273C93.0254 10.1211 93.25 10.168 93.5156 10.168C93.8477 10.168 94.1406 10.0977 94.3945 9.95703C94.6484 9.81641 94.8496 9.64453 94.998 9.44141C95.1504 9.23828 95.2324 9.04102 95.2441 8.84961L95.707 9.37109C95.6797 9.53516 95.6055 9.7168 95.4844 9.91602C95.3633 10.1152 95.2012 10.3066 94.998 10.4902C94.7988 10.6699 94.5605 10.8203 94.2832 10.9414C94.0098 11.0586 93.7012 11.1172 93.3574 11.1172C92.9277 11.1172 92.5508 11.0332 92.2266 10.8652C91.9062 10.6973 91.6562 10.4727 91.4766 10.1914C91.3008 9.90625 91.2129 9.58789 91.2129 9.23633C91.2129 8.89648 91.2793 8.59766 91.4121 8.33984C91.5449 8.07812 91.7363 7.86133 91.9863 7.68945C92.2363 7.51367 92.5371 7.38086 92.8887 7.29102C93.2402 7.20117 93.6328 7.15625 94.0664 7.15625H95.3262ZM95.332 2.11719L96.0645 2.18164C96.0645 2.4668 96.0078 2.7168 95.8945 2.93164C95.7812 3.14648 95.6289 3.3125 95.4375 3.42969C95.25 3.54688 95.0371 3.60547 94.7988 3.60547C94.5996 3.60547 94.4355 3.57812 94.3066 3.52344C94.1777 3.46484 94.0625 3.40039 93.9609 3.33008C93.8594 3.25586 93.752 3.19141 93.6387 3.13672C93.5293 3.07812 93.3926 3.04883 93.2285 3.04883C93.0645 3.04883 92.9258 3.11133 92.8125 3.23633C92.7031 3.36133 92.6484 3.51563 92.6484 3.69922L91.916 3.66406C91.916 3.37891 91.9707 3.12891 92.0801 2.91406C92.1934 2.69531 92.3457 2.52539 92.5371 2.4043C92.7285 2.2793 92.9414 2.2168 93.1758 2.2168C93.3438 2.2168 93.4902 2.24609 93.6152 2.30469C93.7441 2.35937 93.8652 2.42383 93.9785 2.49805C94.0918 2.56836 94.209 2.63281 94.3301 2.69141C94.4512 2.74609 94.5898 2.77344 94.7461 2.77344C94.9102 2.77344 95.0488 2.71094 95.1621 2.58594C95.2754 2.45703 95.332 2.30078 95.332 2.11719ZM97.6406 7.90039V7.76562C97.6406 7.30859 97.707 6.88477 97.8398 6.49414C97.9727 6.09961 98.1641 5.75781 98.4141 5.46875C98.6641 5.17578 98.9668 4.94922 99.3223 4.78906C99.6777 4.625 100.076 4.54297 100.518 4.54297C100.963 4.54297 101.363 4.625 101.719 4.78906C102.078 4.94922 102.383 5.17578 102.633 5.46875C102.887 5.75781 103.08 6.09961 103.213 6.49414C103.346 6.88477 103.412 7.30859 103.412 7.76562V7.90039C103.412 8.35742 103.346 8.78125 103.213 9.17188C103.08 9.5625 102.887 9.9043 102.633 10.1973C102.383 10.4863 102.08 10.7129 101.725 10.877C101.373 11.0371 100.975 11.1172 100.529 11.1172C100.084 11.1172 99.6836 11.0371 99.3281 10.877C98.9727 10.7129 98.668 10.4863 98.4141 10.1973C98.1641 9.9043 97.9727 9.5625 97.8398 9.17188C97.707 8.78125 97.6406 8.35742 97.6406 7.90039ZM98.7246 7.76562V7.90039C98.7246 8.2168 98.7617 8.51562 98.8359 8.79688C98.9102 9.07422 99.0215 9.32031 99.1699 9.53516C99.3223 9.75 99.5117 9.91992 99.7383 10.0449C99.9648 10.166 100.229 10.2266 100.529 10.2266C100.826 10.2266 101.086 10.166 101.309 10.0449C101.535 9.91992 101.723 9.75 101.871 9.53516C102.02 9.32031 102.131 9.07422 102.205 8.79688C102.283 8.51562 102.322 8.2168 102.322 7.90039V7.76562C102.322 7.45312 102.283 7.1582 102.205 6.88086C102.131 6.59961 102.018 6.35156 101.865 6.13672C101.717 5.91797 101.529 5.74609 101.303 5.62109C101.08 5.49609 100.818 5.43359 100.518 5.43359C100.221 5.43359 99.959 5.49609 99.7324 5.62109C99.5098 5.74609 99.3223 5.91797 99.1699 6.13672C99.0215 6.35156 98.9102 6.59961 98.8359 6.88086C98.7617 7.1582 98.7246 7.45312 98.7246 7.76562Z" fill="#707070"/>
<path d="M29.2959 129.523L31.9893 131.656L30.6973 132.777L28.0449 130.645L29.2959 129.523ZM32.0576 125.791V126.263C32.0576 127.019 31.9551 127.698 31.75 128.3C31.5495 128.901 31.2601 129.414 30.8818 129.838C30.5036 130.257 30.057 130.578 29.542 130.802C29.027 131.025 28.4551 131.137 27.8262 131.137C27.2018 131.137 26.6299 131.025 26.1104 130.802C25.5908 130.578 25.1419 130.257 24.7637 129.838C24.3854 129.414 24.0915 128.901 23.8818 128.3C23.6768 127.698 23.5742 127.019 23.5742 126.263V125.791C23.5742 125.03 23.6768 124.351 23.8818 123.754C24.0915 123.152 24.3831 122.64 24.7568 122.216C25.1305 121.792 25.5771 121.468 26.0967 121.245C26.6162 121.022 27.1882 120.91 27.8125 120.91C28.4414 120.91 29.0133 121.022 29.5283 121.245C30.0479 121.468 30.4967 121.792 30.875 122.216C31.2533 122.64 31.5449 123.152 31.75 123.754C31.9551 124.351 32.0576 125.03 32.0576 125.791ZM29.9863 126.263V125.777C29.9863 125.249 29.9362 124.784 29.8359 124.383C29.7402 123.982 29.599 123.645 29.4121 123.371C29.2298 123.098 29.0042 122.893 28.7354 122.756C28.4665 122.615 28.1589 122.544 27.8125 122.544C27.4661 122.544 27.1585 122.615 26.8896 122.756C26.6208 122.893 26.3952 123.098 26.2129 123.371C26.0306 123.645 25.8916 123.982 25.7959 124.383C25.7002 124.784 25.6523 125.249 25.6523 125.777V126.263C25.6523 126.787 25.7002 127.252 25.7959 127.657C25.8916 128.058 26.0306 128.398 26.2129 128.676C26.3997 128.949 26.6276 129.157 26.8965 129.298C27.1699 129.439 27.4798 129.51 27.8262 129.51C28.1725 129.51 28.4779 129.439 28.7422 129.298C29.0111 129.157 29.2367 128.949 29.4189 128.676C29.6058 128.398 29.7471 128.058 29.8428 127.657C29.9385 127.252 29.9863 126.787 29.9863 126.263ZM35.7525 125.169H36.8053C37.1425 125.169 37.4205 125.112 37.6393 124.998C37.858 124.88 38.0198 124.715 38.1246 124.506C38.234 124.292 38.2887 124.043 38.2887 123.761C38.2887 123.506 38.2385 123.28 38.1383 123.084C38.0426 122.883 37.8945 122.729 37.6939 122.619C37.4934 122.505 37.2405 122.448 36.9352 122.448C36.6936 122.448 36.4703 122.496 36.2652 122.592C36.0602 122.688 35.8961 122.822 35.773 122.995C35.65 123.168 35.5885 123.378 35.5885 123.624H33.6129C33.6129 123.077 33.7587 122.601 34.0504 122.195C34.3466 121.79 34.7431 121.473 35.2398 121.245C35.7366 121.017 36.2835 120.903 36.8805 120.903C37.5549 120.903 38.1451 121.013 38.651 121.231C39.1568 121.446 39.551 121.762 39.8336 122.182C40.1161 122.601 40.2574 123.12 40.2574 123.74C40.2574 124.055 40.1845 124.36 40.0387 124.656C39.8928 124.948 39.6832 125.212 39.4098 125.449C39.1409 125.682 38.8128 125.868 38.4254 126.01C38.038 126.146 37.6028 126.215 37.1197 126.215H35.7525V125.169ZM35.7525 126.666V125.647H37.1197C37.662 125.647 38.1383 125.709 38.5484 125.832C38.9586 125.955 39.3027 126.133 39.5807 126.365C39.8587 126.593 40.0683 126.864 40.2096 127.179C40.3508 127.489 40.4215 127.833 40.4215 128.211C40.4215 128.676 40.3326 129.09 40.1549 129.455C39.9771 129.815 39.7265 130.12 39.4029 130.371C39.0839 130.622 38.7102 130.813 38.2818 130.945C37.8535 131.073 37.3863 131.137 36.8805 131.137C36.4612 131.137 36.0488 131.08 35.6432 130.966C35.2421 130.847 34.8775 130.672 34.5494 130.439C34.2258 130.202 33.9661 129.906 33.7701 129.551C33.5787 129.191 33.483 128.765 33.483 128.272H35.4586C35.4586 128.528 35.5224 128.756 35.65 128.956C35.7776 129.157 35.9531 129.314 36.1764 129.428C36.4042 129.542 36.6572 129.599 36.9352 129.599C37.2496 129.599 37.5185 129.542 37.7418 129.428C37.9697 129.309 38.1428 129.145 38.2613 128.936C38.3844 128.721 38.4459 128.473 38.4459 128.19C38.4459 127.826 38.3798 127.534 38.2477 127.315C38.1155 127.092 37.9264 126.928 37.6803 126.823C37.4342 126.718 37.1425 126.666 36.8053 126.666H35.7525ZM46.509 121.047L42.8586 131.854H41.3957L45.0461 121.047H46.509ZM54.5789 129.462V131H47.7703V129.688L50.99 126.235C51.3136 125.875 51.5688 125.559 51.7557 125.285C51.9425 125.007 52.077 124.759 52.159 124.54C52.2456 124.317 52.2889 124.105 52.2889 123.904C52.2889 123.604 52.2387 123.346 52.1385 123.132C52.0382 122.913 51.8901 122.744 51.6941 122.626C51.5027 122.507 51.2658 122.448 50.9832 122.448C50.6824 122.448 50.4227 122.521 50.2039 122.667C49.9897 122.813 49.8257 123.016 49.7117 123.275C49.6023 123.535 49.5477 123.829 49.5477 124.157H47.5721C47.5721 123.565 47.7133 123.022 47.9959 122.53C48.2785 122.034 48.6772 121.639 49.1922 121.348C49.7072 121.051 50.3178 120.903 51.0242 120.903C51.7215 120.903 52.3094 121.017 52.7879 121.245C53.271 121.468 53.6355 121.792 53.8816 122.216C54.1323 122.635 54.2576 123.136 54.2576 123.72C54.2576 124.048 54.2052 124.369 54.1004 124.684C53.9956 124.993 53.8452 125.303 53.6492 125.613C53.4578 125.919 53.2254 126.229 52.952 126.543C52.6785 126.857 52.3755 127.183 52.0428 127.521L50.3133 129.462H54.5789ZM62.9086 125.148V126.871C62.9086 127.618 62.8288 128.263 62.6693 128.806C62.5098 129.343 62.2797 129.785 61.9789 130.132C61.6827 130.474 61.3295 130.727 60.9193 130.891C60.5092 131.055 60.0534 131.137 59.5521 131.137C59.1511 131.137 58.7774 131.087 58.4311 130.986C58.0847 130.882 57.7725 130.72 57.4945 130.501C57.2211 130.282 56.9841 130.007 56.7836 129.674C56.5876 129.337 56.4372 128.936 56.3324 128.471C56.2276 128.006 56.1752 127.473 56.1752 126.871V125.148C56.1752 124.401 56.2549 123.761 56.4145 123.228C56.5785 122.69 56.8087 122.25 57.1049 121.908C57.4057 121.566 57.7611 121.316 58.1713 121.156C58.5814 120.992 59.0372 120.91 59.5385 120.91C59.9395 120.91 60.3109 120.963 60.6527 121.067C60.9991 121.168 61.3113 121.325 61.5893 121.539C61.8673 121.753 62.1042 122.029 62.3002 122.366C62.4962 122.699 62.6465 123.098 62.7514 123.562C62.8562 124.023 62.9086 124.551 62.9086 125.148ZM60.933 127.131V124.882C60.933 124.522 60.9125 124.207 60.8715 123.938C60.835 123.67 60.7781 123.442 60.7006 123.255C60.6231 123.063 60.5274 122.909 60.4135 122.79C60.2995 122.672 60.1697 122.585 60.0238 122.53C59.878 122.476 59.7162 122.448 59.5385 122.448C59.3152 122.448 59.1169 122.492 58.9437 122.578C58.7751 122.665 58.6316 122.804 58.5131 122.995C58.3946 123.182 58.3034 123.433 58.2396 123.747C58.1804 124.057 58.1508 124.435 58.1508 124.882V127.131C58.1508 127.491 58.169 127.808 58.2055 128.081C58.2465 128.354 58.3057 128.589 58.3832 128.785C58.4652 128.977 58.5609 129.134 58.6703 129.257C58.7842 129.375 58.9141 129.462 59.06 129.517C59.2104 129.571 59.3744 129.599 59.5521 129.599C59.7709 129.599 59.9646 129.555 60.1332 129.469C60.3064 129.378 60.4522 129.236 60.5707 129.045C60.6937 128.849 60.7849 128.594 60.8441 128.279C60.9034 127.965 60.933 127.582 60.933 127.131ZM71.457 129.462V131H64.6484V129.688L67.8682 126.235C68.1917 125.875 68.4469 125.559 68.6338 125.285C68.8206 125.007 68.9551 124.759 69.0371 124.54C69.1237 124.317 69.167 124.105 69.167 123.904C69.167 123.604 69.1169 123.346 69.0166 123.132C68.9163 122.913 68.7682 122.744 68.5723 122.626C68.3809 122.507 68.1439 122.448 67.8613 122.448C67.5605 122.448 67.3008 122.521 67.082 122.667C66.8678 122.813 66.7038 123.016 66.5898 123.275C66.4805 123.535 66.4258 123.829 66.4258 124.157H64.4502C64.4502 123.565 64.5915 123.022 64.874 122.53C65.1566 122.034 65.5553 121.639 66.0703 121.348C66.5853 121.051 67.196 120.903 67.9023 120.903C68.5996 120.903 69.1875 121.017 69.666 121.245C70.1491 121.468 70.5137 121.792 70.7598 122.216C71.0104 122.635 71.1357 123.136 71.1357 123.72C71.1357 124.048 71.0833 124.369 70.9785 124.684C70.8737 124.993 70.7233 125.303 70.5273 125.613C70.3359 125.919 70.1035 126.229 69.8301 126.543C69.5566 126.857 69.2536 127.183 68.9209 127.521L67.1914 129.462H71.457ZM80.0602 127.281V128.826H72.8893L72.7936 127.63L76.943 121.047H78.5084L76.8131 123.884L74.7486 127.281H80.0602ZM78.9322 121.047V131H76.9635V121.047H78.9322Z" fill="#555555"/>
</svg>
