<svg width="154" height="147" viewBox="0 0 154 147" fill="none" xmlns="http://www.w3.org/2000/svg">
<g filter="url(#filter0_d_302_1499)">
<rect x="6" y="2" width="146" height="139" rx="15" fill="white"/>
</g>
<path d="M28.3477 14.4688H29.4434L32.2383 21.4238L35.0273 14.4688H36.1289L32.6602 23H31.8047L28.3477 14.4688ZM27.9902 14.4688H28.957L29.1152 19.6719V23H27.9902V14.4688ZM35.5137 14.4688H36.4805V23H35.3555V19.6719L35.5137 14.4688ZM40.9336 23.1172C40.4922 23.1172 40.0918 23.043 39.7324 22.8945C39.377 22.7422 39.0703 22.5293 38.8125 22.2559C38.5586 21.9824 38.3633 21.6582 38.2266 21.2832C38.0898 20.9082 38.0215 20.498 38.0215 20.0527V19.8066C38.0215 19.291 38.0977 18.832 38.25 18.4297C38.4023 18.0234 38.6094 17.6797 38.8711 17.3984C39.1328 17.1172 39.4297 16.9043 39.7617 16.7598C40.0938 16.6152 40.4375 16.543 40.793 16.543C41.2461 16.543 41.6367 16.6211 41.9648 16.7773C42.2969 16.9336 42.5684 17.1523 42.7793 17.4336C42.9902 17.7109 43.1465 18.0391 43.248 18.418C43.3496 18.793 43.4004 19.2031 43.4004 19.6484V20.1348H38.666V19.25H42.3164V19.168C42.3008 18.8867 42.2422 18.6133 42.1406 18.3477C42.043 18.082 41.8867 17.8633 41.6719 17.6914C41.457 17.5195 41.1641 17.4336 40.793 17.4336C40.5469 17.4336 40.3203 17.4863 40.1133 17.5918C39.9062 17.6934 39.7285 17.8457 39.5801 18.0488C39.4316 18.252 39.3164 18.5 39.2344 18.793C39.1523 19.0859 39.1113 19.4238 39.1113 19.8066V20.0527C39.1113 20.3535 39.1523 20.6367 39.2344 20.9023C39.3203 21.1641 39.4434 21.3945 39.6035 21.5938C39.7676 21.793 39.9648 21.9492 40.1953 22.0625C40.4297 22.1758 40.6953 22.2324 40.9922 22.2324C41.375 22.2324 41.6992 22.1543 41.9648 21.998C42.2305 21.8418 42.4629 21.6328 42.6621 21.3711L43.3184 21.8926C43.1816 22.0996 43.0078 22.2969 42.7969 22.4844C42.5859 22.6719 42.3262 22.8242 42.0176 22.9414C41.7129 23.0586 41.3516 23.1172 40.9336 23.1172ZM40.1895 15.7227L41.3262 14H42.6328L41.0625 15.7227H40.1895ZM48.6621 21.7695V14H49.752V23H48.7559L48.6621 21.7695ZM44.3965 19.9004V19.7773C44.3965 19.293 44.4551 18.8535 44.5723 18.459C44.6934 18.0605 44.8633 17.7188 45.082 17.4336C45.3047 17.1484 45.5684 16.9297 45.873 16.7773C46.1816 16.6211 46.5254 16.543 46.9043 16.543C47.3027 16.543 47.6504 16.6133 47.9473 16.7539C48.248 16.8906 48.502 17.0918 48.709 17.3574C48.9199 17.6191 49.0859 17.9355 49.207 18.3066C49.3281 18.6777 49.4121 19.0977 49.459 19.5664V20.1055C49.416 20.5703 49.332 20.9883 49.207 21.3594C49.0859 21.7305 48.9199 22.0469 48.709 22.3086C48.502 22.5703 48.248 22.7715 47.9473 22.9121C47.6465 23.0488 47.2949 23.1172 46.8926 23.1172C46.5215 23.1172 46.1816 23.0371 45.873 22.877C45.5684 22.7168 45.3047 22.4922 45.082 22.2031C44.8633 21.9141 44.6934 21.5742 44.5723 21.1836C44.4551 20.7891 44.3965 20.3613 44.3965 19.9004ZM45.4863 19.7773V19.9004C45.4863 20.2168 45.5176 20.5137 45.5801 20.791C45.6465 21.0684 45.748 21.3125 45.8848 21.5234C46.0215 21.7344 46.1953 21.9004 46.4062 22.0215C46.6172 22.1387 46.8691 22.1973 47.1621 22.1973C47.5215 22.1973 47.8164 22.1211 48.0469 21.9688C48.2812 21.8164 48.4688 21.6152 48.6094 21.3652C48.75 21.1152 48.8594 20.8438 48.9375 20.5508V19.1387C48.8906 18.9238 48.8223 18.7168 48.7324 18.5176C48.6465 18.3145 48.5332 18.1348 48.3926 17.9785C48.2559 17.8184 48.0859 17.6914 47.8828 17.5977C47.6836 17.5039 47.4473 17.457 47.1738 17.457C46.877 17.457 46.6211 17.5195 46.4062 17.6445C46.1953 17.7656 46.0215 17.9336 45.8848 18.1484C45.748 18.3594 45.6465 18.6055 45.5801 18.8867C45.5176 19.1641 45.4863 19.4609 45.4863 19.7773ZM52.6172 16.6602V23H51.5273V16.6602H52.6172ZM51.4453 14.9785C51.4453 14.8027 51.498 14.6543 51.6035 14.5332C51.7129 14.4121 51.873 14.3516 52.084 14.3516C52.291 14.3516 52.4492 14.4121 52.5586 14.5332C52.6719 14.6543 52.7285 14.8027 52.7285 14.9785C52.7285 15.1465 52.6719 15.291 52.5586 15.4121C52.4492 15.5293 52.291 15.5879 52.084 15.5879C51.873 15.5879 51.7129 15.5293 51.6035 15.4121C51.498 15.291 51.4453 15.1465 51.4453 14.9785ZM58.0957 21.916V18.6523C58.0957 18.4023 58.0449 18.1855 57.9434 18.002C57.8457 17.8145 57.6973 17.6699 57.498 17.5684C57.2988 17.4668 57.0527 17.416 56.7598 17.416C56.4863 17.416 56.2461 17.4629 56.0391 17.5566C55.8359 17.6504 55.6758 17.7734 55.5586 17.9258C55.4453 18.0781 55.3887 18.2422 55.3887 18.418H54.3047C54.3047 18.1914 54.3633 17.9668 54.4805 17.7441C54.5977 17.5215 54.7656 17.3203 54.9844 17.1406C55.207 16.957 55.4727 16.8125 55.7812 16.707C56.0938 16.5977 56.4414 16.543 56.8242 16.543C57.2852 16.543 57.6914 16.6211 58.043 16.7773C58.3984 16.9336 58.6758 17.1699 58.875 17.4863C59.0781 17.7988 59.1797 18.1914 59.1797 18.6641V21.6172C59.1797 21.8281 59.1973 22.0527 59.2324 22.291C59.2715 22.5293 59.3281 22.7344 59.4023 22.9062V23H58.2715C58.2168 22.875 58.1738 22.709 58.1426 22.502C58.1113 22.291 58.0957 22.0957 58.0957 21.916ZM58.2832 19.1562L58.2949 19.918H57.1992C56.8906 19.918 56.6152 19.9434 56.373 19.9941C56.1309 20.041 55.9277 20.1133 55.7637 20.2109C55.5996 20.3086 55.4746 20.4316 55.3887 20.5801C55.3027 20.7246 55.2598 20.8945 55.2598 21.0898C55.2598 21.2891 55.3047 21.4707 55.3945 21.6348C55.4844 21.7988 55.6191 21.9297 55.7988 22.0273C55.9824 22.1211 56.207 22.168 56.4727 22.168C56.8047 22.168 57.0977 22.0977 57.3516 21.957C57.6055 21.8164 57.8066 21.6445 57.9551 21.4414C58.1074 21.2383 58.1895 21.041 58.2012 20.8496L58.6641 21.3711C58.6367 21.5352 58.5625 21.7168 58.4414 21.916C58.3203 22.1152 58.1582 22.3066 57.9551 22.4902C57.7559 22.6699 57.5176 22.8203 57.2402 22.9414C56.9668 23.0586 56.6582 23.1172 56.3145 23.1172C55.8848 23.1172 55.5078 23.0332 55.1836 22.8652C54.8633 22.6973 54.6133 22.4727 54.4336 22.1914C54.2578 21.9062 54.1699 21.5879 54.1699 21.2363C54.1699 20.8965 54.2363 20.5977 54.3691 20.3398C54.502 20.0781 54.6934 19.8613 54.9434 19.6895C55.1934 19.5137 55.4941 19.3809 55.8457 19.291C56.1973 19.2012 56.5898 19.1562 57.0234 19.1562H58.2832ZM67.8574 21.7695V14H68.9473V23H67.9512L67.8574 21.7695ZM63.5918 19.9004V19.7773C63.5918 19.293 63.6504 18.8535 63.7676 18.459C63.8887 18.0605 64.0586 17.7188 64.2773 17.4336C64.5 17.1484 64.7637 16.9297 65.0684 16.7773C65.377 16.6211 65.7207 16.543 66.0996 16.543C66.498 16.543 66.8457 16.6133 67.1426 16.7539C67.4434 16.8906 67.6973 17.0918 67.9043 17.3574C68.1152 17.6191 68.2812 17.9355 68.4023 18.3066C68.5234 18.6777 68.6074 19.0977 68.6543 19.5664V20.1055C68.6113 20.5703 68.5273 20.9883 68.4023 21.3594C68.2812 21.7305 68.1152 22.0469 67.9043 22.3086C67.6973 22.5703 67.4434 22.7715 67.1426 22.9121C66.8418 23.0488 66.4902 23.1172 66.0879 23.1172C65.7168 23.1172 65.377 23.0371 65.0684 22.877C64.7637 22.7168 64.5 22.4922 64.2773 22.2031C64.0586 21.9141 63.8887 21.5742 63.7676 21.1836C63.6504 20.7891 63.5918 20.3613 63.5918 19.9004ZM64.6816 19.7773V19.9004C64.6816 20.2168 64.7129 20.5137 64.7754 20.791C64.8418 21.0684 64.9434 21.3125 65.0801 21.5234C65.2168 21.7344 65.3906 21.9004 65.6016 22.0215C65.8125 22.1387 66.0645 22.1973 66.3574 22.1973C66.7168 22.1973 67.0117 22.1211 67.2422 21.9688C67.4766 21.8164 67.6641 21.6152 67.8047 21.3652C67.9453 21.1152 68.0547 20.8438 68.1328 20.5508V19.1387C68.0859 18.9238 68.0176 18.7168 67.9277 18.5176C67.8418 18.3145 67.7285 18.1348 67.5879 17.9785C67.4512 17.8184 67.2812 17.6914 67.0781 17.5977C66.8789 17.5039 66.6426 17.457 66.3691 17.457C66.0723 17.457 65.8164 17.5195 65.6016 17.6445C65.3906 17.7656 65.2168 17.9336 65.0801 18.1484C64.9434 18.3594 64.8418 18.6055 64.7754 18.8867C64.7129 19.1641 64.6816 19.4609 64.6816 19.7773ZM73.2656 23.1172C72.8242 23.1172 72.4238 23.043 72.0645 22.8945C71.709 22.7422 71.4023 22.5293 71.1445 22.2559C70.8906 21.9824 70.6953 21.6582 70.5586 21.2832C70.4219 20.9082 70.3535 20.498 70.3535 20.0527V19.8066C70.3535 19.291 70.4297 18.832 70.582 18.4297C70.7344 18.0234 70.9414 17.6797 71.2031 17.3984C71.4648 17.1172 71.7617 16.9043 72.0938 16.7598C72.4258 16.6152 72.7695 16.543 73.125 16.543C73.5781 16.543 73.9688 16.6211 74.2969 16.7773C74.6289 16.9336 74.9004 17.1523 75.1113 17.4336C75.3223 17.7109 75.4785 18.0391 75.5801 18.418C75.6816 18.793 75.7324 19.2031 75.7324 19.6484V20.1348H70.998V19.25H74.6484V19.168C74.6328 18.8867 74.5742 18.6133 74.4727 18.3477C74.375 18.082 74.2188 17.8633 74.0039 17.6914C73.7891 17.5195 73.4961 17.4336 73.125 17.4336C72.8789 17.4336 72.6523 17.4863 72.4453 17.5918C72.2383 17.6934 72.0605 17.8457 71.9121 18.0488C71.7637 18.252 71.6484 18.5 71.5664 18.793C71.4844 19.0859 71.4434 19.4238 71.4434 19.8066V20.0527C71.4434 20.3535 71.4844 20.6367 71.5664 20.9023C71.6523 21.1641 71.7754 21.3945 71.9355 21.5938C72.0996 21.793 72.2969 21.9492 72.5273 22.0625C72.7617 22.1758 73.0273 22.2324 73.3242 22.2324C73.707 22.2324 74.0312 22.1543 74.2969 21.998C74.5625 21.8418 74.7949 21.6328 74.9941 21.3711L75.6504 21.8926C75.5137 22.0996 75.3398 22.2969 75.1289 22.4844C74.918 22.6719 74.6582 22.8242 74.3496 22.9414C74.0449 23.0586 73.6836 23.1172 73.2656 23.1172ZM83.2969 15.2246L80.4727 23H79.3184L82.5703 14.4688H83.3145L83.2969 15.2246ZM85.6641 23L82.834 15.2246L82.8164 14.4688H83.5605L86.8242 23H85.6641ZM85.5176 19.8418V20.7676H80.7246V19.8418H85.5176ZM89.4375 22.0215L91.1719 16.6602H92.2793L90 23H89.2734L89.4375 22.0215ZM87.9902 16.6602L89.7773 22.0508L89.9004 23H89.1738L86.877 16.6602H87.9902ZM96.9668 21.916V18.6523C96.9668 18.4023 96.916 18.1855 96.8145 18.002C96.7168 17.8145 96.5684 17.6699 96.3691 17.5684C96.1699 17.4668 95.9238 17.416 95.6309 17.416C95.3574 17.416 95.1172 17.4629 94.9102 17.5566C94.707 17.6504 94.5469 17.7734 94.4297 17.9258C94.3164 18.0781 94.2598 18.2422 94.2598 18.418H93.1758C93.1758 18.1914 93.2344 17.9668 93.3516 17.7441C93.4688 17.5215 93.6367 17.3203 93.8555 17.1406C94.0781 16.957 94.3438 16.8125 94.6523 16.707C94.9648 16.5977 95.3125 16.543 95.6953 16.543C96.1562 16.543 96.5625 16.6211 96.9141 16.7773C97.2695 16.9336 97.5469 17.1699 97.7461 17.4863C97.9492 17.7988 98.0508 18.1914 98.0508 18.6641V21.6172C98.0508 21.8281 98.0684 22.0527 98.1035 22.291C98.1426 22.5293 98.1992 22.7344 98.2734 22.9062V23H97.1426C97.0879 22.875 97.0449 22.709 97.0137 22.502C96.9824 22.291 96.9668 22.0957 96.9668 21.916ZM97.1543 19.1562L97.166 19.918H96.0703C95.7617 19.918 95.4863 19.9434 95.2441 19.9941C95.002 20.041 94.7988 20.1133 94.6348 20.2109C94.4707 20.3086 94.3457 20.4316 94.2598 20.5801C94.1738 20.7246 94.1309 20.8945 94.1309 21.0898C94.1309 21.2891 94.1758 21.4707 94.2656 21.6348C94.3555 21.7988 94.4902 21.9297 94.6699 22.0273C94.8535 22.1211 95.0781 22.168 95.3438 22.168C95.6758 22.168 95.9688 22.0977 96.2227 21.957C96.4766 21.8164 96.6777 21.6445 96.8262 21.4414C96.9785 21.2383 97.0605 21.041 97.0723 20.8496L97.5352 21.3711C97.5078 21.5352 97.4336 21.7168 97.3125 21.916C97.1914 22.1152 97.0293 22.3066 96.8262 22.4902C96.627 22.6699 96.3887 22.8203 96.1113 22.9414C95.8379 23.0586 95.5293 23.1172 95.1855 23.1172C94.7559 23.1172 94.3789 23.0332 94.0547 22.8652C93.7344 22.6973 93.4844 22.4727 93.3047 22.1914C93.1289 21.9062 93.041 21.5879 93.041 21.2363C93.041 20.8965 93.1074 20.5977 93.2402 20.3398C93.373 20.0781 93.5645 19.8613 93.8145 19.6895C94.0645 19.5137 94.3652 19.3809 94.7168 19.291C95.0684 19.2012 95.4609 19.1562 95.8945 19.1562H97.1543ZM100.934 14V23H99.8438V14H100.934ZM103.852 16.6602V23H102.762V16.6602H103.852ZM102.68 14.9785C102.68 14.8027 102.732 14.6543 102.838 14.5332C102.947 14.4121 103.107 14.3516 103.318 14.3516C103.525 14.3516 103.684 14.4121 103.793 14.5332C103.906 14.6543 103.963 14.8027 103.963 14.9785C103.963 15.1465 103.906 15.291 103.793 15.4121C103.684 15.5293 103.525 15.5879 103.318 15.5879C103.107 15.5879 102.947 15.5293 102.838 15.4121C102.732 15.291 102.68 15.1465 102.68 14.9785ZM109.33 21.916V18.6523C109.33 18.4023 109.279 18.1855 109.178 18.002C109.08 17.8145 108.932 17.6699 108.732 17.5684C108.533 17.4668 108.287 17.416 107.994 17.416C107.721 17.416 107.48 17.4629 107.273 17.5566C107.07 17.6504 106.91 17.7734 106.793 17.9258C106.68 18.0781 106.623 18.2422 106.623 18.418H105.539C105.539 18.1914 105.598 17.9668 105.715 17.7441C105.832 17.5215 106 17.3203 106.219 17.1406C106.441 16.957 106.707 16.8125 107.016 16.707C107.328 16.5977 107.676 16.543 108.059 16.543C108.52 16.543 108.926 16.6211 109.277 16.7773C109.633 16.9336 109.91 17.1699 110.109 17.4863C110.312 17.7988 110.414 18.1914 110.414 18.6641V21.6172C110.414 21.8281 110.432 22.0527 110.467 22.291C110.506 22.5293 110.562 22.7344 110.637 22.9062V23H109.506C109.451 22.875 109.408 22.709 109.377 22.502C109.346 22.291 109.33 22.0957 109.33 21.916ZM109.518 19.1562L109.529 19.918H108.434C108.125 19.918 107.85 19.9434 107.607 19.9941C107.365 20.041 107.162 20.1133 106.998 20.2109C106.834 20.3086 106.709 20.4316 106.623 20.5801C106.537 20.7246 106.494 20.8945 106.494 21.0898C106.494 21.2891 106.539 21.4707 106.629 21.6348C106.719 21.7988 106.854 21.9297 107.033 22.0273C107.217 22.1211 107.441 22.168 107.707 22.168C108.039 22.168 108.332 22.0977 108.586 21.957C108.84 21.8164 109.041 21.6445 109.189 21.4414C109.342 21.2383 109.424 21.041 109.436 20.8496L109.898 21.3711C109.871 21.5352 109.797 21.7168 109.676 21.916C109.555 22.1152 109.393 22.3066 109.189 22.4902C108.99 22.6699 108.752 22.8203 108.475 22.9414C108.201 23.0586 107.893 23.1172 107.549 23.1172C107.119 23.1172 106.742 23.0332 106.418 22.8652C106.098 22.6973 105.848 22.4727 105.668 22.1914C105.492 21.9062 105.404 21.5879 105.404 21.2363C105.404 20.8965 105.471 20.5977 105.604 20.3398C105.736 20.0781 105.928 19.8613 106.178 19.6895C106.428 19.5137 106.729 19.3809 107.08 19.291C107.432 19.2012 107.824 19.1562 108.258 19.1562H109.518ZM114.656 22.2266C114.914 22.2266 115.152 22.1738 115.371 22.0684C115.59 21.9629 115.77 21.8184 115.91 21.6348C116.051 21.4473 116.131 21.2344 116.15 20.9961H117.182C117.162 21.3711 117.035 21.7207 116.801 22.0449C116.57 22.3652 116.268 22.625 115.893 22.8242C115.518 23.0195 115.105 23.1172 114.656 23.1172C114.18 23.1172 113.764 23.0332 113.408 22.8652C113.057 22.6973 112.764 22.4668 112.529 22.1738C112.299 21.8809 112.125 21.5449 112.008 21.166C111.895 20.7832 111.838 20.3789 111.838 19.9531V19.707C111.838 19.2812 111.895 18.8789 112.008 18.5C112.125 18.1172 112.299 17.7793 112.529 17.4863C112.764 17.1934 113.057 16.9629 113.408 16.7949C113.764 16.627 114.18 16.543 114.656 16.543C115.152 16.543 115.586 16.6445 115.957 16.8477C116.328 17.0469 116.619 17.3203 116.83 17.668C117.045 18.0117 117.162 18.4023 117.182 18.8398H116.15C116.131 18.5781 116.057 18.3418 115.928 18.1309C115.803 17.9199 115.631 17.752 115.412 17.627C115.197 17.498 114.945 17.4336 114.656 17.4336C114.324 17.4336 114.045 17.5 113.818 17.6328C113.596 17.7617 113.418 17.9375 113.285 18.1602C113.156 18.3789 113.062 18.623 113.004 18.8926C112.949 19.1582 112.922 19.4297 112.922 19.707V19.9531C112.922 20.2305 112.949 20.5039 113.004 20.7734C113.059 21.043 113.15 21.2871 113.279 21.5059C113.412 21.7246 113.59 21.9004 113.812 22.0332C114.039 22.1621 114.32 22.2266 114.656 22.2266ZM114.059 23.0586H114.838L114.768 23.3691C114.994 23.4082 115.199 23.502 115.383 23.6504C115.57 23.7988 115.664 24.043 115.664 24.3828C115.664 24.5664 115.625 24.7324 115.547 24.8809C115.473 25.0332 115.361 25.1621 115.213 25.2676C115.064 25.377 114.879 25.4609 114.656 25.5195C114.438 25.5781 114.182 25.6074 113.889 25.6074L113.848 24.9805C114.027 24.9805 114.189 24.9609 114.334 24.9219C114.482 24.8828 114.6 24.8203 114.686 24.7344C114.775 24.6484 114.82 24.5371 114.82 24.4004C114.82 24.2715 114.787 24.1699 114.721 24.0957C114.654 24.0215 114.551 23.9648 114.41 23.9258C114.273 23.8906 114.096 23.8652 113.877 23.8496L114.059 23.0586ZM122.139 21.916V18.6523C122.139 18.4023 122.088 18.1855 121.986 18.002C121.889 17.8145 121.74 17.6699 121.541 17.5684C121.342 17.4668 121.096 17.416 120.803 17.416C120.529 17.416 120.289 17.4629 120.082 17.5566C119.879 17.6504 119.719 17.7734 119.602 17.9258C119.488 18.0781 119.432 18.2422 119.432 18.418H118.348C118.348 18.1914 118.406 17.9668 118.523 17.7441C118.641 17.5215 118.809 17.3203 119.027 17.1406C119.25 16.957 119.516 16.8125 119.824 16.707C120.137 16.5977 120.484 16.543 120.867 16.543C121.328 16.543 121.734 16.6211 122.086 16.7773C122.441 16.9336 122.719 17.1699 122.918 17.4863C123.121 17.7988 123.223 18.1914 123.223 18.6641V21.6172C123.223 21.8281 123.24 22.0527 123.275 22.291C123.314 22.5293 123.371 22.7344 123.445 22.9062V23H122.314C122.26 22.875 122.217 22.709 122.186 22.502C122.154 22.291 122.139 22.0957 122.139 21.916ZM122.326 19.1562L122.338 19.918H121.242C120.934 19.918 120.658 19.9434 120.416 19.9941C120.174 20.041 119.971 20.1133 119.807 20.2109C119.643 20.3086 119.518 20.4316 119.432 20.5801C119.346 20.7246 119.303 20.8945 119.303 21.0898C119.303 21.2891 119.348 21.4707 119.438 21.6348C119.527 21.7988 119.662 21.9297 119.842 22.0273C120.025 22.1211 120.25 22.168 120.516 22.168C120.848 22.168 121.141 22.0977 121.395 21.957C121.648 21.8164 121.85 21.6445 121.998 21.4414C122.15 21.2383 122.232 21.041 122.244 20.8496L122.707 21.3711C122.68 21.5352 122.605 21.7168 122.484 21.916C122.363 22.1152 122.201 22.3066 121.998 22.4902C121.799 22.6699 121.561 22.8203 121.283 22.9414C121.01 23.0586 120.701 23.1172 120.357 23.1172C119.928 23.1172 119.551 23.0332 119.227 22.8652C118.906 22.6973 118.656 22.4727 118.477 22.1914C118.301 21.9062 118.213 21.5879 118.213 21.2363C118.213 20.8965 118.279 20.5977 118.412 20.3398C118.545 20.0781 118.736 19.8613 118.986 19.6895C119.236 19.5137 119.537 19.3809 119.889 19.291C120.24 19.2012 120.633 19.1562 121.066 19.1562H122.326ZM122.332 14.1172L123.064 14.1816C123.064 14.4668 123.008 14.7168 122.895 14.9316C122.781 15.1465 122.629 15.3125 122.438 15.4297C122.25 15.5469 122.037 15.6055 121.799 15.6055C121.6 15.6055 121.436 15.5781 121.307 15.5234C121.178 15.4648 121.062 15.4004 120.961 15.3301C120.859 15.2559 120.752 15.1914 120.639 15.1367C120.529 15.0781 120.393 15.0488 120.229 15.0488C120.064 15.0488 119.926 15.1113 119.812 15.2363C119.703 15.3613 119.648 15.5156 119.648 15.6992L118.916 15.6641C118.916 15.3789 118.971 15.1289 119.08 14.9141C119.193 14.6953 119.346 14.5254 119.537 14.4043C119.729 14.2793 119.941 14.2168 120.176 14.2168C120.344 14.2168 120.49 14.2461 120.615 14.3047C120.744 14.3594 120.865 14.4238 120.979 14.498C121.092 14.5684 121.209 14.6328 121.33 14.6914C121.451 14.7461 121.59 14.7734 121.746 14.7734C121.91 14.7734 122.049 14.7109 122.162 14.5859C122.275 14.457 122.332 14.3008 122.332 14.1172ZM124.641 19.9004V19.7656C124.641 19.3086 124.707 18.8848 124.84 18.4941C124.973 18.0996 125.164 17.7578 125.414 17.4688C125.664 17.1758 125.967 16.9492 126.322 16.7891C126.678 16.625 127.076 16.543 127.518 16.543C127.963 16.543 128.363 16.625 128.719 16.7891C129.078 16.9492 129.383 17.1758 129.633 17.4688C129.887 17.7578 130.08 18.0996 130.213 18.4941C130.346 18.8848 130.412 19.3086 130.412 19.7656V19.9004C130.412 20.3574 130.346 20.7812 130.213 21.1719C130.08 21.5625 129.887 21.9043 129.633 22.1973C129.383 22.4863 129.08 22.7129 128.725 22.877C128.373 23.0371 127.975 23.1172 127.529 23.1172C127.084 23.1172 126.684 23.0371 126.328 22.877C125.973 22.7129 125.668 22.4863 125.414 22.1973C125.164 21.9043 124.973 21.5625 124.84 21.1719C124.707 20.7812 124.641 20.3574 124.641 19.9004ZM125.725 19.7656V19.9004C125.725 20.2168 125.762 20.5156 125.836 20.7969C125.91 21.0742 126.021 21.3203 126.17 21.5352C126.322 21.75 126.512 21.9199 126.738 22.0449C126.965 22.166 127.229 22.2266 127.529 22.2266C127.826 22.2266 128.086 22.166 128.309 22.0449C128.535 21.9199 128.723 21.75 128.871 21.5352C129.02 21.3203 129.131 21.0742 129.205 20.7969C129.283 20.5156 129.322 20.2168 129.322 19.9004V19.7656C129.322 19.4531 129.283 19.1582 129.205 18.8809C129.131 18.5996 129.018 18.3516 128.865 18.1367C128.717 17.918 128.529 17.7461 128.303 17.6211C128.08 17.4961 127.818 17.4336 127.518 17.4336C127.221 17.4336 126.959 17.4961 126.732 17.6211C126.51 17.7461 126.322 17.918 126.17 18.1367C126.021 18.3516 125.91 18.5996 125.836 18.8809C125.762 19.1582 125.725 19.4531 125.725 19.7656Z" fill="#707070"/>
<path d="M39.6422 96.4219V105H38.5582V97.7754L36.3727 98.5723V97.5938L39.4723 96.4219H39.6422ZM48.8195 104.109V105H43.2355V104.221L46.0305 101.109C46.3742 100.727 46.6398 100.402 46.8273 100.137C47.0188 99.8672 47.1516 99.627 47.2258 99.416C47.3039 99.2012 47.343 98.9824 47.343 98.7598C47.343 98.4785 47.2844 98.2246 47.1672 97.998C47.0539 97.7676 46.8859 97.584 46.6633 97.4473C46.4406 97.3105 46.1711 97.2422 45.8547 97.2422C45.4758 97.2422 45.1594 97.3164 44.9055 97.4648C44.6555 97.6094 44.468 97.8125 44.343 98.0742C44.218 98.3359 44.1555 98.6367 44.1555 98.9766H43.0715C43.0715 98.4961 43.177 98.0566 43.3879 97.6582C43.5988 97.2598 43.9113 96.9434 44.3254 96.709C44.7395 96.4707 45.2492 96.3516 45.8547 96.3516C46.3938 96.3516 46.8547 96.4473 47.2375 96.6387C47.6203 96.8262 47.9133 97.0918 48.1164 97.4355C48.3234 97.7754 48.427 98.1738 48.427 98.6309C48.427 98.8809 48.384 99.1348 48.298 99.3926C48.216 99.6465 48.1008 99.9004 47.9523 100.154C47.8078 100.408 47.6379 100.658 47.4426 100.904C47.2512 101.15 47.0461 101.393 46.8273 101.631L44.5422 104.109H48.8195ZM55.9695 104.109V105H50.3855V104.221L53.1805 101.109C53.5242 100.727 53.7898 100.402 53.9773 100.137C54.1688 99.8672 54.3016 99.627 54.3758 99.416C54.4539 99.2012 54.493 98.9824 54.493 98.7598C54.493 98.4785 54.4344 98.2246 54.3172 97.998C54.2039 97.7676 54.0359 97.584 53.8133 97.4473C53.5906 97.3105 53.3211 97.2422 53.0047 97.2422C52.6258 97.2422 52.3094 97.3164 52.0555 97.4648C51.8055 97.6094 51.618 97.8125 51.493 98.0742C51.368 98.3359 51.3055 98.6367 51.3055 98.9766H50.2215C50.2215 98.4961 50.327 98.0566 50.5379 97.6582C50.7488 97.2598 51.0613 96.9434 51.4754 96.709C51.8895 96.4707 52.3992 96.3516 53.0047 96.3516C53.5438 96.3516 54.0047 96.4473 54.3875 96.6387C54.7703 96.8262 55.0633 97.0918 55.2664 97.4355C55.4734 97.7754 55.577 98.1738 55.577 98.6309C55.577 98.8809 55.534 99.1348 55.448 99.3926C55.366 99.6465 55.2508 99.9004 55.1023 100.154C54.9578 100.408 54.7879 100.658 54.5926 100.904C54.4012 101.15 54.1961 101.393 53.9773 101.631L51.6922 104.109H55.9695ZM64.3457 97.2246L61.5215 105H60.3672L63.6191 96.4688H64.3633L64.3457 97.2246ZM66.7129 105L63.8828 97.2246L63.8652 96.4688H64.6094L67.873 105H66.7129ZM66.5664 101.842V102.768H61.7734V101.842H66.5664ZM70.8863 104.021L72.6207 98.6602H73.7281L71.4488 105H70.7223L70.8863 104.021ZM69.4391 98.6602L71.2262 104.051L71.3492 105H70.6227L68.3258 98.6602H69.4391ZM78.8156 103.916V100.652C78.8156 100.402 78.7648 100.186 78.6633 100.002C78.5656 99.8145 78.4172 99.6699 78.218 99.5684C78.0188 99.4668 77.7727 99.416 77.4797 99.416C77.2063 99.416 76.966 99.4629 76.759 99.5566C76.5559 99.6504 76.3957 99.7734 76.2785 99.9258C76.1652 100.078 76.1086 100.242 76.1086 100.418H75.0246C75.0246 100.191 75.0832 99.9668 75.2004 99.7441C75.3176 99.5215 75.4855 99.3203 75.7043 99.1406C75.927 98.957 76.1926 98.8125 76.5012 98.707C76.8137 98.5977 77.1613 98.543 77.5441 98.543C78.0051 98.543 78.4113 98.6211 78.7629 98.7773C79.1184 98.9336 79.3957 99.1699 79.5949 99.4863C79.798 99.7988 79.8996 100.191 79.8996 100.664V103.617C79.8996 103.828 79.9172 104.053 79.9523 104.291C79.9914 104.529 80.048 104.734 80.1223 104.906V105H78.9914C78.9367 104.875 78.8938 104.709 78.8625 104.502C78.8313 104.291 78.8156 104.096 78.8156 103.916ZM79.0031 101.156L79.0148 101.918H77.9191C77.6105 101.918 77.3352 101.943 77.093 101.994C76.8508 102.041 76.6477 102.113 76.4836 102.211C76.3195 102.309 76.1945 102.432 76.1086 102.58C76.0227 102.725 75.9797 102.895 75.9797 103.09C75.9797 103.289 76.0246 103.471 76.1145 103.635C76.2043 103.799 76.3391 103.93 76.5188 104.027C76.7023 104.121 76.927 104.168 77.1926 104.168C77.5246 104.168 77.8176 104.098 78.0715 103.957C78.3254 103.816 78.5266 103.645 78.675 103.441C78.8273 103.238 78.9094 103.041 78.9211 102.85L79.384 103.371C79.3566 103.535 79.2824 103.717 79.1613 103.916C79.0402 104.115 78.8781 104.307 78.675 104.49C78.4758 104.67 78.2375 104.82 77.9602 104.941C77.6867 105.059 77.3781 105.117 77.0344 105.117C76.6047 105.117 76.2277 105.033 75.9035 104.865C75.5832 104.697 75.3332 104.473 75.1535 104.191C74.9777 103.906 74.8898 103.588 74.8898 103.236C74.8898 102.896 74.9563 102.598 75.0891 102.34C75.2219 102.078 75.4133 101.861 75.6633 101.689C75.9133 101.514 76.2141 101.381 76.5656 101.291C76.9172 101.201 77.3098 101.156 77.7434 101.156H79.0031ZM83.1824 96V105H82.0926V96H83.1824ZM86.5004 98.6602V105H85.4105V98.6602H86.5004ZM85.3285 96.9785C85.3285 96.8027 85.3813 96.6543 85.4867 96.5332C85.5961 96.4121 85.7563 96.3516 85.9672 96.3516C86.1742 96.3516 86.3324 96.4121 86.4418 96.5332C86.5551 96.6543 86.6117 96.8027 86.6117 96.9785C86.6117 97.1465 86.5551 97.291 86.4418 97.4121C86.3324 97.5293 86.1742 97.5879 85.9672 97.5879C85.7563 97.5879 85.5961 97.5293 85.4867 97.4121C85.3813 97.291 85.3285 97.1465 85.3285 96.9785ZM92.3789 103.916V100.652C92.3789 100.402 92.3281 100.186 92.2266 100.002C92.1289 99.8145 91.9805 99.6699 91.7812 99.5684C91.582 99.4668 91.3359 99.416 91.043 99.416C90.7695 99.416 90.5293 99.4629 90.3223 99.5566C90.1191 99.6504 89.959 99.7734 89.8418 99.9258C89.7285 100.078 89.6719 100.242 89.6719 100.418H88.5879C88.5879 100.191 88.6465 99.9668 88.7637 99.7441C88.8809 99.5215 89.0488 99.3203 89.2676 99.1406C89.4902 98.957 89.7559 98.8125 90.0645 98.707C90.377 98.5977 90.7246 98.543 91.1074 98.543C91.5684 98.543 91.9746 98.6211 92.3262 98.7773C92.6816 98.9336 92.959 99.1699 93.1582 99.4863C93.3613 99.7988 93.4629 100.191 93.4629 100.664V103.617C93.4629 103.828 93.4805 104.053 93.5156 104.291C93.5547 104.529 93.6113 104.734 93.6855 104.906V105H92.5547C92.5 104.875 92.457 104.709 92.4258 104.502C92.3945 104.291 92.3789 104.096 92.3789 103.916ZM92.5664 101.156L92.5781 101.918H91.4824C91.1738 101.918 90.8984 101.943 90.6562 101.994C90.4141 102.041 90.2109 102.113 90.0469 102.211C89.8828 102.309 89.7578 102.432 89.6719 102.58C89.5859 102.725 89.543 102.895 89.543 103.09C89.543 103.289 89.5879 103.471 89.6777 103.635C89.7676 103.799 89.9023 103.93 90.082 104.027C90.2656 104.121 90.4902 104.168 90.7559 104.168C91.0879 104.168 91.3809 104.098 91.6348 103.957C91.8887 103.816 92.0898 103.645 92.2383 103.441C92.3906 103.238 92.4727 103.041 92.4844 102.85L92.9473 103.371C92.9199 103.535 92.8457 103.717 92.7246 103.916C92.6035 104.115 92.4414 104.307 92.2383 104.49C92.0391 104.67 91.8008 104.82 91.5234 104.941C91.25 105.059 90.9414 105.117 90.5977 105.117C90.168 105.117 89.791 105.033 89.4668 104.865C89.1465 104.697 88.8965 104.473 88.7168 104.191C88.541 103.906 88.4531 103.588 88.4531 103.236C88.4531 102.896 88.5195 102.598 88.6523 102.34C88.7852 102.078 88.9766 101.861 89.2266 101.689C89.4766 101.514 89.7773 101.381 90.1289 101.291C90.4805 101.201 90.873 101.156 91.3066 101.156H92.5664ZM98.1051 104.227C98.3629 104.227 98.6012 104.174 98.8199 104.068C99.0387 103.963 99.2184 103.818 99.359 103.635C99.4996 103.447 99.5797 103.234 99.5992 102.996H100.63C100.611 103.371 100.484 103.721 100.25 104.045C100.019 104.365 99.7164 104.625 99.3414 104.824C98.9664 105.02 98.5543 105.117 98.1051 105.117C97.6285 105.117 97.2125 105.033 96.857 104.865C96.5055 104.697 96.2125 104.467 95.9781 104.174C95.7477 103.881 95.5738 103.545 95.4566 103.166C95.3434 102.783 95.2867 102.379 95.2867 101.953V101.707C95.2867 101.281 95.3434 100.879 95.4566 100.5C95.5738 100.117 95.7477 99.7793 95.9781 99.4863C96.2125 99.1934 96.5055 98.9629 96.857 98.7949C97.2125 98.627 97.6285 98.543 98.1051 98.543C98.6012 98.543 99.0348 98.6445 99.4059 98.8477C99.777 99.0469 100.068 99.3203 100.279 99.668C100.494 100.012 100.611 100.402 100.63 100.84H99.5992C99.5797 100.578 99.5055 100.342 99.3766 100.131C99.2516 99.9199 99.0797 99.752 98.8609 99.627C98.6461 99.498 98.3941 99.4336 98.1051 99.4336C97.773 99.4336 97.4938 99.5 97.2672 99.6328C97.0445 99.7617 96.8668 99.9375 96.734 100.16C96.6051 100.379 96.5113 100.623 96.4527 100.893C96.398 101.158 96.3707 101.43 96.3707 101.707V101.953C96.3707 102.23 96.398 102.504 96.4527 102.773C96.5074 103.043 96.5992 103.287 96.7281 103.506C96.8609 103.725 97.0387 103.9 97.2613 104.033C97.4879 104.162 97.7691 104.227 98.1051 104.227ZM97.5074 105.059H98.2867L98.2164 105.369C98.443 105.408 98.648 105.502 98.8316 105.65C99.0191 105.799 99.1129 106.043 99.1129 106.383C99.1129 106.566 99.0738 106.732 98.9957 106.881C98.9215 107.033 98.8102 107.162 98.6617 107.268C98.5133 107.377 98.3277 107.461 98.1051 107.52C97.8863 107.578 97.6305 107.607 97.3375 107.607L97.2965 106.98C97.4762 106.98 97.6383 106.961 97.7828 106.922C97.9313 106.883 98.0484 106.82 98.1344 106.734C98.2242 106.648 98.2691 106.537 98.2691 106.4C98.2691 106.271 98.2359 106.17 98.1695 106.096C98.1031 106.021 97.9996 105.965 97.859 105.926C97.7223 105.891 97.5445 105.865 97.3258 105.85L97.5074 105.059ZM101.962 101.9V101.766C101.962 101.309 102.029 100.885 102.161 100.494C102.294 100.1 102.486 99.7578 102.736 99.4688C102.986 99.1758 103.288 98.9492 103.644 98.7891C103.999 98.625 104.398 98.543 104.839 98.543C105.284 98.543 105.685 98.625 106.04 98.7891C106.4 98.9492 106.704 99.1758 106.954 99.4688C107.208 99.7578 107.402 100.1 107.534 100.494C107.667 100.885 107.734 101.309 107.734 101.766V101.9C107.734 102.357 107.667 102.781 107.534 103.172C107.402 103.562 107.208 103.904 106.954 104.197C106.704 104.486 106.402 104.713 106.046 104.877C105.695 105.037 105.296 105.117 104.851 105.117C104.405 105.117 104.005 105.037 103.65 104.877C103.294 104.713 102.989 104.486 102.736 104.197C102.486 103.904 102.294 103.562 102.161 103.172C102.029 102.781 101.962 102.357 101.962 101.9ZM103.046 101.766V101.9C103.046 102.217 103.083 102.516 103.157 102.797C103.232 103.074 103.343 103.32 103.491 103.535C103.644 103.75 103.833 103.92 104.06 104.045C104.286 104.166 104.55 104.227 104.851 104.227C105.148 104.227 105.407 104.166 105.63 104.045C105.857 103.92 106.044 103.75 106.193 103.535C106.341 103.32 106.452 103.074 106.527 102.797C106.605 102.516 106.644 102.217 106.644 101.9V101.766C106.644 101.453 106.605 101.158 106.527 100.881C106.452 100.6 106.339 100.352 106.187 100.137C106.038 99.918 105.851 99.7461 105.624 99.6211C105.402 99.4961 105.14 99.4336 104.839 99.4336C104.542 99.4336 104.28 99.4961 104.054 99.6211C103.831 99.7461 103.644 99.918 103.491 100.137C103.343 100.352 103.232 100.6 103.157 100.881C103.083 101.158 103.046 101.453 103.046 101.766ZM106.14 96.1172L106.872 96.1816C106.872 96.4668 106.816 96.7168 106.702 96.9316C106.589 97.1465 106.437 97.3125 106.245 97.4297C106.058 97.5469 105.845 97.6055 105.607 97.6055C105.407 97.6055 105.243 97.5781 105.114 97.5234C104.986 97.4648 104.87 97.4004 104.769 97.3301C104.667 97.2559 104.56 97.1914 104.446 97.1367C104.337 97.0781 104.2 97.0488 104.036 97.0488C103.872 97.0488 103.734 97.1113 103.62 97.2363C103.511 97.3613 103.456 97.5156 103.456 97.6992L102.724 97.6641C102.724 97.3789 102.779 97.1289 102.888 96.9141C103.001 96.6953 103.154 96.5254 103.345 96.4043C103.536 96.2793 103.749 96.2168 103.984 96.2168C104.152 96.2168 104.298 96.2461 104.423 96.3047C104.552 96.3594 104.673 96.4238 104.786 96.498C104.9 96.5684 105.017 96.6328 105.138 96.6914C105.259 96.7461 105.398 96.7734 105.554 96.7734C105.718 96.7734 105.857 96.7109 105.97 96.5859C106.083 96.457 106.14 96.3008 106.14 96.1172ZM112.124 105.117C111.682 105.117 111.282 105.043 110.923 104.895C110.567 104.742 110.261 104.529 110.003 104.256C109.749 103.982 109.554 103.658 109.417 103.283C109.28 102.908 109.212 102.498 109.212 102.053V101.807C109.212 101.291 109.288 100.832 109.44 100.43C109.593 100.023 109.8 99.6797 110.061 99.3984C110.323 99.1172 110.62 98.9043 110.952 98.7598C111.284 98.6152 111.628 98.543 111.983 98.543C112.436 98.543 112.827 98.6211 113.155 98.7773C113.487 98.9336 113.759 99.1523 113.97 99.4336C114.18 99.7109 114.337 100.039 114.438 100.418C114.54 100.793 114.591 101.203 114.591 101.648V102.135H109.856V101.25H113.507V101.168C113.491 100.887 113.432 100.613 113.331 100.348C113.233 100.082 113.077 99.8633 112.862 99.6914C112.647 99.5195 112.354 99.4336 111.983 99.4336C111.737 99.4336 111.511 99.4863 111.304 99.5918C111.096 99.6934 110.919 99.8457 110.77 100.049C110.622 100.252 110.507 100.5 110.425 100.793C110.343 101.086 110.302 101.424 110.302 101.807V102.053C110.302 102.354 110.343 102.637 110.425 102.902C110.511 103.164 110.634 103.395 110.794 103.594C110.958 103.793 111.155 103.949 111.386 104.062C111.62 104.176 111.886 104.232 112.182 104.232C112.565 104.232 112.889 104.154 113.155 103.998C113.421 103.842 113.653 103.633 113.852 103.371L114.509 103.893C114.372 104.1 114.198 104.297 113.987 104.484C113.776 104.672 113.516 104.824 113.208 104.941C112.903 105.059 112.542 105.117 112.124 105.117ZM119.948 103.318C119.948 103.162 119.912 103.018 119.842 102.885C119.776 102.748 119.637 102.625 119.426 102.516C119.219 102.402 118.907 102.305 118.489 102.223C118.137 102.148 117.819 102.061 117.534 101.959C117.252 101.857 117.012 101.734 116.813 101.59C116.618 101.445 116.467 101.275 116.362 101.08C116.256 100.885 116.204 100.656 116.204 100.395C116.204 100.145 116.258 99.9082 116.368 99.6855C116.481 99.4629 116.639 99.2656 116.842 99.0938C117.049 98.9219 117.297 98.7871 117.586 98.6895C117.875 98.5918 118.198 98.543 118.553 98.543C119.061 98.543 119.495 98.6328 119.854 98.8125C120.213 98.9922 120.489 99.2324 120.68 99.5332C120.871 99.8301 120.967 100.16 120.967 100.523H119.883C119.883 100.348 119.83 100.178 119.725 100.014C119.623 99.8457 119.473 99.707 119.274 99.5977C119.079 99.4883 118.838 99.4336 118.553 99.4336C118.252 99.4336 118.008 99.4805 117.821 99.5742C117.637 99.6641 117.502 99.7793 117.416 99.9199C117.334 100.061 117.293 100.209 117.293 100.365C117.293 100.482 117.313 100.588 117.352 100.682C117.395 100.771 117.469 100.855 117.575 100.934C117.68 101.008 117.829 101.078 118.02 101.145C118.211 101.211 118.455 101.277 118.752 101.344C119.272 101.461 119.7 101.602 120.036 101.766C120.371 101.93 120.621 102.131 120.786 102.369C120.95 102.607 121.032 102.896 121.032 103.236C121.032 103.514 120.973 103.768 120.856 103.998C120.743 104.229 120.577 104.428 120.358 104.596C120.143 104.76 119.885 104.889 119.584 104.982C119.287 105.072 118.954 105.117 118.582 105.117C118.024 105.117 117.551 105.018 117.164 104.818C116.778 104.619 116.485 104.361 116.286 104.045C116.086 103.729 115.987 103.395 115.987 103.043H117.077C117.092 103.34 117.178 103.576 117.334 103.752C117.491 103.924 117.682 104.047 117.909 104.121C118.135 104.191 118.36 104.227 118.582 104.227C118.879 104.227 119.127 104.188 119.327 104.109C119.53 104.031 119.684 103.924 119.789 103.787C119.895 103.65 119.948 103.494 119.948 103.318Z" fill="black" fill-opacity="0.38"/>
<path fill-rule="evenodd" clip-rule="evenodd" d="M100.028 47L105.808 60.7129L120 62.3105L109.374 72.3243L112.314 87L99.9675 79.4754L87.5925 86.9488L90.5874 72.2843L80 62.227L94.1969 60.6886L100.028 47Z" fill="#FFB400"/>
<path d="M50.125 73.625V76.2734H37.832L37.668 74.2227L44.7812 62.9375H47.4648L44.5586 67.8008L41.0195 73.625H50.125ZM48.1914 62.9375V80H44.8164V62.9375H48.1914ZM52.4278 78.3711C52.4278 77.8711 52.5997 77.4531 52.9434 77.1172C53.295 76.7812 53.7598 76.6133 54.338 76.6133C54.9161 76.6133 55.377 76.7812 55.7208 77.1172C56.0723 77.4531 56.2481 77.8711 56.2481 78.3711C56.2481 78.8711 56.0723 79.2891 55.7208 79.625C55.377 79.9609 54.9161 80.1289 54.338 80.1289C53.7598 80.1289 53.295 79.9609 52.9434 79.625C52.5997 79.2891 52.4278 78.8711 52.4278 78.3711ZM61.6447 77.4336H61.8673C62.8048 77.4336 63.6095 77.3203 64.2814 77.0938C64.9611 76.8594 65.5197 76.5234 65.9572 76.0859C66.3947 75.6484 66.7189 75.1133 66.9298 74.4805C67.1408 73.8398 67.2463 73.1133 67.2463 72.3008V69.0664C67.2463 68.4492 67.1838 67.9062 67.0588 67.4375C66.9416 66.9688 66.7697 66.582 66.5431 66.2773C66.3244 65.9648 66.0666 65.7305 65.7697 65.5742C65.4806 65.418 65.1603 65.3398 64.8088 65.3398C64.4338 65.3398 64.1017 65.4336 63.8127 65.6211C63.5236 65.8008 63.2775 66.0469 63.0744 66.3594C62.8791 66.6719 62.7267 67.0312 62.6173 67.4375C62.5158 67.8359 62.465 68.2539 62.465 68.6914C62.465 69.1289 62.5158 69.5469 62.6173 69.9453C62.7189 70.3359 62.8713 70.6836 63.0744 70.9883C63.2775 71.2852 63.5314 71.5234 63.8361 71.7031C64.1408 71.875 64.5002 71.9609 64.9142 71.9609C65.3127 71.9609 65.6681 71.8867 65.9806 71.7383C66.3009 71.582 66.5705 71.3789 66.7892 71.1289C67.0158 70.8789 67.1877 70.6016 67.3048 70.2969C67.4298 69.9922 67.4923 69.6836 67.4923 69.3711L68.6056 69.9805C68.6056 70.5273 68.4884 71.0664 68.2541 71.5977C68.0197 72.1289 67.6916 72.6133 67.2697 73.0508C66.8556 73.4805 66.3752 73.8242 65.8283 74.082C65.2814 74.3398 64.6955 74.4688 64.0705 74.4688C63.2736 74.4688 62.5666 74.3242 61.9494 74.0352C61.3322 73.7383 60.8088 73.332 60.3791 72.8164C59.9572 72.293 59.6369 71.6836 59.4181 70.9883C59.1994 70.293 59.09 69.5391 59.09 68.7266C59.09 67.8984 59.2228 67.1211 59.4884 66.3945C59.7619 65.668 60.1486 65.0273 60.6486 64.4727C61.1564 63.918 61.7619 63.4844 62.465 63.1719C63.1759 62.8516 63.965 62.6914 64.8322 62.6914C65.6994 62.6914 66.4884 62.8594 67.1994 63.1953C67.9103 63.5312 68.5197 64.0078 69.0275 64.625C69.5353 65.2344 69.9259 65.9648 70.1994 66.8164C70.4806 67.668 70.6213 68.6133 70.6213 69.6523V70.8242C70.6213 71.9336 70.5002 72.9648 70.258 73.918C70.0236 74.8711 69.6681 75.7344 69.1916 76.5078C68.7228 77.2734 68.1369 77.9297 67.4338 78.4766C66.7384 79.0234 65.9298 79.4414 65.008 79.7305C64.0861 80.0195 63.0548 80.1641 61.9142 80.1641H61.6447V77.4336Z" fill="#555555"/>
<defs>
<filter id="filter0_d_302_1499" x="0" y="0" width="154" height="147" filterUnits="userSpaceOnUse" color-interpolation-filters="sRGB">
<feFlood flood-opacity="0" result="BackgroundImageFix"/>
<feColorMatrix in="SourceAlpha" type="matrix" values="0 0 0 0 0 0 0 0 0 0 0 0 0 0 0 0 0 0 127 0" result="hardAlpha"/>
<feOffset dx="-2" dy="2"/>
<feGaussianBlur stdDeviation="2"/>
<feComposite in2="hardAlpha" operator="out"/>
<feColorMatrix type="matrix" values="0 0 0 0 0 0 0 0 0 0 0 0 0 0 0 0 0 0 0.05 0"/>
<feBlend mode="normal" in2="BackgroundImageFix" result="effect1_dropShadow_302_1499"/>
<feBlend mode="normal" in="SourceGraphic" in2="effect1_dropShadow_302_1499" result="shape"/>
</filter>
</defs>
</svg>
