<svg width="100" height="138" viewBox="0 0 100 138" fill="none" xmlns="http://www.w3.org/2000/svg">
<path d="M3.34766 2.46875H4.44336L7.23828 9.42383L10.0273 2.46875H11.1289L7.66016 11H6.80469L3.34766 2.46875ZM2.99023 2.46875H3.95703L4.11523 7.67188V11H2.99023V2.46875ZM10.5137 2.46875H11.4805V11H10.3555V7.67188L10.5137 2.46875ZM15.9336 11.1172C15.4922 11.1172 15.0918 11.043 14.7324 10.8945C14.377 10.7422 14.0703 10.5293 13.8125 10.2559C13.5586 9.98242 13.3633 9.6582 13.2266 9.2832C13.0898 8.9082 13.0215 8.49805 13.0215 8.05273V7.80664C13.0215 7.29102 13.0977 6.83203 13.25 6.42969C13.4023 6.02344 13.6094 5.67969 13.8711 5.39844C14.1328 5.11719 14.4297 4.9043 14.7617 4.75977C15.0938 4.61523 15.4375 4.54297 15.793 4.54297C16.2461 4.54297 16.6367 4.62109 16.9648 4.77734C17.2969 4.93359 17.5684 5.15234 17.7793 5.43359C17.9902 5.71094 18.1465 6.03906 18.248 6.41797C18.3496 6.79297 18.4004 7.20312 18.4004 7.64844V8.13477H13.666V7.25H17.3164V7.16797C17.3008 6.88672 17.2422 6.61328 17.1406 6.34766C17.043 6.08203 16.8867 5.86328 16.6719 5.69141C16.457 5.51953 16.1641 5.43359 15.793 5.43359C15.5469 5.43359 15.3203 5.48633 15.1133 5.5918C14.9062 5.69336 14.7285 5.8457 14.5801 6.04883C14.4316 6.25195 14.3164 6.5 14.2344 6.79297C14.1523 7.08594 14.1113 7.42383 14.1113 7.80664V8.05273C14.1113 8.35352 14.1523 8.63672 14.2344 8.90234C14.3203 9.16406 14.4434 9.39453 14.6035 9.59375C14.7676 9.79297 14.9648 9.94922 15.1953 10.0625C15.4297 10.1758 15.6953 10.2324 15.9922 10.2324C16.375 10.2324 16.6992 10.1543 16.9648 9.99805C17.2305 9.8418 17.4629 9.63281 17.6621 9.37109L18.3184 9.89258C18.1816 10.0996 18.0078 10.2969 17.7969 10.4844C17.5859 10.6719 17.3262 10.8242 17.0176 10.9414C16.7129 11.0586 16.3516 11.1172 15.9336 11.1172ZM16.1152 2L17.5684 3.59961V3.6582H16.666L15.7871 2.66797L14.9141 3.6582H14.0234V3.59375L15.459 2H16.1152ZM23.3574 9.31836C23.3574 9.16211 23.3223 9.01758 23.252 8.88477C23.1855 8.74805 23.0469 8.625 22.8359 8.51562C22.6289 8.40234 22.3164 8.30469 21.8984 8.22266C21.5469 8.14844 21.2285 8.06055 20.9434 7.95898C20.6621 7.85742 20.4219 7.73438 20.2227 7.58984C20.0273 7.44531 19.877 7.27539 19.7715 7.08008C19.666 6.88477 19.6133 6.65625 19.6133 6.39453C19.6133 6.14453 19.668 5.9082 19.7773 5.68555C19.8906 5.46289 20.0488 5.26562 20.252 5.09375C20.459 4.92188 20.707 4.78711 20.9961 4.68945C21.2852 4.5918 21.6074 4.54297 21.9629 4.54297C22.4707 4.54297 22.9043 4.63281 23.2637 4.8125C23.623 4.99219 23.8984 5.23242 24.0898 5.5332C24.2812 5.83008 24.377 6.16016 24.377 6.52344H23.293C23.293 6.34766 23.2402 6.17773 23.1348 6.01367C23.0332 5.8457 22.8828 5.70703 22.6836 5.59766C22.4883 5.48828 22.248 5.43359 21.9629 5.43359C21.6621 5.43359 21.418 5.48047 21.2305 5.57422C21.0469 5.66406 20.9121 5.7793 20.8262 5.91992C20.7441 6.06055 20.7031 6.20898 20.7031 6.36523C20.7031 6.48242 20.7227 6.58789 20.7617 6.68164C20.8047 6.77148 20.8789 6.85547 20.9844 6.93359C21.0898 7.00781 21.2383 7.07812 21.4297 7.14453C21.6211 7.21094 21.8652 7.27734 22.1621 7.34375C22.6816 7.46094 23.1094 7.60156 23.4453 7.76562C23.7812 7.92969 24.0312 8.13086 24.1953 8.36914C24.3594 8.60742 24.4414 8.89648 24.4414 9.23633C24.4414 9.51367 24.3828 9.76758 24.2656 9.99805C24.1523 10.2285 23.9863 10.4277 23.7676 10.5957C23.5527 10.7598 23.2949 10.8887 22.9941 10.9824C22.6973 11.0723 22.3633 11.1172 21.9922 11.1172C21.4336 11.1172 20.9609 11.0176 20.5742 10.8184C20.1875 10.6191 19.8945 10.3613 19.6953 10.0449C19.4961 9.72852 19.3965 9.39453 19.3965 9.04297H20.4863C20.502 9.33984 20.5879 9.57617 20.7441 9.75195C20.9004 9.92383 21.0918 10.0469 21.3184 10.1211C21.5449 10.1914 21.7695 10.2266 21.9922 10.2266C22.2891 10.2266 22.5371 10.1875 22.7363 10.1094C22.9395 10.0312 23.0938 9.92383 23.1992 9.78711C23.3047 9.65039 23.3574 9.49414 23.3574 9.31836ZM31.4727 11.1172C31.0312 11.1172 30.6309 11.043 30.2715 10.8945C29.916 10.7422 29.6094 10.5293 29.3516 10.2559C29.0977 9.98242 28.9023 9.6582 28.7656 9.2832C28.6289 8.9082 28.5605 8.49805 28.5605 8.05273V7.80664C28.5605 7.29102 28.6367 6.83203 28.7891 6.42969C28.9414 6.02344 29.1484 5.67969 29.4102 5.39844C29.6719 5.11719 29.9688 4.9043 30.3008 4.75977C30.6328 4.61523 30.9766 4.54297 31.332 4.54297C31.7852 4.54297 32.1758 4.62109 32.5039 4.77734C32.8359 4.93359 33.1074 5.15234 33.3184 5.43359C33.5293 5.71094 33.6855 6.03906 33.7871 6.41797C33.8887 6.79297 33.9395 7.20312 33.9395 7.64844V8.13477H29.2051V7.25H32.8555V7.16797C32.8398 6.88672 32.7812 6.61328 32.6797 6.34766C32.582 6.08203 32.4258 5.86328 32.2109 5.69141C31.9961 5.51953 31.7031 5.43359 31.332 5.43359C31.0859 5.43359 30.8594 5.48633 30.6523 5.5918C30.4453 5.69336 30.2676 5.8457 30.1191 6.04883C29.9707 6.25195 29.8555 6.5 29.7734 6.79297C29.6914 7.08594 29.6504 7.42383 29.6504 7.80664V8.05273C29.6504 8.35352 29.6914 8.63672 29.7734 8.90234C29.8594 9.16406 29.9824 9.39453 30.1426 9.59375C30.3066 9.79297 30.5039 9.94922 30.7344 10.0625C30.9688 10.1758 31.2344 10.2324 31.5312 10.2324C31.9141 10.2324 32.2383 10.1543 32.5039 9.99805C32.7695 9.8418 33.002 9.63281 33.2012 9.37109L33.8574 9.89258C33.7207 10.0996 33.5469 10.2969 33.3359 10.4844C33.125 10.6719 32.8652 10.8242 32.5566 10.9414C32.252 11.0586 31.8906 11.1172 31.4727 11.1172ZM36.2832 5.91992V11H35.1934V4.66016H36.2246L36.2832 5.91992ZM36.0605 7.58984L35.5566 7.57227C35.5605 7.13867 35.6172 6.73828 35.7266 6.37109C35.8359 6 35.998 5.67773 36.2129 5.4043C36.4277 5.13086 36.6953 4.91992 37.0156 4.77148C37.3359 4.61914 37.707 4.54297 38.1289 4.54297C38.4258 4.54297 38.6992 4.58594 38.9492 4.67188C39.1992 4.75391 39.416 4.88477 39.5996 5.06445C39.7832 5.24414 39.9258 5.47461 40.0273 5.75586C40.1289 6.03711 40.1797 6.37695 40.1797 6.77539V11H39.0957V6.82812C39.0957 6.49609 39.0391 6.23047 38.9258 6.03125C38.8164 5.83203 38.6602 5.6875 38.457 5.59766C38.2539 5.50391 38.0156 5.45703 37.7422 5.45703C37.4219 5.45703 37.1543 5.51367 36.9395 5.62695C36.7246 5.74023 36.5527 5.89648 36.4238 6.0957C36.2949 6.29492 36.2012 6.52344 36.1426 6.78125C36.0879 7.03516 36.0605 7.30469 36.0605 7.58984ZM40.168 6.99219L39.4414 7.21484C39.4453 6.86719 39.502 6.5332 39.6113 6.21289C39.7246 5.89258 39.8867 5.60742 40.0977 5.35742C40.3125 5.10742 40.5762 4.91016 40.8887 4.76562C41.2012 4.61719 41.5586 4.54297 41.9609 4.54297C42.3008 4.54297 42.6016 4.58789 42.8633 4.67773C43.1289 4.76758 43.3516 4.90625 43.5312 5.09375C43.7148 5.27734 43.8535 5.51367 43.9473 5.80273C44.041 6.0918 44.0879 6.43555 44.0879 6.83398V11H42.998V6.82227C42.998 6.4668 42.9414 6.19141 42.8281 5.99609C42.7188 5.79688 42.5625 5.6582 42.3594 5.58008C42.1602 5.49805 41.9219 5.45703 41.6445 5.45703C41.4062 5.45703 41.1953 5.49805 41.0117 5.58008C40.8281 5.66211 40.6738 5.77539 40.5488 5.91992C40.4238 6.06055 40.3281 6.22266 40.2617 6.40625C40.1992 6.58984 40.168 6.78516 40.168 6.99219ZM52.7012 9.76953V2H53.791V11H52.7949L52.7012 9.76953ZM48.4355 7.90039V7.77734C48.4355 7.29297 48.4941 6.85352 48.6113 6.45898C48.7324 6.06055 48.9023 5.71875 49.1211 5.43359C49.3438 5.14844 49.6074 4.92969 49.9121 4.77734C50.2207 4.62109 50.5645 4.54297 50.9434 4.54297C51.3418 4.54297 51.6895 4.61328 51.9863 4.75391C52.2871 4.89062 52.541 5.0918 52.748 5.35742C52.959 5.61914 53.125 5.93555 53.2461 6.30664C53.3672 6.67773 53.4512 7.09766 53.498 7.56641V8.10547C53.4551 8.57031 53.3711 8.98828 53.2461 9.35938C53.125 9.73047 52.959 10.0469 52.748 10.3086C52.541 10.5703 52.2871 10.7715 51.9863 10.9121C51.6855 11.0488 51.334 11.1172 50.9316 11.1172C50.5605 11.1172 50.2207 11.0371 49.9121 10.877C49.6074 10.7168 49.3438 10.4922 49.1211 10.2031C48.9023 9.91406 48.7324 9.57422 48.6113 9.18359C48.4941 8.78906 48.4355 8.36133 48.4355 7.90039ZM49.5254 7.77734V7.90039C49.5254 8.2168 49.5566 8.51367 49.6191 8.79102C49.6855 9.06836 49.7871 9.3125 49.9238 9.52344C50.0605 9.73438 50.2344 9.90039 50.4453 10.0215C50.6562 10.1387 50.9082 10.1973 51.2012 10.1973C51.5605 10.1973 51.8555 10.1211 52.0859 9.96875C52.3203 9.81641 52.5078 9.61523 52.6484 9.36523C52.7891 9.11523 52.8984 8.84375 52.9766 8.55078V7.13867C52.9297 6.92383 52.8613 6.7168 52.7715 6.51758C52.6855 6.31445 52.5723 6.13477 52.4316 5.97852C52.2949 5.81836 52.125 5.69141 51.9219 5.59766C51.7227 5.50391 51.4863 5.45703 51.2129 5.45703C50.916 5.45703 50.6602 5.51953 50.4453 5.64453C50.2344 5.76562 50.0605 5.93359 49.9238 6.14844C49.7871 6.35938 49.6855 6.60547 49.6191 6.88672C49.5566 7.16406 49.5254 7.46094 49.5254 7.77734ZM58.1094 11.1172C57.668 11.1172 57.2676 11.043 56.9082 10.8945C56.5527 10.7422 56.2461 10.5293 55.9883 10.2559C55.7344 9.98242 55.5391 9.6582 55.4023 9.2832C55.2656 8.9082 55.1973 8.49805 55.1973 8.05273V7.80664C55.1973 7.29102 55.2734 6.83203 55.4258 6.42969C55.5781 6.02344 55.7852 5.67969 56.0469 5.39844C56.3086 5.11719 56.6055 4.9043 56.9375 4.75977C57.2695 4.61523 57.6133 4.54297 57.9688 4.54297C58.4219 4.54297 58.8125 4.62109 59.1406 4.77734C59.4727 4.93359 59.7441 5.15234 59.9551 5.43359C60.166 5.71094 60.3223 6.03906 60.4238 6.41797C60.5254 6.79297 60.5762 7.20312 60.5762 7.64844V8.13477H55.8418V7.25H59.4922V7.16797C59.4766 6.88672 59.418 6.61328 59.3164 6.34766C59.2188 6.08203 59.0625 5.86328 58.8477 5.69141C58.6328 5.51953 58.3398 5.43359 57.9688 5.43359C57.7227 5.43359 57.4961 5.48633 57.2891 5.5918C57.082 5.69336 56.9043 5.8457 56.7559 6.04883C56.6074 6.25195 56.4922 6.5 56.4102 6.79297C56.3281 7.08594 56.2871 7.42383 56.2871 7.80664V8.05273C56.2871 8.35352 56.3281 8.63672 56.4102 8.90234C56.4961 9.16406 56.6191 9.39453 56.7793 9.59375C56.9434 9.79297 57.1406 9.94922 57.3711 10.0625C57.6055 10.1758 57.8711 10.2324 58.168 10.2324C58.5508 10.2324 58.875 10.1543 59.1406 9.99805C59.4062 9.8418 59.6387 9.63281 59.8379 9.37109L60.4941 9.89258C60.3574 10.0996 60.1836 10.2969 59.9727 10.4844C59.7617 10.6719 59.502 10.8242 59.1934 10.9414C58.8887 11.0586 58.5273 11.1172 58.1094 11.1172ZM65.5332 9.31836C65.5332 9.16211 65.498 9.01758 65.4277 8.88477C65.3613 8.74805 65.2227 8.625 65.0117 8.51562C64.8047 8.40234 64.4922 8.30469 64.0742 8.22266C63.7227 8.14844 63.4043 8.06055 63.1191 7.95898C62.8379 7.85742 62.5977 7.73438 62.3984 7.58984C62.2031 7.44531 62.0527 7.27539 61.9473 7.08008C61.8418 6.88477 61.7891 6.65625 61.7891 6.39453C61.7891 6.14453 61.8438 5.9082 61.9531 5.68555C62.0664 5.46289 62.2246 5.26562 62.4277 5.09375C62.6348 4.92188 62.8828 4.78711 63.1719 4.68945C63.4609 4.5918 63.7832 4.54297 64.1387 4.54297C64.6465 4.54297 65.0801 4.63281 65.4395 4.8125C65.7988 4.99219 66.0742 5.23242 66.2656 5.5332C66.457 5.83008 66.5527 6.16016 66.5527 6.52344H65.4688C65.4688 6.34766 65.416 6.17773 65.3105 6.01367C65.209 5.8457 65.0586 5.70703 64.8594 5.59766C64.6641 5.48828 64.4238 5.43359 64.1387 5.43359C63.8379 5.43359 63.5938 5.48047 63.4062 5.57422C63.2227 5.66406 63.0879 5.7793 63.002 5.91992C62.9199 6.06055 62.8789 6.20898 62.8789 6.36523C62.8789 6.48242 62.8984 6.58789 62.9375 6.68164C62.9805 6.77148 63.0547 6.85547 63.1602 6.93359C63.2656 7.00781 63.4141 7.07812 63.6055 7.14453C63.7969 7.21094 64.041 7.27734 64.3379 7.34375C64.8574 7.46094 65.2852 7.60156 65.6211 7.76562C65.957 7.92969 66.207 8.13086 66.3711 8.36914C66.5352 8.60742 66.6172 8.89648 66.6172 9.23633C66.6172 9.51367 66.5586 9.76758 66.4414 9.99805C66.3281 10.2285 66.1621 10.4277 65.9434 10.5957C65.7285 10.7598 65.4707 10.8887 65.1699 10.9824C64.873 11.0723 64.5391 11.1172 64.168 11.1172C63.6094 11.1172 63.1367 11.0176 62.75 10.8184C62.3633 10.6191 62.0703 10.3613 61.8711 10.0449C61.6719 9.72852 61.5723 9.39453 61.5723 9.04297H62.6621C62.6777 9.33984 62.7637 9.57617 62.9199 9.75195C63.0762 9.92383 63.2676 10.0469 63.4941 10.1211C63.7207 10.1914 63.9453 10.2266 64.168 10.2266C64.4648 10.2266 64.7129 10.1875 64.9121 10.1094C65.1152 10.0312 65.2695 9.92383 65.375 9.78711C65.4805 9.65039 65.5332 9.49414 65.5332 9.31836ZM70.6953 4.66016V5.49219H67.2676V4.66016H70.6953ZM68.4277 3.11914H69.5117V9.42969C69.5117 9.64453 69.5449 9.80664 69.6113 9.91602C69.6777 10.0254 69.7637 10.0977 69.8691 10.1328C69.9746 10.168 70.0879 10.1855 70.209 10.1855C70.2988 10.1855 70.3926 10.1777 70.4902 10.1621C70.5918 10.1426 70.668 10.127 70.7188 10.1152L70.7246 11C70.6387 11.0273 70.5254 11.0527 70.3848 11.0762C70.248 11.1035 70.082 11.1172 69.8867 11.1172C69.6211 11.1172 69.377 11.0645 69.1543 10.959C68.9316 10.8535 68.7539 10.6777 68.6211 10.4316C68.4922 10.1816 68.4277 9.8457 68.4277 9.42383V3.11914ZM75.7051 9.91602V6.65234C75.7051 6.40234 75.6543 6.18555 75.5527 6.00195C75.4551 5.81445 75.3066 5.66992 75.1074 5.56836C74.9082 5.4668 74.6621 5.41602 74.3691 5.41602C74.0957 5.41602 73.8555 5.46289 73.6484 5.55664C73.4453 5.65039 73.2852 5.77344 73.168 5.92578C73.0547 6.07812 72.998 6.24219 72.998 6.41797H71.9141C71.9141 6.19141 71.9727 5.9668 72.0898 5.74414C72.207 5.52148 72.375 5.32031 72.5938 5.14062C72.8164 4.95703 73.082 4.8125 73.3906 4.70703C73.7031 4.59766 74.0508 4.54297 74.4336 4.54297C74.8945 4.54297 75.3008 4.62109 75.6523 4.77734C76.0078 4.93359 76.2852 5.16992 76.4844 5.48633C76.6875 5.79883 76.7891 6.19141 76.7891 6.66406V9.61719C76.7891 9.82812 76.8066 10.0527 76.8418 10.291C76.8809 10.5293 76.9375 10.7344 77.0117 10.9062V11H75.8809C75.8262 10.875 75.7832 10.709 75.752 10.502C75.7207 10.291 75.7051 10.0957 75.7051 9.91602ZM75.8926 7.15625L75.9043 7.91797H74.8086C74.5 7.91797 74.2246 7.94336 73.9824 7.99414C73.7402 8.04102 73.5371 8.11328 73.373 8.21094C73.209 8.30859 73.084 8.43164 72.998 8.58008C72.9121 8.72461 72.8691 8.89453 72.8691 9.08984C72.8691 9.28906 72.9141 9.4707 73.0039 9.63477C73.0938 9.79883 73.2285 9.92969 73.4082 10.0273C73.5918 10.1211 73.8164 10.168 74.082 10.168C74.4141 10.168 74.707 10.0977 74.9609 9.95703C75.2148 9.81641 75.416 9.64453 75.5645 9.44141C75.7168 9.23828 75.7988 9.04102 75.8105 8.84961L76.2734 9.37109C76.2461 9.53516 76.1719 9.7168 76.0508 9.91602C75.9297 10.1152 75.7676 10.3066 75.5645 10.4902C75.3652 10.6699 75.127 10.8203 74.8496 10.9414C74.5762 11.0586 74.2676 11.1172 73.9238 11.1172C73.4941 11.1172 73.1172 11.0332 72.793 10.8652C72.4727 10.6973 72.2227 10.4727 72.043 10.1914C71.8672 9.90625 71.7793 9.58789 71.7793 9.23633C71.7793 8.89648 71.8457 8.59766 71.9785 8.33984C72.1113 8.07812 72.3027 7.86133 72.5527 7.68945C72.8027 7.51367 73.1035 7.38086 73.4551 7.29102C73.8066 7.20117 74.1992 7.15625 74.6328 7.15625H75.8926ZM82.4844 13.4375V5.87891L82.5781 4.66016H83.5742V13.4375H82.4844ZM78.2246 7.90039V7.77734C78.2246 7.29297 78.2812 6.85352 78.3945 6.45898C78.5078 6.06055 78.6738 5.71875 78.8926 5.43359C79.1113 5.14844 79.375 4.92969 79.6836 4.77734C79.9961 4.62109 80.3516 4.54297 80.75 4.54297C81.1484 4.54297 81.498 4.61328 81.7988 4.75391C82.1035 4.89062 82.3613 5.0918 82.5723 5.35742C82.7871 5.61914 82.957 5.93555 83.082 6.30664C83.207 6.67773 83.293 7.09766 83.3398 7.56641V8.10547C83.2969 8.57031 83.2129 8.98828 83.0879 9.35938C82.9629 9.73047 82.793 10.0469 82.5781 10.3086C82.3672 10.5703 82.1074 10.7715 81.7988 10.9121C81.4941 11.0488 81.1406 11.1172 80.7383 11.1172C80.3477 11.1172 79.9961 11.0371 79.6836 10.877C79.375 10.7168 79.1113 10.4922 78.8926 10.2031C78.6777 9.91406 78.5117 9.57422 78.3945 9.18359C78.2812 8.78906 78.2246 8.36133 78.2246 7.90039ZM79.3145 7.77734V7.90039C79.3145 8.2168 79.3477 8.51562 79.4141 8.79688C79.4805 9.07422 79.582 9.32031 79.7188 9.53516C79.8594 9.75 80.0352 9.91992 80.2461 10.0449C80.4609 10.166 80.7148 10.2266 81.0078 10.2266C81.3672 10.2266 81.666 10.1484 81.9043 9.99219C82.1465 9.83594 82.3398 9.63086 82.4844 9.37695C82.6289 9.11914 82.7402 8.84375 82.8184 8.55078V7.13867C82.7754 6.92383 82.707 6.71484 82.6133 6.51172C82.5234 6.30859 82.4062 6.12695 82.2617 5.9668C82.1172 5.80273 81.9414 5.67383 81.7344 5.58008C81.5312 5.48242 81.293 5.43359 81.0195 5.43359C80.7227 5.43359 80.4668 5.49609 80.252 5.62109C80.0371 5.74609 79.8594 5.91797 79.7188 6.13672C79.582 6.35156 79.4805 6.59961 79.4141 6.88086C79.3477 7.16211 79.3145 7.46094 79.3145 7.77734ZM89.1934 9.53516V4.66016H90.2832V11H89.2461L89.1934 9.53516ZM89.3984 8.19922L89.8496 8.1875C89.8496 8.60938 89.8047 9 89.7148 9.35938C89.6289 9.71484 89.4883 10.0234 89.293 10.2852C89.0977 10.5469 88.8418 10.752 88.5254 10.9004C88.209 11.0449 87.8242 11.1172 87.3711 11.1172C87.0625 11.1172 86.7793 11.0723 86.5215 10.9824C86.2676 10.8926 86.0488 10.7539 85.8652 10.5664C85.6816 10.3789 85.5391 10.1348 85.4375 9.83398C85.3398 9.5332 85.291 9.17188 85.291 8.75V4.66016H86.375V8.76172C86.375 9.04688 86.4062 9.2832 86.4688 9.4707C86.5352 9.6543 86.623 9.80078 86.7324 9.91016C86.8457 10.0156 86.9707 10.0898 87.1074 10.1328C87.248 10.1758 87.3926 10.1973 87.541 10.1973C88.002 10.1973 88.3672 10.1094 88.6367 9.93359C88.9062 9.75391 89.0996 9.51367 89.2168 9.21289C89.3379 8.9082 89.3984 8.57031 89.3984 8.19922ZM94.5664 11.1172C94.125 11.1172 93.7246 11.043 93.3652 10.8945C93.0098 10.7422 92.7031 10.5293 92.4453 10.2559C92.1914 9.98242 91.9961 9.6582 91.8594 9.2832C91.7227 8.9082 91.6543 8.49805 91.6543 8.05273V7.80664C91.6543 7.29102 91.7305 6.83203 91.8828 6.42969C92.0352 6.02344 92.2422 5.67969 92.5039 5.39844C92.7656 5.11719 93.0625 4.9043 93.3945 4.75977C93.7266 4.61523 94.0703 4.54297 94.4258 4.54297C94.8789 4.54297 95.2695 4.62109 95.5977 4.77734C95.9297 4.93359 96.2012 5.15234 96.4121 5.43359C96.623 5.71094 96.7793 6.03906 96.8809 6.41797C96.9824 6.79297 97.0332 7.20312 97.0332 7.64844V8.13477H92.2988V7.25H95.9492V7.16797C95.9336 6.88672 95.875 6.61328 95.7734 6.34766C95.6758 6.08203 95.5195 5.86328 95.3047 5.69141C95.0898 5.51953 94.7969 5.43359 94.4258 5.43359C94.1797 5.43359 93.9531 5.48633 93.7461 5.5918C93.5391 5.69336 93.3613 5.8457 93.2129 6.04883C93.0645 6.25195 92.9492 6.5 92.8672 6.79297C92.7852 7.08594 92.7441 7.42383 92.7441 7.80664V8.05273C92.7441 8.35352 92.7852 8.63672 92.8672 8.90234C92.9531 9.16406 93.0762 9.39453 93.2363 9.59375C93.4004 9.79297 93.5977 9.94922 93.8281 10.0625C94.0625 10.1758 94.3281 10.2324 94.625 10.2324C95.0078 10.2324 95.332 10.1543 95.5977 9.99805C95.8633 9.8418 96.0957 9.63281 96.2949 9.37109L96.9512 9.89258C96.8145 10.0996 96.6406 10.2969 96.4297 10.4844C96.2188 10.6719 95.959 10.8242 95.6504 10.9414C95.3457 11.0586 94.9844 11.1172 94.5664 11.1172Z" fill="#707070"/>
<path d="M29.915 127.944V121.047H31.959V127.944C31.959 128.61 31.8132 129.182 31.5215 129.66C31.2298 130.134 30.8311 130.499 30.3252 130.754C29.8239 131.009 29.2588 131.137 28.6299 131.137C27.9782 131.137 27.4017 131.027 26.9004 130.809C26.3991 130.59 26.0049 130.255 25.7178 129.804C25.4307 129.348 25.2871 128.771 25.2871 128.074H27.3447C27.3447 128.439 27.3949 128.728 27.4951 128.942C27.5999 129.157 27.748 129.309 27.9395 129.4C28.1309 129.492 28.361 129.537 28.6299 129.537C28.8896 129.537 29.1152 129.476 29.3066 129.353C29.498 129.229 29.6462 129.049 29.751 128.812C29.8604 128.576 29.915 128.286 29.915 127.944ZM37.9781 129.332V126.037C37.9781 125.8 37.9394 125.597 37.8619 125.429C37.7844 125.256 37.6637 125.121 37.4996 125.025C37.3401 124.93 37.1327 124.882 36.8775 124.882C36.6588 124.882 36.4697 124.921 36.3102 124.998C36.1507 125.071 36.0276 125.178 35.941 125.319C35.8544 125.456 35.8111 125.618 35.8111 125.805H33.8424C33.8424 125.49 33.9153 125.192 34.0611 124.909C34.207 124.627 34.4189 124.378 34.6969 124.164C34.9749 123.945 35.3053 123.774 35.6881 123.651C36.0755 123.528 36.5084 123.467 36.9869 123.467C37.5611 123.467 38.0715 123.562 38.5182 123.754C38.9648 123.945 39.3157 124.232 39.5709 124.615C39.8307 124.998 39.9605 125.477 39.9605 126.051V129.216C39.9605 129.621 39.9856 129.954 40.0357 130.214C40.0859 130.469 40.1588 130.692 40.2545 130.884V131H38.2652C38.1695 130.799 38.0966 130.549 38.0465 130.248C38.0009 129.943 37.9781 129.637 37.9781 129.332ZM38.2379 126.495L38.2516 127.609H37.151C36.8912 127.609 36.6656 127.639 36.4742 127.698C36.2828 127.757 36.1256 127.842 36.0025 127.951C35.8795 128.056 35.7883 128.179 35.7291 128.32C35.6744 128.462 35.6471 128.617 35.6471 128.785C35.6471 128.954 35.6858 129.106 35.7633 129.243C35.8408 129.375 35.9524 129.48 36.0982 129.558C36.2441 129.631 36.415 129.667 36.6109 129.667C36.9072 129.667 37.1646 129.608 37.3834 129.489C37.6021 129.371 37.7708 129.225 37.8893 129.052C38.0123 128.879 38.0761 128.715 38.0807 128.56L38.6002 129.394C38.5273 129.58 38.427 129.774 38.2994 129.975C38.1764 130.175 38.0191 130.364 37.8277 130.542C37.6363 130.715 37.4062 130.859 37.1373 130.973C36.8684 131.082 36.5494 131.137 36.1803 131.137C35.7109 131.137 35.2848 131.043 34.902 130.856C34.5237 130.665 34.2229 130.403 33.9996 130.07C33.7809 129.733 33.6715 129.35 33.6715 128.922C33.6715 128.535 33.7444 128.19 33.8902 127.89C34.0361 127.589 34.2503 127.336 34.5328 127.131C34.8199 126.921 35.1777 126.764 35.6061 126.659C36.0344 126.55 36.5312 126.495 37.0963 126.495H38.2379ZM43.8059 125.183V131H41.8371V123.604H43.6828L43.8059 125.183ZM43.5187 127.042H42.9855C42.9855 126.495 43.0562 126.003 43.1975 125.565C43.3387 125.123 43.537 124.747 43.7922 124.438C44.0474 124.123 44.3505 123.884 44.7014 123.72C45.0568 123.551 45.4533 123.467 45.8908 123.467C46.2372 123.467 46.5539 123.517 46.841 123.617C47.1281 123.717 47.3742 123.877 47.5793 124.096C47.7889 124.314 47.9484 124.604 48.0578 124.964C48.1717 125.324 48.2287 125.764 48.2287 126.283V131H46.2463V126.276C46.2463 125.948 46.2007 125.693 46.1096 125.511C46.0184 125.328 45.884 125.201 45.7062 125.128C45.5331 125.05 45.3189 125.012 45.0637 125.012C44.7993 125.012 44.5692 125.064 44.3732 125.169C44.1818 125.274 44.0223 125.42 43.8947 125.606C43.7717 125.789 43.6783 126.003 43.6145 126.249C43.5507 126.495 43.5187 126.759 43.5187 127.042ZM53.5301 131.137C52.9559 131.137 52.4409 131.046 51.9852 130.863C51.5294 130.676 51.1421 130.419 50.823 130.091C50.5086 129.763 50.2671 129.382 50.0984 128.949C49.9298 128.512 49.8455 128.047 49.8455 127.555V127.281C49.8455 126.721 49.9253 126.208 50.0848 125.743C50.2443 125.278 50.4721 124.875 50.7684 124.533C51.0691 124.191 51.4337 123.929 51.8621 123.747C52.2905 123.56 52.7736 123.467 53.3113 123.467C53.8354 123.467 54.3003 123.553 54.7059 123.727C55.1115 123.9 55.451 124.146 55.7244 124.465C56.0024 124.784 56.212 125.167 56.3533 125.613C56.4946 126.055 56.5652 126.548 56.5652 127.09V127.91H50.6863V126.598H54.6307V126.447C54.6307 126.174 54.5805 125.93 54.4803 125.716C54.3846 125.497 54.2387 125.324 54.0428 125.196C53.8468 125.069 53.5962 125.005 53.2908 125.005C53.0311 125.005 52.8077 125.062 52.6209 125.176C52.4341 125.29 52.2814 125.449 52.1629 125.654C52.049 125.859 51.9624 126.101 51.9031 126.379C51.8484 126.652 51.8211 126.953 51.8211 127.281V127.555C51.8211 127.851 51.8621 128.124 51.9441 128.375C52.0307 128.626 52.1515 128.842 52.3064 129.024C52.466 129.207 52.6574 129.348 52.8807 129.448C53.1085 129.549 53.366 129.599 53.6531 129.599C54.0086 129.599 54.339 129.53 54.6443 129.394C54.9542 129.252 55.2208 129.04 55.4441 128.758L56.4012 129.797C56.2462 130.02 56.0343 130.234 55.7654 130.439C55.5011 130.645 55.1821 130.813 54.8084 130.945C54.4347 131.073 54.0086 131.137 53.5301 131.137ZM60.1645 123.604V131H58.1889V123.604H60.1645ZM58.0658 121.676C58.0658 121.389 58.1661 121.152 58.3666 120.965C58.5671 120.778 58.836 120.685 59.1732 120.685C59.5059 120.685 59.7725 120.778 59.973 120.965C60.1781 121.152 60.2807 121.389 60.2807 121.676C60.2807 121.963 60.1781 122.2 59.973 122.387C59.7725 122.574 59.5059 122.667 59.1732 122.667C58.836 122.667 58.5671 122.574 58.3666 122.387C58.1661 122.2 58.0658 121.963 58.0658 121.676ZM64.1602 125.217V131H62.1914V123.604H64.0439L64.1602 125.217ZM66.3887 123.556L66.3545 125.381C66.2588 125.367 66.1426 125.356 66.0059 125.347C65.8737 125.333 65.7529 125.326 65.6436 125.326C65.3656 125.326 65.124 125.363 64.9189 125.436C64.7184 125.504 64.5498 125.606 64.4131 125.743C64.2809 125.88 64.1807 126.046 64.1123 126.242C64.0485 126.438 64.012 126.661 64.0029 126.912L63.6064 126.789C63.6064 126.311 63.6543 125.871 63.75 125.47C63.8457 125.064 63.9847 124.711 64.167 124.41C64.3538 124.109 64.5817 123.877 64.8506 123.713C65.1195 123.549 65.4271 123.467 65.7734 123.467C65.8828 123.467 65.9945 123.476 66.1084 123.494C66.2223 123.508 66.3158 123.528 66.3887 123.556ZM67.1988 127.377V127.233C67.1988 126.691 67.2763 126.192 67.4313 125.736C67.5862 125.276 67.8118 124.877 68.108 124.54C68.4042 124.203 68.7688 123.941 69.2018 123.754C69.6347 123.562 70.1314 123.467 70.692 123.467C71.2525 123.467 71.7516 123.562 72.1891 123.754C72.6266 123.941 72.9934 124.203 73.2896 124.54C73.5904 124.877 73.8183 125.276 73.9732 125.736C74.1282 126.192 74.2057 126.691 74.2057 127.233V127.377C74.2057 127.915 74.1282 128.414 73.9732 128.874C73.8183 129.33 73.5904 129.729 73.2896 130.07C72.9934 130.408 72.6288 130.67 72.1959 130.856C71.763 131.043 71.2662 131.137 70.7057 131.137C70.1451 131.137 69.6461 131.043 69.2086 130.856C68.7757 130.67 68.4088 130.408 68.108 130.07C67.8118 129.729 67.5862 129.33 67.4313 128.874C67.2763 128.414 67.1988 127.915 67.1988 127.377ZM69.1676 127.233V127.377C69.1676 127.687 69.1949 127.976 69.2496 128.245C69.3043 128.514 69.3909 128.751 69.5094 128.956C69.6324 129.157 69.7919 129.314 69.9879 129.428C70.1839 129.542 70.4231 129.599 70.7057 129.599C70.9791 129.599 71.2138 129.542 71.4098 129.428C71.6057 129.314 71.763 129.157 71.8814 128.956C71.9999 128.751 72.0865 128.514 72.1412 128.245C72.2005 127.976 72.2301 127.687 72.2301 127.377V127.233C72.2301 126.933 72.2005 126.65 72.1412 126.386C72.0865 126.117 71.9977 125.88 71.8746 125.675C71.7561 125.465 71.5989 125.301 71.4029 125.183C71.207 125.064 70.97 125.005 70.692 125.005C70.414 125.005 70.177 125.064 69.9811 125.183C69.7896 125.301 69.6324 125.465 69.5094 125.675C69.3909 125.88 69.3043 126.117 69.2496 126.386C69.1949 126.65 69.1676 126.933 69.1676 127.233Z" fill="#555555"/>
<path d="M15.4867 64.9734L18.9637 75.6745H30.2155L21.1126 82.2881L24.5896 92.9891L15.4867 86.3755L6.38386 92.9891L9.86084 82.2881L0.757975 75.6745H12.0097L15.4867 64.9734Z" fill="#FD9F00"/>
<path d="M84.5133 64.9734L87.9903 75.6745H99.2421L90.1392 82.2881L93.6162 92.9891L84.5133 86.3755L75.4105 92.9891L78.8875 82.2881L69.7846 75.6745H81.0364L84.5133 64.9734Z" fill="#FD9F00"/>
<path d="M30.9735 49.0442L35.9406 64.3314L52.0146 64.3314L39.0105 73.7795L43.9776 89.0667L30.9735 79.6187L17.9694 89.0667L22.9365 73.7795L9.93243 64.3314L26.0064 64.3314L30.9735 49.0442Z" fill="#FE8BBF"/>
<path d="M65.4869 49.0442L70.4541 64.3314L86.528 64.3314L73.5239 73.7795L78.491 89.0667L65.4869 79.6187L52.4828 89.0667L57.45 73.7795L44.4459 64.3314L60.5198 64.3314L65.4869 49.0442Z" fill="#FE8BBF"/>
<path d="M49.5574 34L56.5114 55.4021H79.0149L60.8092 68.6294L67.7632 90.0315L49.5574 76.8043L31.3517 90.0315L38.3057 68.6294L20.0999 55.4021H42.6035L49.5574 34Z" fill="#EA0034"/>
</svg>
