<svg width="154" height="147" viewBox="0 0 154 147" fill="none" xmlns="http://www.w3.org/2000/svg">
<g filter="url(#filter0_d_302_1498)">
<rect x="6" y="2" width="146" height="139" rx="15" fill="white"/>
<path d="M32.3477 14.4688H33.4434L36.2383 21.4238L39.0273 14.4688H40.1289L36.6602 23H35.8047L32.3477 14.4688ZM31.9902 14.4688H32.957L33.1152 19.6719V23H31.9902V14.4688ZM39.5137 14.4688H40.4805V23H39.3555V19.6719L39.5137 14.4688ZM44.9336 23.1172C44.4922 23.1172 44.0918 23.043 43.7324 22.8945C43.377 22.7422 43.0703 22.5293 42.8125 22.2559C42.5586 21.9824 42.3633 21.6582 42.2266 21.2832C42.0898 20.9082 42.0215 20.498 42.0215 20.0527V19.8066C42.0215 19.291 42.0977 18.832 42.25 18.4297C42.4023 18.0234 42.6094 17.6797 42.8711 17.3984C43.1328 17.1172 43.4297 16.9043 43.7617 16.7598C44.0938 16.6152 44.4375 16.543 44.793 16.543C45.2461 16.543 45.6367 16.6211 45.9648 16.7773C46.2969 16.9336 46.5684 17.1523 46.7793 17.4336C46.9902 17.7109 47.1465 18.0391 47.248 18.418C47.3496 18.793 47.4004 19.2031 47.4004 19.6484V20.1348H42.666V19.25H46.3164V19.168C46.3008 18.8867 46.2422 18.6133 46.1406 18.3477C46.043 18.082 45.8867 17.8633 45.6719 17.6914C45.457 17.5195 45.1641 17.4336 44.793 17.4336C44.5469 17.4336 44.3203 17.4863 44.1133 17.5918C43.9062 17.6934 43.7285 17.8457 43.5801 18.0488C43.4316 18.252 43.3164 18.5 43.2344 18.793C43.1523 19.0859 43.1113 19.4238 43.1113 19.8066V20.0527C43.1113 20.3535 43.1523 20.6367 43.2344 20.9023C43.3203 21.1641 43.4434 21.3945 43.6035 21.5938C43.7676 21.793 43.9648 21.9492 44.1953 22.0625C44.4297 22.1758 44.6953 22.2324 44.9922 22.2324C45.375 22.2324 45.6992 22.1543 45.9648 21.998C46.2305 21.8418 46.4629 21.6328 46.6621 21.3711L47.3184 21.8926C47.1816 22.0996 47.0078 22.2969 46.7969 22.4844C46.5859 22.6719 46.3262 22.8242 46.0176 22.9414C45.7129 23.0586 45.3516 23.1172 44.9336 23.1172ZM45.1152 14L46.5684 15.5996V15.6582H45.666L44.7871 14.668L43.9141 15.6582H43.0234V15.5938L44.459 14H45.1152ZM52.3574 21.3184C52.3574 21.1621 52.3223 21.0176 52.252 20.8848C52.1855 20.748 52.0469 20.625 51.8359 20.5156C51.6289 20.4023 51.3164 20.3047 50.8984 20.2227C50.5469 20.1484 50.2285 20.0605 49.9434 19.959C49.6621 19.8574 49.4219 19.7344 49.2227 19.5898C49.0273 19.4453 48.877 19.2754 48.7715 19.0801C48.666 18.8848 48.6133 18.6562 48.6133 18.3945C48.6133 18.1445 48.668 17.9082 48.7773 17.6855C48.8906 17.4629 49.0488 17.2656 49.252 17.0938C49.459 16.9219 49.707 16.7871 49.9961 16.6895C50.2852 16.5918 50.6074 16.543 50.9629 16.543C51.4707 16.543 51.9043 16.6328 52.2637 16.8125C52.623 16.9922 52.8984 17.2324 53.0898 17.5332C53.2812 17.8301 53.377 18.1602 53.377 18.5234H52.293C52.293 18.3477 52.2402 18.1777 52.1348 18.0137C52.0332 17.8457 51.8828 17.707 51.6836 17.5977C51.4883 17.4883 51.248 17.4336 50.9629 17.4336C50.6621 17.4336 50.418 17.4805 50.2305 17.5742C50.0469 17.6641 49.9121 17.7793 49.8262 17.9199C49.7441 18.0605 49.7031 18.209 49.7031 18.3652C49.7031 18.4824 49.7227 18.5879 49.7617 18.6816C49.8047 18.7715 49.8789 18.8555 49.9844 18.9336C50.0898 19.0078 50.2383 19.0781 50.4297 19.1445C50.6211 19.2109 50.8652 19.2773 51.1621 19.3438C51.6816 19.4609 52.1094 19.6016 52.4453 19.7656C52.7812 19.9297 53.0312 20.1309 53.1953 20.3691C53.3594 20.6074 53.4414 20.8965 53.4414 21.2363C53.4414 21.5137 53.3828 21.7676 53.2656 21.998C53.1523 22.2285 52.9863 22.4277 52.7676 22.5957C52.5527 22.7598 52.2949 22.8887 51.9941 22.9824C51.6973 23.0723 51.3633 23.1172 50.9922 23.1172C50.4336 23.1172 49.9609 23.0176 49.5742 22.8184C49.1875 22.6191 48.8945 22.3613 48.6953 22.0449C48.4961 21.7285 48.3965 21.3945 48.3965 21.043H49.4863C49.502 21.3398 49.5879 21.5762 49.7441 21.752C49.9004 21.9238 50.0918 22.0469 50.3184 22.1211C50.5449 22.1914 50.7695 22.2266 50.9922 22.2266C51.2891 22.2266 51.5371 22.1875 51.7363 22.1094C51.9395 22.0312 52.0938 21.9238 52.1992 21.7871C52.3047 21.6504 52.3574 21.4941 52.3574 21.3184ZM60.4727 23.1172C60.0312 23.1172 59.6309 23.043 59.2715 22.8945C58.916 22.7422 58.6094 22.5293 58.3516 22.2559C58.0977 21.9824 57.9023 21.6582 57.7656 21.2832C57.6289 20.9082 57.5605 20.498 57.5605 20.0527V19.8066C57.5605 19.291 57.6367 18.832 57.7891 18.4297C57.9414 18.0234 58.1484 17.6797 58.4102 17.3984C58.6719 17.1172 58.9688 16.9043 59.3008 16.7598C59.6328 16.6152 59.9766 16.543 60.332 16.543C60.7852 16.543 61.1758 16.6211 61.5039 16.7773C61.8359 16.9336 62.1074 17.1523 62.3184 17.4336C62.5293 17.7109 62.6855 18.0391 62.7871 18.418C62.8887 18.793 62.9395 19.2031 62.9395 19.6484V20.1348H58.2051V19.25H61.8555V19.168C61.8398 18.8867 61.7812 18.6133 61.6797 18.3477C61.582 18.082 61.4258 17.8633 61.2109 17.6914C60.9961 17.5195 60.7031 17.4336 60.332 17.4336C60.0859 17.4336 59.8594 17.4863 59.6523 17.5918C59.4453 17.6934 59.2676 17.8457 59.1191 18.0488C58.9707 18.252 58.8555 18.5 58.7734 18.793C58.6914 19.0859 58.6504 19.4238 58.6504 19.8066V20.0527C58.6504 20.3535 58.6914 20.6367 58.7734 20.9023C58.8594 21.1641 58.9824 21.3945 59.1426 21.5938C59.3066 21.793 59.5039 21.9492 59.7344 22.0625C59.9688 22.1758 60.2344 22.2324 60.5312 22.2324C60.9141 22.2324 61.2383 22.1543 61.5039 21.998C61.7695 21.8418 62.002 21.6328 62.2012 21.3711L62.8574 21.8926C62.7207 22.0996 62.5469 22.2969 62.3359 22.4844C62.125 22.6719 61.8652 22.8242 61.5566 22.9414C61.252 23.0586 60.8906 23.1172 60.4727 23.1172ZM65.2832 17.9199V23H64.1934V16.6602H65.2246L65.2832 17.9199ZM65.0605 19.5898L64.5566 19.5723C64.5605 19.1387 64.6172 18.7383 64.7266 18.3711C64.8359 18 64.998 17.6777 65.2129 17.4043C65.4277 17.1309 65.6953 16.9199 66.0156 16.7715C66.3359 16.6191 66.707 16.543 67.1289 16.543C67.4258 16.543 67.6992 16.5859 67.9492 16.6719C68.1992 16.7539 68.416 16.8848 68.5996 17.0645C68.7832 17.2441 68.9258 17.4746 69.0273 17.7559C69.1289 18.0371 69.1797 18.377 69.1797 18.7754V23H68.0957V18.8281C68.0957 18.4961 68.0391 18.2305 67.9258 18.0312C67.8164 17.832 67.6602 17.6875 67.457 17.5977C67.2539 17.5039 67.0156 17.457 66.7422 17.457C66.4219 17.457 66.1543 17.5137 65.9395 17.627C65.7246 17.7402 65.5527 17.8965 65.4238 18.0957C65.2949 18.2949 65.2012 18.5234 65.1426 18.7812C65.0879 19.0352 65.0605 19.3047 65.0605 19.5898ZM69.168 18.9922L68.4414 19.2148C68.4453 18.8672 68.502 18.5332 68.6113 18.2129C68.7246 17.8926 68.8867 17.6074 69.0977 17.3574C69.3125 17.1074 69.5762 16.9102 69.8887 16.7656C70.2012 16.6172 70.5586 16.543 70.9609 16.543C71.3008 16.543 71.6016 16.5879 71.8633 16.6777C72.1289 16.7676 72.3516 16.9062 72.5312 17.0938C72.7148 17.2773 72.8535 17.5137 72.9473 17.8027C73.041 18.0918 73.0879 18.4355 73.0879 18.834V23H71.998V18.8223C71.998 18.4668 71.9414 18.1914 71.8281 17.9961C71.7188 17.7969 71.5625 17.6582 71.3594 17.5801C71.1602 17.498 70.9219 17.457 70.6445 17.457C70.4062 17.457 70.1953 17.498 70.0117 17.5801C69.8281 17.6621 69.6738 17.7754 69.5488 17.9199C69.4238 18.0605 69.3281 18.2227 69.2617 18.4062C69.1992 18.5898 69.168 18.7852 69.168 18.9922ZM81.7012 21.7695V14H82.791V23H81.7949L81.7012 21.7695ZM77.4355 19.9004V19.7773C77.4355 19.293 77.4941 18.8535 77.6113 18.459C77.7324 18.0605 77.9023 17.7188 78.1211 17.4336C78.3438 17.1484 78.6074 16.9297 78.9121 16.7773C79.2207 16.6211 79.5645 16.543 79.9434 16.543C80.3418 16.543 80.6895 16.6133 80.9863 16.7539C81.2871 16.8906 81.541 17.0918 81.748 17.3574C81.959 17.6191 82.125 17.9355 82.2461 18.3066C82.3672 18.6777 82.4512 19.0977 82.498 19.5664V20.1055C82.4551 20.5703 82.3711 20.9883 82.2461 21.3594C82.125 21.7305 81.959 22.0469 81.748 22.3086C81.541 22.5703 81.2871 22.7715 80.9863 22.9121C80.6855 23.0488 80.334 23.1172 79.9316 23.1172C79.5605 23.1172 79.2207 23.0371 78.9121 22.877C78.6074 22.7168 78.3438 22.4922 78.1211 22.2031C77.9023 21.9141 77.7324 21.5742 77.6113 21.1836C77.4941 20.7891 77.4355 20.3613 77.4355 19.9004ZM78.5254 19.7773V19.9004C78.5254 20.2168 78.5566 20.5137 78.6191 20.791C78.6855 21.0684 78.7871 21.3125 78.9238 21.5234C79.0605 21.7344 79.2344 21.9004 79.4453 22.0215C79.6562 22.1387 79.9082 22.1973 80.2012 22.1973C80.5605 22.1973 80.8555 22.1211 81.0859 21.9688C81.3203 21.8164 81.5078 21.6152 81.6484 21.3652C81.7891 21.1152 81.8984 20.8438 81.9766 20.5508V19.1387C81.9297 18.9238 81.8613 18.7168 81.7715 18.5176C81.6855 18.3145 81.5723 18.1348 81.4316 17.9785C81.2949 17.8184 81.125 17.6914 80.9219 17.5977C80.7227 17.5039 80.4863 17.457 80.2129 17.457C79.916 17.457 79.6602 17.5195 79.4453 17.6445C79.2344 17.7656 79.0605 17.9336 78.9238 18.1484C78.7871 18.3594 78.6855 18.6055 78.6191 18.8867C78.5566 19.1641 78.5254 19.4609 78.5254 19.7773ZM87.1094 23.1172C86.668 23.1172 86.2676 23.043 85.9082 22.8945C85.5527 22.7422 85.2461 22.5293 84.9883 22.2559C84.7344 21.9824 84.5391 21.6582 84.4023 21.2832C84.2656 20.9082 84.1973 20.498 84.1973 20.0527V19.8066C84.1973 19.291 84.2734 18.832 84.4258 18.4297C84.5781 18.0234 84.7852 17.6797 85.0469 17.3984C85.3086 17.1172 85.6055 16.9043 85.9375 16.7598C86.2695 16.6152 86.6133 16.543 86.9688 16.543C87.4219 16.543 87.8125 16.6211 88.1406 16.7773C88.4727 16.9336 88.7441 17.1523 88.9551 17.4336C89.166 17.7109 89.3223 18.0391 89.4238 18.418C89.5254 18.793 89.5762 19.2031 89.5762 19.6484V20.1348H84.8418V19.25H88.4922V19.168C88.4766 18.8867 88.418 18.6133 88.3164 18.3477C88.2188 18.082 88.0625 17.8633 87.8477 17.6914C87.6328 17.5195 87.3398 17.4336 86.9688 17.4336C86.7227 17.4336 86.4961 17.4863 86.2891 17.5918C86.082 17.6934 85.9043 17.8457 85.7559 18.0488C85.6074 18.252 85.4922 18.5 85.4102 18.793C85.3281 19.0859 85.2871 19.4238 85.2871 19.8066V20.0527C85.2871 20.3535 85.3281 20.6367 85.4102 20.9023C85.4961 21.1641 85.6191 21.3945 85.7793 21.5938C85.9434 21.793 86.1406 21.9492 86.3711 22.0625C86.6055 22.1758 86.8711 22.2324 87.168 22.2324C87.5508 22.2324 87.875 22.1543 88.1406 21.998C88.4062 21.8418 88.6387 21.6328 88.8379 21.3711L89.4941 21.8926C89.3574 22.0996 89.1836 22.2969 88.9727 22.4844C88.7617 22.6719 88.502 22.8242 88.1934 22.9414C87.8887 23.0586 87.5273 23.1172 87.1094 23.1172ZM94.5332 21.3184C94.5332 21.1621 94.498 21.0176 94.4277 20.8848C94.3613 20.748 94.2227 20.625 94.0117 20.5156C93.8047 20.4023 93.4922 20.3047 93.0742 20.2227C92.7227 20.1484 92.4043 20.0605 92.1191 19.959C91.8379 19.8574 91.5977 19.7344 91.3984 19.5898C91.2031 19.4453 91.0527 19.2754 90.9473 19.0801C90.8418 18.8848 90.7891 18.6562 90.7891 18.3945C90.7891 18.1445 90.8438 17.9082 90.9531 17.6855C91.0664 17.4629 91.2246 17.2656 91.4277 17.0938C91.6348 16.9219 91.8828 16.7871 92.1719 16.6895C92.4609 16.5918 92.7832 16.543 93.1387 16.543C93.6465 16.543 94.0801 16.6328 94.4395 16.8125C94.7988 16.9922 95.0742 17.2324 95.2656 17.5332C95.457 17.8301 95.5527 18.1602 95.5527 18.5234H94.4688C94.4688 18.3477 94.416 18.1777 94.3105 18.0137C94.209 17.8457 94.0586 17.707 93.8594 17.5977C93.6641 17.4883 93.4238 17.4336 93.1387 17.4336C92.8379 17.4336 92.5938 17.4805 92.4062 17.5742C92.2227 17.6641 92.0879 17.7793 92.002 17.9199C91.9199 18.0605 91.8789 18.209 91.8789 18.3652C91.8789 18.4824 91.8984 18.5879 91.9375 18.6816C91.9805 18.7715 92.0547 18.8555 92.1602 18.9336C92.2656 19.0078 92.4141 19.0781 92.6055 19.1445C92.7969 19.2109 93.041 19.2773 93.3379 19.3438C93.8574 19.4609 94.2852 19.6016 94.6211 19.7656C94.957 19.9297 95.207 20.1309 95.3711 20.3691C95.5352 20.6074 95.6172 20.8965 95.6172 21.2363C95.6172 21.5137 95.5586 21.7676 95.4414 21.998C95.3281 22.2285 95.1621 22.4277 94.9434 22.5957C94.7285 22.7598 94.4707 22.8887 94.1699 22.9824C93.873 23.0723 93.5391 23.1172 93.168 23.1172C92.6094 23.1172 92.1367 23.0176 91.75 22.8184C91.3633 22.6191 91.0703 22.3613 90.8711 22.0449C90.6719 21.7285 90.5723 21.3945 90.5723 21.043H91.6621C91.6777 21.3398 91.7637 21.5762 91.9199 21.752C92.0762 21.9238 92.2676 22.0469 92.4941 22.1211C92.7207 22.1914 92.9453 22.2266 93.168 22.2266C93.4648 22.2266 93.7129 22.1875 93.9121 22.1094C94.1152 22.0312 94.2695 21.9238 94.375 21.7871C94.4805 21.6504 94.5332 21.4941 94.5332 21.3184ZM99.6953 16.6602V17.4922H96.2676V16.6602H99.6953ZM97.4277 15.1191H98.5117V21.4297C98.5117 21.6445 98.5449 21.8066 98.6113 21.916C98.6777 22.0254 98.7637 22.0977 98.8691 22.1328C98.9746 22.168 99.0879 22.1855 99.209 22.1855C99.2988 22.1855 99.3926 22.1777 99.4902 22.1621C99.5918 22.1426 99.668 22.127 99.7188 22.1152L99.7246 23C99.6387 23.0273 99.5254 23.0527 99.3848 23.0762C99.248 23.1035 99.082 23.1172 98.8867 23.1172C98.6211 23.1172 98.377 23.0645 98.1543 22.959C97.9316 22.8535 97.7539 22.6777 97.6211 22.4316C97.4922 22.1816 97.4277 21.8457 97.4277 21.4238V15.1191ZM104.705 21.916V18.6523C104.705 18.4023 104.654 18.1855 104.553 18.002C104.455 17.8145 104.307 17.6699 104.107 17.5684C103.908 17.4668 103.662 17.416 103.369 17.416C103.096 17.416 102.855 17.4629 102.648 17.5566C102.445 17.6504 102.285 17.7734 102.168 17.9258C102.055 18.0781 101.998 18.2422 101.998 18.418H100.914C100.914 18.1914 100.973 17.9668 101.09 17.7441C101.207 17.5215 101.375 17.3203 101.594 17.1406C101.816 16.957 102.082 16.8125 102.391 16.707C102.703 16.5977 103.051 16.543 103.434 16.543C103.895 16.543 104.301 16.6211 104.652 16.7773C105.008 16.9336 105.285 17.1699 105.484 17.4863C105.688 17.7988 105.789 18.1914 105.789 18.6641V21.6172C105.789 21.8281 105.807 22.0527 105.842 22.291C105.881 22.5293 105.938 22.7344 106.012 22.9062V23H104.881C104.826 22.875 104.783 22.709 104.752 22.502C104.721 22.291 104.705 22.0957 104.705 21.916ZM104.893 19.1562L104.904 19.918H103.809C103.5 19.918 103.225 19.9434 102.982 19.9941C102.74 20.041 102.537 20.1133 102.373 20.2109C102.209 20.3086 102.084 20.4316 101.998 20.5801C101.912 20.7246 101.869 20.8945 101.869 21.0898C101.869 21.2891 101.914 21.4707 102.004 21.6348C102.094 21.7988 102.229 21.9297 102.408 22.0273C102.592 22.1211 102.816 22.168 103.082 22.168C103.414 22.168 103.707 22.0977 103.961 21.957C104.215 21.8164 104.416 21.6445 104.564 21.4414C104.717 21.2383 104.799 21.041 104.811 20.8496L105.273 21.3711C105.246 21.5352 105.172 21.7168 105.051 21.916C104.93 22.1152 104.768 22.3066 104.564 22.4902C104.365 22.6699 104.127 22.8203 103.85 22.9414C103.576 23.0586 103.268 23.1172 102.924 23.1172C102.494 23.1172 102.117 23.0332 101.793 22.8652C101.473 22.6973 101.223 22.4727 101.043 22.1914C100.867 21.9062 100.779 21.5879 100.779 21.2363C100.779 20.8965 100.846 20.5977 100.979 20.3398C101.111 20.0781 101.303 19.8613 101.553 19.6895C101.803 19.5137 102.104 19.3809 102.455 19.291C102.807 19.2012 103.199 19.1562 103.633 19.1562H104.893ZM111.484 25.4375V17.8789L111.578 16.6602H112.574V25.4375H111.484ZM107.225 19.9004V19.7773C107.225 19.293 107.281 18.8535 107.395 18.459C107.508 18.0605 107.674 17.7188 107.893 17.4336C108.111 17.1484 108.375 16.9297 108.684 16.7773C108.996 16.6211 109.352 16.543 109.75 16.543C110.148 16.543 110.498 16.6133 110.799 16.7539C111.104 16.8906 111.361 17.0918 111.572 17.3574C111.787 17.6191 111.957 17.9355 112.082 18.3066C112.207 18.6777 112.293 19.0977 112.34 19.5664V20.1055C112.297 20.5703 112.213 20.9883 112.088 21.3594C111.963 21.7305 111.793 22.0469 111.578 22.3086C111.367 22.5703 111.107 22.7715 110.799 22.9121C110.494 23.0488 110.141 23.1172 109.738 23.1172C109.348 23.1172 108.996 23.0371 108.684 22.877C108.375 22.7168 108.111 22.4922 107.893 22.2031C107.678 21.9141 107.512 21.5742 107.395 21.1836C107.281 20.7891 107.225 20.3613 107.225 19.9004ZM108.314 19.7773V19.9004C108.314 20.2168 108.348 20.5156 108.414 20.7969C108.48 21.0742 108.582 21.3203 108.719 21.5352C108.859 21.75 109.035 21.9199 109.246 22.0449C109.461 22.166 109.715 22.2266 110.008 22.2266C110.367 22.2266 110.666 22.1484 110.904 21.9922C111.146 21.8359 111.34 21.6309 111.484 21.377C111.629 21.1191 111.74 20.8438 111.818 20.5508V19.1387C111.775 18.9238 111.707 18.7148 111.613 18.5117C111.523 18.3086 111.406 18.127 111.262 17.9668C111.117 17.8027 110.941 17.6738 110.734 17.5801C110.531 17.4824 110.293 17.4336 110.02 17.4336C109.723 17.4336 109.467 17.4961 109.252 17.6211C109.037 17.7461 108.859 17.918 108.719 18.1367C108.582 18.3516 108.48 18.5996 108.414 18.8809C108.348 19.1621 108.314 19.4609 108.314 19.7773ZM118.193 21.5352V16.6602H119.283V23H118.246L118.193 21.5352ZM118.398 20.1992L118.85 20.1875C118.85 20.6094 118.805 21 118.715 21.3594C118.629 21.7148 118.488 22.0234 118.293 22.2852C118.098 22.5469 117.842 22.752 117.525 22.9004C117.209 23.0449 116.824 23.1172 116.371 23.1172C116.062 23.1172 115.779 23.0723 115.521 22.9824C115.268 22.8926 115.049 22.7539 114.865 22.5664C114.682 22.3789 114.539 22.1348 114.438 21.834C114.34 21.5332 114.291 21.1719 114.291 20.75V16.6602H115.375V20.7617C115.375 21.0469 115.406 21.2832 115.469 21.4707C115.535 21.6543 115.623 21.8008 115.732 21.9102C115.846 22.0156 115.971 22.0898 116.107 22.1328C116.248 22.1758 116.393 22.1973 116.541 22.1973C117.002 22.1973 117.367 22.1094 117.637 21.9336C117.906 21.7539 118.1 21.5137 118.217 21.2129C118.338 20.9082 118.398 20.5703 118.398 20.1992ZM123.566 23.1172C123.125 23.1172 122.725 23.043 122.365 22.8945C122.01 22.7422 121.703 22.5293 121.445 22.2559C121.191 21.9824 120.996 21.6582 120.859 21.2832C120.723 20.9082 120.654 20.498 120.654 20.0527V19.8066C120.654 19.291 120.73 18.832 120.883 18.4297C121.035 18.0234 121.242 17.6797 121.504 17.3984C121.766 17.1172 122.062 16.9043 122.395 16.7598C122.727 16.6152 123.07 16.543 123.426 16.543C123.879 16.543 124.27 16.6211 124.598 16.7773C124.93 16.9336 125.201 17.1523 125.412 17.4336C125.623 17.7109 125.779 18.0391 125.881 18.418C125.982 18.793 126.033 19.2031 126.033 19.6484V20.1348H121.299V19.25H124.949V19.168C124.934 18.8867 124.875 18.6133 124.773 18.3477C124.676 18.082 124.52 17.8633 124.305 17.6914C124.09 17.5195 123.797 17.4336 123.426 17.4336C123.18 17.4336 122.953 17.4863 122.746 17.5918C122.539 17.6934 122.361 17.8457 122.213 18.0488C122.064 18.252 121.949 18.5 121.867 18.793C121.785 19.0859 121.744 19.4238 121.744 19.8066V20.0527C121.744 20.3535 121.785 20.6367 121.867 20.9023C121.953 21.1641 122.076 21.3945 122.236 21.5938C122.4 21.793 122.598 21.9492 122.828 22.0625C123.062 22.1758 123.328 22.2324 123.625 22.2324C124.008 22.2324 124.332 22.1543 124.598 21.998C124.863 21.8418 125.096 21.6328 125.295 21.3711L125.951 21.8926C125.814 22.0996 125.641 22.2969 125.43 22.4844C125.219 22.6719 124.959 22.8242 124.65 22.9414C124.346 23.0586 123.984 23.1172 123.566 23.1172Z" fill="#707070"/>
</g>
<path d="M44.4867 67.9734L47.9637 78.6745H59.2155L50.1126 85.2881L53.5896 95.9891L44.4867 89.3755L35.3839 95.9891L38.8608 85.2881L29.758 78.6745H41.0097L44.4867 67.9734Z" fill="#FD9F00"/>
<path d="M113.513 67.9734L116.99 78.6745H128.242L119.139 85.2881L122.616 95.9891L113.513 89.3755L104.41 95.9891L107.887 85.2881L98.7846 78.6745H110.036L113.513 67.9734Z" fill="#FD9F00"/>
<path d="M59.9735 52.0442L64.9406 67.3314L81.0146 67.3314L68.0105 76.7795L72.9776 92.0667L59.9735 82.6187L46.9694 92.0667L51.9365 76.7795L38.9324 67.3314L55.0064 67.3314L59.9735 52.0442Z" fill="#FE8BBF"/>
<path d="M94.4869 52.0442L99.4541 67.3314L115.528 67.3314L102.524 76.7795L107.491 92.0667L94.4869 82.6187L81.4828 92.0667L86.45 76.7795L73.4459 67.3314L89.5198 67.3314L94.4869 52.0442Z" fill="#FE8BBF"/>
<path d="M78.5574 37L85.5114 58.4021H108.015L89.8092 71.6294L96.7632 93.0315L78.5574 79.8043L60.3517 93.0315L67.3057 71.6294L49.0999 58.4021H71.6035L78.5574 37Z" fill="#EA0034"/>
<path d="M58.915 118.944V112.047H60.959V118.944C60.959 119.61 60.8132 120.182 60.5215 120.66C60.2298 121.134 59.8311 121.499 59.3252 121.754C58.8239 122.009 58.2588 122.137 57.6299 122.137C56.9782 122.137 56.4017 122.027 55.9004 121.809C55.3991 121.59 55.0049 121.255 54.7178 120.804C54.4307 120.348 54.2871 119.771 54.2871 119.074H56.3447C56.3447 119.439 56.3949 119.728 56.4951 119.942C56.5999 120.157 56.748 120.309 56.9395 120.4C57.1309 120.492 57.361 120.537 57.6299 120.537C57.8896 120.537 58.1152 120.476 58.3066 120.353C58.498 120.229 58.6462 120.049 58.751 119.812C58.8604 119.576 58.915 119.286 58.915 118.944ZM66.9781 120.332V117.037C66.9781 116.8 66.9394 116.597 66.8619 116.429C66.7844 116.256 66.6637 116.121 66.4996 116.025C66.3401 115.93 66.1327 115.882 65.8775 115.882C65.6588 115.882 65.4697 115.921 65.3102 115.998C65.1507 116.071 65.0276 116.178 64.941 116.319C64.8544 116.456 64.8111 116.618 64.8111 116.805H62.8424C62.8424 116.49 62.9153 116.192 63.0611 115.909C63.207 115.627 63.4189 115.378 63.6969 115.164C63.9749 114.945 64.3053 114.774 64.6881 114.651C65.0755 114.528 65.5084 114.467 65.9869 114.467C66.5611 114.467 67.0715 114.562 67.5182 114.754C67.9648 114.945 68.3157 115.232 68.5709 115.615C68.8307 115.998 68.9605 116.477 68.9605 117.051V120.216C68.9605 120.621 68.9856 120.954 69.0357 121.214C69.0859 121.469 69.1588 121.692 69.2545 121.884V122H67.2652C67.1695 121.799 67.0966 121.549 67.0465 121.248C67.0009 120.943 66.9781 120.637 66.9781 120.332ZM67.2379 117.495L67.2516 118.609H66.151C65.8912 118.609 65.6656 118.639 65.4742 118.698C65.2828 118.757 65.1256 118.842 65.0025 118.951C64.8795 119.056 64.7883 119.179 64.7291 119.32C64.6744 119.462 64.6471 119.617 64.6471 119.785C64.6471 119.954 64.6858 120.106 64.7633 120.243C64.8408 120.375 64.9524 120.48 65.0982 120.558C65.2441 120.631 65.415 120.667 65.6109 120.667C65.9072 120.667 66.1646 120.608 66.3834 120.489C66.6021 120.371 66.7708 120.225 66.8893 120.052C67.0123 119.879 67.0761 119.715 67.0807 119.56L67.6002 120.394C67.5273 120.58 67.427 120.774 67.2994 120.975C67.1764 121.175 67.0191 121.364 66.8277 121.542C66.6363 121.715 66.4062 121.859 66.1373 121.973C65.8684 122.082 65.5494 122.137 65.1803 122.137C64.7109 122.137 64.2848 122.043 63.902 121.856C63.5237 121.665 63.2229 121.403 62.9996 121.07C62.7809 120.733 62.6715 120.35 62.6715 119.922C62.6715 119.535 62.7444 119.19 62.8902 118.89C63.0361 118.589 63.2503 118.336 63.5328 118.131C63.8199 117.921 64.1777 117.764 64.6061 117.659C65.0344 117.55 65.5312 117.495 66.0963 117.495H67.2379ZM72.8059 116.183V122H70.8371V114.604H72.6828L72.8059 116.183ZM72.5187 118.042H71.9855C71.9855 117.495 72.0562 117.003 72.1975 116.565C72.3387 116.123 72.537 115.747 72.7922 115.438C73.0474 115.123 73.3505 114.884 73.7014 114.72C74.0568 114.551 74.4533 114.467 74.8908 114.467C75.2372 114.467 75.5539 114.517 75.841 114.617C76.1281 114.717 76.3742 114.877 76.5793 115.096C76.7889 115.314 76.9484 115.604 77.0578 115.964C77.1717 116.324 77.2287 116.764 77.2287 117.283V122H75.2463V117.276C75.2463 116.948 75.2007 116.693 75.1096 116.511C75.0184 116.328 74.884 116.201 74.7062 116.128C74.5331 116.05 74.3189 116.012 74.0637 116.012C73.7993 116.012 73.5692 116.064 73.3732 116.169C73.1818 116.274 73.0223 116.42 72.8947 116.606C72.7717 116.789 72.6783 117.003 72.6145 117.249C72.5507 117.495 72.5187 117.759 72.5187 118.042ZM82.5301 122.137C81.9559 122.137 81.4409 122.046 80.9852 121.863C80.5294 121.676 80.1421 121.419 79.823 121.091C79.5086 120.763 79.2671 120.382 79.0984 119.949C78.9298 119.512 78.8455 119.047 78.8455 118.555V118.281C78.8455 117.721 78.9253 117.208 79.0848 116.743C79.2443 116.278 79.4721 115.875 79.7684 115.533C80.0691 115.191 80.4337 114.929 80.8621 114.747C81.2905 114.56 81.7736 114.467 82.3113 114.467C82.8354 114.467 83.3003 114.553 83.7059 114.727C84.1115 114.9 84.451 115.146 84.7244 115.465C85.0024 115.784 85.212 116.167 85.3533 116.613C85.4946 117.055 85.5652 117.548 85.5652 118.09V118.91H79.6863V117.598H83.6307V117.447C83.6307 117.174 83.5805 116.93 83.4803 116.716C83.3846 116.497 83.2387 116.324 83.0428 116.196C82.8468 116.069 82.5962 116.005 82.2908 116.005C82.0311 116.005 81.8077 116.062 81.6209 116.176C81.4341 116.29 81.2814 116.449 81.1629 116.654C81.049 116.859 80.9624 117.101 80.9031 117.379C80.8484 117.652 80.8211 117.953 80.8211 118.281V118.555C80.8211 118.851 80.8621 119.124 80.9441 119.375C81.0307 119.626 81.1515 119.842 81.3064 120.024C81.466 120.207 81.6574 120.348 81.8807 120.448C82.1085 120.549 82.366 120.599 82.6531 120.599C83.0086 120.599 83.339 120.53 83.6443 120.394C83.9542 120.252 84.2208 120.04 84.4441 119.758L85.4012 120.797C85.2462 121.02 85.0343 121.234 84.7654 121.439C84.5011 121.645 84.1821 121.813 83.8084 121.945C83.4347 122.073 83.0086 122.137 82.5301 122.137ZM89.1645 114.604V122H87.1889V114.604H89.1645ZM87.0658 112.676C87.0658 112.389 87.1661 112.152 87.3666 111.965C87.5671 111.778 87.836 111.685 88.1732 111.685C88.5059 111.685 88.7725 111.778 88.973 111.965C89.1781 112.152 89.2807 112.389 89.2807 112.676C89.2807 112.963 89.1781 113.2 88.973 113.387C88.7725 113.574 88.5059 113.667 88.1732 113.667C87.836 113.667 87.5671 113.574 87.3666 113.387C87.1661 113.2 87.0658 112.963 87.0658 112.676ZM93.1602 116.217V122H91.1914V114.604H93.0439L93.1602 116.217ZM95.3887 114.556L95.3545 116.381C95.2588 116.367 95.1426 116.356 95.0059 116.347C94.8737 116.333 94.7529 116.326 94.6436 116.326C94.3656 116.326 94.124 116.363 93.9189 116.436C93.7184 116.504 93.5498 116.606 93.4131 116.743C93.2809 116.88 93.1807 117.046 93.1123 117.242C93.0485 117.438 93.012 117.661 93.0029 117.912L92.6064 117.789C92.6064 117.311 92.6543 116.871 92.75 116.47C92.8457 116.064 92.9847 115.711 93.167 115.41C93.3538 115.109 93.5817 114.877 93.8506 114.713C94.1195 114.549 94.4271 114.467 94.7734 114.467C94.8828 114.467 94.9945 114.476 95.1084 114.494C95.2223 114.508 95.3158 114.528 95.3887 114.556ZM96.1988 118.377V118.233C96.1988 117.691 96.2763 117.192 96.4313 116.736C96.5862 116.276 96.8118 115.877 97.108 115.54C97.4042 115.203 97.7688 114.941 98.2018 114.754C98.6347 114.562 99.1314 114.467 99.692 114.467C100.253 114.467 100.752 114.562 101.189 114.754C101.627 114.941 101.993 115.203 102.29 115.54C102.59 115.877 102.818 116.276 102.973 116.736C103.128 117.192 103.206 117.691 103.206 118.233V118.377C103.206 118.915 103.128 119.414 102.973 119.874C102.818 120.33 102.59 120.729 102.29 121.07C101.993 121.408 101.629 121.67 101.196 121.856C100.763 122.043 100.266 122.137 99.7057 122.137C99.1451 122.137 98.6461 122.043 98.2086 121.856C97.7757 121.67 97.4088 121.408 97.108 121.07C96.8118 120.729 96.5862 120.33 96.4313 119.874C96.2763 119.414 96.1988 118.915 96.1988 118.377ZM98.1676 118.233V118.377C98.1676 118.687 98.1949 118.976 98.2496 119.245C98.3043 119.514 98.3909 119.751 98.5094 119.956C98.6324 120.157 98.7919 120.314 98.9879 120.428C99.1839 120.542 99.4231 120.599 99.7057 120.599C99.9791 120.599 100.214 120.542 100.41 120.428C100.606 120.314 100.763 120.157 100.881 119.956C101 119.751 101.087 119.514 101.141 119.245C101.2 118.976 101.23 118.687 101.23 118.377V118.233C101.23 117.933 101.2 117.65 101.141 117.386C101.087 117.117 100.998 116.88 100.875 116.675C100.756 116.465 100.599 116.301 100.403 116.183C100.207 116.064 99.97 116.005 99.692 116.005C99.414 116.005 99.177 116.064 98.9811 116.183C98.7896 116.301 98.6324 116.465 98.5094 116.675C98.3909 116.88 98.3043 117.117 98.2496 117.386C98.1949 117.65 98.1676 117.933 98.1676 118.233Z" fill="#555555"/>
<defs>
<filter id="filter0_d_302_1498" x="0" y="0" width="154" height="147" filterUnits="userSpaceOnUse" color-interpolation-filters="sRGB">
<feFlood flood-opacity="0" result="BackgroundImageFix"/>
<feColorMatrix in="SourceAlpha" type="matrix" values="0 0 0 0 0 0 0 0 0 0 0 0 0 0 0 0 0 0 127 0" result="hardAlpha"/>
<feOffset dx="-2" dy="2"/>
<feGaussianBlur stdDeviation="2"/>
<feComposite in2="hardAlpha" operator="out"/>
<feColorMatrix type="matrix" values="0 0 0 0 0 0 0 0 0 0 0 0 0 0 0 0 0 0 0.05 0"/>
<feBlend mode="normal" in2="BackgroundImageFix" result="effect1_dropShadow_302_1498"/>
<feBlend mode="normal" in="SourceGraphic" in2="effect1_dropShadow_302_1498" result="shape"/>
</filter>
</defs>
</svg>
