<svg width="545" height="364" viewBox="0 0 545 364" fill="none" xmlns="http://www.w3.org/2000/svg">
<g filter="url(#filter0_d_233_9464)">
<rect x="6" y="2" width="537" height="356" rx="10" fill="white"/>
</g>
<rect x="6" y="56" width="537" height="1" fill="#D9D9D9"/>
<rect width="7.00641" height="7.00641" transform="matrix(0.707753 -0.70646 0.707753 0.70646 46 29)" fill="#FD9F00"/>
<path d="M64.6709 31.7051L67.1846 24.4688H68.4092L65.251 33H64.3779L64.6709 31.7051ZM62.3213 24.4688L64.8115 31.7051L65.1221 33H64.249L61.0967 24.4688H62.3213ZM71.7666 33.1172C71.3252 33.1172 70.9248 33.043 70.5654 32.8945C70.21 32.7422 69.9033 32.5293 69.6455 32.2559C69.3916 31.9824 69.1963 31.6582 69.0596 31.2832C68.9229 30.9082 68.8545 30.498 68.8545 30.0527V29.8066C68.8545 29.291 68.9307 28.832 69.083 28.4297C69.2354 28.0234 69.4424 27.6797 69.7041 27.3984C69.9658 27.1172 70.2627 26.9043 70.5947 26.7598C70.9268 26.6152 71.2705 26.543 71.626 26.543C72.0791 26.543 72.4697 26.6211 72.7979 26.7773C73.1299 26.9336 73.4014 27.1523 73.6123 27.4336C73.8232 27.7109 73.9795 28.0391 74.0811 28.418C74.1826 28.793 74.2334 29.2031 74.2334 29.6484V30.1348H69.499V29.25H73.1494V29.168C73.1338 28.8867 73.0752 28.6133 72.9736 28.3477C72.876 28.082 72.7197 27.8633 72.5049 27.6914C72.29 27.5195 71.9971 27.4336 71.626 27.4336C71.3799 27.4336 71.1533 27.4863 70.9463 27.5918C70.7393 27.6934 70.5615 27.8457 70.4131 28.0488C70.2646 28.252 70.1494 28.5 70.0674 28.793C69.9854 29.0859 69.9443 29.4238 69.9443 29.8066V30.0527C69.9443 30.3535 69.9854 30.6367 70.0674 30.9023C70.1533 31.1641 70.2764 31.3945 70.4365 31.5938C70.6006 31.793 70.7979 31.9492 71.0283 32.0625C71.2627 32.1758 71.5283 32.2324 71.8252 32.2324C72.208 32.2324 72.5322 32.1543 72.7979 31.998C73.0635 31.8418 73.2959 31.6328 73.4951 31.3711L74.1514 31.8926C74.0146 32.0996 73.8408 32.2969 73.6299 32.4844C73.4189 32.6719 73.1592 32.8242 72.8506 32.9414C72.5459 33.0586 72.1846 33.1172 71.7666 33.1172ZM76.583 28.0137V33H75.499V26.6602H76.5244L76.583 28.0137ZM76.3252 29.5898L75.874 29.5723C75.8779 29.1387 75.9424 28.7383 76.0674 28.3711C76.1924 28 76.3682 27.6777 76.5947 27.4043C76.8213 27.1309 77.0908 26.9199 77.4033 26.7715C77.7197 26.6191 78.0693 26.543 78.4521 26.543C78.7646 26.543 79.0459 26.5859 79.2959 26.6719C79.5459 26.7539 79.7588 26.8867 79.9346 27.0703C80.1143 27.2539 80.251 27.4922 80.3447 27.7852C80.4385 28.0742 80.4854 28.4277 80.4854 28.8457V33H79.3955V28.834C79.3955 28.502 79.3467 28.2363 79.249 28.0371C79.1514 27.834 79.0088 27.6875 78.8213 27.5977C78.6338 27.5039 78.4033 27.457 78.1299 27.457C77.8604 27.457 77.6143 27.5137 77.3916 27.627C77.1729 27.7402 76.9834 27.8965 76.8232 28.0957C76.667 28.2949 76.5439 28.5234 76.4541 28.7812C76.3682 29.0352 76.3252 29.3047 76.3252 29.5898ZM86.1279 31.7695V24H87.2178V33H86.2217L86.1279 31.7695ZM81.8623 29.9004V29.7773C81.8623 29.293 81.9209 28.8535 82.0381 28.459C82.1592 28.0605 82.3291 27.7188 82.5479 27.4336C82.7705 27.1484 83.0342 26.9297 83.3389 26.7773C83.6475 26.6211 83.9912 26.543 84.3701 26.543C84.7686 26.543 85.1162 26.6133 85.4131 26.7539C85.7139 26.8906 85.9678 27.0918 86.1748 27.3574C86.3857 27.6191 86.5518 27.9355 86.6729 28.3066C86.7939 28.6777 86.8779 29.0977 86.9248 29.5664V30.1055C86.8818 30.5703 86.7979 30.9883 86.6729 31.3594C86.5518 31.7305 86.3857 32.0469 86.1748 32.3086C85.9678 32.5703 85.7139 32.7715 85.4131 32.9121C85.1123 33.0488 84.7607 33.1172 84.3584 33.1172C83.9873 33.1172 83.6475 33.0371 83.3389 32.877C83.0342 32.7168 82.7705 32.4922 82.5479 32.2031C82.3291 31.9141 82.1592 31.5742 82.0381 31.1836C81.9209 30.7891 81.8623 30.3613 81.8623 29.9004ZM82.9521 29.7773V29.9004C82.9521 30.2168 82.9834 30.5137 83.0459 30.791C83.1123 31.0684 83.2139 31.3125 83.3506 31.5234C83.4873 31.7344 83.6611 31.9004 83.8721 32.0215C84.083 32.1387 84.335 32.1973 84.6279 32.1973C84.9873 32.1973 85.2822 32.1211 85.5127 31.9688C85.7471 31.8164 85.9346 31.6152 86.0752 31.3652C86.2158 31.1152 86.3252 30.8438 86.4033 30.5508V29.1387C86.3564 28.9238 86.2881 28.7168 86.1982 28.5176C86.1123 28.3145 85.999 28.1348 85.8584 27.9785C85.7217 27.8184 85.5518 27.6914 85.3486 27.5977C85.1494 27.5039 84.9131 27.457 84.6396 27.457C84.3428 27.457 84.0869 27.5195 83.8721 27.6445C83.6611 27.7656 83.4873 27.9336 83.3506 28.1484C83.2139 28.3594 83.1123 28.6055 83.0459 28.8867C82.9834 29.1641 82.9521 29.4609 82.9521 29.7773ZM92.6436 31.916V28.6523C92.6436 28.4023 92.5928 28.1855 92.4912 28.002C92.3936 27.8145 92.2451 27.6699 92.0459 27.5684C91.8467 27.4668 91.6006 27.416 91.3076 27.416C91.0342 27.416 90.7939 27.4629 90.5869 27.5566C90.3838 27.6504 90.2236 27.7734 90.1064 27.9258C89.9932 28.0781 89.9365 28.2422 89.9365 28.418H88.8525C88.8525 28.1914 88.9111 27.9668 89.0283 27.7441C89.1455 27.5215 89.3135 27.3203 89.5322 27.1406C89.7549 26.957 90.0205 26.8125 90.3291 26.707C90.6416 26.5977 90.9893 26.543 91.3721 26.543C91.833 26.543 92.2393 26.6211 92.5908 26.7773C92.9463 26.9336 93.2236 27.1699 93.4229 27.4863C93.626 27.7988 93.7275 28.1914 93.7275 28.6641V31.6172C93.7275 31.8281 93.7451 32.0527 93.7803 32.291C93.8193 32.5293 93.876 32.7344 93.9502 32.9062V33H92.8193C92.7646 32.875 92.7217 32.709 92.6904 32.502C92.6592 32.291 92.6436 32.0957 92.6436 31.916ZM92.8311 29.1562L92.8428 29.918H91.7471C91.4385 29.918 91.1631 29.9434 90.9209 29.9941C90.6787 30.041 90.4756 30.1133 90.3115 30.2109C90.1475 30.3086 90.0225 30.4316 89.9365 30.5801C89.8506 30.7246 89.8076 30.8945 89.8076 31.0898C89.8076 31.2891 89.8525 31.4707 89.9424 31.6348C90.0322 31.7988 90.167 31.9297 90.3467 32.0273C90.5303 32.1211 90.7549 32.168 91.0205 32.168C91.3525 32.168 91.6455 32.0977 91.8994 31.957C92.1533 31.8164 92.3545 31.6445 92.5029 31.4414C92.6553 31.2383 92.7373 31.041 92.749 30.8496L93.2119 31.3711C93.1846 31.5352 93.1104 31.7168 92.9893 31.916C92.8682 32.1152 92.7061 32.3066 92.5029 32.4902C92.3037 32.6699 92.0654 32.8203 91.7881 32.9414C91.5146 33.0586 91.2061 33.1172 90.8623 33.1172C90.4326 33.1172 90.0557 33.0332 89.7314 32.8652C89.4111 32.6973 89.1611 32.4727 88.9814 32.1914C88.8057 31.9062 88.7178 31.5879 88.7178 31.2363C88.7178 30.8965 88.7842 30.5977 88.917 30.3398C89.0498 30.0781 89.2412 29.8613 89.4912 29.6895C89.7412 29.5137 90.042 29.3809 90.3936 29.291C90.7451 29.2012 91.1377 29.1562 91.5713 29.1562H92.8311ZM99.124 31.3184C99.124 31.1621 99.0889 31.0176 99.0186 30.8848C98.9521 30.748 98.8135 30.625 98.6025 30.5156C98.3955 30.4023 98.083 30.3047 97.665 30.2227C97.3135 30.1484 96.9951 30.0605 96.71 29.959C96.4287 29.8574 96.1885 29.7344 95.9893 29.5898C95.7939 29.4453 95.6436 29.2754 95.5381 29.0801C95.4326 28.8848 95.3799 28.6562 95.3799 28.3945C95.3799 28.1445 95.4346 27.9082 95.5439 27.6855C95.6572 27.4629 95.8154 27.2656 96.0186 27.0938C96.2256 26.9219 96.4736 26.7871 96.7627 26.6895C97.0518 26.5918 97.374 26.543 97.7295 26.543C98.2373 26.543 98.6709 26.6328 99.0303 26.8125C99.3896 26.9922 99.665 27.2324 99.8564 27.5332C100.048 27.8301 100.144 28.1602 100.144 28.5234H99.0596C99.0596 28.3477 99.0068 28.1777 98.9014 28.0137C98.7998 27.8457 98.6494 27.707 98.4502 27.5977C98.2549 27.4883 98.0146 27.4336 97.7295 27.4336C97.4287 27.4336 97.1846 27.4805 96.9971 27.5742C96.8135 27.6641 96.6787 27.7793 96.5928 27.9199C96.5107 28.0605 96.4697 28.209 96.4697 28.3652C96.4697 28.4824 96.4893 28.5879 96.5283 28.6816C96.5713 28.7715 96.6455 28.8555 96.751 28.9336C96.8564 29.0078 97.0049 29.0781 97.1963 29.1445C97.3877 29.2109 97.6318 29.2773 97.9287 29.3438C98.4482 29.4609 98.876 29.6016 99.2119 29.7656C99.5479 29.9297 99.7979 30.1309 99.9619 30.3691C100.126 30.6074 100.208 30.8965 100.208 31.2363C100.208 31.5137 100.149 31.7676 100.032 31.998C99.9189 32.2285 99.7529 32.4277 99.5342 32.5957C99.3193 32.7598 99.0615 32.8887 98.7607 32.9824C98.4639 33.0723 98.1299 33.1172 97.7588 33.1172C97.2002 33.1172 96.7275 33.0176 96.3408 32.8184C95.9541 32.6191 95.6611 32.3613 95.4619 32.0449C95.2627 31.7285 95.1631 31.3945 95.1631 31.043H96.2529C96.2686 31.3398 96.3545 31.5762 96.5107 31.752C96.667 31.9238 96.8584 32.0469 97.085 32.1211C97.3115 32.1914 97.5361 32.2266 97.7588 32.2266C98.0557 32.2266 98.3037 32.1875 98.5029 32.1094C98.7061 32.0312 98.8604 31.9238 98.9658 31.7871C99.0713 31.6504 99.124 31.4941 99.124 31.3184Z" fill="#707070"/>
<rect width="7.00641" height="7.00641" transform="matrix(0.707753 -0.70646 0.707753 0.70646 194 29)" fill="#0FE90B"/>
<path d="M213.075 25.2246L210.251 33H209.097L212.349 24.4688H213.093L213.075 25.2246ZM215.442 33L212.612 25.2246L212.595 24.4688H213.339L216.603 33H215.442ZM215.296 29.8418V30.7676H210.503V29.8418H215.296ZM220.13 26.6602V27.4922H216.702V26.6602H220.13ZM217.862 25.1191H218.946V31.4297C218.946 31.6445 218.979 31.8066 219.046 31.916C219.112 32.0254 219.198 32.0977 219.304 32.1328C219.409 32.168 219.522 32.1855 219.644 32.1855C219.733 32.1855 219.827 32.1777 219.925 32.1621C220.026 32.1426 220.103 32.127 220.153 32.1152L220.159 33C220.073 33.0273 219.96 33.0527 219.819 33.0762C219.683 33.1035 219.517 33.1172 219.321 33.1172C219.056 33.1172 218.812 33.0645 218.589 32.959C218.366 32.8535 218.188 32.6777 218.056 32.4316C217.927 32.1816 217.862 31.8457 217.862 31.4238V25.1191ZM225.28 31.5352V26.6602H226.37V33H225.333L225.28 31.5352ZM225.485 30.1992L225.937 30.1875C225.937 30.6094 225.892 31 225.802 31.3594C225.716 31.7148 225.575 32.0234 225.38 32.2852C225.185 32.5469 224.929 32.752 224.612 32.9004C224.296 33.0449 223.911 33.1172 223.458 33.1172C223.149 33.1172 222.866 33.0723 222.608 32.9824C222.354 32.8926 222.136 32.7539 221.952 32.5664C221.769 32.3789 221.626 32.1348 221.524 31.834C221.427 31.5332 221.378 31.1719 221.378 30.75V26.6602H222.462V30.7617C222.462 31.0469 222.493 31.2832 222.556 31.4707C222.622 31.6543 222.71 31.8008 222.819 31.9102C222.933 32.0156 223.058 32.0898 223.194 32.1328C223.335 32.1758 223.479 32.1973 223.628 32.1973C224.089 32.1973 224.454 32.1094 224.724 31.9336C224.993 31.7539 225.187 31.5137 225.304 31.2129C225.425 30.9082 225.485 30.5703 225.485 30.1992ZM231.761 31.916V28.6523C231.761 28.4023 231.71 28.1855 231.608 28.002C231.511 27.8145 231.362 27.6699 231.163 27.5684C230.964 27.4668 230.718 27.416 230.425 27.416C230.151 27.416 229.911 27.4629 229.704 27.5566C229.501 27.6504 229.341 27.7734 229.224 27.9258C229.11 28.0781 229.054 28.2422 229.054 28.418H227.97C227.97 28.1914 228.028 27.9668 228.146 27.7441C228.263 27.5215 228.431 27.3203 228.649 27.1406C228.872 26.957 229.138 26.8125 229.446 26.707C229.759 26.5977 230.106 26.543 230.489 26.543C230.95 26.543 231.356 26.6211 231.708 26.7773C232.063 26.9336 232.341 27.1699 232.54 27.4863C232.743 27.7988 232.845 28.1914 232.845 28.6641V31.6172C232.845 31.8281 232.862 32.0527 232.897 32.291C232.937 32.5293 232.993 32.7344 233.067 32.9062V33H231.937C231.882 32.875 231.839 32.709 231.808 32.502C231.776 32.291 231.761 32.0957 231.761 31.916ZM231.948 29.1562L231.96 29.918H230.864C230.556 29.918 230.28 29.9434 230.038 29.9941C229.796 30.041 229.593 30.1133 229.429 30.2109C229.265 30.3086 229.14 30.4316 229.054 30.5801C228.968 30.7246 228.925 30.8945 228.925 31.0898C228.925 31.2891 228.97 31.4707 229.06 31.6348C229.149 31.7988 229.284 31.9297 229.464 32.0273C229.647 32.1211 229.872 32.168 230.138 32.168C230.47 32.168 230.763 32.0977 231.017 31.957C231.271 31.8164 231.472 31.6445 231.62 31.4414C231.772 31.2383 231.854 31.041 231.866 30.8496L232.329 31.3711C232.302 31.5352 232.228 31.7168 232.106 31.916C231.985 32.1152 231.823 32.3066 231.62 32.4902C231.421 32.6699 231.183 32.8203 230.905 32.9414C230.632 33.0586 230.323 33.1172 229.979 33.1172C229.55 33.1172 229.173 33.0332 228.849 32.8652C228.528 32.6973 228.278 32.4727 228.099 32.1914C227.923 31.9062 227.835 31.5879 227.835 31.2363C227.835 30.8965 227.901 30.5977 228.034 30.3398C228.167 30.0781 228.358 29.8613 228.608 29.6895C228.858 29.5137 229.159 29.3809 229.511 29.291C229.862 29.2012 230.255 29.1562 230.688 29.1562H231.948ZM235.728 24V33H234.638V24H235.728Z" fill="#707070"/>
<rect x="2.12301" width="4.0056" height="4.0056" transform="matrix(0.707671 -0.706542 0.707671 0.706542 116.621 30.5)" stroke="#F47533" stroke-width="3" stroke-dasharray="3 3"/>
<path d="M135.06 29.6543H132.78V28.7344H135.06C135.501 28.7344 135.858 28.6641 136.132 28.5234C136.405 28.3828 136.604 28.1875 136.729 27.9375C136.858 27.6875 136.923 27.4023 136.923 27.082C136.923 26.7891 136.858 26.5137 136.729 26.2559C136.604 25.998 136.405 25.791 136.132 25.6348C135.858 25.4746 135.501 25.3945 135.06 25.3945H133.044V33H131.913V24.4688H135.06C135.704 24.4688 136.249 24.5801 136.694 24.8027C137.14 25.0254 137.478 25.334 137.708 25.7285C137.938 26.1191 138.054 26.5664 138.054 27.0703C138.054 27.6172 137.938 28.084 137.708 28.4707C137.478 28.8574 137.14 29.1523 136.694 29.3555C136.249 29.5547 135.704 29.6543 135.06 29.6543ZM140.403 27.6562V33H139.319V26.6602H140.374L140.403 27.6562ZM142.384 26.625L142.378 27.6328C142.288 27.6133 142.202 27.6016 142.12 27.5977C142.042 27.5898 141.952 27.5859 141.851 27.5859C141.601 27.5859 141.38 27.625 141.188 27.7031C140.997 27.7812 140.835 27.8906 140.702 28.0312C140.569 28.1719 140.464 28.3398 140.386 28.5352C140.312 28.7266 140.263 28.9375 140.239 29.168L139.935 29.3438C139.935 28.9609 139.972 28.6016 140.046 28.2656C140.124 27.9297 140.243 27.6328 140.403 27.375C140.563 27.1133 140.767 26.9102 141.013 26.7656C141.263 26.6172 141.56 26.543 141.903 26.543C141.981 26.543 142.071 26.5527 142.173 26.5723C142.274 26.5879 142.345 26.6055 142.384 26.625ZM142.981 29.9004V29.7656C142.981 29.3086 143.048 28.8848 143.181 28.4941C143.313 28.0996 143.505 27.7578 143.755 27.4688C144.005 27.1758 144.308 26.9492 144.663 26.7891C145.019 26.625 145.417 26.543 145.858 26.543C146.304 26.543 146.704 26.625 147.06 26.7891C147.419 26.9492 147.724 27.1758 147.974 27.4688C148.228 27.7578 148.421 28.0996 148.554 28.4941C148.687 28.8848 148.753 29.3086 148.753 29.7656V29.9004C148.753 30.3574 148.687 30.7812 148.554 31.1719C148.421 31.5625 148.228 31.9043 147.974 32.1973C147.724 32.4863 147.421 32.7129 147.065 32.877C146.714 33.0371 146.315 33.1172 145.87 33.1172C145.425 33.1172 145.024 33.0371 144.669 32.877C144.313 32.7129 144.009 32.4863 143.755 32.1973C143.505 31.9043 143.313 31.5625 143.181 31.1719C143.048 30.7812 142.981 30.3574 142.981 29.9004ZM144.065 29.7656V29.9004C144.065 30.2168 144.103 30.5156 144.177 30.7969C144.251 31.0742 144.362 31.3203 144.511 31.5352C144.663 31.75 144.853 31.9199 145.079 32.0449C145.306 32.166 145.569 32.2266 145.87 32.2266C146.167 32.2266 146.427 32.166 146.649 32.0449C146.876 31.9199 147.063 31.75 147.212 31.5352C147.36 31.3203 147.472 31.0742 147.546 30.7969C147.624 30.5156 147.663 30.2168 147.663 29.9004V29.7656C147.663 29.4531 147.624 29.1582 147.546 28.8809C147.472 28.5996 147.358 28.3516 147.206 28.1367C147.058 27.918 146.87 27.7461 146.644 27.6211C146.421 27.4961 146.159 27.4336 145.858 27.4336C145.562 27.4336 145.3 27.4961 145.073 27.6211C144.851 27.7461 144.663 27.918 144.511 28.1367C144.362 28.3516 144.251 28.5996 144.177 28.8809C144.103 29.1582 144.065 29.4531 144.065 29.7656ZM150.142 26.6602H151.231V33.7559C151.231 34.1426 151.169 34.4707 151.044 34.7402C150.923 35.0098 150.739 35.2129 150.493 35.3496C150.251 35.4902 149.944 35.5605 149.573 35.5605C149.476 35.5605 149.362 35.5508 149.233 35.5312C149.101 35.5117 148.989 35.4883 148.899 35.4609L148.905 34.5879C148.979 34.6035 149.063 34.6152 149.157 34.623C149.251 34.6348 149.333 34.6406 149.403 34.6406C149.563 34.6406 149.698 34.6113 149.808 34.5527C149.917 34.4941 149.999 34.4004 150.054 34.2715C150.112 34.1426 150.142 33.9707 150.142 33.7559V26.6602ZM150.03 24.9785C150.03 24.8027 150.085 24.6543 150.194 24.5332C150.304 24.4121 150.462 24.3516 150.669 24.3516C150.88 24.3516 151.04 24.4121 151.149 24.5332C151.259 24.6543 151.313 24.8027 151.313 24.9785C151.313 25.1465 151.259 25.291 151.149 25.4121C151.04 25.5293 150.88 25.5879 150.669 25.5879C150.462 25.5879 150.304 25.5293 150.194 25.4121C150.085 25.291 150.03 25.1465 150.03 24.9785ZM155.614 33.1172C155.173 33.1172 154.772 33.043 154.413 32.8945C154.058 32.7422 153.751 32.5293 153.493 32.2559C153.239 31.9824 153.044 31.6582 152.907 31.2832C152.771 30.9082 152.702 30.498 152.702 30.0527V29.8066C152.702 29.291 152.778 28.832 152.931 28.4297C153.083 28.0234 153.29 27.6797 153.552 27.3984C153.813 27.1172 154.11 26.9043 154.442 26.7598C154.774 26.6152 155.118 26.543 155.474 26.543C155.927 26.543 156.317 26.6211 156.646 26.7773C156.978 26.9336 157.249 27.1523 157.46 27.4336C157.671 27.7109 157.827 28.0391 157.929 28.418C158.03 28.793 158.081 29.2031 158.081 29.6484V30.1348H153.347V29.25H156.997V29.168C156.981 28.8867 156.923 28.6133 156.821 28.3477C156.724 28.082 156.567 27.8633 156.353 27.6914C156.138 27.5195 155.845 27.4336 155.474 27.4336C155.228 27.4336 155.001 27.4863 154.794 27.5918C154.587 27.6934 154.409 27.8457 154.261 28.0488C154.112 28.252 153.997 28.5 153.915 28.793C153.833 29.0859 153.792 29.4238 153.792 29.8066V30.0527C153.792 30.3535 153.833 30.6367 153.915 30.9023C154.001 31.1641 154.124 31.3945 154.284 31.5938C154.448 31.793 154.646 31.9492 154.876 32.0625C155.11 32.1758 155.376 32.2324 155.673 32.2324C156.056 32.2324 156.38 32.1543 156.646 31.998C156.911 31.8418 157.144 31.6328 157.343 31.3711L157.999 31.8926C157.862 32.0996 157.688 32.2969 157.478 32.4844C157.267 32.6719 157.007 32.8242 156.698 32.9414C156.394 33.0586 156.032 33.1172 155.614 33.1172ZM161.884 32.2266C162.142 32.2266 162.38 32.1738 162.599 32.0684C162.817 31.9629 162.997 31.8184 163.138 31.6348C163.278 31.4473 163.358 31.2344 163.378 30.9961H164.409C164.39 31.3711 164.263 31.7207 164.028 32.0449C163.798 32.3652 163.495 32.625 163.12 32.8242C162.745 33.0195 162.333 33.1172 161.884 33.1172C161.407 33.1172 160.991 33.0332 160.636 32.8652C160.284 32.6973 159.991 32.4668 159.757 32.1738C159.526 31.8809 159.353 31.5449 159.235 31.166C159.122 30.7832 159.065 30.3789 159.065 29.9531V29.707C159.065 29.2812 159.122 28.8789 159.235 28.5C159.353 28.1172 159.526 27.7793 159.757 27.4863C159.991 27.1934 160.284 26.9629 160.636 26.7949C160.991 26.627 161.407 26.543 161.884 26.543C162.38 26.543 162.813 26.6445 163.185 26.8477C163.556 27.0469 163.847 27.3203 164.058 27.668C164.272 28.0117 164.39 28.4023 164.409 28.8398H163.378C163.358 28.5781 163.284 28.3418 163.155 28.1309C163.03 27.9199 162.858 27.752 162.64 27.627C162.425 27.498 162.173 27.4336 161.884 27.4336C161.552 27.4336 161.272 27.5 161.046 27.6328C160.823 27.7617 160.646 27.9375 160.513 28.1602C160.384 28.3789 160.29 28.623 160.231 28.8926C160.177 29.1582 160.149 29.4297 160.149 29.707V29.9531C160.149 30.2305 160.177 30.5039 160.231 30.7734C160.286 31.043 160.378 31.2871 160.507 31.5059C160.64 31.7246 160.817 31.9004 161.04 32.0332C161.267 32.1621 161.548 32.2266 161.884 32.2266ZM161.286 33.0586H162.065L161.995 33.3691C162.222 33.4082 162.427 33.502 162.61 33.6504C162.798 33.7988 162.892 34.043 162.892 34.3828C162.892 34.5664 162.853 34.7324 162.774 34.8809C162.7 35.0332 162.589 35.1621 162.44 35.2676C162.292 35.377 162.106 35.4609 161.884 35.5195C161.665 35.5781 161.409 35.6074 161.116 35.6074L161.075 34.9805C161.255 34.9805 161.417 34.9609 161.562 34.9219C161.71 34.8828 161.827 34.8203 161.913 34.7344C162.003 34.6484 162.048 34.5371 162.048 34.4004C162.048 34.2715 162.015 34.1699 161.948 34.0957C161.882 34.0215 161.778 33.9648 161.638 33.9258C161.501 33.8906 161.323 33.8652 161.104 33.8496L161.286 33.0586ZM169.366 31.916V28.6523C169.366 28.4023 169.315 28.1855 169.214 28.002C169.116 27.8145 168.968 27.6699 168.769 27.5684C168.569 27.4668 168.323 27.416 168.03 27.416C167.757 27.416 167.517 27.4629 167.31 27.5566C167.106 27.6504 166.946 27.7734 166.829 27.9258C166.716 28.0781 166.659 28.2422 166.659 28.418H165.575C165.575 28.1914 165.634 27.9668 165.751 27.7441C165.868 27.5215 166.036 27.3203 166.255 27.1406C166.478 26.957 166.743 26.8125 167.052 26.707C167.364 26.5977 167.712 26.543 168.095 26.543C168.556 26.543 168.962 26.6211 169.313 26.7773C169.669 26.9336 169.946 27.1699 170.146 27.4863C170.349 27.7988 170.45 28.1914 170.45 28.6641V31.6172C170.45 31.8281 170.468 32.0527 170.503 32.291C170.542 32.5293 170.599 32.7344 170.673 32.9062V33H169.542C169.487 32.875 169.444 32.709 169.413 32.502C169.382 32.291 169.366 32.0957 169.366 31.916ZM169.554 29.1562L169.565 29.918H168.47C168.161 29.918 167.886 29.9434 167.644 29.9941C167.401 30.041 167.198 30.1133 167.034 30.2109C166.87 30.3086 166.745 30.4316 166.659 30.5801C166.573 30.7246 166.53 30.8945 166.53 31.0898C166.53 31.2891 166.575 31.4707 166.665 31.6348C166.755 31.7988 166.89 31.9297 167.069 32.0273C167.253 32.1211 167.478 32.168 167.743 32.168C168.075 32.168 168.368 32.0977 168.622 31.957C168.876 31.8164 169.077 31.6445 169.226 31.4414C169.378 31.2383 169.46 31.041 169.472 30.8496L169.935 31.3711C169.907 31.5352 169.833 31.7168 169.712 31.916C169.591 32.1152 169.429 32.3066 169.226 32.4902C169.026 32.6699 168.788 32.8203 168.511 32.9414C168.237 33.0586 167.929 33.1172 167.585 33.1172C167.155 33.1172 166.778 33.0332 166.454 32.8652C166.134 32.6973 165.884 32.4727 165.704 32.1914C165.528 31.9062 165.44 31.5879 165.44 31.2363C165.44 30.8965 165.507 30.5977 165.64 30.3398C165.772 30.0781 165.964 29.8613 166.214 29.6895C166.464 29.5137 166.765 29.3809 167.116 29.291C167.468 29.2012 167.86 29.1562 168.294 29.1562H169.554ZM169.56 24.1172L170.292 24.1816C170.292 24.4668 170.235 24.7168 170.122 24.9316C170.009 25.1465 169.856 25.3125 169.665 25.4297C169.478 25.5469 169.265 25.6055 169.026 25.6055C168.827 25.6055 168.663 25.5781 168.534 25.5234C168.405 25.4648 168.29 25.4004 168.188 25.3301C168.087 25.2559 167.979 25.1914 167.866 25.1367C167.757 25.0781 167.62 25.0488 167.456 25.0488C167.292 25.0488 167.153 25.1113 167.04 25.2363C166.931 25.3613 166.876 25.5156 166.876 25.6992L166.144 25.6641C166.144 25.3789 166.198 25.1289 166.308 24.9141C166.421 24.6953 166.573 24.5254 166.765 24.4043C166.956 24.2793 167.169 24.2168 167.403 24.2168C167.571 24.2168 167.718 24.2461 167.843 24.3047C167.972 24.3594 168.093 24.4238 168.206 24.498C168.319 24.5684 168.437 24.6328 168.558 24.6914C168.679 24.7461 168.817 24.7734 168.974 24.7734C169.138 24.7734 169.276 24.7109 169.39 24.5859C169.503 24.457 169.56 24.3008 169.56 24.1172ZM171.868 29.9004V29.7656C171.868 29.3086 171.935 28.8848 172.067 28.4941C172.2 28.0996 172.392 27.7578 172.642 27.4688C172.892 27.1758 173.194 26.9492 173.55 26.7891C173.905 26.625 174.304 26.543 174.745 26.543C175.19 26.543 175.591 26.625 175.946 26.7891C176.306 26.9492 176.61 27.1758 176.86 27.4688C177.114 27.7578 177.308 28.0996 177.44 28.4941C177.573 28.8848 177.64 29.3086 177.64 29.7656V29.9004C177.64 30.3574 177.573 30.7812 177.44 31.1719C177.308 31.5625 177.114 31.9043 176.86 32.1973C176.61 32.4863 176.308 32.7129 175.952 32.877C175.601 33.0371 175.202 33.1172 174.757 33.1172C174.312 33.1172 173.911 33.0371 173.556 32.877C173.2 32.7129 172.896 32.4863 172.642 32.1973C172.392 31.9043 172.2 31.5625 172.067 31.1719C171.935 30.7812 171.868 30.3574 171.868 29.9004ZM172.952 29.7656V29.9004C172.952 30.2168 172.989 30.5156 173.063 30.7969C173.138 31.0742 173.249 31.3203 173.397 31.5352C173.55 31.75 173.739 31.9199 173.966 32.0449C174.192 32.166 174.456 32.2266 174.757 32.2266C175.054 32.2266 175.313 32.166 175.536 32.0449C175.763 31.9199 175.95 31.75 176.099 31.5352C176.247 31.3203 176.358 31.0742 176.433 30.7969C176.511 30.5156 176.55 30.2168 176.55 29.9004V29.7656C176.55 29.4531 176.511 29.1582 176.433 28.8809C176.358 28.5996 176.245 28.3516 176.093 28.1367C175.944 27.918 175.757 27.7461 175.53 27.6211C175.308 27.4961 175.046 27.4336 174.745 27.4336C174.448 27.4336 174.187 27.4961 173.96 27.6211C173.737 27.7461 173.55 27.918 173.397 28.1367C173.249 28.3516 173.138 28.5996 173.063 28.8809C172.989 29.1582 172.952 29.4531 172.952 29.7656Z" fill="#707070"/>
<path d="M36.7051 206.256L29.4687 203.742L29.4687 202.518L38 205.676L38 206.549L36.7051 206.256ZM29.4687 208.605L36.7051 206.115L38 205.805L38 206.678L29.4687 209.83L29.4687 208.605ZM37.0801 195.949L38 195.949L38 200.467L37.0801 200.467L37.0801 195.949ZM29.4687 200.238L38 200.238L38 201.369L29.4687 201.369L29.4687 200.238ZM33.1367 196.547L34.0566 196.547L34.0566 200.467L33.1367 200.467L33.1367 196.547ZM29.4687 196.008L30.3945 196.008L30.3945 200.467L29.4687 200.467L29.4687 196.008ZM29.4687 187.986L38 187.986L38 189.123L31.4199 193.418L38 193.418L38 194.549L29.4687 194.549L29.4687 193.418L36.0664 189.105L29.4687 189.105L29.4687 187.986ZM38 183.674L38 185.455L37.0801 185.443L37.0801 183.674C37.0801 183.064 36.9531 182.557 36.6992 182.15C36.4414 181.744 36.082 181.439 35.6211 181.236C35.1562 181.029 34.6133 180.926 33.9922 180.926L33.4707 180.926C32.9824 180.926 32.5488 180.984 32.1699 181.102C31.7871 181.219 31.4648 181.391 31.2031 181.617C30.9375 181.844 30.7363 182.121 30.5996 182.449C30.4629 182.773 30.3945 183.146 30.3945 183.568L30.3945 185.49L29.4687 185.49L29.4687 183.568C29.4687 183.01 29.5625 182.5 29.75 182.039C29.9336 181.578 30.2012 181.182 30.5527 180.85C30.9004 180.514 31.3223 180.256 31.8184 180.076C32.3105 179.896 32.8652 179.807 33.4824 179.807L33.9922 179.807C34.6094 179.807 35.166 179.896 35.6621 180.076C36.1543 180.256 36.5742 180.516 36.9219 180.855C37.2695 181.191 37.5371 181.598 37.7246 182.074C37.9082 182.547 38 183.08 38 183.674ZM29.4687 184.852L38 184.852L38 185.982L29.4687 185.982L29.4687 184.852ZM30.2246 175.078L38 177.902L38 179.057L29.4687 175.805L29.4687 175.061L30.2246 175.078ZM38 172.711L30.2246 175.541L29.4687 175.559L29.4687 174.814L38 171.551L38 172.711ZM34.8418 172.857L35.7676 172.857L35.7676 177.65L34.8418 177.65L34.8418 172.857ZM35.8437 165.861C35.6445 165.861 35.4687 165.893 35.3164 165.955C35.1602 166.014 35.0195 166.119 34.8945 166.271C34.7695 166.42 34.6504 166.627 34.5371 166.893C34.4238 167.154 34.3086 167.486 34.1914 167.889C34.0664 168.311 33.9277 168.691 33.7754 169.031C33.6191 169.371 33.4414 169.662 33.2422 169.904C33.043 170.146 32.8145 170.332 32.5566 170.461C32.2988 170.59 32.0039 170.654 31.6719 170.654C31.3398 170.654 31.0332 170.586 30.752 170.449C30.4707 170.312 30.2266 170.117 30.0195 169.863C29.8086 169.605 29.6445 169.299 29.5273 168.943C29.4102 168.588 29.3516 168.191 29.3516 167.754C29.3516 167.113 29.4746 166.57 29.7207 166.125C29.9629 165.676 30.2812 165.334 30.6758 165.1C31.0664 164.865 31.4844 164.748 31.9297 164.748L31.9297 165.873C31.6094 165.873 31.3262 165.941 31.0801 166.078C30.8301 166.215 30.6348 166.422 30.4941 166.699C30.3496 166.977 30.2773 167.328 30.2773 167.754C30.2773 168.156 30.3379 168.488 30.459 168.75C30.5801 169.012 30.7441 169.207 30.9512 169.336C31.1582 169.461 31.3945 169.523 31.6602 169.523C31.8398 169.523 32.0039 169.486 32.1523 169.412C32.2969 169.334 32.4316 169.215 32.5566 169.055C32.6816 168.891 32.7969 168.684 32.9023 168.434C33.0078 168.18 33.1094 167.877 33.207 167.525C33.3437 167.041 33.4961 166.623 33.6641 166.271C33.832 165.92 34.0215 165.631 34.2324 165.404C34.4395 165.174 34.6758 165.004 34.9414 164.895C35.2031 164.781 35.5 164.725 35.832 164.725C36.1797 164.725 36.4941 164.795 36.7754 164.936C37.0566 165.076 37.2969 165.277 37.4961 165.539C37.6953 165.801 37.8496 166.115 37.959 166.482C38.0645 166.846 38.1172 167.252 38.1172 167.701C38.1172 168.096 38.0625 168.484 37.9531 168.867C37.8437 169.246 37.6797 169.592 37.4609 169.904C37.2422 170.213 36.9727 170.461 36.6523 170.648C36.3281 170.832 35.9531 170.924 35.5273 170.924L35.5273 169.799C35.8203 169.799 36.0723 169.742 36.2832 169.629C36.4902 169.516 36.6621 169.361 36.7988 169.166C36.9355 168.967 37.0371 168.742 37.1035 168.492C37.166 168.238 37.1973 167.975 37.1973 167.701C37.1973 167.307 37.1426 166.973 37.0332 166.699C36.9238 166.426 36.7676 166.219 36.5645 166.078C36.3613 165.934 36.1211 165.861 35.8437 165.861Z" fill="#929292"/>
<path d="M266.348 335.469H267.443L270.238 342.424L273.027 335.469H274.129L270.66 344H269.805L266.348 335.469ZM265.99 335.469H266.957L267.115 340.672V344H265.99V335.469ZM273.514 335.469H274.48V344H273.355V340.672L273.514 335.469ZM281.887 343.08V344H277.369V343.08H281.887ZM277.598 335.469V344H276.467V335.469H277.598ZM281.289 339.137V340.057H277.369V339.137H281.289ZM281.828 335.469V336.395H277.369V335.469H281.828ZM279.432 333.113L280.885 334.713V334.771H279.982L279.104 333.781L278.23 334.771H277.34V334.707L278.775 333.113H279.432ZM287.834 341.844C287.834 341.645 287.803 341.469 287.74 341.316C287.682 341.16 287.576 341.02 287.424 340.895C287.275 340.77 287.068 340.65 286.803 340.537C286.541 340.424 286.209 340.309 285.807 340.191C285.385 340.066 285.004 339.928 284.664 339.775C284.324 339.619 284.033 339.441 283.791 339.242C283.549 339.043 283.363 338.814 283.234 338.557C283.105 338.299 283.041 338.004 283.041 337.672C283.041 337.34 283.109 337.033 283.246 336.752C283.383 336.471 283.578 336.227 283.832 336.02C284.09 335.809 284.396 335.645 284.752 335.527C285.107 335.41 285.504 335.352 285.941 335.352C286.582 335.352 287.125 335.475 287.57 335.721C288.02 335.963 288.361 336.281 288.596 336.676C288.83 337.066 288.947 337.484 288.947 337.93H287.822C287.822 337.609 287.754 337.326 287.617 337.08C287.48 336.83 287.273 336.635 286.996 336.494C286.719 336.35 286.367 336.277 285.941 336.277C285.539 336.277 285.207 336.338 284.945 336.459C284.684 336.58 284.488 336.744 284.359 336.951C284.234 337.158 284.172 337.395 284.172 337.66C284.172 337.84 284.209 338.004 284.283 338.152C284.361 338.297 284.48 338.432 284.641 338.557C284.805 338.682 285.012 338.797 285.262 338.902C285.516 339.008 285.818 339.109 286.17 339.207C286.654 339.344 287.072 339.496 287.424 339.664C287.775 339.832 288.064 340.021 288.291 340.232C288.521 340.439 288.691 340.676 288.801 340.941C288.914 341.203 288.971 341.5 288.971 341.832C288.971 342.18 288.9 342.494 288.76 342.775C288.619 343.057 288.418 343.297 288.156 343.496C287.895 343.695 287.58 343.85 287.213 343.959C286.85 344.064 286.443 344.117 285.994 344.117C285.6 344.117 285.211 344.062 284.828 343.953C284.449 343.844 284.104 343.68 283.791 343.461C283.482 343.242 283.234 342.973 283.047 342.652C282.863 342.328 282.771 341.953 282.771 341.527H283.896C283.896 341.82 283.953 342.072 284.066 342.283C284.18 342.49 284.334 342.662 284.529 342.799C284.729 342.936 284.953 343.037 285.203 343.104C285.457 343.166 285.721 343.197 285.994 343.197C286.389 343.197 286.723 343.143 286.996 343.033C287.27 342.924 287.477 342.768 287.617 342.564C287.762 342.361 287.834 342.121 287.834 341.844ZM294.021 335.469L290.465 344.732H289.533L293.096 335.469H294.021ZM298.527 336.225L295.703 344H294.549L297.801 335.469H298.545L298.527 336.225ZM300.895 344L298.064 336.225L298.047 335.469H298.791L302.055 344H300.895ZM300.748 340.842V341.768H295.955V340.842H300.748ZM309.76 335.469V344H308.623L304.328 337.42V344H303.197V335.469H304.328L308.641 342.066V335.469H309.76ZM318.332 339.465V340.004C318.332 340.645 318.252 341.219 318.092 341.727C317.932 342.234 317.701 342.666 317.4 343.021C317.1 343.377 316.738 343.648 316.316 343.836C315.898 344.023 315.43 344.117 314.91 344.117C314.406 344.117 313.943 344.023 313.521 343.836C313.104 343.648 312.74 343.377 312.432 343.021C312.127 342.666 311.891 342.234 311.723 341.727C311.555 341.219 311.471 340.645 311.471 340.004V339.465C311.471 338.824 311.553 338.252 311.717 337.748C311.885 337.24 312.121 336.809 312.426 336.453C312.73 336.094 313.092 335.82 313.51 335.633C313.932 335.445 314.395 335.352 314.898 335.352C315.418 335.352 315.887 335.445 316.305 335.633C316.727 335.82 317.088 336.094 317.389 336.453C317.693 336.809 317.926 337.24 318.086 337.748C318.25 338.252 318.332 338.824 318.332 339.465ZM317.213 340.004V339.453C317.213 338.945 317.16 338.496 317.055 338.105C316.953 337.715 316.803 337.387 316.604 337.121C316.404 336.855 316.16 336.654 315.871 336.518C315.586 336.381 315.262 336.312 314.898 336.312C314.547 336.312 314.229 336.381 313.943 336.518C313.662 336.654 313.42 336.855 313.217 337.121C313.018 337.387 312.863 337.715 312.754 338.105C312.645 338.496 312.59 338.945 312.59 339.453V340.004C312.59 340.516 312.645 340.969 312.754 341.363C312.863 341.754 313.02 342.084 313.223 342.354C313.43 342.619 313.674 342.82 313.955 342.957C314.24 343.094 314.559 343.162 314.91 343.162C315.277 343.162 315.604 343.094 315.889 342.957C316.174 342.82 316.414 342.619 316.609 342.354C316.809 342.084 316.959 341.754 317.061 341.363C317.162 340.969 317.213 340.516 317.213 340.004Z" fill="#929292"/>
<path d="M48.7734 89.5859L47.6172 89.2891L48.1875 83.625H54.0234V84.9609H49.4141L49.0703 88.0547C49.2786 87.9349 49.5417 87.8229 49.8594 87.7188C50.1823 87.6146 50.5521 87.5625 50.9688 87.5625C51.4948 87.5625 51.9661 87.6536 52.3828 87.8359C52.7995 88.013 53.1536 88.2682 53.4453 88.6016C53.7422 88.9349 53.9688 89.3359 54.125 89.8047C54.2812 90.2734 54.3594 90.7969 54.3594 91.375C54.3594 91.9219 54.2839 92.4245 54.1328 92.8828C53.987 93.3411 53.7656 93.7422 53.4688 94.0859C53.1719 94.4245 52.7969 94.6875 52.3438 94.875C51.8958 95.0625 51.3672 95.1562 50.7578 95.1562C50.2995 95.1562 49.8646 95.0938 49.4531 94.9688C49.0469 94.8385 48.6823 94.6432 48.3594 94.3828C48.0417 94.1172 47.7812 93.7891 47.5781 93.3984C47.3802 93.0026 47.2552 92.5391 47.2031 92.0078H48.5781C48.6406 92.4349 48.7656 92.7943 48.9531 93.0859C49.1406 93.3776 49.3854 93.599 49.6875 93.75C49.9948 93.8958 50.3516 93.9688 50.7578 93.9688C51.1016 93.9688 51.4062 93.9089 51.6719 93.7891C51.9375 93.6693 52.1615 93.4974 52.3438 93.2734C52.526 93.0495 52.6641 92.7786 52.7578 92.4609C52.8568 92.1432 52.9062 91.7865 52.9062 91.3906C52.9062 91.0312 52.8568 90.6979 52.7578 90.3906C52.6589 90.0833 52.5104 89.8151 52.3125 89.5859C52.1198 89.3568 51.8828 89.1797 51.6016 89.0547C51.3203 88.9245 50.9974 88.8594 50.6328 88.8594C50.1484 88.8594 49.7812 88.9245 49.5312 89.0547C49.2865 89.1849 49.0339 89.362 48.7734 89.5859ZM63.0859 88.4062V90.1406C63.0859 91.0729 63.0026 91.8594 62.8359 92.5C62.6693 93.1406 62.4297 93.6562 62.1172 94.0469C61.8047 94.4375 61.4271 94.7214 60.9844 94.8984C60.5469 95.0703 60.0521 95.1562 59.5 95.1562C59.0625 95.1562 58.6589 95.1016 58.2891 94.9922C57.9193 94.8828 57.5859 94.7083 57.2891 94.4688C56.9974 94.224 56.7474 93.9062 56.5391 93.5156C56.3307 93.125 56.1719 92.651 56.0625 92.0938C55.9531 91.5365 55.8984 90.8854 55.8984 90.1406V88.4062C55.8984 87.474 55.9818 86.6927 56.1484 86.0625C56.3203 85.4323 56.5625 84.9271 56.875 84.5469C57.1875 84.1615 57.5625 83.8854 58 83.7188C58.4427 83.5521 58.9375 83.4688 59.4844 83.4688C59.9271 83.4688 60.3333 83.5234 60.7031 83.6328C61.0781 83.737 61.4115 83.9062 61.7031 84.1406C61.9948 84.3698 62.2422 84.6771 62.4453 85.0625C62.6536 85.4427 62.8125 85.9089 62.9219 86.4609C63.0312 87.013 63.0859 87.6615 63.0859 88.4062ZM61.6328 90.375V88.1641C61.6328 87.6536 61.6016 87.2057 61.5391 86.8203C61.4818 86.4297 61.3958 86.0964 61.2812 85.8203C61.1667 85.5443 61.0208 85.3203 60.8438 85.1484C60.6719 84.9766 60.4714 84.8516 60.2422 84.7734C60.0182 84.6901 59.7656 84.6484 59.4844 84.6484C59.1406 84.6484 58.8359 84.7135 58.5703 84.8438C58.3047 84.9688 58.0807 85.1693 57.8984 85.4453C57.7214 85.7214 57.5859 86.0833 57.4922 86.5312C57.3984 86.9792 57.3516 87.5234 57.3516 88.1641V90.375C57.3516 90.8854 57.3802 91.3359 57.4375 91.7266C57.5 92.1172 57.5911 92.4557 57.7109 92.7422C57.8307 93.0234 57.9766 93.2552 58.1484 93.4375C58.3203 93.6198 58.5182 93.7552 58.7422 93.8438C58.9714 93.9271 59.224 93.9688 59.5 93.9688C59.8542 93.9688 60.1641 93.901 60.4297 93.7656C60.6953 93.6302 60.9167 93.4193 61.0938 93.1328C61.276 92.8411 61.4115 92.4688 61.5 92.0156C61.5885 91.5573 61.6328 91.0104 61.6328 90.375ZM66.8281 83.625V95H65.3203V83.625H66.8281ZM73.6953 83.625L68.9688 88.9297L66.3125 91.6875L66.0625 90.0781L68.0625 87.875L71.8828 83.625H73.6953ZM72.2422 95L68.0312 89.4531L68.9297 88.2578L74.0391 95H72.2422Z" fill="#707070"/>
<path d="M54.6328 130.172V131.359H46.4141V130.508L51.5078 122.625H52.6875L51.4219 124.906L48.0547 130.172H54.6328ZM53.0469 122.625V134H51.6016V122.625H53.0469ZM63.0859 127.406V129.141C63.0859 130.073 63.0026 130.859 62.8359 131.5C62.6693 132.141 62.4297 132.656 62.1172 133.047C61.8047 133.438 61.4271 133.721 60.9844 133.898C60.5469 134.07 60.0521 134.156 59.5 134.156C59.0625 134.156 58.6589 134.102 58.2891 133.992C57.9193 133.883 57.5859 133.708 57.2891 133.469C56.9974 133.224 56.7474 132.906 56.5391 132.516C56.3307 132.125 56.1719 131.651 56.0625 131.094C55.9531 130.536 55.8984 129.885 55.8984 129.141V127.406C55.8984 126.474 55.9818 125.693 56.1484 125.062C56.3203 124.432 56.5625 123.927 56.875 123.547C57.1875 123.161 57.5625 122.885 58 122.719C58.4427 122.552 58.9375 122.469 59.4844 122.469C59.9271 122.469 60.3333 122.523 60.7031 122.633C61.0781 122.737 61.4115 122.906 61.7031 123.141C61.9948 123.37 62.2422 123.677 62.4453 124.062C62.6536 124.443 62.8125 124.909 62.9219 125.461C63.0312 126.013 63.0859 126.661 63.0859 127.406ZM61.6328 129.375V127.164C61.6328 126.654 61.6016 126.206 61.5391 125.82C61.4818 125.43 61.3958 125.096 61.2812 124.82C61.1667 124.544 61.0208 124.32 60.8438 124.148C60.6719 123.977 60.4714 123.852 60.2422 123.773C60.0182 123.69 59.7656 123.648 59.4844 123.648C59.1406 123.648 58.8359 123.714 58.5703 123.844C58.3047 123.969 58.0807 124.169 57.8984 124.445C57.7214 124.721 57.5859 125.083 57.4922 125.531C57.3984 125.979 57.3516 126.523 57.3516 127.164V129.375C57.3516 129.885 57.3802 130.336 57.4375 130.727C57.5 131.117 57.5911 131.456 57.7109 131.742C57.8307 132.023 57.9766 132.255 58.1484 132.438C58.3203 132.62 58.5182 132.755 58.7422 132.844C58.9714 132.927 59.224 132.969 59.5 132.969C59.8542 132.969 60.1641 132.901 60.4297 132.766C60.6953 132.63 60.9167 132.419 61.0938 132.133C61.276 131.841 61.4115 131.469 61.5 131.016C61.5885 130.557 61.6328 130.01 61.6328 129.375ZM66.8281 122.625V134H65.3203V122.625H66.8281ZM73.6953 122.625L68.9688 127.93L66.3125 130.688L66.0625 129.078L68.0625 126.875L71.8828 122.625H73.6953ZM72.2422 134L68.0312 128.453L68.9297 127.258L74.0391 134H72.2422Z" fill="#707070"/>
<path d="M49.0547 166.602H50.0859C50.5911 166.602 51.0078 166.518 51.3359 166.352C51.6693 166.18 51.9167 165.948 52.0781 165.656C52.2448 165.359 52.3281 165.026 52.3281 164.656C52.3281 164.219 52.2552 163.852 52.1094 163.555C51.9635 163.258 51.7448 163.034 51.4531 162.883C51.1615 162.732 50.7917 162.656 50.3438 162.656C49.9375 162.656 49.5781 162.737 49.2656 162.898C48.9583 163.055 48.7161 163.279 48.5391 163.57C48.3672 163.862 48.2812 164.206 48.2812 164.602H46.8359C46.8359 164.023 46.9818 163.497 47.2734 163.023C47.5651 162.549 47.974 162.172 48.5 161.891C49.0312 161.609 49.6458 161.469 50.3438 161.469C51.0312 161.469 51.6328 161.591 52.1484 161.836C52.6641 162.076 53.0651 162.435 53.3516 162.914C53.638 163.388 53.7812 163.979 53.7812 164.688C53.7812 164.974 53.7135 165.281 53.5781 165.609C53.4479 165.932 53.2422 166.234 52.9609 166.516C52.6849 166.797 52.3255 167.029 51.8828 167.211C51.4401 167.388 50.9089 167.477 50.2891 167.477H49.0547V166.602ZM49.0547 167.789V166.922H50.2891C51.013 166.922 51.612 167.008 52.0859 167.18C52.5599 167.352 52.9323 167.581 53.2031 167.867C53.4792 168.154 53.6719 168.469 53.7812 168.812C53.8958 169.151 53.9531 169.49 53.9531 169.828C53.9531 170.359 53.862 170.831 53.6797 171.242C53.5026 171.654 53.25 172.003 52.9219 172.289C52.599 172.576 52.2188 172.792 51.7812 172.938C51.3438 173.083 50.8672 173.156 50.3516 173.156C49.8568 173.156 49.3906 173.086 48.9531 172.945C48.5208 172.805 48.138 172.602 47.8047 172.336C47.4714 172.065 47.2109 171.734 47.0234 171.344C46.8359 170.948 46.7422 170.497 46.7422 169.992H48.1875C48.1875 170.388 48.2734 170.734 48.4453 171.031C48.6224 171.328 48.8724 171.56 49.1953 171.727C49.5234 171.888 49.9089 171.969 50.3516 171.969C50.7943 171.969 51.1745 171.893 51.4922 171.742C51.8151 171.586 52.0625 171.352 52.2344 171.039C52.4115 170.727 52.5 170.333 52.5 169.859C52.5 169.385 52.401 168.997 52.2031 168.695C52.0052 168.388 51.724 168.161 51.3594 168.016C51 167.865 50.5755 167.789 50.0859 167.789H49.0547ZM63.0859 166.406V168.141C63.0859 169.073 63.0026 169.859 62.8359 170.5C62.6693 171.141 62.4297 171.656 62.1172 172.047C61.8047 172.438 61.4271 172.721 60.9844 172.898C60.5469 173.07 60.0521 173.156 59.5 173.156C59.0625 173.156 58.6589 173.102 58.2891 172.992C57.9193 172.883 57.5859 172.708 57.2891 172.469C56.9974 172.224 56.7474 171.906 56.5391 171.516C56.3307 171.125 56.1719 170.651 56.0625 170.094C55.9531 169.536 55.8984 168.885 55.8984 168.141V166.406C55.8984 165.474 55.9818 164.693 56.1484 164.062C56.3203 163.432 56.5625 162.927 56.875 162.547C57.1875 162.161 57.5625 161.885 58 161.719C58.4427 161.552 58.9375 161.469 59.4844 161.469C59.9271 161.469 60.3333 161.523 60.7031 161.633C61.0781 161.737 61.4115 161.906 61.7031 162.141C61.9948 162.37 62.2422 162.677 62.4453 163.062C62.6536 163.443 62.8125 163.909 62.9219 164.461C63.0312 165.013 63.0859 165.661 63.0859 166.406ZM61.6328 168.375V166.164C61.6328 165.654 61.6016 165.206 61.5391 164.82C61.4818 164.43 61.3958 164.096 61.2812 163.82C61.1667 163.544 61.0208 163.32 60.8438 163.148C60.6719 162.977 60.4714 162.852 60.2422 162.773C60.0182 162.69 59.7656 162.648 59.4844 162.648C59.1406 162.648 58.8359 162.714 58.5703 162.844C58.3047 162.969 58.0807 163.169 57.8984 163.445C57.7214 163.721 57.5859 164.083 57.4922 164.531C57.3984 164.979 57.3516 165.523 57.3516 166.164V168.375C57.3516 168.885 57.3802 169.336 57.4375 169.727C57.5 170.117 57.5911 170.456 57.7109 170.742C57.8307 171.023 57.9766 171.255 58.1484 171.438C58.3203 171.62 58.5182 171.755 58.7422 171.844C58.9714 171.927 59.224 171.969 59.5 171.969C59.8542 171.969 60.1641 171.901 60.4297 171.766C60.6953 171.63 60.9167 171.419 61.0938 171.133C61.276 170.841 61.4115 170.469 61.5 170.016C61.5885 169.557 61.6328 169.01 61.6328 168.375ZM66.8281 161.625V173H65.3203V161.625H66.8281ZM73.6953 161.625L68.9688 166.93L66.3125 169.688L66.0625 168.078L68.0625 165.875L71.8828 161.625H73.6953ZM72.2422 173L68.0312 167.453L68.9297 166.258L74.0391 173H72.2422Z" fill="#707070"/>
<path d="M54.3984 210.812V212H46.9531V210.961L50.6797 206.812C51.138 206.302 51.4922 205.87 51.7422 205.516C51.9974 205.156 52.1745 204.836 52.2734 204.555C52.3776 204.268 52.4297 203.977 52.4297 203.68C52.4297 203.305 52.3516 202.966 52.1953 202.664C52.0443 202.357 51.8203 202.112 51.5234 201.93C51.2266 201.747 50.8672 201.656 50.4453 201.656C49.9401 201.656 49.5182 201.755 49.1797 201.953C48.8464 202.146 48.5964 202.417 48.4297 202.766C48.263 203.115 48.1797 203.516 48.1797 203.969H46.7344C46.7344 203.328 46.875 202.742 47.1562 202.211C47.4375 201.68 47.8542 201.258 48.4062 200.945C48.9583 200.628 49.638 200.469 50.4453 200.469C51.1641 200.469 51.7786 200.596 52.2891 200.852C52.7995 201.102 53.1901 201.456 53.4609 201.914C53.737 202.367 53.875 202.898 53.875 203.508C53.875 203.841 53.8177 204.18 53.7031 204.523C53.5938 204.862 53.4401 205.201 53.2422 205.539C53.0495 205.878 52.8229 206.211 52.5625 206.539C52.3073 206.867 52.0339 207.19 51.7422 207.508L48.6953 210.812H54.3984ZM63.0859 205.406V207.141C63.0859 208.073 63.0026 208.859 62.8359 209.5C62.6693 210.141 62.4297 210.656 62.1172 211.047C61.8047 211.438 61.4271 211.721 60.9844 211.898C60.5469 212.07 60.0521 212.156 59.5 212.156C59.0625 212.156 58.6589 212.102 58.2891 211.992C57.9193 211.883 57.5859 211.708 57.2891 211.469C56.9974 211.224 56.7474 210.906 56.5391 210.516C56.3307 210.125 56.1719 209.651 56.0625 209.094C55.9531 208.536 55.8984 207.885 55.8984 207.141V205.406C55.8984 204.474 55.9818 203.693 56.1484 203.062C56.3203 202.432 56.5625 201.927 56.875 201.547C57.1875 201.161 57.5625 200.885 58 200.719C58.4427 200.552 58.9375 200.469 59.4844 200.469C59.9271 200.469 60.3333 200.523 60.7031 200.633C61.0781 200.737 61.4115 200.906 61.7031 201.141C61.9948 201.37 62.2422 201.677 62.4453 202.062C62.6536 202.443 62.8125 202.909 62.9219 203.461C63.0312 204.013 63.0859 204.661 63.0859 205.406ZM61.6328 207.375V205.164C61.6328 204.654 61.6016 204.206 61.5391 203.82C61.4818 203.43 61.3958 203.096 61.2812 202.82C61.1667 202.544 61.0208 202.32 60.8438 202.148C60.6719 201.977 60.4714 201.852 60.2422 201.773C60.0182 201.69 59.7656 201.648 59.4844 201.648C59.1406 201.648 58.8359 201.714 58.5703 201.844C58.3047 201.969 58.0807 202.169 57.8984 202.445C57.7214 202.721 57.5859 203.083 57.4922 203.531C57.3984 203.979 57.3516 204.523 57.3516 205.164V207.375C57.3516 207.885 57.3802 208.336 57.4375 208.727C57.5 209.117 57.5911 209.456 57.7109 209.742C57.8307 210.023 57.9766 210.255 58.1484 210.438C58.3203 210.62 58.5182 210.755 58.7422 210.844C58.9714 210.927 59.224 210.969 59.5 210.969C59.8542 210.969 60.1641 210.901 60.4297 210.766C60.6953 210.63 60.9167 210.419 61.0938 210.133C61.276 209.841 61.4115 209.469 61.5 209.016C61.5885 208.557 61.6328 208.01 61.6328 207.375ZM66.8281 200.625V212H65.3203V200.625H66.8281ZM73.6953 200.625L68.9688 205.93L66.3125 208.688L66.0625 207.078L68.0625 204.875L71.8828 200.625H73.6953ZM72.2422 212L68.0312 206.453L68.9297 205.258L74.0391 212H72.2422Z" fill="#707070"/>
<path d="M51.6953 239.562V251H50.25V241.367L47.3359 242.43V241.125L51.4688 239.562H51.6953ZM63.0859 244.406V246.141C63.0859 247.073 63.0026 247.859 62.8359 248.5C62.6693 249.141 62.4297 249.656 62.1172 250.047C61.8047 250.438 61.4271 250.721 60.9844 250.898C60.5469 251.07 60.0521 251.156 59.5 251.156C59.0625 251.156 58.6589 251.102 58.2891 250.992C57.9193 250.883 57.5859 250.708 57.2891 250.469C56.9974 250.224 56.7474 249.906 56.5391 249.516C56.3307 249.125 56.1719 248.651 56.0625 248.094C55.9531 247.536 55.8984 246.885 55.8984 246.141V244.406C55.8984 243.474 55.9818 242.693 56.1484 242.062C56.3203 241.432 56.5625 240.927 56.875 240.547C57.1875 240.161 57.5625 239.885 58 239.719C58.4427 239.552 58.9375 239.469 59.4844 239.469C59.9271 239.469 60.3333 239.523 60.7031 239.633C61.0781 239.737 61.4115 239.906 61.7031 240.141C61.9948 240.37 62.2422 240.677 62.4453 241.062C62.6536 241.443 62.8125 241.909 62.9219 242.461C63.0312 243.013 63.0859 243.661 63.0859 244.406ZM61.6328 246.375V244.164C61.6328 243.654 61.6016 243.206 61.5391 242.82C61.4818 242.43 61.3958 242.096 61.2812 241.82C61.1667 241.544 61.0208 241.32 60.8438 241.148C60.6719 240.977 60.4714 240.852 60.2422 240.773C60.0182 240.69 59.7656 240.648 59.4844 240.648C59.1406 240.648 58.8359 240.714 58.5703 240.844C58.3047 240.969 58.0807 241.169 57.8984 241.445C57.7214 241.721 57.5859 242.083 57.4922 242.531C57.3984 242.979 57.3516 243.523 57.3516 244.164V246.375C57.3516 246.885 57.3802 247.336 57.4375 247.727C57.5 248.117 57.5911 248.456 57.7109 248.742C57.8307 249.023 57.9766 249.255 58.1484 249.438C58.3203 249.62 58.5182 249.755 58.7422 249.844C58.9714 249.927 59.224 249.969 59.5 249.969C59.8542 249.969 60.1641 249.901 60.4297 249.766C60.6953 249.63 60.9167 249.419 61.0938 249.133C61.276 248.841 61.4115 248.469 61.5 248.016C61.5885 247.557 61.6328 247.01 61.6328 246.375ZM66.8281 239.625V251H65.3203V239.625H66.8281ZM73.6953 239.625L68.9688 244.93L66.3125 247.688L66.0625 246.078L68.0625 243.875L71.8828 239.625H73.6953ZM72.2422 251L68.0312 245.453L68.9297 244.258L74.0391 251H72.2422Z" fill="#707070"/>
<path d="M54.0859 282.406V284.141C54.0859 285.073 54.0026 285.859 53.8359 286.5C53.6693 287.141 53.4297 287.656 53.1172 288.047C52.8047 288.438 52.4271 288.721 51.9844 288.898C51.5469 289.07 51.0521 289.156 50.5 289.156C50.0625 289.156 49.6589 289.102 49.2891 288.992C48.9193 288.883 48.5859 288.708 48.2891 288.469C47.9974 288.224 47.7474 287.906 47.5391 287.516C47.3307 287.125 47.1719 286.651 47.0625 286.094C46.9531 285.536 46.8984 284.885 46.8984 284.141V282.406C46.8984 281.474 46.9818 280.693 47.1484 280.062C47.3203 279.432 47.5625 278.927 47.875 278.547C48.1875 278.161 48.5625 277.885 49 277.719C49.4427 277.552 49.9375 277.469 50.4844 277.469C50.9271 277.469 51.3333 277.523 51.7031 277.633C52.0781 277.737 52.4115 277.906 52.7031 278.141C52.9948 278.37 53.2422 278.677 53.4453 279.062C53.6536 279.443 53.8125 279.909 53.9219 280.461C54.0312 281.013 54.0859 281.661 54.0859 282.406ZM52.6328 284.375V282.164C52.6328 281.654 52.6016 281.206 52.5391 280.82C52.4818 280.43 52.3958 280.096 52.2812 279.82C52.1667 279.544 52.0208 279.32 51.8438 279.148C51.6719 278.977 51.4714 278.852 51.2422 278.773C51.0182 278.69 50.7656 278.648 50.4844 278.648C50.1406 278.648 49.8359 278.714 49.5703 278.844C49.3047 278.969 49.0807 279.169 48.8984 279.445C48.7214 279.721 48.5859 280.083 48.4922 280.531C48.3984 280.979 48.3516 281.523 48.3516 282.164V284.375C48.3516 284.885 48.3802 285.336 48.4375 285.727C48.5 286.117 48.5911 286.456 48.7109 286.742C48.8307 287.023 48.9766 287.255 49.1484 287.438C49.3203 287.62 49.5182 287.755 49.7422 287.844C49.9714 287.927 50.224 287.969 50.5 287.969C50.8542 287.969 51.1641 287.901 51.4297 287.766C51.6953 287.63 51.9167 287.419 52.0938 287.133C52.276 286.841 52.4115 286.469 52.5 286.016C52.5885 285.557 52.6328 285.01 52.6328 284.375Z" fill="#707070"/>
<path d="M98.0859 317.406V319.141C98.0859 320.073 98.0026 320.859 97.8359 321.5C97.6693 322.141 97.4297 322.656 97.1172 323.047C96.8047 323.438 96.4271 323.721 95.9844 323.898C95.5469 324.07 95.0521 324.156 94.5 324.156C94.0625 324.156 93.6589 324.102 93.2891 323.992C92.9193 323.883 92.5859 323.708 92.2891 323.469C91.9974 323.224 91.7474 322.906 91.5391 322.516C91.3307 322.125 91.1719 321.651 91.0625 321.094C90.9531 320.536 90.8984 319.885 90.8984 319.141V317.406C90.8984 316.474 90.9818 315.693 91.1484 315.062C91.3203 314.432 91.5625 313.927 91.875 313.547C92.1875 313.161 92.5625 312.885 93 312.719C93.4427 312.552 93.9375 312.469 94.4844 312.469C94.9271 312.469 95.3333 312.523 95.7031 312.633C96.0781 312.737 96.4115 312.906 96.7031 313.141C96.9948 313.37 97.2422 313.677 97.4453 314.062C97.6536 314.443 97.8125 314.909 97.9219 315.461C98.0312 316.013 98.0859 316.661 98.0859 317.406ZM96.6328 319.375V317.164C96.6328 316.654 96.6016 316.206 96.5391 315.82C96.4818 315.43 96.3958 315.096 96.2812 314.82C96.1667 314.544 96.0208 314.32 95.8438 314.148C95.6719 313.977 95.4714 313.852 95.2422 313.773C95.0182 313.69 94.7656 313.648 94.4844 313.648C94.1406 313.648 93.8359 313.714 93.5703 313.844C93.3047 313.969 93.0807 314.169 92.8984 314.445C92.7214 314.721 92.5859 315.083 92.4922 315.531C92.3984 315.979 92.3516 316.523 92.3516 317.164V319.375C92.3516 319.885 92.3802 320.336 92.4375 320.727C92.5 321.117 92.5911 321.456 92.7109 321.742C92.8307 322.023 92.9766 322.255 93.1484 322.438C93.3203 322.62 93.5182 322.755 93.7422 322.844C93.9714 322.927 94.224 322.969 94.5 322.969C94.8542 322.969 95.1641 322.901 95.4297 322.766C95.6953 322.63 95.9167 322.419 96.0938 322.133C96.276 321.841 96.4115 321.469 96.5 321.016C96.5885 320.557 96.6328 320.01 96.6328 319.375ZM102.055 317.602H103.086C103.591 317.602 104.008 317.518 104.336 317.352C104.669 317.18 104.917 316.948 105.078 316.656C105.245 316.359 105.328 316.026 105.328 315.656C105.328 315.219 105.255 314.852 105.109 314.555C104.964 314.258 104.745 314.034 104.453 313.883C104.161 313.732 103.792 313.656 103.344 313.656C102.938 313.656 102.578 313.737 102.266 313.898C101.958 314.055 101.716 314.279 101.539 314.57C101.367 314.862 101.281 315.206 101.281 315.602H99.8359C99.8359 315.023 99.9818 314.497 100.273 314.023C100.565 313.549 100.974 313.172 101.5 312.891C102.031 312.609 102.646 312.469 103.344 312.469C104.031 312.469 104.633 312.591 105.148 312.836C105.664 313.076 106.065 313.435 106.352 313.914C106.638 314.388 106.781 314.979 106.781 315.688C106.781 315.974 106.714 316.281 106.578 316.609C106.448 316.932 106.242 317.234 105.961 317.516C105.685 317.797 105.326 318.029 104.883 318.211C104.44 318.388 103.909 318.477 103.289 318.477H102.055V317.602ZM102.055 318.789V317.922H103.289C104.013 317.922 104.612 318.008 105.086 318.18C105.56 318.352 105.932 318.581 106.203 318.867C106.479 319.154 106.672 319.469 106.781 319.812C106.896 320.151 106.953 320.49 106.953 320.828C106.953 321.359 106.862 321.831 106.68 322.242C106.503 322.654 106.25 323.003 105.922 323.289C105.599 323.576 105.219 323.792 104.781 323.938C104.344 324.083 103.867 324.156 103.352 324.156C102.857 324.156 102.391 324.086 101.953 323.945C101.521 323.805 101.138 323.602 100.805 323.336C100.471 323.065 100.211 322.734 100.023 322.344C99.8359 321.948 99.7422 321.497 99.7422 320.992H101.188C101.188 321.388 101.273 321.734 101.445 322.031C101.622 322.328 101.872 322.56 102.195 322.727C102.523 322.888 102.909 322.969 103.352 322.969C103.794 322.969 104.174 322.893 104.492 322.742C104.815 322.586 105.062 322.352 105.234 322.039C105.411 321.727 105.5 321.333 105.5 320.859C105.5 320.385 105.401 319.997 105.203 319.695C105.005 319.388 104.724 319.161 104.359 319.016C104 318.865 103.576 318.789 103.086 318.789H102.055ZM114.133 312.625L109.391 324.977H108.148L112.898 312.625H114.133ZM123.008 322.812V324H115.562V322.961L119.289 318.812C119.747 318.302 120.102 317.87 120.352 317.516C120.607 317.156 120.784 316.836 120.883 316.555C120.987 316.268 121.039 315.977 121.039 315.68C121.039 315.305 120.961 314.966 120.805 314.664C120.654 314.357 120.43 314.112 120.133 313.93C119.836 313.747 119.477 313.656 119.055 313.656C118.549 313.656 118.128 313.755 117.789 313.953C117.456 314.146 117.206 314.417 117.039 314.766C116.872 315.115 116.789 315.516 116.789 315.969H115.344C115.344 315.328 115.484 314.742 115.766 314.211C116.047 313.68 116.464 313.258 117.016 312.945C117.568 312.628 118.247 312.469 119.055 312.469C119.773 312.469 120.388 312.596 120.898 312.852C121.409 313.102 121.799 313.456 122.07 313.914C122.346 314.367 122.484 314.898 122.484 315.508C122.484 315.841 122.427 316.18 122.312 316.523C122.203 316.862 122.049 317.201 121.852 317.539C121.659 317.878 121.432 318.211 121.172 318.539C120.917 318.867 120.643 319.19 120.352 319.508L117.305 322.812H123.008ZM132.242 320.172V321.359H124.023V320.508L129.117 312.625H130.297L129.031 314.906L125.664 320.172H132.242ZM130.656 312.625V324H129.211V312.625H130.656Z" fill="#707070"/>
<path d="M161.086 317.406V319.141C161.086 320.073 161.003 320.859 160.836 321.5C160.669 322.141 160.43 322.656 160.117 323.047C159.805 323.438 159.427 323.721 158.984 323.898C158.547 324.07 158.052 324.156 157.5 324.156C157.062 324.156 156.659 324.102 156.289 323.992C155.919 323.883 155.586 323.708 155.289 323.469C154.997 323.224 154.747 322.906 154.539 322.516C154.331 322.125 154.172 321.651 154.062 321.094C153.953 320.536 153.898 319.885 153.898 319.141V317.406C153.898 316.474 153.982 315.693 154.148 315.062C154.32 314.432 154.562 313.927 154.875 313.547C155.188 313.161 155.562 312.885 156 312.719C156.443 312.552 156.938 312.469 157.484 312.469C157.927 312.469 158.333 312.523 158.703 312.633C159.078 312.737 159.411 312.906 159.703 313.141C159.995 313.37 160.242 313.677 160.445 314.062C160.654 314.443 160.812 314.909 160.922 315.461C161.031 316.013 161.086 316.661 161.086 317.406ZM159.633 319.375V317.164C159.633 316.654 159.602 316.206 159.539 315.82C159.482 315.43 159.396 315.096 159.281 314.82C159.167 314.544 159.021 314.32 158.844 314.148C158.672 313.977 158.471 313.852 158.242 313.773C158.018 313.69 157.766 313.648 157.484 313.648C157.141 313.648 156.836 313.714 156.57 313.844C156.305 313.969 156.081 314.169 155.898 314.445C155.721 314.721 155.586 315.083 155.492 315.531C155.398 315.979 155.352 316.523 155.352 317.164V319.375C155.352 319.885 155.38 320.336 155.438 320.727C155.5 321.117 155.591 321.456 155.711 321.742C155.831 322.023 155.977 322.255 156.148 322.438C156.32 322.62 156.518 322.755 156.742 322.844C156.971 322.927 157.224 322.969 157.5 322.969C157.854 322.969 158.164 322.901 158.43 322.766C158.695 322.63 158.917 322.419 159.094 322.133C159.276 321.841 159.411 321.469 159.5 321.016C159.589 320.557 159.633 320.01 159.633 319.375ZM170.633 320.172V321.359H162.414V320.508L167.508 312.625H168.688L167.422 314.906L164.055 320.172H170.633ZM169.047 312.625V324H167.602V312.625H169.047ZM177.133 312.625L172.391 324.977H171.148L175.898 312.625H177.133ZM186.008 322.812V324H178.562V322.961L182.289 318.812C182.747 318.302 183.102 317.87 183.352 317.516C183.607 317.156 183.784 316.836 183.883 316.555C183.987 316.268 184.039 315.977 184.039 315.68C184.039 315.305 183.961 314.966 183.805 314.664C183.654 314.357 183.43 314.112 183.133 313.93C182.836 313.747 182.477 313.656 182.055 313.656C181.549 313.656 181.128 313.755 180.789 313.953C180.456 314.146 180.206 314.417 180.039 314.766C179.872 315.115 179.789 315.516 179.789 315.969H178.344C178.344 315.328 178.484 314.742 178.766 314.211C179.047 313.68 179.464 313.258 180.016 312.945C180.568 312.628 181.247 312.469 182.055 312.469C182.773 312.469 183.388 312.596 183.898 312.852C184.409 313.102 184.799 313.456 185.07 313.914C185.346 314.367 185.484 314.898 185.484 315.508C185.484 315.841 185.427 316.18 185.312 316.523C185.203 316.862 185.049 317.201 184.852 317.539C184.659 317.878 184.432 318.211 184.172 318.539C183.917 318.867 183.643 319.19 183.352 319.508L180.305 322.812H186.008ZM195.242 320.172V321.359H187.023V320.508L192.117 312.625H193.297L192.031 314.906L188.664 320.172H195.242ZM193.656 312.625V324H192.211V312.625H193.656Z" fill="#707070"/>
<path d="M224.086 317.406V319.141C224.086 320.073 224.003 320.859 223.836 321.5C223.669 322.141 223.43 322.656 223.117 323.047C222.805 323.438 222.427 323.721 221.984 323.898C221.547 324.07 221.052 324.156 220.5 324.156C220.062 324.156 219.659 324.102 219.289 323.992C218.919 323.883 218.586 323.708 218.289 323.469C217.997 323.224 217.747 322.906 217.539 322.516C217.331 322.125 217.172 321.651 217.062 321.094C216.953 320.536 216.898 319.885 216.898 319.141V317.406C216.898 316.474 216.982 315.693 217.148 315.062C217.32 314.432 217.562 313.927 217.875 313.547C218.188 313.161 218.562 312.885 219 312.719C219.443 312.552 219.938 312.469 220.484 312.469C220.927 312.469 221.333 312.523 221.703 312.633C222.078 312.737 222.411 312.906 222.703 313.141C222.995 313.37 223.242 313.677 223.445 314.062C223.654 314.443 223.812 314.909 223.922 315.461C224.031 316.013 224.086 316.661 224.086 317.406ZM222.633 319.375V317.164C222.633 316.654 222.602 316.206 222.539 315.82C222.482 315.43 222.396 315.096 222.281 314.82C222.167 314.544 222.021 314.32 221.844 314.148C221.672 313.977 221.471 313.852 221.242 313.773C221.018 313.69 220.766 313.648 220.484 313.648C220.141 313.648 219.836 313.714 219.57 313.844C219.305 313.969 219.081 314.169 218.898 314.445C218.721 314.721 218.586 315.083 218.492 315.531C218.398 315.979 218.352 316.523 218.352 317.164V319.375C218.352 319.885 218.38 320.336 218.438 320.727C218.5 321.117 218.591 321.456 218.711 321.742C218.831 322.023 218.977 322.255 219.148 322.438C219.32 322.62 219.518 322.755 219.742 322.844C219.971 322.927 220.224 322.969 220.5 322.969C220.854 322.969 221.164 322.901 221.43 322.766C221.695 322.63 221.917 322.419 222.094 322.133C222.276 321.841 222.411 321.469 222.5 321.016C222.589 320.557 222.633 320.01 222.633 319.375ZM227.773 318.586L226.617 318.289L227.188 312.625H233.023V313.961H228.414L228.07 317.055C228.279 316.935 228.542 316.823 228.859 316.719C229.182 316.615 229.552 316.562 229.969 316.562C230.495 316.562 230.966 316.654 231.383 316.836C231.799 317.013 232.154 317.268 232.445 317.602C232.742 317.935 232.969 318.336 233.125 318.805C233.281 319.273 233.359 319.797 233.359 320.375C233.359 320.922 233.284 321.424 233.133 321.883C232.987 322.341 232.766 322.742 232.469 323.086C232.172 323.424 231.797 323.688 231.344 323.875C230.896 324.062 230.367 324.156 229.758 324.156C229.299 324.156 228.865 324.094 228.453 323.969C228.047 323.839 227.682 323.643 227.359 323.383C227.042 323.117 226.781 322.789 226.578 322.398C226.38 322.003 226.255 321.539 226.203 321.008H227.578C227.641 321.435 227.766 321.794 227.953 322.086C228.141 322.378 228.385 322.599 228.688 322.75C228.995 322.896 229.352 322.969 229.758 322.969C230.102 322.969 230.406 322.909 230.672 322.789C230.938 322.669 231.161 322.497 231.344 322.273C231.526 322.049 231.664 321.779 231.758 321.461C231.857 321.143 231.906 320.786 231.906 320.391C231.906 320.031 231.857 319.698 231.758 319.391C231.659 319.083 231.51 318.815 231.312 318.586C231.12 318.357 230.883 318.18 230.602 318.055C230.32 317.924 229.997 317.859 229.633 317.859C229.148 317.859 228.781 317.924 228.531 318.055C228.286 318.185 228.034 318.362 227.773 318.586ZM240.133 312.625L235.391 324.977H234.148L238.898 312.625H240.133ZM249.008 322.812V324H241.562V322.961L245.289 318.812C245.747 318.302 246.102 317.87 246.352 317.516C246.607 317.156 246.784 316.836 246.883 316.555C246.987 316.268 247.039 315.977 247.039 315.68C247.039 315.305 246.961 314.966 246.805 314.664C246.654 314.357 246.43 314.112 246.133 313.93C245.836 313.747 245.477 313.656 245.055 313.656C244.549 313.656 244.128 313.755 243.789 313.953C243.456 314.146 243.206 314.417 243.039 314.766C242.872 315.115 242.789 315.516 242.789 315.969H241.344C241.344 315.328 241.484 314.742 241.766 314.211C242.047 313.68 242.464 313.258 243.016 312.945C243.568 312.628 244.247 312.469 245.055 312.469C245.773 312.469 246.388 312.596 246.898 312.852C247.409 313.102 247.799 313.456 248.07 313.914C248.346 314.367 248.484 314.898 248.484 315.508C248.484 315.841 248.427 316.18 248.312 316.523C248.203 316.862 248.049 317.201 247.852 317.539C247.659 317.878 247.432 318.211 247.172 318.539C246.917 318.867 246.643 319.19 246.352 319.508L243.305 322.812H249.008ZM258.242 320.172V321.359H250.023V320.508L255.117 312.625H256.297L255.031 314.906L251.664 320.172H258.242ZM256.656 312.625V324H255.211V312.625H256.656Z" fill="#707070"/>
<path d="M287.086 317.406V319.141C287.086 320.073 287.003 320.859 286.836 321.5C286.669 322.141 286.43 322.656 286.117 323.047C285.805 323.438 285.427 323.721 284.984 323.898C284.547 324.07 284.052 324.156 283.5 324.156C283.062 324.156 282.659 324.102 282.289 323.992C281.919 323.883 281.586 323.708 281.289 323.469C280.997 323.224 280.747 322.906 280.539 322.516C280.331 322.125 280.172 321.651 280.062 321.094C279.953 320.536 279.898 319.885 279.898 319.141V317.406C279.898 316.474 279.982 315.693 280.148 315.062C280.32 314.432 280.562 313.927 280.875 313.547C281.188 313.161 281.562 312.885 282 312.719C282.443 312.552 282.938 312.469 283.484 312.469C283.927 312.469 284.333 312.523 284.703 312.633C285.078 312.737 285.411 312.906 285.703 313.141C285.995 313.37 286.242 313.677 286.445 314.062C286.654 314.443 286.812 314.909 286.922 315.461C287.031 316.013 287.086 316.661 287.086 317.406ZM285.633 319.375V317.164C285.633 316.654 285.602 316.206 285.539 315.82C285.482 315.43 285.396 315.096 285.281 314.82C285.167 314.544 285.021 314.32 284.844 314.148C284.672 313.977 284.471 313.852 284.242 313.773C284.018 313.69 283.766 313.648 283.484 313.648C283.141 313.648 282.836 313.714 282.57 313.844C282.305 313.969 282.081 314.169 281.898 314.445C281.721 314.721 281.586 315.083 281.492 315.531C281.398 315.979 281.352 316.523 281.352 317.164V319.375C281.352 319.885 281.38 320.336 281.438 320.727C281.5 321.117 281.591 321.456 281.711 321.742C281.831 322.023 281.977 322.255 282.148 322.438C282.32 322.62 282.518 322.755 282.742 322.844C282.971 322.927 283.224 322.969 283.5 322.969C283.854 322.969 284.164 322.901 284.43 322.766C284.695 322.63 284.917 322.419 285.094 322.133C285.276 321.841 285.411 321.469 285.5 321.016C285.589 320.557 285.633 320.01 285.633 319.375ZM294.492 312.609H294.617V313.836H294.492C293.727 313.836 293.086 313.961 292.57 314.211C292.055 314.456 291.646 314.786 291.344 315.203C291.042 315.615 290.823 316.078 290.688 316.594C290.557 317.109 290.492 317.633 290.492 318.164V319.836C290.492 320.341 290.552 320.789 290.672 321.18C290.792 321.565 290.956 321.891 291.164 322.156C291.372 322.422 291.607 322.622 291.867 322.758C292.133 322.893 292.409 322.961 292.695 322.961C293.029 322.961 293.326 322.898 293.586 322.773C293.846 322.643 294.065 322.464 294.242 322.234C294.424 322 294.562 321.724 294.656 321.406C294.75 321.089 294.797 320.74 294.797 320.359C294.797 320.021 294.755 319.695 294.672 319.383C294.589 319.065 294.461 318.784 294.289 318.539C294.117 318.289 293.901 318.094 293.641 317.953C293.385 317.807 293.081 317.734 292.727 317.734C292.326 317.734 291.951 317.833 291.602 318.031C291.258 318.224 290.974 318.479 290.75 318.797C290.531 319.109 290.406 319.451 290.375 319.82L289.609 319.812C289.682 319.229 289.818 318.732 290.016 318.32C290.219 317.904 290.469 317.565 290.766 317.305C291.068 317.039 291.404 316.846 291.773 316.727C292.148 316.602 292.544 316.539 292.961 316.539C293.529 316.539 294.018 316.646 294.43 316.859C294.841 317.073 295.18 317.359 295.445 317.719C295.711 318.073 295.906 318.474 296.031 318.922C296.161 319.365 296.227 319.82 296.227 320.289C296.227 320.826 296.151 321.328 296 321.797C295.849 322.266 295.622 322.677 295.32 323.031C295.023 323.385 294.656 323.661 294.219 323.859C293.781 324.057 293.273 324.156 292.695 324.156C292.081 324.156 291.544 324.031 291.086 323.781C290.628 323.526 290.247 323.188 289.945 322.766C289.643 322.344 289.417 321.875 289.266 321.359C289.115 320.844 289.039 320.32 289.039 319.789V319.109C289.039 318.307 289.12 317.521 289.281 316.75C289.443 315.979 289.721 315.281 290.117 314.656C290.518 314.031 291.073 313.534 291.781 313.164C292.49 312.794 293.393 312.609 294.492 312.609ZM303.133 312.625L298.391 324.977H297.148L301.898 312.625H303.133ZM312.008 322.812V324H304.562V322.961L308.289 318.812C308.747 318.302 309.102 317.87 309.352 317.516C309.607 317.156 309.784 316.836 309.883 316.555C309.987 316.268 310.039 315.977 310.039 315.68C310.039 315.305 309.961 314.966 309.805 314.664C309.654 314.357 309.43 314.112 309.133 313.93C308.836 313.747 308.477 313.656 308.055 313.656C307.549 313.656 307.128 313.755 306.789 313.953C306.456 314.146 306.206 314.417 306.039 314.766C305.872 315.115 305.789 315.516 305.789 315.969H304.344C304.344 315.328 304.484 314.742 304.766 314.211C305.047 313.68 305.464 313.258 306.016 312.945C306.568 312.628 307.247 312.469 308.055 312.469C308.773 312.469 309.388 312.596 309.898 312.852C310.409 313.102 310.799 313.456 311.07 313.914C311.346 314.367 311.484 314.898 311.484 315.508C311.484 315.841 311.427 316.18 311.312 316.523C311.203 316.862 311.049 317.201 310.852 317.539C310.659 317.878 310.432 318.211 310.172 318.539C309.917 318.867 309.643 319.19 309.352 319.508L306.305 322.812H312.008ZM321.242 320.172V321.359H313.023V320.508L318.117 312.625H319.297L318.031 314.906L314.664 320.172H321.242ZM319.656 312.625V324H318.211V312.625H319.656Z" fill="#707070"/>
<path d="M350.086 317.406V319.141C350.086 320.073 350.003 320.859 349.836 321.5C349.669 322.141 349.43 322.656 349.117 323.047C348.805 323.438 348.427 323.721 347.984 323.898C347.547 324.07 347.052 324.156 346.5 324.156C346.062 324.156 345.659 324.102 345.289 323.992C344.919 323.883 344.586 323.708 344.289 323.469C343.997 323.224 343.747 322.906 343.539 322.516C343.331 322.125 343.172 321.651 343.062 321.094C342.953 320.536 342.898 319.885 342.898 319.141V317.406C342.898 316.474 342.982 315.693 343.148 315.062C343.32 314.432 343.562 313.927 343.875 313.547C344.188 313.161 344.562 312.885 345 312.719C345.443 312.552 345.938 312.469 346.484 312.469C346.927 312.469 347.333 312.523 347.703 312.633C348.078 312.737 348.411 312.906 348.703 313.141C348.995 313.37 349.242 313.677 349.445 314.062C349.654 314.443 349.812 314.909 349.922 315.461C350.031 316.013 350.086 316.661 350.086 317.406ZM348.633 319.375V317.164C348.633 316.654 348.602 316.206 348.539 315.82C348.482 315.43 348.396 315.096 348.281 314.82C348.167 314.544 348.021 314.32 347.844 314.148C347.672 313.977 347.471 313.852 347.242 313.773C347.018 313.69 346.766 313.648 346.484 313.648C346.141 313.648 345.836 313.714 345.57 313.844C345.305 313.969 345.081 314.169 344.898 314.445C344.721 314.721 344.586 315.083 344.492 315.531C344.398 315.979 344.352 316.523 344.352 317.164V319.375C344.352 319.885 344.38 320.336 344.438 320.727C344.5 321.117 344.591 321.456 344.711 321.742C344.831 322.023 344.977 322.255 345.148 322.438C345.32 322.62 345.518 322.755 345.742 322.844C345.971 322.927 346.224 322.969 346.5 322.969C346.854 322.969 347.164 322.901 347.43 322.766C347.695 322.63 347.917 322.419 348.094 322.133C348.276 321.841 348.411 321.469 348.5 321.016C348.589 320.557 348.633 320.01 348.633 319.375ZM359.297 312.625V313.438L354.586 324H353.062L357.766 313.812H351.609V312.625H359.297ZM366.133 312.625L361.391 324.977H360.148L364.898 312.625H366.133ZM375.008 322.812V324H367.562V322.961L371.289 318.812C371.747 318.302 372.102 317.87 372.352 317.516C372.607 317.156 372.784 316.836 372.883 316.555C372.987 316.268 373.039 315.977 373.039 315.68C373.039 315.305 372.961 314.966 372.805 314.664C372.654 314.357 372.43 314.112 372.133 313.93C371.836 313.747 371.477 313.656 371.055 313.656C370.549 313.656 370.128 313.755 369.789 313.953C369.456 314.146 369.206 314.417 369.039 314.766C368.872 315.115 368.789 315.516 368.789 315.969H367.344C367.344 315.328 367.484 314.742 367.766 314.211C368.047 313.68 368.464 313.258 369.016 312.945C369.568 312.628 370.247 312.469 371.055 312.469C371.773 312.469 372.388 312.596 372.898 312.852C373.409 313.102 373.799 313.456 374.07 313.914C374.346 314.367 374.484 314.898 374.484 315.508C374.484 315.841 374.427 316.18 374.312 316.523C374.203 316.862 374.049 317.201 373.852 317.539C373.659 317.878 373.432 318.211 373.172 318.539C372.917 318.867 372.643 319.19 372.352 319.508L369.305 322.812H375.008ZM384.242 320.172V321.359H376.023V320.508L381.117 312.625H382.297L381.031 314.906L377.664 320.172H384.242ZM382.656 312.625V324H381.211V312.625H382.656Z" fill="#707070"/>
<path d="M413.086 317.406V319.141C413.086 320.073 413.003 320.859 412.836 321.5C412.669 322.141 412.43 322.656 412.117 323.047C411.805 323.438 411.427 323.721 410.984 323.898C410.547 324.07 410.052 324.156 409.5 324.156C409.062 324.156 408.659 324.102 408.289 323.992C407.919 323.883 407.586 323.708 407.289 323.469C406.997 323.224 406.747 322.906 406.539 322.516C406.331 322.125 406.172 321.651 406.062 321.094C405.953 320.536 405.898 319.885 405.898 319.141V317.406C405.898 316.474 405.982 315.693 406.148 315.062C406.32 314.432 406.562 313.927 406.875 313.547C407.188 313.161 407.562 312.885 408 312.719C408.443 312.552 408.938 312.469 409.484 312.469C409.927 312.469 410.333 312.523 410.703 312.633C411.078 312.737 411.411 312.906 411.703 313.141C411.995 313.37 412.242 313.677 412.445 314.062C412.654 314.443 412.812 314.909 412.922 315.461C413.031 316.013 413.086 316.661 413.086 317.406ZM411.633 319.375V317.164C411.633 316.654 411.602 316.206 411.539 315.82C411.482 315.43 411.396 315.096 411.281 314.82C411.167 314.544 411.021 314.32 410.844 314.148C410.672 313.977 410.471 313.852 410.242 313.773C410.018 313.69 409.766 313.648 409.484 313.648C409.141 313.648 408.836 313.714 408.57 313.844C408.305 313.969 408.081 314.169 407.898 314.445C407.721 314.721 407.586 315.083 407.492 315.531C407.398 315.979 407.352 316.523 407.352 317.164V319.375C407.352 319.885 407.38 320.336 407.438 320.727C407.5 321.117 407.591 321.456 407.711 321.742C407.831 322.023 407.977 322.255 408.148 322.438C408.32 322.62 408.518 322.755 408.742 322.844C408.971 322.927 409.224 322.969 409.5 322.969C409.854 322.969 410.164 322.901 410.43 322.766C410.695 322.63 410.917 322.419 411.094 322.133C411.276 321.841 411.411 321.469 411.5 321.016C411.589 320.557 411.633 320.01 411.633 319.375ZM422.117 320.922C422.117 321.615 421.956 322.203 421.633 322.688C421.315 323.167 420.883 323.531 420.336 323.781C419.794 324.031 419.182 324.156 418.5 324.156C417.818 324.156 417.203 324.031 416.656 323.781C416.109 323.531 415.677 323.167 415.359 322.688C415.042 322.203 414.883 321.615 414.883 320.922C414.883 320.469 414.969 320.055 415.141 319.68C415.318 319.299 415.565 318.969 415.883 318.688C416.206 318.406 416.586 318.19 417.023 318.039C417.466 317.883 417.953 317.805 418.484 317.805C419.182 317.805 419.805 317.94 420.352 318.211C420.898 318.477 421.328 318.844 421.641 319.312C421.958 319.781 422.117 320.318 422.117 320.922ZM420.664 320.891C420.664 320.469 420.573 320.096 420.391 319.773C420.208 319.445 419.953 319.19 419.625 319.008C419.297 318.826 418.917 318.734 418.484 318.734C418.042 318.734 417.659 318.826 417.336 319.008C417.018 319.19 416.771 319.445 416.594 319.773C416.417 320.096 416.328 320.469 416.328 320.891C416.328 321.328 416.414 321.703 416.586 322.016C416.763 322.323 417.013 322.56 417.336 322.727C417.664 322.888 418.052 322.969 418.5 322.969C418.948 322.969 419.333 322.888 419.656 322.727C419.979 322.56 420.227 322.323 420.398 322.016C420.576 321.703 420.664 321.328 420.664 320.891ZM421.852 315.586C421.852 316.138 421.706 316.635 421.414 317.078C421.122 317.521 420.724 317.87 420.219 318.125C419.714 318.38 419.141 318.508 418.5 318.508C417.849 318.508 417.268 318.38 416.758 318.125C416.253 317.87 415.857 317.521 415.57 317.078C415.284 316.635 415.141 316.138 415.141 315.586C415.141 314.924 415.284 314.362 415.57 313.898C415.862 313.435 416.26 313.081 416.766 312.836C417.271 312.591 417.846 312.469 418.492 312.469C419.143 312.469 419.721 312.591 420.227 312.836C420.732 313.081 421.128 313.435 421.414 313.898C421.706 314.362 421.852 314.924 421.852 315.586ZM420.406 315.609C420.406 315.229 420.326 314.893 420.164 314.602C420.003 314.31 419.779 314.081 419.492 313.914C419.206 313.742 418.872 313.656 418.492 313.656C418.112 313.656 417.779 313.737 417.492 313.898C417.211 314.055 416.99 314.279 416.828 314.57C416.672 314.862 416.594 315.208 416.594 315.609C416.594 316 416.672 316.341 416.828 316.633C416.99 316.924 417.214 317.151 417.5 317.312C417.786 317.474 418.12 317.555 418.5 317.555C418.88 317.555 419.211 317.474 419.492 317.312C419.779 317.151 420.003 316.924 420.164 316.633C420.326 316.341 420.406 316 420.406 315.609ZM429.133 312.625L424.391 324.977H423.148L427.898 312.625H429.133ZM438.008 322.812V324H430.562V322.961L434.289 318.812C434.747 318.302 435.102 317.87 435.352 317.516C435.607 317.156 435.784 316.836 435.883 316.555C435.987 316.268 436.039 315.977 436.039 315.68C436.039 315.305 435.961 314.966 435.805 314.664C435.654 314.357 435.43 314.112 435.133 313.93C434.836 313.747 434.477 313.656 434.055 313.656C433.549 313.656 433.128 313.755 432.789 313.953C432.456 314.146 432.206 314.417 432.039 314.766C431.872 315.115 431.789 315.516 431.789 315.969H430.344C430.344 315.328 430.484 314.742 430.766 314.211C431.047 313.68 431.464 313.258 432.016 312.945C432.568 312.628 433.247 312.469 434.055 312.469C434.773 312.469 435.388 312.596 435.898 312.852C436.409 313.102 436.799 313.456 437.07 313.914C437.346 314.367 437.484 314.898 437.484 315.508C437.484 315.841 437.427 316.18 437.312 316.523C437.203 316.862 437.049 317.201 436.852 317.539C436.659 317.878 436.432 318.211 436.172 318.539C435.917 318.867 435.643 319.19 435.352 319.508L432.305 322.812H438.008ZM447.242 320.172V321.359H439.023V320.508L444.117 312.625H445.297L444.031 314.906L440.664 320.172H447.242ZM445.656 312.625V324H444.211V312.625H445.656Z" fill="#707070"/>
<path d="M476.086 317.406V319.141C476.086 320.073 476.003 320.859 475.836 321.5C475.669 322.141 475.43 322.656 475.117 323.047C474.805 323.438 474.427 323.721 473.984 323.898C473.547 324.07 473.052 324.156 472.5 324.156C472.062 324.156 471.659 324.102 471.289 323.992C470.919 323.883 470.586 323.708 470.289 323.469C469.997 323.224 469.747 322.906 469.539 322.516C469.331 322.125 469.172 321.651 469.062 321.094C468.953 320.536 468.898 319.885 468.898 319.141V317.406C468.898 316.474 468.982 315.693 469.148 315.062C469.32 314.432 469.562 313.927 469.875 313.547C470.188 313.161 470.562 312.885 471 312.719C471.443 312.552 471.938 312.469 472.484 312.469C472.927 312.469 473.333 312.523 473.703 312.633C474.078 312.737 474.411 312.906 474.703 313.141C474.995 313.37 475.242 313.677 475.445 314.062C475.654 314.443 475.812 314.909 475.922 315.461C476.031 316.013 476.086 316.661 476.086 317.406ZM474.633 319.375V317.164C474.633 316.654 474.602 316.206 474.539 315.82C474.482 315.43 474.396 315.096 474.281 314.82C474.167 314.544 474.021 314.32 473.844 314.148C473.672 313.977 473.471 313.852 473.242 313.773C473.018 313.69 472.766 313.648 472.484 313.648C472.141 313.648 471.836 313.714 471.57 313.844C471.305 313.969 471.081 314.169 470.898 314.445C470.721 314.721 470.586 315.083 470.492 315.531C470.398 315.979 470.352 316.523 470.352 317.164V319.375C470.352 319.885 470.38 320.336 470.438 320.727C470.5 321.117 470.591 321.456 470.711 321.742C470.831 322.023 470.977 322.255 471.148 322.438C471.32 322.62 471.518 322.755 471.742 322.844C471.971 322.927 472.224 322.969 472.5 322.969C472.854 322.969 473.164 322.901 473.43 322.766C473.695 322.63 473.917 322.419 474.094 322.133C474.276 321.841 474.411 321.469 474.5 321.016C474.589 320.557 474.633 320.01 474.633 319.375ZM479.383 322.789H479.531C480.365 322.789 481.042 322.672 481.562 322.438C482.083 322.203 482.484 321.888 482.766 321.492C483.047 321.096 483.24 320.651 483.344 320.156C483.448 319.656 483.5 319.143 483.5 318.617V316.875C483.5 316.359 483.44 315.901 483.32 315.5C483.206 315.099 483.044 314.763 482.836 314.492C482.633 314.221 482.401 314.016 482.141 313.875C481.88 313.734 481.604 313.664 481.312 313.664C480.979 313.664 480.68 313.732 480.414 313.867C480.154 313.997 479.932 314.182 479.75 314.422C479.573 314.661 479.438 314.943 479.344 315.266C479.25 315.589 479.203 315.94 479.203 316.32C479.203 316.659 479.245 316.987 479.328 317.305C479.411 317.622 479.539 317.909 479.711 318.164C479.883 318.419 480.096 318.622 480.352 318.773C480.612 318.919 480.917 318.992 481.266 318.992C481.589 318.992 481.891 318.93 482.172 318.805C482.458 318.674 482.711 318.5 482.93 318.281C483.154 318.057 483.331 317.805 483.461 317.523C483.596 317.242 483.674 316.948 483.695 316.641H484.383C484.383 317.073 484.297 317.5 484.125 317.922C483.958 318.339 483.724 318.719 483.422 319.062C483.12 319.406 482.766 319.682 482.359 319.891C481.953 320.094 481.51 320.195 481.031 320.195C480.469 320.195 479.982 320.086 479.57 319.867C479.159 319.648 478.82 319.357 478.555 318.992C478.294 318.628 478.099 318.221 477.969 317.773C477.844 317.32 477.781 316.862 477.781 316.398C477.781 315.857 477.857 315.349 478.008 314.875C478.159 314.401 478.383 313.984 478.68 313.625C478.977 313.26 479.344 312.977 479.781 312.773C480.224 312.57 480.734 312.469 481.312 312.469C481.964 312.469 482.518 312.599 482.977 312.859C483.435 313.12 483.807 313.469 484.094 313.906C484.385 314.344 484.599 314.836 484.734 315.383C484.87 315.93 484.938 316.492 484.938 317.07V317.594C484.938 318.182 484.898 318.781 484.82 319.391C484.747 319.995 484.604 320.573 484.391 321.125C484.182 321.677 483.878 322.172 483.477 322.609C483.076 323.042 482.552 323.385 481.906 323.641C481.266 323.891 480.474 324.016 479.531 324.016H479.383V322.789ZM492.133 312.625L487.391 324.977H486.148L490.898 312.625H492.133ZM501.008 322.812V324H493.562V322.961L497.289 318.812C497.747 318.302 498.102 317.87 498.352 317.516C498.607 317.156 498.784 316.836 498.883 316.555C498.987 316.268 499.039 315.977 499.039 315.68C499.039 315.305 498.961 314.966 498.805 314.664C498.654 314.357 498.43 314.112 498.133 313.93C497.836 313.747 497.477 313.656 497.055 313.656C496.549 313.656 496.128 313.755 495.789 313.953C495.456 314.146 495.206 314.417 495.039 314.766C494.872 315.115 494.789 315.516 494.789 315.969H493.344C493.344 315.328 493.484 314.742 493.766 314.211C494.047 313.68 494.464 313.258 495.016 312.945C495.568 312.628 496.247 312.469 497.055 312.469C497.773 312.469 498.388 312.596 498.898 312.852C499.409 313.102 499.799 313.456 500.07 313.914C500.346 314.367 500.484 314.898 500.484 315.508C500.484 315.841 500.427 316.18 500.312 316.523C500.203 316.862 500.049 317.201 499.852 317.539C499.659 317.878 499.432 318.211 499.172 318.539C498.917 318.867 498.643 319.19 498.352 319.508L495.305 322.812H501.008ZM510.242 320.172V321.359H502.023V320.508L507.117 312.625H508.297L507.031 314.906L503.664 320.172H510.242ZM508.656 312.625V324H507.211V312.625H508.656Z" fill="#707070"/>
<rect x="90" y="88" width="1" height="210" fill="#D9D9D9"/>
<rect x="508" y="293" width="1.00002" height="422" transform="rotate(90 508 293)" fill="#D9D9D9"/>
<rect x="91.25" y="252.25" width="416.5" height="0.5" stroke="#D9D9D9" stroke-width="0.5" stroke-dasharray="2 2"/>
<rect x="91.25" y="211.25" width="416.5" height="0.5" stroke="#D9D9D9" stroke-width="0.5" stroke-dasharray="2 2"/>
<rect x="91.25" y="170.25" width="416.5" height="0.5" stroke="#D9D9D9" stroke-width="0.5" stroke-dasharray="2 2"/>
<rect x="91.25" y="129.25" width="416.5" height="0.5" stroke="#D9D9D9" stroke-width="0.5" stroke-dasharray="2 2"/>
<rect x="91.25" y="88.25" width="416.5" height="0.5" stroke="#D9D9D9" stroke-width="0.5" stroke-dasharray="2 2"/>
<path d="M104.5 151.5L164.5 130L210.5 277L239.5 172L258 221L309.5 116.5L326.5 210.5L366.5 144.5L390.5 188H437L507 88.5" stroke="#F47533" stroke-width="2" stroke-linejoin="round" stroke-dasharray="4 4"/>
<path d="M99.5 169L151 131.5L179.5 169L226 278L240 169L260.5 211.5L283.5 188.5L302 104L318 201L342.5 209" stroke="#FFAF00" stroke-width="2" stroke-linejoin="round"/>
<circle cx="151" cy="132" r="3" fill="#FFAF00"/>
<circle cx="226" cy="277" r="3" fill="#FFAF00"/>
<circle cx="240" cy="171" r="3" fill="#FFAF00"/>
<circle cx="260" cy="211" r="3" fill="#FFAF00"/>
<circle cx="302" cy="106" r="3" fill="#FFAF00"/>
<circle cx="318" cy="201" r="3" fill="#FFAF00"/>
<circle cx="342" cy="209" r="3" fill="#0FE90B"/>
<defs>
<filter id="filter0_d_233_9464" x="0" y="0" width="545" height="364" filterUnits="userSpaceOnUse" color-interpolation-filters="sRGB">
<feFlood flood-opacity="0" result="BackgroundImageFix"/>
<feColorMatrix in="SourceAlpha" type="matrix" values="0 0 0 0 0 0 0 0 0 0 0 0 0 0 0 0 0 0 127 0" result="hardAlpha"/>
<feOffset dx="-2" dy="2"/>
<feGaussianBlur stdDeviation="2"/>
<feComposite in2="hardAlpha" operator="out"/>
<feColorMatrix type="matrix" values="0 0 0 0 0 0 0 0 0 0 0 0 0 0 0 0 0 0 0.05 0"/>
<feBlend mode="normal" in2="BackgroundImageFix" result="effect1_dropShadow_233_9464"/>
<feBlend mode="normal" in="SourceGraphic" in2="effect1_dropShadow_233_9464" result="shape"/>
</filter>
</defs>
</svg>
