<svg width="267" height="263" viewBox="0 0 267 263" fill="none" xmlns="http://www.w3.org/2000/svg">
<g filter="url(#filter0_d_302_1503)">
<rect x="6" y="2" width="259" height="255" rx="20" fill="white"/>
</g>
<rect x="26" y="138" width="98" height="98" rx="10" fill="#F8F8F8"/>
<path d="M37.7646 214.452H35.2285V212.853H37.7646C38.1566 212.853 38.4756 212.789 38.7217 212.661C38.9678 212.529 39.1478 212.347 39.2617 212.114C39.3757 211.882 39.4326 211.62 39.4326 211.328C39.4326 211.032 39.3757 210.756 39.2617 210.501C39.1478 210.246 38.9678 210.041 38.7217 209.886C38.4756 209.731 38.1566 209.653 37.7646 209.653H35.9395V218H33.8887V208.047H37.7646C38.5439 208.047 39.2116 208.188 39.7676 208.471C40.3281 208.749 40.7565 209.134 41.0527 209.626C41.349 210.118 41.4971 210.681 41.4971 211.314C41.4971 211.957 41.349 212.513 41.0527 212.982C40.7565 213.452 40.3281 213.814 39.7676 214.069C39.2116 214.325 38.5439 214.452 37.7646 214.452ZM42.9121 208.047H46.624C47.3851 208.047 48.0391 208.161 48.5859 208.389C49.1374 208.617 49.5612 208.954 49.8574 209.4C50.1536 209.847 50.3018 210.396 50.3018 211.048C50.3018 211.581 50.2106 212.039 50.0283 212.422C49.8506 212.8 49.5977 213.117 49.2695 213.372C48.946 213.623 48.5654 213.823 48.1279 213.974L47.4785 214.315H44.252L44.2383 212.716H46.6377C46.9977 212.716 47.2962 212.652 47.5332 212.524C47.7702 212.397 47.9479 212.219 48.0664 211.991C48.1895 211.763 48.251 211.499 48.251 211.198C48.251 210.879 48.1917 210.604 48.0732 210.371C47.9548 210.139 47.7747 209.961 47.5332 209.838C47.2917 209.715 46.9886 209.653 46.624 209.653H44.9629V218H42.9121V208.047ZM48.4766 218L46.207 213.563L48.374 213.55L50.6709 217.904V218H48.4766ZM60.0566 212.791V213.263C60.0566 214.019 59.9541 214.698 59.749 215.3C59.5439 215.901 59.2546 216.414 58.8809 216.838C58.5072 217.257 58.0605 217.578 57.541 217.802C57.026 218.025 56.4541 218.137 55.8252 218.137C55.2008 218.137 54.6289 218.025 54.1094 217.802C53.5944 217.578 53.1478 217.257 52.7695 216.838C52.3913 216.414 52.0973 215.901 51.8877 215.3C51.6826 214.698 51.5801 214.019 51.5801 213.263V212.791C51.5801 212.03 51.6826 211.351 51.8877 210.754C52.0928 210.152 52.3822 209.64 52.7559 209.216C53.1341 208.792 53.5807 208.468 54.0957 208.245C54.6152 208.022 55.1872 207.91 55.8115 207.91C56.4404 207.91 57.0124 208.022 57.5273 208.245C58.0469 208.468 58.4935 208.792 58.8672 209.216C59.2454 209.64 59.5371 210.152 59.7422 210.754C59.9518 211.351 60.0566 212.03 60.0566 212.791ZM57.9854 213.263V212.777C57.9854 212.249 57.9375 211.784 57.8418 211.383C57.7461 210.982 57.6048 210.645 57.418 210.371C57.2311 210.098 57.0033 209.893 56.7344 209.756C56.4655 209.615 56.1579 209.544 55.8115 209.544C55.4652 209.544 55.1576 209.615 54.8887 209.756C54.6243 209.893 54.3988 210.098 54.2119 210.371C54.0296 210.645 53.8906 210.982 53.7949 211.383C53.6992 211.784 53.6514 212.249 53.6514 212.777V213.263C53.6514 213.787 53.6992 214.252 53.7949 214.657C53.8906 215.058 54.0319 215.398 54.2188 215.676C54.4056 215.949 54.6335 216.157 54.9023 216.298C55.1712 216.439 55.4788 216.51 55.8252 216.51C56.1715 216.51 56.4792 216.439 56.748 216.298C57.0169 216.157 57.2425 215.949 57.4248 215.676C57.6071 215.398 57.7461 215.058 57.8418 214.657C57.9375 214.252 57.9854 213.787 57.9854 213.263ZM65.4297 213.632H62.873L62.8594 212.224H65.0059C65.3841 212.224 65.694 212.176 65.9355 212.08C66.1771 211.98 66.3571 211.836 66.4756 211.649C66.5986 211.458 66.6602 211.226 66.6602 210.952C66.6602 210.642 66.6009 210.392 66.4824 210.2C66.3685 210.009 66.1885 209.87 65.9424 209.783C65.7008 209.697 65.3887 209.653 65.0059 209.653H63.584V218H61.5332V208.047H65.0059C65.5846 208.047 66.1019 208.102 66.5576 208.211C67.0179 208.32 67.4076 208.487 67.7266 208.71C68.0456 208.933 68.2894 209.216 68.458 209.558C68.6266 209.895 68.7109 210.296 68.7109 210.761C68.7109 211.171 68.6175 211.549 68.4307 211.896C68.2484 212.242 67.959 212.524 67.5625 212.743C67.1706 212.962 66.6579 213.083 66.0244 213.105L65.4297 213.632ZM65.3408 218H62.3125L63.1123 216.4H65.3408C65.7008 216.4 65.9948 216.343 66.2227 216.229C66.4505 216.111 66.6191 215.951 66.7285 215.751C66.8379 215.55 66.8926 215.32 66.8926 215.061C66.8926 214.769 66.8424 214.516 66.7422 214.302C66.6465 214.088 66.4915 213.924 66.2773 213.81C66.0632 213.691 65.7806 213.632 65.4297 213.632H63.4541L63.4678 212.224H65.9287L66.4004 212.777C67.0065 212.768 67.4941 212.875 67.8633 213.099C68.237 213.317 68.5081 213.602 68.6768 213.953C68.8499 214.304 68.9365 214.68 68.9365 215.081C68.9365 215.719 68.7975 216.257 68.5195 216.694C68.2415 217.127 67.8337 217.453 67.2959 217.672C66.7627 217.891 66.111 218 65.3408 218ZM76.873 216.4V218H71.8623V216.4H76.873ZM72.5254 208.047V218H70.4746V208.047H72.5254ZM84.7275 216.4V218H79.4297V216.4H84.7275ZM80.0996 208.047V218H78.0488V208.047H80.0996ZM84.0371 212.101V213.659H79.4297V212.101H84.0371ZM84.7207 208.047V209.653H79.4297V208.047H84.7207ZM86.8604 208.047H88.5967L91.1533 215.354L93.71 208.047H95.4463L91.8506 218H90.4561L86.8604 208.047ZM85.9238 208.047H87.6533L87.9678 215.17V218H85.9238V208.047ZM94.6533 208.047H96.3896V218H94.3389V215.17L94.6533 208.047ZM102.357 209.749L99.6504 218H97.4697L101.168 208.047H102.556L102.357 209.749ZM104.606 218L101.893 209.749L101.674 208.047H103.075L106.794 218H104.606ZM104.483 214.295V215.901H99.2266V214.295H104.483ZM112.898 215.396C112.898 215.218 112.871 215.058 112.816 214.917C112.766 214.771 112.671 214.639 112.529 214.521C112.388 214.397 112.19 214.277 111.935 214.158C111.679 214.04 111.349 213.917 110.943 213.789C110.492 213.643 110.064 213.479 109.658 213.297C109.257 213.115 108.902 212.903 108.592 212.661C108.286 212.415 108.045 212.13 107.867 211.807C107.694 211.483 107.607 211.107 107.607 210.679C107.607 210.264 107.699 209.888 107.881 209.551C108.063 209.209 108.318 208.917 108.646 208.676C108.975 208.43 109.362 208.241 109.809 208.108C110.26 207.976 110.754 207.91 111.292 207.91C112.026 207.91 112.666 208.042 113.213 208.307C113.76 208.571 114.184 208.933 114.484 209.394C114.79 209.854 114.942 210.38 114.942 210.973H112.905C112.905 210.681 112.844 210.426 112.721 210.207C112.602 209.984 112.42 209.808 112.174 209.681C111.932 209.553 111.627 209.489 111.258 209.489C110.902 209.489 110.606 209.544 110.369 209.653C110.132 209.758 109.954 209.902 109.836 210.084C109.717 210.262 109.658 210.462 109.658 210.686C109.658 210.854 109.699 211.007 109.781 211.144C109.868 211.28 109.995 211.408 110.164 211.526C110.333 211.645 110.54 211.757 110.786 211.861C111.032 211.966 111.317 212.069 111.641 212.169C112.183 212.333 112.659 212.518 113.069 212.723C113.484 212.928 113.83 213.158 114.108 213.413C114.386 213.668 114.596 213.958 114.737 214.281C114.879 214.605 114.949 214.972 114.949 215.382C114.949 215.815 114.865 216.202 114.696 216.544C114.528 216.886 114.284 217.175 113.965 217.412C113.646 217.649 113.265 217.829 112.823 217.952C112.381 218.075 111.887 218.137 111.34 218.137C110.848 218.137 110.362 218.073 109.884 217.945C109.405 217.813 108.97 217.615 108.578 217.351C108.191 217.086 107.881 216.749 107.648 216.339C107.416 215.929 107.3 215.443 107.3 214.883H109.357C109.357 215.193 109.405 215.455 109.501 215.669C109.597 215.883 109.731 216.056 109.904 216.188C110.082 216.321 110.292 216.416 110.533 216.476C110.779 216.535 111.048 216.564 111.34 216.564C111.695 216.564 111.987 216.514 112.215 216.414C112.447 216.314 112.618 216.175 112.728 215.997C112.841 215.819 112.898 215.619 112.898 215.396Z" fill="#707070"/>
<path d="M67.6641 161.504V190H62.0391V167.988L55.2812 170.137V165.703L67.0586 161.504H67.6641ZM96.545 185.605V190H77.0919V186.25L86.2911 176.387C87.2156 175.358 87.9447 174.453 88.4786 173.672C89.0124 172.878 89.3966 172.168 89.6309 171.543C89.8783 170.905 90.002 170.299 90.002 169.727C90.002 168.867 89.8588 168.132 89.5723 167.52C89.2859 166.895 88.8627 166.413 88.3028 166.074C87.7559 165.736 87.0789 165.566 86.2716 165.566C85.4122 165.566 84.67 165.775 84.045 166.191C83.433 166.608 82.9643 167.188 82.6388 167.93C82.3263 168.672 82.17 169.512 82.17 170.449H76.5255C76.5255 168.757 76.9291 167.207 77.7364 165.801C78.5437 164.382 79.683 163.255 81.1544 162.422C82.6257 161.576 84.3705 161.152 86.3888 161.152C88.3809 161.152 90.0606 161.478 91.4278 162.129C92.808 162.767 93.8497 163.691 94.5528 164.902C95.269 166.1 95.627 167.533 95.627 169.199C95.627 170.137 95.4773 171.055 95.1778 171.953C94.8783 172.839 94.4486 173.724 93.8888 174.609C93.3419 175.482 92.6778 176.367 91.8966 177.266C91.1153 178.164 90.2494 179.095 89.2989 180.059L84.3575 185.605H96.545Z" fill="#555555"/>
<path d="M179.475 215.129V216.02H173.311V215.381L177.131 209.469H178.016L177.066 211.18L174.541 215.129H179.475ZM178.285 209.469V218H177.201V209.469H178.285ZM180.594 217.426C180.594 217.242 180.65 217.088 180.764 216.963C180.881 216.834 181.049 216.77 181.268 216.77C181.486 216.77 181.652 216.834 181.766 216.963C181.883 217.088 181.941 217.242 181.941 217.426C181.941 217.605 181.883 217.758 181.766 217.883C181.652 218.008 181.486 218.07 181.268 218.07C181.049 218.07 180.881 218.008 180.764 217.883C180.65 217.758 180.594 217.605 180.594 217.426ZM184.701 217.092H184.812C185.438 217.092 185.945 217.004 186.336 216.828C186.727 216.652 187.027 216.416 187.238 216.119C187.449 215.822 187.594 215.488 187.672 215.117C187.75 214.742 187.789 214.357 187.789 213.963V212.656C187.789 212.27 187.744 211.926 187.654 211.625C187.568 211.324 187.447 211.072 187.291 210.869C187.139 210.666 186.965 210.512 186.77 210.406C186.574 210.301 186.367 210.248 186.148 210.248C185.898 210.248 185.674 210.299 185.475 210.4C185.279 210.498 185.113 210.637 184.977 210.816C184.844 210.996 184.742 211.207 184.672 211.449C184.602 211.691 184.566 211.955 184.566 212.24C184.566 212.494 184.598 212.74 184.66 212.979C184.723 213.217 184.818 213.432 184.947 213.623C185.076 213.814 185.236 213.967 185.428 214.08C185.623 214.189 185.852 214.244 186.113 214.244C186.355 214.244 186.582 214.197 186.793 214.104C187.008 214.006 187.197 213.875 187.361 213.711C187.529 213.543 187.662 213.354 187.76 213.143C187.861 212.932 187.92 212.711 187.936 212.48H188.451C188.451 212.805 188.387 213.125 188.258 213.441C188.133 213.754 187.957 214.039 187.73 214.297C187.504 214.555 187.238 214.762 186.934 214.918C186.629 215.07 186.297 215.146 185.938 215.146C185.516 215.146 185.15 215.064 184.842 214.9C184.533 214.736 184.279 214.518 184.08 214.244C183.885 213.971 183.738 213.666 183.641 213.33C183.547 212.99 183.5 212.646 183.5 212.299C183.5 211.893 183.557 211.512 183.67 211.156C183.783 210.801 183.951 210.488 184.174 210.219C184.396 209.945 184.672 209.732 185 209.58C185.332 209.428 185.715 209.352 186.148 209.352C186.637 209.352 187.053 209.449 187.396 209.645C187.74 209.84 188.02 210.102 188.234 210.43C188.453 210.758 188.613 211.127 188.715 211.537C188.816 211.947 188.867 212.369 188.867 212.803V213.195C188.867 213.637 188.838 214.086 188.779 214.543C188.725 214.996 188.617 215.43 188.457 215.844C188.301 216.258 188.072 216.629 187.771 216.957C187.471 217.281 187.078 217.539 186.594 217.73C186.113 217.918 185.52 218.012 184.812 218.012H184.701V217.092ZM197.463 216.77V209H198.553V218H197.557L197.463 216.77ZM193.197 214.9V214.777C193.197 214.293 193.256 213.854 193.373 213.459C193.494 213.061 193.664 212.719 193.883 212.434C194.105 212.148 194.369 211.93 194.674 211.777C194.982 211.621 195.326 211.543 195.705 211.543C196.104 211.543 196.451 211.613 196.748 211.754C197.049 211.891 197.303 212.092 197.51 212.357C197.721 212.619 197.887 212.936 198.008 213.307C198.129 213.678 198.213 214.098 198.26 214.566V215.105C198.217 215.57 198.133 215.988 198.008 216.359C197.887 216.73 197.721 217.047 197.51 217.309C197.303 217.57 197.049 217.771 196.748 217.912C196.447 218.049 196.096 218.117 195.693 218.117C195.322 218.117 194.982 218.037 194.674 217.877C194.369 217.717 194.105 217.492 193.883 217.203C193.664 216.914 193.494 216.574 193.373 216.184C193.256 215.789 193.197 215.361 193.197 214.9ZM194.287 214.777V214.9C194.287 215.217 194.318 215.514 194.381 215.791C194.447 216.068 194.549 216.312 194.686 216.523C194.822 216.734 194.996 216.9 195.207 217.021C195.418 217.139 195.67 217.197 195.963 217.197C196.322 217.197 196.617 217.121 196.848 216.969C197.082 216.816 197.27 216.615 197.41 216.365C197.551 216.115 197.66 215.844 197.738 215.551V214.139C197.691 213.924 197.623 213.717 197.533 213.518C197.447 213.314 197.334 213.135 197.193 212.979C197.057 212.818 196.887 212.691 196.684 212.598C196.484 212.504 196.248 212.457 195.975 212.457C195.678 212.457 195.422 212.52 195.207 212.645C194.996 212.766 194.822 212.934 194.686 213.148C194.549 213.359 194.447 213.605 194.381 213.887C194.318 214.164 194.287 214.461 194.287 214.777ZM202.871 218.117C202.43 218.117 202.029 218.043 201.67 217.895C201.314 217.742 201.008 217.529 200.75 217.256C200.496 216.982 200.301 216.658 200.164 216.283C200.027 215.908 199.959 215.498 199.959 215.053V214.807C199.959 214.291 200.035 213.832 200.188 213.43C200.34 213.023 200.547 212.68 200.809 212.398C201.07 212.117 201.367 211.904 201.699 211.76C202.031 211.615 202.375 211.543 202.73 211.543C203.184 211.543 203.574 211.621 203.902 211.777C204.234 211.934 204.506 212.152 204.717 212.434C204.928 212.711 205.084 213.039 205.186 213.418C205.287 213.793 205.338 214.203 205.338 214.648V215.135H200.604V214.25H204.254V214.168C204.238 213.887 204.18 213.613 204.078 213.348C203.98 213.082 203.824 212.863 203.609 212.691C203.395 212.52 203.102 212.434 202.73 212.434C202.484 212.434 202.258 212.486 202.051 212.592C201.844 212.693 201.666 212.846 201.518 213.049C201.369 213.252 201.254 213.5 201.172 213.793C201.09 214.086 201.049 214.424 201.049 214.807V215.053C201.049 215.354 201.09 215.637 201.172 215.902C201.258 216.164 201.381 216.395 201.541 216.594C201.705 216.793 201.902 216.949 202.133 217.062C202.367 217.176 202.633 217.232 202.93 217.232C203.312 217.232 203.637 217.154 203.902 216.998C204.168 216.842 204.4 216.633 204.6 216.371L205.256 216.893C205.119 217.1 204.945 217.297 204.734 217.484C204.523 217.672 204.264 217.824 203.955 217.941C203.65 218.059 203.289 218.117 202.871 218.117ZM210.834 213.939L209.967 213.717L210.395 209.469H214.771V210.471H211.314L211.057 212.791C211.213 212.701 211.41 212.617 211.648 212.539C211.891 212.461 212.168 212.422 212.48 212.422C212.875 212.422 213.229 212.49 213.541 212.627C213.854 212.76 214.119 212.951 214.338 213.201C214.561 213.451 214.73 213.752 214.848 214.104C214.965 214.455 215.023 214.848 215.023 215.281C215.023 215.691 214.967 216.068 214.854 216.412C214.744 216.756 214.578 217.057 214.355 217.314C214.133 217.568 213.852 217.766 213.512 217.906C213.176 218.047 212.779 218.117 212.322 218.117C211.979 218.117 211.652 218.07 211.344 217.977C211.039 217.879 210.766 217.732 210.523 217.537C210.285 217.338 210.09 217.092 209.938 216.799C209.789 216.502 209.695 216.154 209.656 215.756H210.688C210.734 216.076 210.828 216.346 210.969 216.564C211.109 216.783 211.293 216.949 211.52 217.062C211.75 217.172 212.018 217.227 212.322 217.227C212.58 217.227 212.809 217.182 213.008 217.092C213.207 217.002 213.375 216.873 213.512 216.705C213.648 216.537 213.752 216.334 213.822 216.096C213.896 215.857 213.934 215.59 213.934 215.293C213.934 215.023 213.896 214.773 213.822 214.543C213.748 214.312 213.637 214.111 213.488 213.939C213.344 213.768 213.166 213.635 212.955 213.541C212.744 213.443 212.502 213.395 212.229 213.395C211.865 213.395 211.59 213.443 211.402 213.541C211.219 213.639 211.029 213.771 210.834 213.939ZM216.348 217.426C216.348 217.242 216.404 217.088 216.518 216.963C216.635 216.834 216.803 216.77 217.021 216.77C217.24 216.77 217.406 216.834 217.52 216.963C217.637 217.088 217.695 217.242 217.695 217.426C217.695 217.605 217.637 217.758 217.52 217.883C217.406 218.008 217.24 218.07 217.021 218.07C216.803 218.07 216.635 218.008 216.518 217.883C216.404 217.758 216.348 217.605 216.348 217.426ZM224.732 213.055V214.355C224.732 215.055 224.67 215.645 224.545 216.125C224.42 216.605 224.24 216.992 224.006 217.285C223.771 217.578 223.488 217.791 223.156 217.924C222.828 218.053 222.457 218.117 222.043 218.117C221.715 218.117 221.412 218.076 221.135 217.994C220.857 217.912 220.607 217.781 220.385 217.602C220.166 217.418 219.979 217.18 219.822 216.887C219.666 216.594 219.547 216.238 219.465 215.82C219.383 215.402 219.342 214.914 219.342 214.355V213.055C219.342 212.355 219.404 211.77 219.529 211.297C219.658 210.824 219.84 210.445 220.074 210.16C220.309 209.871 220.59 209.664 220.918 209.539C221.25 209.414 221.621 209.352 222.031 209.352C222.363 209.352 222.668 209.393 222.945 209.475C223.227 209.553 223.477 209.68 223.695 209.855C223.914 210.027 224.1 210.258 224.252 210.547C224.408 210.832 224.527 211.182 224.609 211.596C224.691 212.01 224.732 212.496 224.732 213.055ZM223.643 214.531V212.873C223.643 212.49 223.619 212.154 223.572 211.865C223.529 211.572 223.465 211.322 223.379 211.115C223.293 210.908 223.184 210.74 223.051 210.611C222.922 210.482 222.771 210.389 222.6 210.33C222.432 210.268 222.242 210.236 222.031 210.236C221.773 210.236 221.545 210.285 221.346 210.383C221.146 210.477 220.979 210.627 220.842 210.834C220.709 211.041 220.607 211.312 220.537 211.648C220.467 211.984 220.432 212.393 220.432 212.873V214.531C220.432 214.914 220.453 215.252 220.496 215.545C220.543 215.838 220.611 216.092 220.701 216.307C220.791 216.518 220.9 216.691 221.029 216.828C221.158 216.965 221.307 217.066 221.475 217.133C221.646 217.195 221.836 217.227 222.043 217.227C222.309 217.227 222.541 217.176 222.74 217.074C222.939 216.973 223.105 216.814 223.238 216.6C223.375 216.381 223.477 216.102 223.543 215.762C223.609 215.418 223.643 215.008 223.643 214.531Z" fill="#707070"/>
<path d="M191.875 181.375V185.789H171.387L171.113 182.371L182.969 163.562H187.441L182.598 171.668L176.699 181.375H191.875ZM188.652 163.562V192H183.027V163.562H188.652ZM195.6 189.285C195.6 188.452 195.886 187.755 196.459 187.195C197.045 186.635 197.82 186.355 198.783 186.355C199.747 186.355 200.515 186.635 201.088 187.195C201.674 187.755 201.967 188.452 201.967 189.285C201.967 190.118 201.674 190.815 201.088 191.375C200.515 191.935 199.747 192.215 198.783 192.215C197.82 192.215 197.045 191.935 196.459 191.375C195.886 190.815 195.6 190.118 195.6 189.285ZM210.848 187.723H211.219C212.781 187.723 214.123 187.534 215.242 187.156C216.375 186.766 217.306 186.206 218.035 185.477C218.764 184.747 219.305 183.855 219.656 182.801C220.008 181.733 220.184 180.522 220.184 179.168V173.777C220.184 172.749 220.08 171.844 219.871 171.062C219.676 170.281 219.389 169.637 219.012 169.129C218.647 168.608 218.218 168.217 217.723 167.957C217.241 167.697 216.707 167.566 216.121 167.566C215.496 167.566 214.943 167.723 214.461 168.035C213.979 168.335 213.569 168.745 213.231 169.266C212.905 169.786 212.651 170.385 212.469 171.062C212.3 171.727 212.215 172.423 212.215 173.152C212.215 173.882 212.3 174.578 212.469 175.242C212.638 175.893 212.892 176.473 213.231 176.98C213.569 177.475 213.992 177.872 214.5 178.172C215.008 178.458 215.607 178.602 216.297 178.602C216.961 178.602 217.554 178.478 218.074 178.23C218.608 177.97 219.057 177.632 219.422 177.215C219.8 176.798 220.086 176.336 220.281 175.828C220.49 175.32 220.594 174.806 220.594 174.285L222.449 175.301C222.449 176.212 222.254 177.111 221.863 177.996C221.473 178.882 220.926 179.689 220.223 180.418C219.533 181.134 218.732 181.707 217.82 182.137C216.909 182.566 215.932 182.781 214.891 182.781C213.563 182.781 212.384 182.54 211.356 182.059C210.327 181.564 209.455 180.887 208.738 180.027C208.035 179.155 207.501 178.139 207.137 176.98C206.772 175.822 206.59 174.565 206.59 173.211C206.59 171.831 206.811 170.535 207.254 169.324C207.71 168.113 208.354 167.046 209.188 166.121C210.034 165.197 211.043 164.474 212.215 163.953C213.4 163.419 214.715 163.152 216.16 163.152C217.606 163.152 218.921 163.432 220.106 163.992C221.291 164.552 222.306 165.346 223.153 166.375C223.999 167.391 224.65 168.608 225.106 170.027C225.574 171.447 225.809 173.022 225.809 174.754V176.707C225.809 178.556 225.607 180.275 225.203 181.863C224.813 183.452 224.22 184.891 223.426 186.18C222.645 187.456 221.668 188.549 220.496 189.461C219.337 190.372 217.99 191.069 216.453 191.551C214.917 192.033 213.198 192.273 211.297 192.273H210.848V187.723Z" fill="#555555"/>
<rect x="147" y="21" width="98" height="98" rx="10" fill="#F8F8F8"/>
<path d="M181.989 91.0469V101H179.938L175.939 94.3281V101H173.889V91.0469H175.939L179.945 97.7256V91.0469H181.989ZM191.949 95.791V96.2627C191.949 97.0192 191.847 97.6982 191.642 98.2998C191.437 98.9014 191.147 99.4141 190.773 99.8379C190.4 100.257 189.953 100.578 189.434 100.802C188.919 101.025 188.347 101.137 187.718 101.137C187.093 101.137 186.521 101.025 186.002 100.802C185.487 100.578 185.04 100.257 184.662 99.8379C184.284 99.4141 183.99 98.9014 183.78 98.2998C183.575 97.6982 183.473 97.0192 183.473 96.2627V95.791C183.473 95.0299 183.575 94.3509 183.78 93.7539C183.985 93.1523 184.275 92.6396 184.648 92.2158C185.027 91.792 185.473 91.4684 185.988 91.2451C186.508 91.0218 187.08 90.9102 187.704 90.9102C188.333 90.9102 188.905 91.0218 189.42 91.2451C189.939 91.4684 190.386 91.792 190.76 92.2158C191.138 92.6396 191.43 93.1523 191.635 93.7539C191.844 94.3509 191.949 95.0299 191.949 95.791ZM189.878 96.2627V95.7773C189.878 95.2487 189.83 94.7839 189.734 94.3828C189.639 93.9818 189.497 93.6445 189.311 93.3711C189.124 93.0977 188.896 92.8926 188.627 92.7559C188.358 92.6146 188.05 92.5439 187.704 92.5439C187.358 92.5439 187.05 92.6146 186.781 92.7559C186.517 92.8926 186.291 93.0977 186.104 93.3711C185.922 93.6445 185.783 93.9818 185.688 94.3828C185.592 94.7839 185.544 95.2487 185.544 95.7773V96.2627C185.544 96.7868 185.592 97.2516 185.688 97.6572C185.783 98.0583 185.924 98.3978 186.111 98.6758C186.298 98.9492 186.526 99.1566 186.795 99.2979C187.064 99.4391 187.371 99.5098 187.718 99.5098C188.064 99.5098 188.372 99.4391 188.641 99.2979C188.91 99.1566 189.135 98.9492 189.317 98.6758C189.5 98.3978 189.639 98.0583 189.734 97.6572C189.83 97.2516 189.878 96.7868 189.878 96.2627ZM197.411 91.0469V101H195.367V91.0469H197.411ZM200.474 91.0469V92.6533H192.353V91.0469H200.474ZM204.951 92.749L202.244 101H200.063L203.762 91.0469H205.149L204.951 92.749ZM207.2 101L204.486 92.749L204.268 91.0469H205.669L209.388 101H207.2ZM207.077 97.2949V98.9014H201.82V97.2949H207.077ZM215.492 98.3955C215.492 98.2178 215.465 98.0583 215.41 97.917C215.36 97.7712 215.264 97.639 215.123 97.5205C214.982 97.3975 214.784 97.2767 214.528 97.1582C214.273 97.0397 213.943 96.9167 213.537 96.7891C213.086 96.6432 212.658 96.4792 212.252 96.2969C211.851 96.1146 211.495 95.9027 211.186 95.6611C210.88 95.415 210.639 95.1302 210.461 94.8066C210.288 94.4831 210.201 94.1071 210.201 93.6787C210.201 93.264 210.292 92.888 210.475 92.5508C210.657 92.209 210.912 91.9173 211.24 91.6758C211.568 91.4297 211.956 91.2406 212.402 91.1084C212.854 90.9762 213.348 90.9102 213.886 90.9102C214.619 90.9102 215.26 91.0423 215.807 91.3066C216.354 91.571 216.777 91.9333 217.078 92.3936C217.383 92.8538 217.536 93.3802 217.536 93.9727H215.499C215.499 93.681 215.438 93.4258 215.314 93.207C215.196 92.9837 215.014 92.8083 214.768 92.6807C214.526 92.5531 214.221 92.4893 213.852 92.4893C213.496 92.4893 213.2 92.5439 212.963 92.6533C212.726 92.7581 212.548 92.9017 212.43 93.084C212.311 93.2617 212.252 93.4622 212.252 93.6855C212.252 93.8542 212.293 94.0068 212.375 94.1436C212.462 94.2803 212.589 94.4079 212.758 94.5264C212.926 94.6449 213.134 94.7565 213.38 94.8613C213.626 94.9661 213.911 95.0687 214.234 95.1689C214.777 95.333 215.253 95.5176 215.663 95.7227C216.078 95.9277 216.424 96.1579 216.702 96.4131C216.98 96.6683 217.19 96.9577 217.331 97.2812C217.472 97.6048 217.543 97.9717 217.543 98.3818C217.543 98.8148 217.459 99.2021 217.29 99.5439C217.121 99.8857 216.878 100.175 216.559 100.412C216.24 100.649 215.859 100.829 215.417 100.952C214.975 101.075 214.48 101.137 213.934 101.137C213.441 101.137 212.956 101.073 212.478 100.945C211.999 100.813 211.564 100.615 211.172 100.351C210.785 100.086 210.475 99.749 210.242 99.3389C210.01 98.9287 209.894 98.4434 209.894 97.8828H211.951C211.951 98.1927 211.999 98.4548 212.095 98.6689C212.19 98.8831 212.325 99.0563 212.498 99.1885C212.676 99.3206 212.885 99.4163 213.127 99.4756C213.373 99.5348 213.642 99.5645 213.934 99.5645C214.289 99.5645 214.581 99.5143 214.809 99.4141C215.041 99.3138 215.212 99.1748 215.321 98.9971C215.435 98.8193 215.492 98.6188 215.492 98.3955Z" fill="#707070"/>
<path d="M176.664 44.5039V73H171.039V50.9883L164.281 53.1367V48.7031L176.059 44.5039H176.664ZM205.545 68.6055V73H186.092V69.25L195.291 59.3867C196.216 58.3581 196.945 57.4531 197.479 56.6719C198.012 55.8776 198.397 55.168 198.631 54.543C198.878 53.9049 199.002 53.2995 199.002 52.7266C199.002 51.8672 198.859 51.1315 198.572 50.5195C198.286 49.8945 197.863 49.4128 197.303 49.0742C196.756 48.7357 196.079 48.5664 195.272 48.5664C194.412 48.5664 193.67 48.7747 193.045 49.1914C192.433 49.6081 191.964 50.1875 191.639 50.9297C191.326 51.6719 191.17 52.5117 191.17 53.4492H185.525C185.525 51.7565 185.929 50.207 186.736 48.8008C187.544 47.3815 188.683 46.2552 190.154 45.4219C191.626 44.5755 193.371 44.1523 195.389 44.1523C197.381 44.1523 199.061 44.4779 200.428 45.1289C201.808 45.7669 202.85 46.6914 203.553 47.9023C204.269 49.1003 204.627 50.5326 204.627 52.1992C204.627 53.1367 204.477 54.0547 204.178 54.9531C203.878 55.8385 203.449 56.724 202.889 57.6094C202.342 58.4818 201.678 59.3672 200.897 60.2656C200.115 61.1641 199.249 62.0951 198.299 63.0586L193.358 68.6055H205.545ZM228.684 68.6055V73H209.231V69.25L218.43 59.3867C219.354 58.3581 220.083 57.4531 220.617 56.6719C221.151 55.8776 221.535 55.168 221.77 54.543C222.017 53.9049 222.141 53.2995 222.141 52.7266C222.141 51.8672 221.998 51.1315 221.711 50.5195C221.425 49.8945 221.001 49.4128 220.442 49.0742C219.895 48.7357 219.218 48.5664 218.41 48.5664C217.551 48.5664 216.809 48.7747 216.184 49.1914C215.572 49.6081 215.103 50.1875 214.778 50.9297C214.465 51.6719 214.309 52.5117 214.309 53.4492H208.664C208.664 51.7565 209.068 50.207 209.875 48.8008C210.682 47.3815 211.822 46.2552 213.293 45.4219C214.764 44.5755 216.509 44.1523 218.528 44.1523C220.52 44.1523 222.199 44.4779 223.567 45.1289C224.947 45.7669 225.988 46.6914 226.692 47.9023C227.408 49.1003 227.766 50.5326 227.766 52.1992C227.766 53.1367 227.616 54.0547 227.317 54.9531C227.017 55.8385 226.587 56.724 226.028 57.6094C225.481 58.4818 224.817 59.3672 224.035 60.2656C223.254 61.1641 222.388 62.0951 221.438 63.0586L216.496 68.6055H228.684Z" fill="#555555"/>
<rect x="147" y="138" width="98" height="98" rx="10" fill="#F8F8F8"/>
<path fill-rule="evenodd" clip-rule="evenodd" d="M151.017 130L154.485 138.228L163 139.186L156.625 145.195L158.388 154L150.98 149.485L143.556 153.969L145.352 145.171L139 139.136L147.518 138.213L151.017 130Z" fill="#FFB400"/>
<path d="M157 34H147V21L154 14L155.25 15.25C155.367 15.3667 155.463 15.525 155.538 15.725C155.613 15.925 155.65 16.1167 155.65 16.3V16.65L154.55 21H160C160.533 21 161 21.2 161.4 21.6C161.8 22 162 22.4667 162 23V25C162 25.1167 161.988 25.2417 161.962 25.375C161.938 25.5083 161.9 25.6333 161.85 25.75L158.85 32.8C158.7 33.1333 158.45 33.4167 158.1 33.65C157.75 33.8833 157.383 34 157 34ZM145 21V34H141V21H145Z" fill="#FE8BBF"/>
<path d="M176.656 216.281V217.826H169.485L169.39 216.63L173.539 210.047H175.104L173.409 212.884L171.345 216.281H176.656ZM175.528 210.047V220H173.56V210.047H175.528ZM177.9 219.05C177.9 218.758 178.001 218.514 178.201 218.318C178.406 218.122 178.677 218.024 179.015 218.024C179.352 218.024 179.621 218.122 179.821 218.318C180.026 218.514 180.129 218.758 180.129 219.05C180.129 219.341 180.026 219.585 179.821 219.781C179.621 219.977 179.352 220.075 179.015 220.075C178.677 220.075 178.406 219.977 178.201 219.781C178.001 219.585 177.9 219.341 177.9 219.05ZM183.178 218.503H183.308C183.854 218.503 184.324 218.437 184.716 218.305C185.112 218.168 185.438 217.972 185.693 217.717C185.949 217.462 186.138 217.149 186.261 216.78C186.384 216.407 186.445 215.983 186.445 215.509V213.622C186.445 213.262 186.409 212.945 186.336 212.672C186.268 212.398 186.167 212.173 186.035 211.995C185.908 211.813 185.757 211.676 185.584 211.585C185.415 211.494 185.229 211.448 185.023 211.448C184.805 211.448 184.611 211.503 184.442 211.612C184.274 211.717 184.13 211.861 184.012 212.043C183.898 212.225 183.809 212.435 183.745 212.672C183.686 212.904 183.656 213.148 183.656 213.403C183.656 213.659 183.686 213.902 183.745 214.135C183.804 214.363 183.893 214.565 184.012 214.743C184.13 214.916 184.278 215.055 184.456 215.16C184.634 215.26 184.843 215.311 185.085 215.311C185.317 215.311 185.525 215.267 185.707 215.181C185.894 215.09 186.051 214.971 186.179 214.825C186.311 214.679 186.411 214.518 186.479 214.34C186.552 214.162 186.589 213.982 186.589 213.8L187.238 214.155C187.238 214.474 187.17 214.789 187.033 215.099C186.896 215.409 186.705 215.691 186.459 215.946C186.217 216.197 185.937 216.397 185.618 216.548C185.299 216.698 184.957 216.773 184.593 216.773C184.128 216.773 183.715 216.689 183.355 216.521C182.995 216.347 182.69 216.11 182.439 215.81C182.193 215.504 182.007 215.149 181.879 214.743C181.751 214.338 181.688 213.898 181.688 213.424C181.688 212.941 181.765 212.487 181.92 212.063C182.079 211.64 182.305 211.266 182.597 210.942C182.893 210.619 183.246 210.366 183.656 210.184C184.071 209.997 184.531 209.903 185.037 209.903C185.543 209.903 186.003 210.001 186.418 210.197C186.833 210.393 187.188 210.671 187.484 211.031C187.781 211.387 188.008 211.813 188.168 212.31C188.332 212.806 188.414 213.358 188.414 213.964V214.647C188.414 215.295 188.343 215.896 188.202 216.452C188.065 217.008 187.858 217.512 187.58 217.963C187.307 218.41 186.965 218.792 186.555 219.111C186.149 219.43 185.677 219.674 185.14 219.843C184.602 220.011 184 220.096 183.335 220.096H183.178V218.503ZM197.643 210.047L193.992 220.854H192.529L196.18 210.047H197.643ZM203.843 215.468L202.271 215.092L202.838 210.047H208.43V211.64H204.458L204.212 213.848C204.344 213.77 204.545 213.688 204.813 213.602C205.082 213.51 205.383 213.465 205.716 213.465C206.199 213.465 206.627 213.54 207.001 213.69C207.375 213.841 207.691 214.06 207.951 214.347C208.215 214.634 208.416 214.985 208.553 215.399C208.689 215.814 208.758 216.284 208.758 216.808C208.758 217.25 208.689 217.671 208.553 218.072C208.416 218.469 208.209 218.824 207.931 219.139C207.653 219.449 207.304 219.692 206.885 219.87C206.465 220.048 205.969 220.137 205.395 220.137C204.966 220.137 204.551 220.073 204.15 219.945C203.754 219.818 203.396 219.629 203.077 219.378C202.763 219.127 202.51 218.824 202.318 218.469C202.132 218.109 202.034 217.699 202.024 217.238H203.979C204.007 217.521 204.08 217.765 204.198 217.97C204.321 218.17 204.483 218.325 204.684 218.435C204.884 218.544 205.119 218.599 205.388 218.599C205.638 218.599 205.853 218.551 206.03 218.455C206.208 218.359 206.352 218.227 206.461 218.059C206.57 217.885 206.65 217.685 206.7 217.457C206.755 217.225 206.782 216.974 206.782 216.705C206.782 216.436 206.75 216.192 206.687 215.974C206.623 215.755 206.525 215.566 206.393 215.406C206.26 215.247 206.092 215.124 205.887 215.037C205.686 214.951 205.451 214.907 205.183 214.907C204.818 214.907 204.535 214.964 204.335 215.078C204.139 215.192 203.975 215.322 203.843 215.468ZM210.207 219.05C210.207 218.758 210.307 218.514 210.508 218.318C210.713 218.122 210.984 218.024 211.321 218.024C211.659 218.024 211.927 218.122 212.128 218.318C212.333 218.514 212.436 218.758 212.436 219.05C212.436 219.341 212.333 219.585 212.128 219.781C211.927 219.977 211.659 220.075 211.321 220.075C210.984 220.075 210.713 219.977 210.508 219.781C210.307 219.585 210.207 219.341 210.207 219.05ZM220.789 214.148V215.871C220.789 216.618 220.709 217.263 220.55 217.806C220.39 218.343 220.16 218.785 219.859 219.132C219.563 219.474 219.21 219.727 218.8 219.891C218.39 220.055 217.934 220.137 217.433 220.137C217.032 220.137 216.658 220.087 216.312 219.986C215.965 219.882 215.653 219.72 215.375 219.501C215.102 219.282 214.865 219.007 214.664 218.674C214.468 218.337 214.318 217.936 214.213 217.471C214.108 217.006 214.056 216.473 214.056 215.871V214.148C214.056 213.401 214.135 212.761 214.295 212.228C214.459 211.69 214.689 211.25 214.985 210.908C215.286 210.566 215.642 210.316 216.052 210.156C216.462 209.992 216.918 209.91 217.419 209.91C217.82 209.91 218.191 209.963 218.533 210.067C218.88 210.168 219.192 210.325 219.47 210.539C219.748 210.753 219.985 211.029 220.181 211.366C220.377 211.699 220.527 212.098 220.632 212.562C220.737 213.023 220.789 213.551 220.789 214.148ZM218.813 216.131V213.882C218.813 213.522 218.793 213.207 218.752 212.938C218.715 212.67 218.659 212.442 218.581 212.255C218.504 212.063 218.408 211.909 218.294 211.79C218.18 211.672 218.05 211.585 217.904 211.53C217.758 211.476 217.597 211.448 217.419 211.448C217.196 211.448 216.997 211.492 216.824 211.578C216.656 211.665 216.512 211.804 216.394 211.995C216.275 212.182 216.184 212.433 216.12 212.747C216.061 213.057 216.031 213.435 216.031 213.882V216.131C216.031 216.491 216.049 216.808 216.086 217.081C216.127 217.354 216.186 217.589 216.264 217.785C216.346 217.977 216.441 218.134 216.551 218.257C216.665 218.375 216.795 218.462 216.94 218.517C217.091 218.571 217.255 218.599 217.433 218.599C217.651 218.599 217.845 218.555 218.014 218.469C218.187 218.378 218.333 218.236 218.451 218.045C218.574 217.849 218.665 217.594 218.725 217.279C218.784 216.965 218.813 216.582 218.813 216.131Z" fill="#707070"/>
<path d="M188.875 181.375V185.789H168.387L168.113 182.371L179.969 163.562H184.441L179.598 171.668L173.699 181.375H188.875ZM185.652 163.562V192H180.027V163.562H185.652ZM192.6 189.285C192.6 188.452 192.886 187.755 193.459 187.195C194.045 186.635 194.82 186.355 195.783 186.355C196.747 186.355 197.515 186.635 198.088 187.195C198.674 187.755 198.967 188.452 198.967 189.285C198.967 190.118 198.674 190.815 198.088 191.375C197.515 191.935 196.747 192.215 195.783 192.215C194.82 192.215 194.045 191.935 193.459 191.375C192.886 190.815 192.6 190.118 192.6 189.285ZM207.848 187.723H208.219C209.781 187.723 211.123 187.534 212.242 187.156C213.375 186.766 214.306 186.206 215.035 185.477C215.764 184.747 216.305 183.855 216.656 182.801C217.008 181.733 217.184 180.522 217.184 179.168V173.777C217.184 172.749 217.08 171.844 216.871 171.062C216.676 170.281 216.389 169.637 216.012 169.129C215.647 168.608 215.218 168.217 214.723 167.957C214.241 167.697 213.707 167.566 213.121 167.566C212.496 167.566 211.943 167.723 211.461 168.035C210.979 168.335 210.569 168.745 210.231 169.266C209.905 169.786 209.651 170.385 209.469 171.062C209.3 171.727 209.215 172.423 209.215 173.152C209.215 173.882 209.3 174.578 209.469 175.242C209.638 175.893 209.892 176.473 210.231 176.98C210.569 177.475 210.992 177.872 211.5 178.172C212.008 178.458 212.607 178.602 213.297 178.602C213.961 178.602 214.554 178.478 215.074 178.23C215.608 177.97 216.057 177.632 216.422 177.215C216.8 176.798 217.086 176.336 217.281 175.828C217.49 175.32 217.594 174.806 217.594 174.285L219.449 175.301C219.449 176.212 219.254 177.111 218.863 177.996C218.473 178.882 217.926 179.689 217.223 180.418C216.533 181.134 215.732 181.707 214.82 182.137C213.909 182.566 212.932 182.781 211.891 182.781C210.563 182.781 209.384 182.54 208.356 182.059C207.327 181.564 206.455 180.887 205.738 180.027C205.035 179.155 204.501 178.139 204.137 176.98C203.772 175.822 203.59 174.565 203.59 173.211C203.59 171.831 203.811 170.535 204.254 169.324C204.71 168.113 205.354 167.046 206.188 166.121C207.034 165.197 208.043 164.474 209.215 163.953C210.4 163.419 211.715 163.152 213.16 163.152C214.606 163.152 215.921 163.432 217.106 163.992C218.291 164.552 219.306 165.346 220.153 166.375C220.999 167.391 221.65 168.608 222.106 170.027C222.574 171.447 222.809 173.022 222.809 174.754V176.707C222.809 178.556 222.607 180.275 222.203 181.863C221.813 183.452 221.22 184.891 220.426 186.18C219.645 187.456 218.668 188.549 217.496 189.461C216.337 190.372 214.99 191.069 213.453 191.551C211.917 192.033 210.198 192.273 208.297 192.273H207.848V187.723Z" fill="#555555"/>
<rect x="26" y="21" width="98" height="98" rx="10" fill="#F8F8F8"/>
<path d="M52.4775 98.9219L54.8223 91.0469H57.1055L53.6396 101H52.1357L52.4775 98.9219ZM50.3174 91.0469L52.6553 98.9219L53.0107 101H51.4932L48.0479 91.0469H50.3174ZM64.7139 99.4004V101H59.416V99.4004H64.7139ZM60.0859 91.0469V101H58.0352V91.0469H60.0859ZM64.0234 95.1006V96.6592H59.416V95.1006H64.0234ZM64.707 91.0469V92.6533H59.416V91.0469H64.707ZM74.0107 91.0469V101H71.96L67.9609 94.3281V101H65.9102V91.0469H67.9609L71.9668 97.7256V91.0469H74.0107ZM78.8506 101H76.6836L76.6973 99.4004H78.8506C79.3883 99.4004 79.8418 99.2796 80.2109 99.0381C80.5801 98.792 80.8581 98.4342 81.0449 97.9648C81.2363 97.4954 81.332 96.9281 81.332 96.2627V95.7773C81.332 95.2669 81.2773 94.818 81.168 94.4307C81.0632 94.0433 80.9059 93.7174 80.6963 93.4531C80.4867 93.1888 80.2292 92.9906 79.9238 92.8584C79.6185 92.7217 79.2676 92.6533 78.8711 92.6533H76.6426V91.0469H78.8711C79.5365 91.0469 80.1449 91.1608 80.6963 91.3887C81.2523 91.612 81.7331 91.9333 82.1387 92.3525C82.5443 92.7718 82.8564 93.2731 83.0752 93.8564C83.2985 94.4352 83.4102 95.0801 83.4102 95.791V96.2627C83.4102 96.9691 83.2985 97.6139 83.0752 98.1973C82.8564 98.7806 82.5443 99.2819 82.1387 99.7012C81.7376 100.116 81.2568 100.437 80.6963 100.665C80.1403 100.888 79.5251 101 78.8506 101ZM77.8457 91.0469V101H75.7949V91.0469H77.8457ZM88.7969 92.749L86.0898 101H83.9092L87.6074 91.0469H88.9951L88.7969 92.749ZM91.0459 101L88.332 92.749L88.1133 91.0469H89.5146L93.2334 101H91.0459ZM90.9229 97.2949V98.9014H85.666V97.2949H90.9229ZM99.3379 98.3955C99.3379 98.2178 99.3105 98.0583 99.2559 97.917C99.2057 97.7712 99.11 97.639 98.9688 97.5205C98.8275 97.3975 98.6292 97.2767 98.374 97.1582C98.1188 97.0397 97.7884 96.9167 97.3828 96.7891C96.9316 96.6432 96.5033 96.4792 96.0977 96.2969C95.6966 96.1146 95.3411 95.9027 95.0312 95.6611C94.7259 95.415 94.4844 95.1302 94.3066 94.8066C94.1335 94.4831 94.0469 94.1071 94.0469 93.6787C94.0469 93.264 94.138 92.888 94.3203 92.5508C94.5026 92.209 94.7578 91.9173 95.0859 91.6758C95.4141 91.4297 95.8014 91.2406 96.248 91.1084C96.6992 90.9762 97.1937 90.9102 97.7314 90.9102C98.4652 90.9102 99.1055 91.0423 99.6523 91.3066C100.199 91.571 100.623 91.9333 100.924 92.3936C101.229 92.8538 101.382 93.3802 101.382 93.9727H99.3447C99.3447 93.681 99.2832 93.4258 99.1602 93.207C99.0417 92.9837 98.8594 92.8083 98.6133 92.6807C98.3717 92.5531 98.0664 92.4893 97.6973 92.4893C97.3418 92.4893 97.0456 92.5439 96.8086 92.6533C96.5716 92.7581 96.3939 92.9017 96.2754 93.084C96.1569 93.2617 96.0977 93.4622 96.0977 93.6855C96.0977 93.8542 96.1387 94.0068 96.2207 94.1436C96.3073 94.2803 96.4349 94.4079 96.6035 94.5264C96.7721 94.6449 96.9795 94.7565 97.2256 94.8613C97.4717 94.9661 97.7565 95.0687 98.0801 95.1689C98.6224 95.333 99.0986 95.5176 99.5088 95.7227C99.9235 95.9277 100.27 96.1579 100.548 96.4131C100.826 96.6683 101.035 96.9577 101.177 97.2812C101.318 97.6048 101.389 97.9717 101.389 98.3818C101.389 98.8148 101.304 99.2021 101.136 99.5439C100.967 99.8857 100.723 100.175 100.404 100.412C100.085 100.649 99.7048 100.829 99.2627 100.952C98.8206 101.075 98.3262 101.137 97.7793 101.137C97.2871 101.137 96.8018 101.073 96.3232 100.945C95.8447 100.813 95.4095 100.615 95.0176 100.351C94.6302 100.086 94.3203 99.749 94.0879 99.3389C93.8555 98.9287 93.7393 98.4434 93.7393 97.8828H95.7969C95.7969 98.1927 95.8447 98.4548 95.9404 98.6689C96.0361 98.8831 96.1706 99.0563 96.3438 99.1885C96.5215 99.3206 96.7311 99.4163 96.9727 99.4756C97.2188 99.5348 97.4876 99.5645 97.7793 99.5645C98.1348 99.5645 98.4264 99.5143 98.6543 99.4141C98.8867 99.3138 99.0576 99.1748 99.167 98.9971C99.2809 98.8193 99.3379 98.6188 99.3379 98.3955Z" fill="#707070"/>
<path d="M61.7831 68.6055V73H42.33V69.25L51.5292 59.3867C52.4537 58.3581 53.1829 57.4531 53.7167 56.6719C54.2506 55.8776 54.6347 55.168 54.8691 54.543C55.1165 53.9049 55.2402 53.2995 55.2402 52.7266C55.2402 51.8672 55.0969 51.1315 54.8105 50.5195C54.524 49.8945 54.1008 49.4128 53.5409 49.0742C52.9941 48.7357 52.317 48.5664 51.5097 48.5664C50.6503 48.5664 49.9081 48.7747 49.2831 49.1914C48.6711 49.6081 48.2024 50.1875 47.8769 50.9297C47.5644 51.6719 47.4081 52.5117 47.4081 53.4492H41.7636C41.7636 51.7565 42.1672 50.207 42.9745 48.8008C43.7818 47.3815 44.9211 46.2552 46.3925 45.4219C47.8639 44.5755 49.6086 44.1523 51.6269 44.1523C53.6191 44.1523 55.2988 44.4779 56.6659 45.1289C58.0461 45.7669 59.0878 46.6914 59.7909 47.9023C60.5071 49.1003 60.8652 50.5326 60.8652 52.1992C60.8652 53.1367 60.7154 54.0547 60.4159 54.9531C60.1165 55.8385 59.6868 56.724 59.1269 57.6094C58.58 58.4818 57.9159 59.3672 57.1347 60.2656C56.3534 61.1641 55.4876 62.0951 54.537 63.0586L49.5956 68.6055H61.7831ZM70.7617 60.0508L66.2695 58.9766L67.8906 44.5625H83.8672V49.1133H72.5195L71.8164 55.4219C72.194 55.2005 72.7669 54.9661 73.5352 54.7188C74.3034 54.4583 75.1628 54.3281 76.1133 54.3281C77.4935 54.3281 78.7174 54.543 79.7852 54.9727C80.8529 55.4023 81.7578 56.0273 82.5 56.8477C83.2552 57.668 83.8281 58.6706 84.2188 59.8555C84.6094 61.0404 84.8047 62.3815 84.8047 63.8789C84.8047 65.1419 84.6094 66.3464 84.2188 67.4922C83.8281 68.625 83.2357 69.6406 82.4414 70.5391C81.6471 71.4245 80.651 72.1211 79.4531 72.6289C78.2552 73.1367 76.8359 73.3906 75.1953 73.3906C73.9714 73.3906 72.7865 73.2083 71.6406 72.8438C70.5078 72.4792 69.4857 71.9388 68.5742 71.2227C67.6758 70.5065 66.9531 69.6406 66.4063 68.625C65.8724 67.5964 65.5924 66.4245 65.5664 65.1094H71.1523C71.2305 65.9167 71.4388 66.6133 71.7773 67.1992C72.1289 67.7721 72.5911 68.2148 73.1641 68.5273C73.737 68.8398 74.4076 68.9961 75.1758 68.9961C75.8919 68.9961 76.5039 68.8594 77.0117 68.5859C77.5195 68.3125 77.9297 67.9349 78.2422 67.4531C78.5547 66.9583 78.7826 66.3854 78.9258 65.7344C79.082 65.0703 79.1602 64.3542 79.1602 63.5859C79.1602 62.8177 79.069 62.1211 78.8867 61.4961C78.7044 60.8711 78.4245 60.3307 78.0469 59.875C77.6693 59.4193 77.1875 59.0677 76.6016 58.8203C76.0286 58.5729 75.3581 58.4492 74.5898 58.4492C73.5482 58.4492 72.7409 58.612 72.168 58.9375C71.6081 59.263 71.1393 59.6341 70.7617 60.0508ZM108.061 68.6055V73H88.6075V69.25L97.8067 59.3867C98.7312 58.3581 99.4604 57.4531 99.9942 56.6719C100.528 55.8776 100.912 55.168 101.147 54.543C101.394 53.9049 101.518 53.2995 101.518 52.7266C101.518 51.8672 101.374 51.1315 101.088 50.5195C100.802 49.8945 100.378 49.4128 99.8184 49.0742C99.2716 48.7357 98.5945 48.5664 97.7872 48.5664C96.9278 48.5664 96.1856 48.7747 95.5606 49.1914C94.9486 49.6081 94.4799 50.1875 94.1544 50.9297C93.8419 51.6719 93.6856 52.5117 93.6856 53.4492H88.0411C88.0411 51.7565 88.4447 50.207 89.252 48.8008C90.0593 47.3815 91.1986 46.2552 92.67 45.4219C94.1414 44.5755 95.8861 44.1523 97.9044 44.1523C99.8966 44.1523 101.576 44.4779 102.943 45.1289C104.324 45.7669 105.365 46.6914 106.068 47.9023C106.785 49.1003 107.143 50.5326 107.143 52.1992C107.143 53.1367 106.993 54.0547 106.693 54.9531C106.394 55.8385 105.964 56.724 105.404 57.6094C104.858 58.4818 104.193 59.3672 103.412 60.2656C102.631 61.1641 101.765 62.0951 100.815 63.0586L95.8731 68.6055H108.061Z" fill="#555555"/>
<path d="M25 35C24.45 35 23.9792 34.8042 23.5875 34.4125C23.1958 34.0208 23 33.55 23 33C23 32.45 23.1958 31.9792 23.5875 31.5875C23.9792 31.1958 24.45 31 25 31C25.55 31 26.0208 31.1958 26.4125 31.5875C26.8042 31.9792 27 32.45 27 33C27 33.55 26.8042 34.0208 26.4125 34.4125C26.0208 34.8042 25.55 35 25 35ZM35 35C34.45 35 33.9792 34.8042 33.5875 34.4125C33.1958 34.0208 33 33.55 33 33C33 32.45 33.1958 31.9792 33.5875 31.5875C33.9792 31.1958 34.45 31 35 31C35.55 31 36.0208 31.1958 36.4125 31.5875C36.8042 31.9792 37 32.45 37 33C37 33.55 36.8042 34.0208 36.4125 34.4125C36.0208 34.8042 35.55 35 35 35ZM23.2 17H37.95C38.3333 17 38.625 17.1708 38.825 17.5125C39.025 17.8542 39.0333 18.2 38.85 18.55L35.3 24.95C35.1167 25.2833 34.8708 25.5417 34.5625 25.725C34.2542 25.9083 33.9167 26 33.55 26H26.1L25 28H37V30H25C24.25 30 23.6833 29.6708 23.3 29.0125C22.9167 28.3542 22.9 27.7 23.25 27.05L24.6 24.6L21 17H19V15H22.25L23.2 17Z" fill="#2B89FF"/>
<path d="M24.4002 149.8L22.2002 147.6L27.8002 142L22.2002 136.4L24.4002 134.2L30.0002 139.8L35.6002 134.2L37.8002 136.4L32.2002 142L37.8002 147.6L35.6002 149.8L30.0002 144.2L24.4002 149.8Z" fill="#DE1524"/>
<defs>
<filter id="filter0_d_302_1503" x="0" y="0" width="267" height="263" filterUnits="userSpaceOnUse" color-interpolation-filters="sRGB">
<feFlood flood-opacity="0" result="BackgroundImageFix"/>
<feColorMatrix in="SourceAlpha" type="matrix" values="0 0 0 0 0 0 0 0 0 0 0 0 0 0 0 0 0 0 127 0" result="hardAlpha"/>
<feOffset dx="-2" dy="2"/>
<feGaussianBlur stdDeviation="2"/>
<feComposite in2="hardAlpha" operator="out"/>
<feColorMatrix type="matrix" values="0 0 0 0 0 0 0 0 0 0 0 0 0 0 0 0 0 0 0.05 0"/>
<feBlend mode="normal" in2="BackgroundImageFix" result="effect1_dropShadow_302_1503"/>
<feBlend mode="normal" in="SourceGraphic" in2="effect1_dropShadow_302_1503" result="shape"/>
</filter>
</defs>
</svg>
