<svg width="545" height="364" viewBox="0 0 545 364" fill="none" xmlns="http://www.w3.org/2000/svg">
<g filter="url(#filter0_d_233_9410)">
<rect x="6" y="2" width="537" height="356" rx="10" fill="white"/>
</g>
<rect x="6" y="56" width="537" height="1.00282" fill="#D9D9D9"/>
<rect width="7.04268" height="7.04268" transform="matrix(0.711366 -0.702822 0.711366 0.702822 46 29)" fill="#FD9F00"/>
<path d="M67.3789 32.1094V33H61.7949V32.2207L64.5898 29.1094C64.9336 28.7266 65.1992 28.4023 65.3867 28.1367C65.5781 27.8672 65.7109 27.627 65.7852 27.416C65.8633 27.2012 65.9023 26.9824 65.9023 26.7598C65.9023 26.4785 65.8438 26.2246 65.7266 25.998C65.6133 25.7676 65.4453 25.584 65.2227 25.4473C65 25.3105 64.7305 25.2422 64.4141 25.2422C64.0352 25.2422 63.7188 25.3164 63.4648 25.4648C63.2148 25.6094 63.0273 25.8125 62.9023 26.0742C62.7773 26.3359 62.7148 26.6367 62.7148 26.9766H61.6309C61.6309 26.4961 61.7363 26.0566 61.9473 25.6582C62.1582 25.2598 62.4707 24.9434 62.8848 24.709C63.2988 24.4707 63.8086 24.3516 64.4141 24.3516C64.9531 24.3516 65.4141 24.4473 65.7969 24.6387C66.1797 24.8262 66.4727 25.0918 66.6758 25.4355C66.8828 25.7754 66.9863 26.1738 66.9863 26.6309C66.9863 26.8809 66.9434 27.1348 66.8574 27.3926C66.7754 27.6465 66.6602 27.9004 66.5117 28.1543C66.3672 28.4082 66.1973 28.6582 66.002 28.9043C65.8105 29.1504 65.6055 29.3926 65.3867 29.6309L63.1016 32.1094H67.3789ZM73.8945 28.0547V29.3555C73.8945 30.0547 73.832 30.6445 73.707 31.125C73.582 31.6055 73.4023 31.9922 73.168 32.2852C72.9336 32.5781 72.6504 32.791 72.3184 32.9238C71.9902 33.0527 71.6191 33.1172 71.2051 33.1172C70.877 33.1172 70.5742 33.0762 70.2969 32.9941C70.0195 32.9121 69.7695 32.7812 69.5469 32.6016C69.3281 32.418 69.1406 32.1797 68.9844 31.8867C68.8281 31.5938 68.709 31.2383 68.627 30.8203C68.5449 30.4023 68.5039 29.9141 68.5039 29.3555V28.0547C68.5039 27.3555 68.5664 26.7695 68.6914 26.2969C68.8203 25.8242 69.002 25.4453 69.2363 25.1602C69.4707 24.8711 69.752 24.6641 70.0801 24.5391C70.4121 24.4141 70.7832 24.3516 71.1934 24.3516C71.5254 24.3516 71.8301 24.3926 72.1074 24.4746C72.3887 24.5527 72.6387 24.6797 72.8574 24.8555C73.0762 25.0273 73.2617 25.2578 73.4141 25.5469C73.5703 25.832 73.6895 26.1816 73.7715 26.5957C73.8535 27.0098 73.8945 27.4961 73.8945 28.0547ZM72.8047 29.5312V27.873C72.8047 27.4902 72.7812 27.1543 72.7344 26.8652C72.6914 26.5723 72.627 26.3223 72.541 26.1152C72.4551 25.9082 72.3457 25.7402 72.2129 25.6113C72.084 25.4824 71.9336 25.3887 71.7617 25.3301C71.5938 25.2676 71.4043 25.2363 71.1934 25.2363C70.9355 25.2363 70.707 25.2852 70.5078 25.3828C70.3086 25.4766 70.1406 25.627 70.0039 25.834C69.8711 26.041 69.7695 26.3125 69.6992 26.6484C69.6289 26.9844 69.5938 27.3926 69.5938 27.873V29.5312C69.5938 29.9141 69.6152 30.252 69.6582 30.5449C69.7051 30.8379 69.7734 31.0918 69.8633 31.3066C69.9531 31.5176 70.0625 31.6914 70.1914 31.8281C70.3203 31.9648 70.4688 32.0664 70.6367 32.1328C70.8086 32.1953 70.998 32.2266 71.2051 32.2266C71.4707 32.2266 71.7031 32.1758 71.9023 32.0742C72.1016 31.9727 72.2676 31.8145 72.4004 31.5996C72.5371 31.3809 72.6387 31.1016 72.7051 30.7617C72.7715 30.418 72.8047 30.0078 72.8047 29.5312ZM80.8789 32.1094V33H75.2949V32.2207L78.0898 29.1094C78.4336 28.7266 78.6992 28.4023 78.8867 28.1367C79.0781 27.8672 79.2109 27.627 79.2852 27.416C79.3633 27.2012 79.4023 26.9824 79.4023 26.7598C79.4023 26.4785 79.3438 26.2246 79.2266 25.998C79.1133 25.7676 78.9453 25.584 78.7227 25.4473C78.5 25.3105 78.2305 25.2422 77.9141 25.2422C77.5352 25.2422 77.2188 25.3164 76.9648 25.4648C76.7148 25.6094 76.5273 25.8125 76.4023 26.0742C76.2773 26.3359 76.2148 26.6367 76.2148 26.9766H75.1309C75.1309 26.4961 75.2363 26.0566 75.4473 25.6582C75.6582 25.2598 75.9707 24.9434 76.3848 24.709C76.7988 24.4707 77.3086 24.3516 77.9141 24.3516C78.4531 24.3516 78.9141 24.4473 79.2969 24.6387C79.6797 24.8262 79.9727 25.0918 80.1758 25.4355C80.3828 25.7754 80.4863 26.1738 80.4863 26.6309C80.4863 26.8809 80.4434 27.1348 80.3574 27.3926C80.2754 27.6465 80.1602 27.9004 80.0117 28.1543C79.8672 28.4082 79.6973 28.6582 79.502 28.9043C79.3105 29.1504 79.1055 29.3926 78.8867 29.6309L76.6016 32.1094H80.8789ZM83.6211 28.2012H84.3945C84.7734 28.2012 85.0859 28.1387 85.332 28.0137C85.582 27.8848 85.7676 27.7109 85.8887 27.4922C86.0137 27.2695 86.0762 27.0195 86.0762 26.7422C86.0762 26.4141 86.0215 26.1387 85.9121 25.916C85.8027 25.6934 85.6387 25.5254 85.4199 25.4121C85.2012 25.2988 84.9238 25.2422 84.5879 25.2422C84.2832 25.2422 84.0137 25.3027 83.7793 25.4238C83.5488 25.541 83.3672 25.709 83.2344 25.9277C83.1055 26.1465 83.041 26.4043 83.041 26.7012H81.957C81.957 26.2676 82.0664 25.873 82.2852 25.5176C82.5039 25.1621 82.8105 24.8789 83.2051 24.668C83.6035 24.457 84.0645 24.3516 84.5879 24.3516C85.1035 24.3516 85.5547 24.4434 85.9414 24.627C86.3281 24.8066 86.6289 25.0762 86.8438 25.4355C87.0586 25.791 87.166 26.2344 87.166 26.7656C87.166 26.9805 87.1152 27.2109 87.0137 27.457C86.916 27.6992 86.7617 27.9258 86.5508 28.1367C86.3438 28.3477 86.0742 28.5215 85.7422 28.6582C85.4102 28.791 85.0117 28.8574 84.5469 28.8574H83.6211V28.2012ZM83.6211 29.0918V28.4414H84.5469C85.0898 28.4414 85.5391 28.5059 85.8945 28.6348C86.25 28.7637 86.5293 28.9355 86.7324 29.1504C86.9395 29.3652 87.084 29.6016 87.166 29.8594C87.252 30.1133 87.2949 30.3672 87.2949 30.6211C87.2949 31.0195 87.2266 31.373 87.0898 31.6816C86.957 31.9902 86.7676 32.252 86.5215 32.4668C86.2793 32.6816 85.9941 32.8438 85.666 32.9531C85.3379 33.0625 84.9805 33.1172 84.5938 33.1172C84.2227 33.1172 83.873 33.0645 83.5449 32.959C83.2207 32.8535 82.9336 32.7012 82.6836 32.502C82.4336 32.2988 82.2383 32.0508 82.0977 31.7578C81.957 31.4609 81.8867 31.123 81.8867 30.7441H82.9707C82.9707 31.041 83.0352 31.3008 83.1641 31.5234C83.2969 31.7461 83.4844 31.9199 83.7266 32.0449C83.9727 32.166 84.2617 32.2266 84.5938 32.2266C84.9258 32.2266 85.2109 32.1699 85.4492 32.0566C85.6914 31.9395 85.877 31.7637 86.0059 31.5293C86.1387 31.2949 86.2051 31 86.2051 30.6445C86.2051 30.2891 86.1309 29.998 85.9824 29.7715C85.834 29.541 85.623 29.3711 85.3496 29.2617C85.0801 29.1484 84.7617 29.0918 84.3945 29.0918H83.6211Z" fill="#707070"/>
<rect width="7.04268" height="7.04268" transform="matrix(0.711366 -0.702822 0.711366 0.702822 103.591 29)" fill="#F47533"/>
<path d="M124.97 32.1094V33H119.386V32.2207L122.181 29.1094C122.524 28.7266 122.79 28.4023 122.978 28.1367C123.169 27.8672 123.302 27.627 123.376 27.416C123.454 27.2012 123.493 26.9824 123.493 26.7598C123.493 26.4785 123.435 26.2246 123.317 25.998C123.204 25.7676 123.036 25.584 122.813 25.4473C122.591 25.3105 122.321 25.2422 122.005 25.2422C121.626 25.2422 121.31 25.3164 121.056 25.4648C120.806 25.6094 120.618 25.8125 120.493 26.0742C120.368 26.3359 120.306 26.6367 120.306 26.9766H119.222C119.222 26.4961 119.327 26.0566 119.538 25.6582C119.749 25.2598 120.062 24.9434 120.476 24.709C120.89 24.4707 121.399 24.3516 122.005 24.3516C122.544 24.3516 123.005 24.4473 123.388 24.6387C123.771 24.8262 124.063 25.0918 124.267 25.4355C124.474 25.7754 124.577 26.1738 124.577 26.6309C124.577 26.8809 124.534 27.1348 124.448 27.3926C124.366 27.6465 124.251 27.9004 124.103 28.1543C123.958 28.4082 123.788 28.6582 123.593 28.9043C123.401 29.1504 123.196 29.3926 122.978 29.6309L120.692 32.1094H124.97ZM131.485 28.0547V29.3555C131.485 30.0547 131.423 30.6445 131.298 31.125C131.173 31.6055 130.993 31.9922 130.759 32.2852C130.524 32.5781 130.241 32.791 129.909 32.9238C129.581 33.0527 129.21 33.1172 128.796 33.1172C128.468 33.1172 128.165 33.0762 127.888 32.9941C127.61 32.9121 127.36 32.7812 127.138 32.6016C126.919 32.418 126.731 32.1797 126.575 31.8867C126.419 31.5938 126.3 31.2383 126.218 30.8203C126.136 30.4023 126.095 29.9141 126.095 29.3555V28.0547C126.095 27.3555 126.157 26.7695 126.282 26.2969C126.411 25.8242 126.593 25.4453 126.827 25.1602C127.062 24.8711 127.343 24.6641 127.671 24.5391C128.003 24.4141 128.374 24.3516 128.784 24.3516C129.116 24.3516 129.421 24.3926 129.698 24.4746C129.979 24.5527 130.229 24.6797 130.448 24.8555C130.667 25.0273 130.853 25.2578 131.005 25.5469C131.161 25.832 131.28 26.1816 131.362 26.5957C131.444 27.0098 131.485 27.4961 131.485 28.0547ZM130.396 29.5312V27.873C130.396 27.4902 130.372 27.1543 130.325 26.8652C130.282 26.5723 130.218 26.3223 130.132 26.1152C130.046 25.9082 129.937 25.7402 129.804 25.6113C129.675 25.4824 129.524 25.3887 129.353 25.3301C129.185 25.2676 128.995 25.2363 128.784 25.2363C128.526 25.2363 128.298 25.2852 128.099 25.3828C127.899 25.4766 127.731 25.627 127.595 25.834C127.462 26.041 127.36 26.3125 127.29 26.6484C127.22 26.9844 127.185 27.3926 127.185 27.873V29.5312C127.185 29.9141 127.206 30.252 127.249 30.5449C127.296 30.8379 127.364 31.0918 127.454 31.3066C127.544 31.5176 127.653 31.6914 127.782 31.8281C127.911 31.9648 128.06 32.0664 128.228 32.1328C128.399 32.1953 128.589 32.2266 128.796 32.2266C129.062 32.2266 129.294 32.1758 129.493 32.0742C129.692 31.9727 129.858 31.8145 129.991 31.5996C130.128 31.3809 130.229 31.1016 130.296 30.7617C130.362 30.418 130.396 30.0078 130.396 29.5312ZM138.47 32.1094V33H132.886V32.2207L135.681 29.1094C136.024 28.7266 136.29 28.4023 136.478 28.1367C136.669 27.8672 136.802 27.627 136.876 27.416C136.954 27.2012 136.993 26.9824 136.993 26.7598C136.993 26.4785 136.935 26.2246 136.817 25.998C136.704 25.7676 136.536 25.584 136.313 25.4473C136.091 25.3105 135.821 25.2422 135.505 25.2422C135.126 25.2422 134.81 25.3164 134.556 25.4648C134.306 25.6094 134.118 25.8125 133.993 26.0742C133.868 26.3359 133.806 26.6367 133.806 26.9766H132.722C132.722 26.4961 132.827 26.0566 133.038 25.6582C133.249 25.2598 133.562 24.9434 133.976 24.709C134.39 24.4707 134.899 24.3516 135.505 24.3516C136.044 24.3516 136.505 24.4473 136.888 24.6387C137.271 24.8262 137.563 25.0918 137.767 25.4355C137.974 25.7754 138.077 26.1738 138.077 26.6309C138.077 26.8809 138.034 27.1348 137.948 27.3926C137.866 27.6465 137.751 27.9004 137.603 28.1543C137.458 28.4082 137.288 28.6582 137.093 28.9043C136.901 29.1504 136.696 29.3926 136.478 29.6309L134.192 32.1094H138.47ZM145.396 30.1289V31.0195H139.231V30.3809L143.052 24.4688H143.937L142.987 26.1797L140.462 30.1289H145.396ZM144.206 24.4688V33H143.122V24.4688H144.206Z" fill="#707070"/>
<path d="M36.7051 205.839L29.4687 203.325L29.4687 202.101L38 205.259L38 206.132L36.7051 205.839ZM29.4687 208.188L36.7051 205.698L38 205.388L38 206.261L29.4687 209.413L29.4687 208.188ZM37.0801 195.532L38 195.532L38 200.05L37.0801 200.05L37.0801 195.532ZM29.4687 199.821L38 199.821L38 200.952L29.4687 200.952L29.4687 199.821ZM33.1367 196.13L34.0566 196.13L34.0566 200.05L33.1367 200.05L33.1367 196.13ZM29.4687 195.591L30.3945 195.591L30.3945 200.05L29.4687 200.05L29.4687 195.591ZM29.4687 187.569L38 187.569L38 188.706L31.4199 193.001L38 193.001L38 194.132L29.4687 194.132L29.4687 193.001L36.0664 188.688L29.4687 188.688L29.4687 187.569ZM38 183.257L38 185.038L37.0801 185.026L37.0801 183.257C37.0801 182.647 36.9531 182.14 36.6992 181.733C36.4414 181.327 36.082 181.022 35.6211 180.819C35.1562 180.612 34.6133 180.509 33.9922 180.509L33.4707 180.509C32.9824 180.509 32.5488 180.567 32.1699 180.685C31.7871 180.802 31.4648 180.974 31.2031 181.2C30.9375 181.427 30.7363 181.704 30.5996 182.032C30.4629 182.356 30.3945 182.729 30.3945 183.151L30.3945 185.073L29.4687 185.073L29.4687 183.151C29.4687 182.593 29.5625 182.083 29.75 181.622C29.9336 181.161 30.2012 180.765 30.5527 180.433C30.9004 180.097 31.3223 179.839 31.8184 179.659C32.3105 179.479 32.8652 179.39 33.4824 179.39L33.9922 179.39C34.6094 179.39 35.166 179.479 35.6621 179.659C36.1543 179.839 36.5742 180.099 36.9219 180.438C37.2695 180.774 37.5371 181.181 37.7246 181.657C37.9082 182.13 38 182.663 38 183.257ZM29.4687 184.435L38 184.435L38 185.565L29.4687 185.565L29.4687 184.435ZM30.2246 174.661L38 177.485L38 178.64L29.4687 175.388L29.4687 174.644L30.2246 174.661ZM38 172.294L30.2246 175.124L29.4687 175.142L29.4687 174.397L38 171.134L38 172.294ZM34.8418 172.44L35.7676 172.44L35.7676 177.233L34.8418 177.233L34.8418 172.44ZM35.8437 165.444C35.6445 165.444 35.4687 165.476 35.3164 165.538C35.1602 165.597 35.0195 165.702 34.8945 165.854C34.7695 166.003 34.6504 166.21 34.5371 166.476C34.4238 166.737 34.3086 167.069 34.1914 167.472C34.0664 167.894 33.9277 168.274 33.7754 168.614C33.6191 168.954 33.4414 169.245 33.2422 169.487C33.043 169.729 32.8145 169.915 32.5566 170.044C32.2988 170.173 32.0039 170.237 31.6719 170.237C31.3398 170.237 31.0332 170.169 30.752 170.032C30.4707 169.896 30.2266 169.7 30.0195 169.446C29.8086 169.188 29.6445 168.882 29.5273 168.526C29.4102 168.171 29.3516 167.774 29.3516 167.337C29.3516 166.696 29.4746 166.153 29.7207 165.708C29.9629 165.259 30.2812 164.917 30.6758 164.683C31.0664 164.448 31.4844 164.331 31.9297 164.331L31.9297 165.456C31.6094 165.456 31.3262 165.524 31.0801 165.661C30.8301 165.798 30.6348 166.005 30.4941 166.282C30.3496 166.56 30.2773 166.911 30.2773 167.337C30.2773 167.739 30.3379 168.071 30.459 168.333C30.5801 168.595 30.7441 168.79 30.9512 168.919C31.1582 169.044 31.3945 169.106 31.6602 169.106C31.8398 169.106 32.0039 169.069 32.1523 168.995C32.2969 168.917 32.4316 168.798 32.5566 168.638C32.6816 168.474 32.7969 168.267 32.9023 168.017C33.0078 167.763 33.1094 167.46 33.207 167.108C33.3437 166.624 33.4961 166.206 33.6641 165.854C33.832 165.503 34.0215 165.214 34.2324 164.987C34.4395 164.757 34.6758 164.587 34.9414 164.478C35.2031 164.364 35.5 164.308 35.832 164.308C36.1797 164.308 36.4941 164.378 36.7754 164.519C37.0566 164.659 37.2969 164.86 37.4961 165.122C37.6953 165.384 37.8496 165.698 37.959 166.065C38.0645 166.429 38.1172 166.835 38.1172 167.284C38.1172 167.679 38.0625 168.067 37.9531 168.45C37.8437 168.829 37.6797 169.175 37.4609 169.487C37.2422 169.796 36.9727 170.044 36.6523 170.231C36.3281 170.415 35.9531 170.507 35.5273 170.507L35.5273 169.382C35.8203 169.382 36.0723 169.325 36.2832 169.212C36.4902 169.099 36.6621 168.944 36.7988 168.749C36.9355 168.55 37.0371 168.325 37.1035 168.075C37.166 167.821 37.1973 167.558 37.1973 167.284C37.1973 166.89 37.1426 166.556 37.0332 166.282C36.9238 166.009 36.7676 165.802 36.5645 165.661C36.3613 165.517 36.1211 165.444 35.8437 165.444Z" fill="#929292"/>
<path d="M268.299 343.93H266.518L266.529 343.01H268.299C268.908 343.01 269.416 342.883 269.822 342.629C270.229 342.371 270.533 342.012 270.736 341.551C270.943 341.086 271.047 340.543 271.047 339.922V339.4C271.047 338.912 270.988 338.479 270.871 338.1C270.754 337.717 270.582 337.395 270.355 337.133C270.129 336.867 269.852 336.666 269.523 336.529C269.199 336.393 268.826 336.324 268.404 336.324H266.482V335.398H268.404C268.963 335.398 269.473 335.492 269.934 335.68C270.395 335.863 270.791 336.131 271.123 336.482C271.459 336.83 271.717 337.252 271.896 337.748C272.076 338.24 272.166 338.795 272.166 339.412V339.922C272.166 340.539 272.076 341.096 271.896 341.592C271.717 342.084 271.457 342.504 271.117 342.852C270.781 343.199 270.375 343.467 269.898 343.654C269.426 343.838 268.893 343.93 268.299 343.93ZM267.121 335.398V343.93H265.99V335.398H267.121ZM276.895 336.154L274.07 343.93H272.916L276.168 335.398H276.912L276.895 336.154ZM279.262 343.93L276.432 336.154L276.414 335.398H277.158L280.422 343.93H279.262ZM279.115 340.771V341.697H274.322V340.771H279.115ZM283.955 335.398V343.93H282.842V335.398H283.955ZM286.697 335.398V336.324H280.105V335.398H286.697ZM290.652 336.154L287.828 343.93H286.674L289.926 335.398H290.67L290.652 336.154ZM293.02 343.93L290.189 336.154L290.172 335.398H290.916L294.18 343.93H293.02ZM292.873 340.771V341.697H288.08V340.771H292.873Z" fill="#929292"/>
<path d="M48.7734 88.8027L47.6172 88.5059L48.1875 82.8418H54.0234V84.1777H49.4141L49.0703 87.2715C49.2786 87.1517 49.5417 87.0397 49.8594 86.9355C50.1823 86.8314 50.5521 86.7793 50.9688 86.7793C51.4948 86.7793 51.9661 86.8704 52.3828 87.0527C52.7995 87.2298 53.1536 87.485 53.4453 87.8184C53.7422 88.1517 53.9688 88.5527 54.125 89.0215C54.2812 89.4902 54.3594 90.0137 54.3594 90.5918C54.3594 91.1387 54.2839 91.6413 54.1328 92.0996C53.987 92.5579 53.7656 92.959 53.4688 93.3027C53.1719 93.6413 52.7969 93.9043 52.3438 94.0918C51.8958 94.2793 51.3672 94.373 50.7578 94.373C50.2995 94.373 49.8646 94.3105 49.4531 94.1855C49.0469 94.0553 48.6823 93.86 48.3594 93.5996C48.0417 93.334 47.7812 93.0059 47.5781 92.6152C47.3802 92.2194 47.2552 91.7559 47.2031 91.2246H48.5781C48.6406 91.6517 48.7656 92.0111 48.9531 92.3027C49.1406 92.5944 49.3854 92.8158 49.6875 92.9668C49.9948 93.1126 50.3516 93.1855 50.7578 93.1855C51.1016 93.1855 51.4062 93.1257 51.6719 93.0059C51.9375 92.8861 52.1615 92.7142 52.3438 92.4902C52.526 92.2663 52.6641 91.9954 52.7578 91.6777C52.8568 91.36 52.9062 91.0033 52.9062 90.6074C52.9062 90.248 52.8568 89.9147 52.7578 89.6074C52.6589 89.3001 52.5104 89.0319 52.3125 88.8027C52.1198 88.5736 51.8828 88.3965 51.6016 88.2715C51.3203 88.1413 50.9974 88.0762 50.6328 88.0762C50.1484 88.0762 49.7812 88.1413 49.5312 88.2715C49.2865 88.4017 49.0339 88.5788 48.7734 88.8027ZM63.0859 87.623V89.3574C63.0859 90.2897 63.0026 91.0762 62.8359 91.7168C62.6693 92.3574 62.4297 92.873 62.1172 93.2637C61.8047 93.6543 61.4271 93.9382 60.9844 94.1152C60.5469 94.2871 60.0521 94.373 59.5 94.373C59.0625 94.373 58.6589 94.3184 58.2891 94.209C57.9193 94.0996 57.5859 93.9251 57.2891 93.6855C56.9974 93.4408 56.7474 93.123 56.5391 92.7324C56.3307 92.3418 56.1719 91.8678 56.0625 91.3105C55.9531 90.7533 55.8984 90.1022 55.8984 89.3574V87.623C55.8984 86.6908 55.9818 85.9095 56.1484 85.2793C56.3203 84.6491 56.5625 84.1439 56.875 83.7637C57.1875 83.3783 57.5625 83.1022 58 82.9355C58.4427 82.7689 58.9375 82.6855 59.4844 82.6855C59.9271 82.6855 60.3333 82.7402 60.7031 82.8496C61.0781 82.9538 61.4115 83.123 61.7031 83.3574C61.9948 83.5866 62.2422 83.8939 62.4453 84.2793C62.6536 84.6595 62.8125 85.1257 62.9219 85.6777C63.0312 86.2298 63.0859 86.8783 63.0859 87.623ZM61.6328 89.5918V87.3809C61.6328 86.8704 61.6016 86.4225 61.5391 86.0371C61.4818 85.6465 61.3958 85.3132 61.2812 85.0371C61.1667 84.7611 61.0208 84.5371 60.8438 84.3652C60.6719 84.1934 60.4714 84.0684 60.2422 83.9902C60.0182 83.9069 59.7656 83.8652 59.4844 83.8652C59.1406 83.8652 58.8359 83.9303 58.5703 84.0605C58.3047 84.1855 58.0807 84.3861 57.8984 84.6621C57.7214 84.9382 57.5859 85.3001 57.4922 85.748C57.3984 86.196 57.3516 86.7402 57.3516 87.3809V89.5918C57.3516 90.1022 57.3802 90.5527 57.4375 90.9434C57.5 91.334 57.5911 91.6725 57.7109 91.959C57.8307 92.2402 57.9766 92.472 58.1484 92.6543C58.3203 92.8366 58.5182 92.972 58.7422 93.0605C58.9714 93.1439 59.224 93.1855 59.5 93.1855C59.8542 93.1855 60.1641 93.1178 60.4297 92.9824C60.6953 92.847 60.9167 92.6361 61.0938 92.3496C61.276 92.0579 61.4115 91.6855 61.5 91.2324C61.5885 90.7741 61.6328 90.2272 61.6328 89.5918ZM66.8281 82.8418V94.2168H65.3203V82.8418H66.8281ZM73.6953 82.8418L68.9688 88.1465L66.3125 90.9043L66.0625 89.2949L68.0625 87.0918L71.8828 82.8418H73.6953ZM72.2422 94.2168L68.0312 88.6699L68.9297 87.4746L74.0391 94.2168H72.2422Z" fill="#707070"/>
<path d="M54.6328 129.499V130.686H46.4141V129.834L51.5078 121.952H52.6875L51.4219 124.233L48.0547 129.499H54.6328ZM53.0469 121.952V133.327H51.6016V121.952H53.0469ZM63.0859 126.733V128.467C63.0859 129.4 63.0026 130.186 62.8359 130.827C62.6693 131.467 62.4297 131.983 62.1172 132.374C61.8047 132.764 61.4271 133.048 60.9844 133.225C60.5469 133.397 60.0521 133.483 59.5 133.483C59.0625 133.483 58.6589 133.428 58.2891 133.319C57.9193 133.209 57.5859 133.035 57.2891 132.795C56.9974 132.551 56.7474 132.233 56.5391 131.842C56.3307 131.452 56.1719 130.978 56.0625 130.42C55.9531 129.863 55.8984 129.212 55.8984 128.467V126.733C55.8984 125.801 55.9818 125.019 56.1484 124.389C56.3203 123.759 56.5625 123.254 56.875 122.874C57.1875 122.488 57.5625 122.212 58 122.045C58.4427 121.879 58.9375 121.795 59.4844 121.795C59.9271 121.795 60.3333 121.85 60.7031 121.959C61.0781 122.064 61.4115 122.233 61.7031 122.467C61.9948 122.696 62.2422 123.004 62.4453 123.389C62.6536 123.769 62.8125 124.236 62.9219 124.788C63.0312 125.34 63.0859 125.988 63.0859 126.733ZM61.6328 128.702V126.491C61.6328 125.98 61.6016 125.532 61.5391 125.147C61.4818 124.756 61.3958 124.423 61.2812 124.147C61.1667 123.871 61.0208 123.647 60.8438 123.475C60.6719 123.303 60.4714 123.178 60.2422 123.1C60.0182 123.017 59.7656 122.975 59.4844 122.975C59.1406 122.975 58.8359 123.04 58.5703 123.17C58.3047 123.295 58.0807 123.496 57.8984 123.772C57.7214 124.048 57.5859 124.41 57.4922 124.858C57.3984 125.306 57.3516 125.85 57.3516 126.491V128.702C57.3516 129.212 57.3802 129.663 57.4375 130.053C57.5 130.444 57.5911 130.782 57.7109 131.069C57.8307 131.35 57.9766 131.582 58.1484 131.764C58.3203 131.946 58.5182 132.082 58.7422 132.17C58.9714 132.254 59.224 132.295 59.5 132.295C59.8542 132.295 60.1641 132.228 60.4297 132.092C60.6953 131.957 60.9167 131.746 61.0938 131.459C61.276 131.168 61.4115 130.795 61.5 130.342C61.5885 129.884 61.6328 129.337 61.6328 128.702ZM66.8281 121.952V133.327H65.3203V121.952H66.8281ZM73.6953 121.952L68.9688 127.256L66.3125 130.014L66.0625 128.405L68.0625 126.202L71.8828 121.952H73.6953ZM72.2422 133.327L68.0312 127.78L68.9297 126.584L74.0391 133.327H72.2422Z" fill="#707070"/>
<path d="M49.0547 166.038H50.0859C50.5911 166.038 51.0078 165.955 51.3359 165.788C51.6693 165.616 51.9167 165.384 52.0781 165.093C52.2448 164.796 52.3281 164.463 52.3281 164.093C52.3281 163.655 52.2552 163.288 52.1094 162.991C51.9635 162.694 51.7448 162.47 51.4531 162.319C51.1615 162.168 50.7917 162.093 50.3438 162.093C49.9375 162.093 49.5781 162.174 49.2656 162.335C48.9583 162.491 48.7161 162.715 48.5391 163.007C48.3672 163.299 48.2812 163.642 48.2812 164.038H46.8359C46.8359 163.46 46.9818 162.934 47.2734 162.46C47.5651 161.986 47.974 161.608 48.5 161.327C49.0312 161.046 49.6458 160.905 50.3438 160.905C51.0312 160.905 51.6328 161.028 52.1484 161.272C52.6641 161.512 53.0651 161.871 53.3516 162.351C53.638 162.825 53.7812 163.416 53.7812 164.124C53.7812 164.41 53.7135 164.718 53.5781 165.046C53.4479 165.369 53.2422 165.671 52.9609 165.952C52.6849 166.233 52.3255 166.465 51.8828 166.647C51.4401 166.825 50.9089 166.913 50.2891 166.913H49.0547V166.038ZM49.0547 167.226V166.358H50.2891C51.013 166.358 51.612 166.444 52.0859 166.616C52.5599 166.788 52.9323 167.017 53.2031 167.304C53.4792 167.59 53.6719 167.905 53.7812 168.249C53.8958 168.588 53.9531 168.926 53.9531 169.265C53.9531 169.796 53.862 170.267 53.6797 170.679C53.5026 171.09 53.25 171.439 52.9219 171.726C52.599 172.012 52.2188 172.228 51.7812 172.374C51.3438 172.52 50.8672 172.593 50.3516 172.593C49.8568 172.593 49.3906 172.522 48.9531 172.382C48.5208 172.241 48.138 172.038 47.8047 171.772C47.4714 171.502 47.2109 171.171 47.0234 170.78C46.8359 170.384 46.7422 169.934 46.7422 169.429H48.1875C48.1875 169.825 48.2734 170.171 48.4453 170.468C48.6224 170.765 48.8724 170.996 49.1953 171.163C49.5234 171.325 49.9089 171.405 50.3516 171.405C50.7943 171.405 51.1745 171.33 51.4922 171.179C51.8151 171.022 52.0625 170.788 52.2344 170.476C52.4115 170.163 52.5 169.77 52.5 169.296C52.5 168.822 52.401 168.434 52.2031 168.132C52.0052 167.825 51.724 167.598 51.3594 167.452C51 167.301 50.5755 167.226 50.0859 167.226H49.0547ZM63.0859 165.843V167.577C63.0859 168.509 63.0026 169.296 62.8359 169.937C62.6693 170.577 62.4297 171.093 62.1172 171.483C61.8047 171.874 61.4271 172.158 60.9844 172.335C60.5469 172.507 60.0521 172.593 59.5 172.593C59.0625 172.593 58.6589 172.538 58.2891 172.429C57.9193 172.319 57.5859 172.145 57.2891 171.905C56.9974 171.66 56.7474 171.343 56.5391 170.952C56.3307 170.562 56.1719 170.088 56.0625 169.53C55.9531 168.973 55.8984 168.322 55.8984 167.577V165.843C55.8984 164.91 55.9818 164.129 56.1484 163.499C56.3203 162.869 56.5625 162.364 56.875 161.983C57.1875 161.598 57.5625 161.322 58 161.155C58.4427 160.989 58.9375 160.905 59.4844 160.905C59.9271 160.905 60.3333 160.96 60.7031 161.069C61.0781 161.174 61.4115 161.343 61.7031 161.577C61.9948 161.806 62.2422 162.114 62.4453 162.499C62.6536 162.879 62.8125 163.345 62.9219 163.897C63.0312 164.45 63.0859 165.098 63.0859 165.843ZM61.6328 167.812V165.601C61.6328 165.09 61.6016 164.642 61.5391 164.257C61.4818 163.866 61.3958 163.533 61.2812 163.257C61.1667 162.981 61.0208 162.757 60.8438 162.585C60.6719 162.413 60.4714 162.288 60.2422 162.21C60.0182 162.127 59.7656 162.085 59.4844 162.085C59.1406 162.085 58.8359 162.15 58.5703 162.28C58.3047 162.405 58.0807 162.606 57.8984 162.882C57.7214 163.158 57.5859 163.52 57.4922 163.968C57.3984 164.416 57.3516 164.96 57.3516 165.601V167.812C57.3516 168.322 57.3802 168.772 57.4375 169.163C57.5 169.554 57.5911 169.892 57.7109 170.179C57.8307 170.46 57.9766 170.692 58.1484 170.874C58.3203 171.056 58.5182 171.192 58.7422 171.28C58.9714 171.364 59.224 171.405 59.5 171.405C59.8542 171.405 60.1641 171.338 60.4297 171.202C60.6953 171.067 60.9167 170.856 61.0938 170.569C61.276 170.278 61.4115 169.905 61.5 169.452C61.5885 168.994 61.6328 168.447 61.6328 167.812ZM66.8281 161.062V172.437H65.3203V161.062H66.8281ZM73.6953 161.062L68.9688 166.366L66.3125 169.124L66.0625 167.515L68.0625 165.312L71.8828 161.062H73.6953ZM72.2422 172.437L68.0312 166.89L68.9297 165.694L74.0391 172.437H72.2422Z" fill="#707070"/>
<path d="M54.3984 210.359V211.546H46.9531V210.507L50.6797 206.359C51.138 205.848 51.4922 205.416 51.7422 205.062C51.9974 204.703 52.1745 204.382 52.2734 204.101C52.3776 203.815 52.4297 203.523 52.4297 203.226C52.4297 202.851 52.3516 202.513 52.1953 202.21C52.0443 201.903 51.8203 201.658 51.5234 201.476C51.2266 201.294 50.8672 201.203 50.4453 201.203C49.9401 201.203 49.5182 201.302 49.1797 201.5C48.8464 201.692 48.5964 201.963 48.4297 202.312C48.263 202.661 48.1797 203.062 48.1797 203.515H46.7344C46.7344 202.875 46.875 202.289 47.1562 201.757C47.4375 201.226 47.8542 200.804 48.4062 200.492C48.9583 200.174 49.638 200.015 50.4453 200.015C51.1641 200.015 51.7786 200.143 52.2891 200.398C52.7995 200.648 53.1901 201.002 53.4609 201.46C53.737 201.914 53.875 202.445 53.875 203.054C53.875 203.388 53.8177 203.726 53.7031 204.07C53.5938 204.408 53.4401 204.747 53.2422 205.085C53.0495 205.424 52.8229 205.757 52.5625 206.085C52.3073 206.414 52.0339 206.736 51.7422 207.054L48.6953 210.359H54.3984ZM63.0859 204.953V206.687C63.0859 207.619 63.0026 208.406 62.8359 209.046C62.6693 209.687 62.4297 210.203 62.1172 210.593C61.8047 210.984 61.4271 211.268 60.9844 211.445C60.5469 211.617 60.0521 211.703 59.5 211.703C59.0625 211.703 58.6589 211.648 58.2891 211.539C57.9193 211.429 57.5859 211.255 57.2891 211.015C56.9974 210.77 56.7474 210.453 56.5391 210.062C56.3307 209.671 56.1719 209.197 56.0625 208.64C55.9531 208.083 55.8984 207.432 55.8984 206.687V204.953C55.8984 204.02 55.9818 203.239 56.1484 202.609C56.3203 201.979 56.5625 201.473 56.875 201.093C57.1875 200.708 57.5625 200.432 58 200.265C58.4427 200.098 58.9375 200.015 59.4844 200.015C59.9271 200.015 60.3333 200.07 60.7031 200.179C61.0781 200.283 61.4115 200.453 61.7031 200.687C61.9948 200.916 62.2422 201.223 62.4453 201.609C62.6536 201.989 62.8125 202.455 62.9219 203.007C63.0312 203.559 63.0859 204.208 63.0859 204.953ZM61.6328 206.921V204.71C61.6328 204.2 61.6016 203.752 61.5391 203.367C61.4818 202.976 61.3958 202.643 61.2812 202.367C61.1667 202.091 61.0208 201.867 60.8438 201.695C60.6719 201.523 60.4714 201.398 60.2422 201.32C60.0182 201.236 59.7656 201.195 59.4844 201.195C59.1406 201.195 58.8359 201.26 58.5703 201.39C58.3047 201.515 58.0807 201.716 57.8984 201.992C57.7214 202.268 57.5859 202.63 57.4922 203.078C57.3984 203.526 57.3516 204.07 57.3516 204.71V206.921C57.3516 207.432 57.3802 207.882 57.4375 208.273C57.5 208.664 57.5911 209.002 57.7109 209.289C57.8307 209.57 57.9766 209.802 58.1484 209.984C58.3203 210.166 58.5182 210.302 58.7422 210.39C58.9714 210.473 59.224 210.515 59.5 210.515C59.8542 210.515 60.1641 210.447 60.4297 210.312C60.6953 210.177 60.9167 209.966 61.0938 209.679C61.276 209.388 61.4115 209.015 61.5 208.562C61.5885 208.104 61.6328 207.557 61.6328 206.921ZM66.8281 200.171V211.546H65.3203V200.171H66.8281ZM73.6953 200.171L68.9688 205.476L66.3125 208.234L66.0625 206.625L68.0625 204.421L71.8828 200.171H73.6953ZM72.2422 211.546L68.0312 206L68.9297 204.804L74.0391 211.546H72.2422Z" fill="#707070"/>
<path d="M51.6953 239.219V250.656H50.25V241.023L47.3359 242.086V240.781L51.4688 239.219H51.6953ZM63.0859 244.062V245.797C63.0859 246.729 63.0026 247.516 62.8359 248.156C62.6693 248.797 62.4297 249.312 62.1172 249.703C61.8047 250.094 61.4271 250.378 60.9844 250.555C60.5469 250.727 60.0521 250.812 59.5 250.812C59.0625 250.812 58.6589 250.758 58.2891 250.648C57.9193 250.539 57.5859 250.365 57.2891 250.125C56.9974 249.88 56.7474 249.562 56.5391 249.172C56.3307 248.781 56.1719 248.307 56.0625 247.75C55.9531 247.193 55.8984 246.542 55.8984 245.797V244.062C55.8984 243.13 55.9818 242.349 56.1484 241.719C56.3203 241.089 56.5625 240.583 56.875 240.203C57.1875 239.818 57.5625 239.542 58 239.375C58.4427 239.208 58.9375 239.125 59.4844 239.125C59.9271 239.125 60.3333 239.18 60.7031 239.289C61.0781 239.393 61.4115 239.562 61.7031 239.797C61.9948 240.026 62.2422 240.333 62.4453 240.719C62.6536 241.099 62.8125 241.565 62.9219 242.117C63.0312 242.669 63.0859 243.318 63.0859 244.062ZM61.6328 246.031V243.82C61.6328 243.31 61.6016 242.862 61.5391 242.477C61.4818 242.086 61.3958 241.753 61.2812 241.477C61.1667 241.201 61.0208 240.977 60.8438 240.805C60.6719 240.633 60.4714 240.508 60.2422 240.43C60.0182 240.346 59.7656 240.305 59.4844 240.305C59.1406 240.305 58.8359 240.37 58.5703 240.5C58.3047 240.625 58.0807 240.826 57.8984 241.102C57.7214 241.378 57.5859 241.74 57.4922 242.188C57.3984 242.635 57.3516 243.18 57.3516 243.82V246.031C57.3516 246.542 57.3802 246.992 57.4375 247.383C57.5 247.773 57.5911 248.112 57.7109 248.398C57.8307 248.68 57.9766 248.911 58.1484 249.094C58.3203 249.276 58.5182 249.411 58.7422 249.5C58.9714 249.583 59.224 249.625 59.5 249.625C59.8542 249.625 60.1641 249.557 60.4297 249.422C60.6953 249.286 60.9167 249.076 61.0938 248.789C61.276 248.497 61.4115 248.125 61.5 247.672C61.5885 247.214 61.6328 246.667 61.6328 246.031ZM66.8281 239.281V250.656H65.3203V239.281H66.8281ZM73.6953 239.281L68.9688 244.586L66.3125 247.344L66.0625 245.734L68.0625 243.531L71.8828 239.281H73.6953ZM72.2422 250.656L68.0312 245.109L68.9297 243.914L74.0391 250.656H72.2422Z" fill="#707070"/>
<path d="M54.0859 282.169V283.904C54.0859 284.836 54.0026 285.623 53.8359 286.263C53.6693 286.904 53.4297 287.419 53.1172 287.81C52.8047 288.201 52.4271 288.485 51.9844 288.662C51.5469 288.833 51.0521 288.919 50.5 288.919C50.0625 288.919 49.6589 288.865 49.2891 288.755C48.9193 288.646 48.5859 288.472 48.2891 288.232C47.9974 287.987 47.7474 287.669 47.5391 287.279C47.3307 286.888 47.1719 286.414 47.0625 285.857C46.9531 285.3 46.8984 284.649 46.8984 283.904V282.169C46.8984 281.237 46.9818 280.456 47.1484 279.826C47.3203 279.195 47.5625 278.69 47.875 278.31C48.1875 277.925 48.5625 277.649 49 277.482C49.4427 277.315 49.9375 277.232 50.4844 277.232C50.9271 277.232 51.3333 277.287 51.7031 277.396C52.0781 277.5 52.4115 277.669 52.7031 277.904C52.9948 278.133 53.2422 278.44 53.4453 278.826C53.6536 279.206 53.8125 279.672 53.9219 280.224C54.0312 280.776 54.0859 281.425 54.0859 282.169ZM52.6328 284.138V281.927C52.6328 281.417 52.6016 280.969 52.5391 280.583C52.4818 280.193 52.3958 279.86 52.2812 279.583C52.1667 279.307 52.0208 279.083 51.8438 278.912C51.6719 278.74 51.4714 278.615 51.2422 278.537C51.0182 278.453 50.7656 278.412 50.4844 278.412C50.1406 278.412 49.8359 278.477 49.5703 278.607C49.3047 278.732 49.0807 278.932 48.8984 279.208C48.7214 279.485 48.5859 279.847 48.4922 280.294C48.3984 280.742 48.3516 281.287 48.3516 281.927V284.138C48.3516 284.649 48.3802 285.099 48.4375 285.49C48.5 285.88 48.5911 286.219 48.7109 286.505C48.8307 286.787 48.9766 287.018 49.1484 287.201C49.3203 287.383 49.5182 287.518 49.7422 287.607C49.9714 287.69 50.224 287.732 50.5 287.732C50.8542 287.732 51.1641 287.664 51.4297 287.529C51.6953 287.393 51.9167 287.182 52.0938 286.896C52.276 286.604 52.4115 286.232 52.5 285.779C52.5885 285.32 52.6328 284.774 52.6328 284.138Z" fill="#707070"/>
<path d="M98.0859 317.268V319.003C98.0859 319.935 98.0026 320.721 97.8359 321.362C97.6693 322.003 97.4297 322.518 97.1172 322.909C96.8047 323.3 96.4271 323.583 95.9844 323.76C95.5469 323.932 95.0521 324.018 94.5 324.018C94.0625 324.018 93.6589 323.964 93.2891 323.854C92.9193 323.745 92.5859 323.57 92.2891 323.331C91.9974 323.086 91.7474 322.768 91.5391 322.378C91.3307 321.987 91.1719 321.513 91.0625 320.956C90.9531 320.399 90.8984 319.747 90.8984 319.003V317.268C90.8984 316.336 90.9818 315.555 91.1484 314.925C91.3203 314.294 91.5625 313.789 91.875 313.409C92.1875 313.024 92.5625 312.747 93 312.581C93.4427 312.414 93.9375 312.331 94.4844 312.331C94.9271 312.331 95.3333 312.385 95.7031 312.495C96.0781 312.599 96.4115 312.768 96.7031 313.003C96.9948 313.232 97.2422 313.539 97.4453 313.925C97.6536 314.305 97.8125 314.771 97.9219 315.323C98.0312 315.875 98.0859 316.524 98.0859 317.268ZM96.6328 319.237V317.026C96.6328 316.516 96.6016 316.068 96.5391 315.682C96.4818 315.292 96.3958 314.958 96.2812 314.682C96.1667 314.406 96.0208 314.182 95.8438 314.01C95.6719 313.839 95.4714 313.714 95.2422 313.635C95.0182 313.552 94.7656 313.51 94.4844 313.51C94.1406 313.51 93.8359 313.576 93.5703 313.706C93.3047 313.831 93.0807 314.031 92.8984 314.307C92.7214 314.583 92.5859 314.945 92.4922 315.393C92.3984 315.841 92.3516 316.385 92.3516 317.026V319.237C92.3516 319.747 92.3802 320.198 92.4375 320.589C92.5 320.979 92.5911 321.318 92.7109 321.604C92.8307 321.885 92.9766 322.117 93.1484 322.3C93.3203 322.482 93.5182 322.617 93.7422 322.706C93.9714 322.789 94.224 322.831 94.5 322.831C94.8542 322.831 95.1641 322.763 95.4297 322.628C95.6953 322.492 95.9167 322.281 96.0938 321.995C96.276 321.703 96.4115 321.331 96.5 320.878C96.5885 320.419 96.6328 319.872 96.6328 319.237ZM104.695 312.425V323.862H103.25V314.229L100.336 315.292V313.987L104.469 312.425H104.695ZM114.133 312.487L109.391 324.839H108.148L112.898 312.487H114.133ZM123.008 322.675V323.862H115.562V322.823L119.289 318.675C119.747 318.164 120.102 317.732 120.352 317.378C120.607 317.018 120.784 316.698 120.883 316.417C120.987 316.13 121.039 315.839 121.039 315.542C121.039 315.167 120.961 314.828 120.805 314.526C120.654 314.219 120.43 313.974 120.133 313.792C119.836 313.609 119.477 313.518 119.055 313.518C118.549 313.518 118.128 313.617 117.789 313.815C117.456 314.008 117.206 314.279 117.039 314.628C116.872 314.977 116.789 315.378 116.789 315.831H115.344C115.344 315.19 115.484 314.604 115.766 314.073C116.047 313.542 116.464 313.12 117.016 312.807C117.568 312.49 118.247 312.331 119.055 312.331C119.773 312.331 120.388 312.458 120.898 312.714C121.409 312.964 121.799 313.318 122.07 313.776C122.346 314.229 122.484 314.76 122.484 315.37C122.484 315.703 122.427 316.042 122.312 316.385C122.203 316.724 122.049 317.063 121.852 317.401C121.659 317.74 121.432 318.073 121.172 318.401C120.917 318.729 120.643 319.052 120.352 319.37L117.305 322.675H123.008ZM132.242 320.034V321.221H124.023V320.37L129.117 312.487H130.297L129.031 314.768L125.664 320.034H132.242ZM130.656 312.487V323.862H129.211V312.487H130.656Z" fill="#707070"/>
<path d="M161.086 317.268V319.003C161.086 319.935 161.003 320.721 160.836 321.362C160.669 322.003 160.43 322.518 160.117 322.909C159.805 323.3 159.427 323.583 158.984 323.76C158.547 323.932 158.052 324.018 157.5 324.018C157.062 324.018 156.659 323.964 156.289 323.854C155.919 323.745 155.586 323.57 155.289 323.331C154.997 323.086 154.747 322.768 154.539 322.378C154.331 321.987 154.172 321.513 154.062 320.956C153.953 320.399 153.898 319.747 153.898 319.003V317.268C153.898 316.336 153.982 315.555 154.148 314.925C154.32 314.294 154.562 313.789 154.875 313.409C155.188 313.024 155.562 312.747 156 312.581C156.443 312.414 156.938 312.331 157.484 312.331C157.927 312.331 158.333 312.385 158.703 312.495C159.078 312.599 159.411 312.768 159.703 313.003C159.995 313.232 160.242 313.539 160.445 313.925C160.654 314.305 160.812 314.771 160.922 315.323C161.031 315.875 161.086 316.524 161.086 317.268ZM159.633 319.237V317.026C159.633 316.516 159.602 316.068 159.539 315.682C159.482 315.292 159.396 314.958 159.281 314.682C159.167 314.406 159.021 314.182 158.844 314.01C158.672 313.839 158.471 313.714 158.242 313.635C158.018 313.552 157.766 313.51 157.484 313.51C157.141 313.51 156.836 313.576 156.57 313.706C156.305 313.831 156.081 314.031 155.898 314.307C155.721 314.583 155.586 314.945 155.492 315.393C155.398 315.841 155.352 316.385 155.352 317.026V319.237C155.352 319.747 155.38 320.198 155.438 320.589C155.5 320.979 155.591 321.318 155.711 321.604C155.831 321.885 155.977 322.117 156.148 322.3C156.32 322.482 156.518 322.617 156.742 322.706C156.971 322.789 157.224 322.831 157.5 322.831C157.854 322.831 158.164 322.763 158.43 322.628C158.695 322.492 158.917 322.281 159.094 321.995C159.276 321.703 159.411 321.331 159.5 320.878C159.589 320.419 159.633 319.872 159.633 319.237ZM170.398 322.675V323.862H162.953V322.823L166.68 318.675C167.138 318.164 167.492 317.732 167.742 317.378C167.997 317.018 168.174 316.698 168.273 316.417C168.378 316.13 168.43 315.839 168.43 315.542C168.43 315.167 168.352 314.828 168.195 314.526C168.044 314.219 167.82 313.974 167.523 313.792C167.227 313.609 166.867 313.518 166.445 313.518C165.94 313.518 165.518 313.617 165.18 313.815C164.846 314.008 164.596 314.279 164.43 314.628C164.263 314.977 164.18 315.378 164.18 315.831H162.734C162.734 315.19 162.875 314.604 163.156 314.073C163.438 313.542 163.854 313.12 164.406 312.807C164.958 312.49 165.638 312.331 166.445 312.331C167.164 312.331 167.779 312.458 168.289 312.714C168.799 312.964 169.19 313.318 169.461 313.776C169.737 314.229 169.875 314.76 169.875 315.37C169.875 315.703 169.818 316.042 169.703 316.385C169.594 316.724 169.44 317.063 169.242 317.401C169.049 317.74 168.823 318.073 168.562 318.401C168.307 318.729 168.034 319.052 167.742 319.37L164.695 322.675H170.398ZM177.133 312.487L172.391 324.839H171.148L175.898 312.487H177.133ZM186.008 322.675V323.862H178.562V322.823L182.289 318.675C182.747 318.164 183.102 317.732 183.352 317.378C183.607 317.018 183.784 316.698 183.883 316.417C183.987 316.13 184.039 315.839 184.039 315.542C184.039 315.167 183.961 314.828 183.805 314.526C183.654 314.219 183.43 313.974 183.133 313.792C182.836 313.609 182.477 313.518 182.055 313.518C181.549 313.518 181.128 313.617 180.789 313.815C180.456 314.008 180.206 314.279 180.039 314.628C179.872 314.977 179.789 315.378 179.789 315.831H178.344C178.344 315.19 178.484 314.604 178.766 314.073C179.047 313.542 179.464 313.12 180.016 312.807C180.568 312.49 181.247 312.331 182.055 312.331C182.773 312.331 183.388 312.458 183.898 312.714C184.409 312.964 184.799 313.318 185.07 313.776C185.346 314.229 185.484 314.76 185.484 315.37C185.484 315.703 185.427 316.042 185.312 316.385C185.203 316.724 185.049 317.063 184.852 317.401C184.659 317.74 184.432 318.073 184.172 318.401C183.917 318.729 183.643 319.052 183.352 319.37L180.305 322.675H186.008ZM195.242 320.034V321.221H187.023V320.37L192.117 312.487H193.297L192.031 314.768L188.664 320.034H195.242ZM193.656 312.487V323.862H192.211V312.487H193.656Z" fill="#707070"/>
<path d="M224.086 317.268V319.003C224.086 319.935 224.003 320.721 223.836 321.362C223.669 322.003 223.43 322.518 223.117 322.909C222.805 323.3 222.427 323.583 221.984 323.76C221.547 323.932 221.052 324.018 220.5 324.018C220.062 324.018 219.659 323.964 219.289 323.854C218.919 323.745 218.586 323.57 218.289 323.331C217.997 323.086 217.747 322.768 217.539 322.378C217.331 321.987 217.172 321.513 217.062 320.956C216.953 320.399 216.898 319.747 216.898 319.003V317.268C216.898 316.336 216.982 315.555 217.148 314.925C217.32 314.294 217.562 313.789 217.875 313.409C218.188 313.024 218.562 312.747 219 312.581C219.443 312.414 219.938 312.331 220.484 312.331C220.927 312.331 221.333 312.385 221.703 312.495C222.078 312.599 222.411 312.768 222.703 313.003C222.995 313.232 223.242 313.539 223.445 313.925C223.654 314.305 223.812 314.771 223.922 315.323C224.031 315.875 224.086 316.524 224.086 317.268ZM222.633 319.237V317.026C222.633 316.516 222.602 316.068 222.539 315.682C222.482 315.292 222.396 314.958 222.281 314.682C222.167 314.406 222.021 314.182 221.844 314.01C221.672 313.839 221.471 313.714 221.242 313.635C221.018 313.552 220.766 313.51 220.484 313.51C220.141 313.51 219.836 313.576 219.57 313.706C219.305 313.831 219.081 314.031 218.898 314.307C218.721 314.583 218.586 314.945 218.492 315.393C218.398 315.841 218.352 316.385 218.352 317.026V319.237C218.352 319.747 218.38 320.198 218.438 320.589C218.5 320.979 218.591 321.318 218.711 321.604C218.831 321.885 218.977 322.117 219.148 322.3C219.32 322.482 219.518 322.617 219.742 322.706C219.971 322.789 220.224 322.831 220.5 322.831C220.854 322.831 221.164 322.763 221.43 322.628C221.695 322.492 221.917 322.281 222.094 321.995C222.276 321.703 222.411 321.331 222.5 320.878C222.589 320.419 222.633 319.872 222.633 319.237ZM228.055 317.464H229.086C229.591 317.464 230.008 317.38 230.336 317.214C230.669 317.042 230.917 316.81 231.078 316.518C231.245 316.221 231.328 315.888 231.328 315.518C231.328 315.081 231.255 314.714 231.109 314.417C230.964 314.12 230.745 313.896 230.453 313.745C230.161 313.594 229.792 313.518 229.344 313.518C228.938 313.518 228.578 313.599 228.266 313.76C227.958 313.917 227.716 314.141 227.539 314.432C227.367 314.724 227.281 315.068 227.281 315.464H225.836C225.836 314.885 225.982 314.359 226.273 313.885C226.565 313.412 226.974 313.034 227.5 312.753C228.031 312.471 228.646 312.331 229.344 312.331C230.031 312.331 230.633 312.453 231.148 312.698C231.664 312.938 232.065 313.297 232.352 313.776C232.638 314.25 232.781 314.841 232.781 315.55C232.781 315.836 232.714 316.143 232.578 316.471C232.448 316.794 232.242 317.096 231.961 317.378C231.685 317.659 231.326 317.891 230.883 318.073C230.44 318.25 229.909 318.339 229.289 318.339H228.055V317.464ZM228.055 318.651V317.784H229.289C230.013 317.784 230.612 317.87 231.086 318.042C231.56 318.214 231.932 318.443 232.203 318.729C232.479 319.016 232.672 319.331 232.781 319.675C232.896 320.013 232.953 320.352 232.953 320.69C232.953 321.221 232.862 321.693 232.68 322.104C232.503 322.516 232.25 322.865 231.922 323.151C231.599 323.438 231.219 323.654 230.781 323.8C230.344 323.945 229.867 324.018 229.352 324.018C228.857 324.018 228.391 323.948 227.953 323.807C227.521 323.667 227.138 323.464 226.805 323.198C226.471 322.927 226.211 322.596 226.023 322.206C225.836 321.81 225.742 321.359 225.742 320.854H227.188C227.188 321.25 227.273 321.596 227.445 321.893C227.622 322.19 227.872 322.422 228.195 322.589C228.523 322.75 228.909 322.831 229.352 322.831C229.794 322.831 230.174 322.755 230.492 322.604C230.815 322.448 231.062 322.214 231.234 321.901C231.411 321.589 231.5 321.195 231.5 320.721C231.5 320.247 231.401 319.859 231.203 319.557C231.005 319.25 230.724 319.024 230.359 318.878C230 318.727 229.576 318.651 229.086 318.651H228.055ZM240.133 312.487L235.391 324.839H234.148L238.898 312.487H240.133ZM249.008 322.675V323.862H241.562V322.823L245.289 318.675C245.747 318.164 246.102 317.732 246.352 317.378C246.607 317.018 246.784 316.698 246.883 316.417C246.987 316.13 247.039 315.839 247.039 315.542C247.039 315.167 246.961 314.828 246.805 314.526C246.654 314.219 246.43 313.974 246.133 313.792C245.836 313.609 245.477 313.518 245.055 313.518C244.549 313.518 244.128 313.617 243.789 313.815C243.456 314.008 243.206 314.279 243.039 314.628C242.872 314.977 242.789 315.378 242.789 315.831H241.344C241.344 315.19 241.484 314.604 241.766 314.073C242.047 313.542 242.464 313.12 243.016 312.807C243.568 312.49 244.247 312.331 245.055 312.331C245.773 312.331 246.388 312.458 246.898 312.714C247.409 312.964 247.799 313.318 248.07 313.776C248.346 314.229 248.484 314.76 248.484 315.37C248.484 315.703 248.427 316.042 248.312 316.385C248.203 316.724 248.049 317.063 247.852 317.401C247.659 317.74 247.432 318.073 247.172 318.401C246.917 318.729 246.643 319.052 246.352 319.37L243.305 322.675H249.008ZM258.242 320.034V321.221H250.023V320.37L255.117 312.487H256.297L255.031 314.768L251.664 320.034H258.242ZM256.656 312.487V323.862H255.211V312.487H256.656Z" fill="#707070"/>
<path d="M287.086 317.268V319.003C287.086 319.935 287.003 320.721 286.836 321.362C286.669 322.003 286.43 322.518 286.117 322.909C285.805 323.3 285.427 323.583 284.984 323.76C284.547 323.932 284.052 324.018 283.5 324.018C283.062 324.018 282.659 323.964 282.289 323.854C281.919 323.745 281.586 323.57 281.289 323.331C280.997 323.086 280.747 322.768 280.539 322.378C280.331 321.987 280.172 321.513 280.062 320.956C279.953 320.399 279.898 319.747 279.898 319.003V317.268C279.898 316.336 279.982 315.555 280.148 314.925C280.32 314.294 280.562 313.789 280.875 313.409C281.188 313.024 281.562 312.747 282 312.581C282.443 312.414 282.938 312.331 283.484 312.331C283.927 312.331 284.333 312.385 284.703 312.495C285.078 312.599 285.411 312.768 285.703 313.003C285.995 313.232 286.242 313.539 286.445 313.925C286.654 314.305 286.812 314.771 286.922 315.323C287.031 315.875 287.086 316.524 287.086 317.268ZM285.633 319.237V317.026C285.633 316.516 285.602 316.068 285.539 315.682C285.482 315.292 285.396 314.958 285.281 314.682C285.167 314.406 285.021 314.182 284.844 314.01C284.672 313.839 284.471 313.714 284.242 313.635C284.018 313.552 283.766 313.51 283.484 313.51C283.141 313.51 282.836 313.576 282.57 313.706C282.305 313.831 282.081 314.031 281.898 314.307C281.721 314.583 281.586 314.945 281.492 315.393C281.398 315.841 281.352 316.385 281.352 317.026V319.237C281.352 319.747 281.38 320.198 281.438 320.589C281.5 320.979 281.591 321.318 281.711 321.604C281.831 321.885 281.977 322.117 282.148 322.3C282.32 322.482 282.518 322.617 282.742 322.706C282.971 322.789 283.224 322.831 283.5 322.831C283.854 322.831 284.164 322.763 284.43 322.628C284.695 322.492 284.917 322.281 285.094 321.995C285.276 321.703 285.411 321.331 285.5 320.878C285.589 320.419 285.633 319.872 285.633 319.237ZM296.633 320.034V321.221H288.414V320.37L293.508 312.487H294.688L293.422 314.768L290.055 320.034H296.633ZM295.047 312.487V323.862H293.602V312.487H295.047ZM303.133 312.487L298.391 324.839H297.148L301.898 312.487H303.133ZM312.008 322.675V323.862H304.562V322.823L308.289 318.675C308.747 318.164 309.102 317.732 309.352 317.378C309.607 317.018 309.784 316.698 309.883 316.417C309.987 316.13 310.039 315.839 310.039 315.542C310.039 315.167 309.961 314.828 309.805 314.526C309.654 314.219 309.43 313.974 309.133 313.792C308.836 313.609 308.477 313.518 308.055 313.518C307.549 313.518 307.128 313.617 306.789 313.815C306.456 314.008 306.206 314.279 306.039 314.628C305.872 314.977 305.789 315.378 305.789 315.831H304.344C304.344 315.19 304.484 314.604 304.766 314.073C305.047 313.542 305.464 313.12 306.016 312.807C306.568 312.49 307.247 312.331 308.055 312.331C308.773 312.331 309.388 312.458 309.898 312.714C310.409 312.964 310.799 313.318 311.07 313.776C311.346 314.229 311.484 314.76 311.484 315.37C311.484 315.703 311.427 316.042 311.312 316.385C311.203 316.724 311.049 317.063 310.852 317.401C310.659 317.74 310.432 318.073 310.172 318.401C309.917 318.729 309.643 319.052 309.352 319.37L306.305 322.675H312.008ZM321.242 320.034V321.221H313.023V320.37L318.117 312.487H319.297L318.031 314.768L314.664 320.034H321.242ZM319.656 312.487V323.862H318.211V312.487H319.656Z" fill="#707070"/>
<path d="M350.086 317.268V319.003C350.086 319.935 350.003 320.721 349.836 321.362C349.669 322.003 349.43 322.518 349.117 322.909C348.805 323.3 348.427 323.583 347.984 323.76C347.547 323.932 347.052 324.018 346.5 324.018C346.062 324.018 345.659 323.964 345.289 323.854C344.919 323.745 344.586 323.57 344.289 323.331C343.997 323.086 343.747 322.768 343.539 322.378C343.331 321.987 343.172 321.513 343.062 320.956C342.953 320.399 342.898 319.747 342.898 319.003V317.268C342.898 316.336 342.982 315.555 343.148 314.925C343.32 314.294 343.562 313.789 343.875 313.409C344.188 313.024 344.562 312.747 345 312.581C345.443 312.414 345.938 312.331 346.484 312.331C346.927 312.331 347.333 312.385 347.703 312.495C348.078 312.599 348.411 312.768 348.703 313.003C348.995 313.232 349.242 313.539 349.445 313.925C349.654 314.305 349.812 314.771 349.922 315.323C350.031 315.875 350.086 316.524 350.086 317.268ZM348.633 319.237V317.026C348.633 316.516 348.602 316.068 348.539 315.682C348.482 315.292 348.396 314.958 348.281 314.682C348.167 314.406 348.021 314.182 347.844 314.01C347.672 313.839 347.471 313.714 347.242 313.635C347.018 313.552 346.766 313.51 346.484 313.51C346.141 313.51 345.836 313.576 345.57 313.706C345.305 313.831 345.081 314.031 344.898 314.307C344.721 314.583 344.586 314.945 344.492 315.393C344.398 315.841 344.352 316.385 344.352 317.026V319.237C344.352 319.747 344.38 320.198 344.438 320.589C344.5 320.979 344.591 321.318 344.711 321.604C344.831 321.885 344.977 322.117 345.148 322.3C345.32 322.482 345.518 322.617 345.742 322.706C345.971 322.789 346.224 322.831 346.5 322.831C346.854 322.831 347.164 322.763 347.43 322.628C347.695 322.492 347.917 322.281 348.094 321.995C348.276 321.703 348.411 321.331 348.5 320.878C348.589 320.419 348.633 319.872 348.633 319.237ZM353.773 318.448L352.617 318.151L353.188 312.487H359.023V313.823H354.414L354.07 316.917C354.279 316.797 354.542 316.685 354.859 316.581C355.182 316.477 355.552 316.425 355.969 316.425C356.495 316.425 356.966 316.516 357.383 316.698C357.799 316.875 358.154 317.13 358.445 317.464C358.742 317.797 358.969 318.198 359.125 318.667C359.281 319.135 359.359 319.659 359.359 320.237C359.359 320.784 359.284 321.287 359.133 321.745C358.987 322.203 358.766 322.604 358.469 322.948C358.172 323.287 357.797 323.55 357.344 323.737C356.896 323.925 356.367 324.018 355.758 324.018C355.299 324.018 354.865 323.956 354.453 323.831C354.047 323.701 353.682 323.505 353.359 323.245C353.042 322.979 352.781 322.651 352.578 322.26C352.38 321.865 352.255 321.401 352.203 320.87H353.578C353.641 321.297 353.766 321.656 353.953 321.948C354.141 322.24 354.385 322.461 354.688 322.612C354.995 322.758 355.352 322.831 355.758 322.831C356.102 322.831 356.406 322.771 356.672 322.651C356.938 322.531 357.161 322.359 357.344 322.135C357.526 321.912 357.664 321.641 357.758 321.323C357.857 321.005 357.906 320.649 357.906 320.253C357.906 319.893 357.857 319.56 357.758 319.253C357.659 318.945 357.51 318.677 357.312 318.448C357.12 318.219 356.883 318.042 356.602 317.917C356.32 317.787 355.997 317.721 355.633 317.721C355.148 317.721 354.781 317.787 354.531 317.917C354.286 318.047 354.034 318.224 353.773 318.448ZM366.133 312.487L361.391 324.839H360.148L364.898 312.487H366.133ZM375.008 322.675V323.862H367.562V322.823L371.289 318.675C371.747 318.164 372.102 317.732 372.352 317.378C372.607 317.018 372.784 316.698 372.883 316.417C372.987 316.13 373.039 315.839 373.039 315.542C373.039 315.167 372.961 314.828 372.805 314.526C372.654 314.219 372.43 313.974 372.133 313.792C371.836 313.609 371.477 313.518 371.055 313.518C370.549 313.518 370.128 313.617 369.789 313.815C369.456 314.008 369.206 314.279 369.039 314.628C368.872 314.977 368.789 315.378 368.789 315.831H367.344C367.344 315.19 367.484 314.604 367.766 314.073C368.047 313.542 368.464 313.12 369.016 312.807C369.568 312.49 370.247 312.331 371.055 312.331C371.773 312.331 372.388 312.458 372.898 312.714C373.409 312.964 373.799 313.318 374.07 313.776C374.346 314.229 374.484 314.76 374.484 315.37C374.484 315.703 374.427 316.042 374.312 316.385C374.203 316.724 374.049 317.063 373.852 317.401C373.659 317.74 373.432 318.073 373.172 318.401C372.917 318.729 372.643 319.052 372.352 319.37L369.305 322.675H375.008ZM384.242 320.034V321.221H376.023V320.37L381.117 312.487H382.297L381.031 314.768L377.664 320.034H384.242ZM382.656 312.487V323.862H381.211V312.487H382.656Z" fill="#707070"/>
<path d="M413.086 317.268V319.003C413.086 319.935 413.003 320.721 412.836 321.362C412.669 322.003 412.43 322.518 412.117 322.909C411.805 323.3 411.427 323.583 410.984 323.76C410.547 323.932 410.052 324.018 409.5 324.018C409.062 324.018 408.659 323.964 408.289 323.854C407.919 323.745 407.586 323.57 407.289 323.331C406.997 323.086 406.747 322.768 406.539 322.378C406.331 321.987 406.172 321.513 406.062 320.956C405.953 320.399 405.898 319.747 405.898 319.003V317.268C405.898 316.336 405.982 315.555 406.148 314.925C406.32 314.294 406.562 313.789 406.875 313.409C407.188 313.024 407.562 312.747 408 312.581C408.443 312.414 408.938 312.331 409.484 312.331C409.927 312.331 410.333 312.385 410.703 312.495C411.078 312.599 411.411 312.768 411.703 313.003C411.995 313.232 412.242 313.539 412.445 313.925C412.654 314.305 412.812 314.771 412.922 315.323C413.031 315.875 413.086 316.524 413.086 317.268ZM411.633 319.237V317.026C411.633 316.516 411.602 316.068 411.539 315.682C411.482 315.292 411.396 314.958 411.281 314.682C411.167 314.406 411.021 314.182 410.844 314.01C410.672 313.839 410.471 313.714 410.242 313.635C410.018 313.552 409.766 313.51 409.484 313.51C409.141 313.51 408.836 313.576 408.57 313.706C408.305 313.831 408.081 314.031 407.898 314.307C407.721 314.583 407.586 314.945 407.492 315.393C407.398 315.841 407.352 316.385 407.352 317.026V319.237C407.352 319.747 407.38 320.198 407.438 320.589C407.5 320.979 407.591 321.318 407.711 321.604C407.831 321.885 407.977 322.117 408.148 322.3C408.32 322.482 408.518 322.617 408.742 322.706C408.971 322.789 409.224 322.831 409.5 322.831C409.854 322.831 410.164 322.763 410.43 322.628C410.695 322.492 410.917 322.281 411.094 321.995C411.276 321.703 411.411 321.331 411.5 320.878C411.589 320.419 411.633 319.872 411.633 319.237ZM420.492 312.471H420.617V313.698H420.492C419.727 313.698 419.086 313.823 418.57 314.073C418.055 314.318 417.646 314.649 417.344 315.065C417.042 315.477 416.823 315.94 416.688 316.456C416.557 316.971 416.492 317.495 416.492 318.026V319.698C416.492 320.203 416.552 320.651 416.672 321.042C416.792 321.427 416.956 321.753 417.164 322.018C417.372 322.284 417.607 322.484 417.867 322.62C418.133 322.755 418.409 322.823 418.695 322.823C419.029 322.823 419.326 322.76 419.586 322.635C419.846 322.505 420.065 322.326 420.242 322.096C420.424 321.862 420.562 321.586 420.656 321.268C420.75 320.951 420.797 320.602 420.797 320.221C420.797 319.883 420.755 319.557 420.672 319.245C420.589 318.927 420.461 318.646 420.289 318.401C420.117 318.151 419.901 317.956 419.641 317.815C419.385 317.669 419.081 317.596 418.727 317.596C418.326 317.596 417.951 317.695 417.602 317.893C417.258 318.086 416.974 318.341 416.75 318.659C416.531 318.971 416.406 319.313 416.375 319.682L415.609 319.675C415.682 319.091 415.818 318.594 416.016 318.182C416.219 317.766 416.469 317.427 416.766 317.167C417.068 316.901 417.404 316.708 417.773 316.589C418.148 316.464 418.544 316.401 418.961 316.401C419.529 316.401 420.018 316.508 420.43 316.721C420.841 316.935 421.18 317.221 421.445 317.581C421.711 317.935 421.906 318.336 422.031 318.784C422.161 319.227 422.227 319.682 422.227 320.151C422.227 320.688 422.151 321.19 422 321.659C421.849 322.128 421.622 322.539 421.32 322.893C421.023 323.247 420.656 323.524 420.219 323.721C419.781 323.919 419.273 324.018 418.695 324.018C418.081 324.018 417.544 323.893 417.086 323.643C416.628 323.388 416.247 323.05 415.945 322.628C415.643 322.206 415.417 321.737 415.266 321.221C415.115 320.706 415.039 320.182 415.039 319.651V318.971C415.039 318.169 415.12 317.383 415.281 316.612C415.443 315.841 415.721 315.143 416.117 314.518C416.518 313.893 417.073 313.396 417.781 313.026C418.49 312.656 419.393 312.471 420.492 312.471ZM429.133 312.487L424.391 324.839H423.148L427.898 312.487H429.133ZM438.008 322.675V323.862H430.562V322.823L434.289 318.675C434.747 318.164 435.102 317.732 435.352 317.378C435.607 317.018 435.784 316.698 435.883 316.417C435.987 316.13 436.039 315.839 436.039 315.542C436.039 315.167 435.961 314.828 435.805 314.526C435.654 314.219 435.43 313.974 435.133 313.792C434.836 313.609 434.477 313.518 434.055 313.518C433.549 313.518 433.128 313.617 432.789 313.815C432.456 314.008 432.206 314.279 432.039 314.628C431.872 314.977 431.789 315.378 431.789 315.831H430.344C430.344 315.19 430.484 314.604 430.766 314.073C431.047 313.542 431.464 313.12 432.016 312.807C432.568 312.49 433.247 312.331 434.055 312.331C434.773 312.331 435.388 312.458 435.898 312.714C436.409 312.964 436.799 313.318 437.07 313.776C437.346 314.229 437.484 314.76 437.484 315.37C437.484 315.703 437.427 316.042 437.312 316.385C437.203 316.724 437.049 317.063 436.852 317.401C436.659 317.74 436.432 318.073 436.172 318.401C435.917 318.729 435.643 319.052 435.352 319.37L432.305 322.675H438.008ZM447.242 320.034V321.221H439.023V320.37L444.117 312.487H445.297L444.031 314.768L440.664 320.034H447.242ZM445.656 312.487V323.862H444.211V312.487H445.656Z" fill="#707070"/>
<path d="M476.086 317.268V319.003C476.086 319.935 476.003 320.721 475.836 321.362C475.669 322.003 475.43 322.518 475.117 322.909C474.805 323.3 474.427 323.583 473.984 323.76C473.547 323.932 473.052 324.018 472.5 324.018C472.062 324.018 471.659 323.964 471.289 323.854C470.919 323.745 470.586 323.57 470.289 323.331C469.997 323.086 469.747 322.768 469.539 322.378C469.331 321.987 469.172 321.513 469.062 320.956C468.953 320.399 468.898 319.747 468.898 319.003V317.268C468.898 316.336 468.982 315.555 469.148 314.925C469.32 314.294 469.562 313.789 469.875 313.409C470.188 313.024 470.562 312.747 471 312.581C471.443 312.414 471.938 312.331 472.484 312.331C472.927 312.331 473.333 312.385 473.703 312.495C474.078 312.599 474.411 312.768 474.703 313.003C474.995 313.232 475.242 313.539 475.445 313.925C475.654 314.305 475.812 314.771 475.922 315.323C476.031 315.875 476.086 316.524 476.086 317.268ZM474.633 319.237V317.026C474.633 316.516 474.602 316.068 474.539 315.682C474.482 315.292 474.396 314.958 474.281 314.682C474.167 314.406 474.021 314.182 473.844 314.01C473.672 313.839 473.471 313.714 473.242 313.635C473.018 313.552 472.766 313.51 472.484 313.51C472.141 313.51 471.836 313.576 471.57 313.706C471.305 313.831 471.081 314.031 470.898 314.307C470.721 314.583 470.586 314.945 470.492 315.393C470.398 315.841 470.352 316.385 470.352 317.026V319.237C470.352 319.747 470.38 320.198 470.438 320.589C470.5 320.979 470.591 321.318 470.711 321.604C470.831 321.885 470.977 322.117 471.148 322.3C471.32 322.482 471.518 322.617 471.742 322.706C471.971 322.789 472.224 322.831 472.5 322.831C472.854 322.831 473.164 322.763 473.43 322.628C473.695 322.492 473.917 322.281 474.094 321.995C474.276 321.703 474.411 321.331 474.5 320.878C474.589 320.419 474.633 319.872 474.633 319.237ZM485.297 312.487V313.3L480.586 323.862H479.062L483.766 313.675H477.609V312.487H485.297ZM492.133 312.487L487.391 324.839H486.148L490.898 312.487H492.133ZM501.008 322.675V323.862H493.562V322.823L497.289 318.675C497.747 318.164 498.102 317.732 498.352 317.378C498.607 317.018 498.784 316.698 498.883 316.417C498.987 316.13 499.039 315.839 499.039 315.542C499.039 315.167 498.961 314.828 498.805 314.526C498.654 314.219 498.43 313.974 498.133 313.792C497.836 313.609 497.477 313.518 497.055 313.518C496.549 313.518 496.128 313.617 495.789 313.815C495.456 314.008 495.206 314.279 495.039 314.628C494.872 314.977 494.789 315.378 494.789 315.831H493.344C493.344 315.19 493.484 314.604 493.766 314.073C494.047 313.542 494.464 313.12 495.016 312.807C495.568 312.49 496.247 312.331 497.055 312.331C497.773 312.331 498.388 312.458 498.898 312.714C499.409 312.964 499.799 313.318 500.07 313.776C500.346 314.229 500.484 314.76 500.484 315.37C500.484 315.703 500.427 316.042 500.312 316.385C500.203 316.724 500.049 317.063 499.852 317.401C499.659 317.74 499.432 318.073 499.172 318.401C498.917 318.729 498.643 319.052 498.352 319.37L495.305 322.675H501.008ZM510.242 320.034V321.221H502.023V320.37L507.117 312.487H508.297L507.031 314.768L503.664 320.034H510.242ZM508.656 312.487V323.862H507.211V312.487H508.656Z" fill="#707070"/>
<rect x="90" y="87.2395" width="1" height="210.592" fill="#D9D9D9"/>
<rect x="508" y="292.817" width="1.00284" height="422" transform="rotate(90 508 292.817)" fill="#D9D9D9"/>
<rect x="91.2507" y="251.952" width="416.499" height="0.501408" stroke="#D9D9D9" stroke-width="0.501408" stroke-dasharray="2 2"/>
<rect x="91.2507" y="210.837" width="416.499" height="0.501408" stroke="#D9D9D9" stroke-width="0.501408" stroke-dasharray="2 2"/>
<rect x="91.2507" y="169.721" width="416.499" height="0.501408" stroke="#D9D9D9" stroke-width="0.501408" stroke-dasharray="2 2"/>
<rect x="91.2507" y="128.606" width="416.499" height="0.501408" stroke="#D9D9D9" stroke-width="0.501408" stroke-dasharray="2 2"/>
<rect x="91.2507" y="87.4902" width="416.499" height="0.501408" stroke="#D9D9D9" stroke-width="0.501408" stroke-dasharray="2 2"/>
<rect x="98" y="157.437" width="13" height="135.38" fill="#FFAF00"/>
<rect x="111" y="152.423" width="13" height="140.394" fill="#F46920"/>
<rect x="161" y="163.454" width="13" height="129.363" fill="#FFAF00"/>
<rect x="174" y="193.538" width="13" height="99.2789" fill="#F46920"/>
<rect x="224" y="213.594" width="13" height="79.2225" fill="#FFAF00"/>
<rect x="237" y="189.527" width="13" height="103.29" fill="#F46920"/>
<rect x="287" y="160.445" width="13" height="132.372" fill="#FFAF00"/>
<rect x="300" y="152.423" width="13" height="140.394" fill="#F46920"/>
<rect x="350" y="189.527" width="13" height="103.29" fill="#FFAF00"/>
<rect x="363" y="175.487" width="13" height="117.33" fill="#F46920"/>
<rect x="413" y="157.437" width="13" height="135.38" fill="#FFAF00"/>
<rect x="426" y="152.423" width="13" height="140.394" fill="#F46920"/>
<rect x="476" y="163.454" width="13" height="129.363" fill="#FFAF00"/>
<rect x="489" y="286.8" width="13" height="6.0169" fill="#F46920"/>
<defs>
<filter id="filter0_d_233_9410" x="0" y="0" width="545" height="364" filterUnits="userSpaceOnUse" color-interpolation-filters="sRGB">
<feFlood flood-opacity="0" result="BackgroundImageFix"/>
<feColorMatrix in="SourceAlpha" type="matrix" values="0 0 0 0 0 0 0 0 0 0 0 0 0 0 0 0 0 0 127 0" result="hardAlpha"/>
<feOffset dx="-2" dy="2"/>
<feGaussianBlur stdDeviation="2"/>
<feComposite in2="hardAlpha" operator="out"/>
<feColorMatrix type="matrix" values="0 0 0 0 0 0 0 0 0 0 0 0 0 0 0 0 0 0 0.05 0"/>
<feBlend mode="normal" in2="BackgroundImageFix" result="effect1_dropShadow_233_9410"/>
<feBlend mode="normal" in="SourceGraphic" in2="effect1_dropShadow_233_9410" result="shape"/>
</filter>
</defs>
</svg>
