<svg width="38" height="42" viewBox="0 0 38 42" fill="none" xmlns="http://www.w3.org/2000/svg">
<path d="M4.41667 41.8334C3.27083 41.8334 2.28993 41.4254 1.47396 40.6095C0.657986 39.7935 0.25 38.8126 0.25 37.6667V8.50008C0.25 7.35425 0.657986 6.37335 1.47396 5.55737C2.28993 4.7414 3.27083 4.33342 4.41667 4.33342H6.5V0.166748H10.6667V4.33342H27.3333V0.166748H31.5V4.33342H33.5833C34.7292 4.33342 35.7101 4.7414 36.526 5.55737C37.342 6.37335 37.75 7.35425 37.75 8.50008V37.6667C37.75 38.8126 37.342 39.7935 36.526 40.6095C35.7101 41.4254 34.7292 41.8334 33.5833 41.8334H4.41667ZM4.41667 37.6667H33.5833V16.8334H4.41667V37.6667ZM4.41667 12.6667H33.5833V8.50008H4.41667V12.6667ZM19 25.1667C18.4097 25.1667 17.9149 24.9671 17.5156 24.5678C17.1163 24.1685 16.9167 23.6737 16.9167 23.0834C16.9167 22.4931 17.1163 21.9983 17.5156 21.599C17.9149 21.1997 18.4097 21.0001 19 21.0001C19.5903 21.0001 20.0851 21.1997 20.4844 21.599C20.8837 21.9983 21.0833 22.4931 21.0833 23.0834C21.0833 23.6737 20.8837 24.1685 20.4844 24.5678C20.0851 24.9671 19.5903 25.1667 19 25.1667ZM10.6667 25.1667C10.0764 25.1667 9.5816 24.9671 9.18229 24.5678C8.78299 24.1685 8.58333 23.6737 8.58333 23.0834C8.58333 22.4931 8.78299 21.9983 9.18229 21.599C9.5816 21.1997 10.0764 21.0001 10.6667 21.0001C11.2569 21.0001 11.7517 21.1997 12.151 21.599C12.5503 21.9983 12.75 22.4931 12.75 23.0834C12.75 23.6737 12.5503 24.1685 12.151 24.5678C11.7517 24.9671 11.2569 25.1667 10.6667 25.1667ZM27.3333 25.1667C26.7431 25.1667 26.2483 24.9671 25.849 24.5678C25.4497 24.1685 25.25 23.6737 25.25 23.0834C25.25 22.4931 25.4497 21.9983 25.849 21.599C26.2483 21.1997 26.7431 21.0001 27.3333 21.0001C27.9236 21.0001 28.4184 21.1997 28.8177 21.599C29.217 21.9983 29.4167 22.4931 29.4167 23.0834C29.4167 23.6737 29.217 24.1685 28.8177 24.5678C28.4184 24.9671 27.9236 25.1667 27.3333 25.1667ZM19 33.5001C18.4097 33.5001 17.9149 33.3004 17.5156 32.9011C17.1163 32.5018 16.9167 32.007 16.9167 31.4167C16.9167 30.8265 17.1163 30.3317 17.5156 29.9324C17.9149 29.5331 18.4097 29.3334 19 29.3334C19.5903 29.3334 20.0851 29.5331 20.4844 29.9324C20.8837 30.3317 21.0833 30.8265 21.0833 31.4167C21.0833 32.007 20.8837 32.5018 20.4844 32.9011C20.0851 33.3004 19.5903 33.5001 19 33.5001ZM10.6667 33.5001C10.0764 33.5001 9.5816 33.3004 9.18229 32.9011C8.78299 32.5018 8.58333 32.007 8.58333 31.4167C8.58333 30.8265 8.78299 30.3317 9.18229 29.9324C9.5816 29.5331 10.0764 29.3334 10.6667 29.3334C11.2569 29.3334 11.7517 29.5331 12.151 29.9324C12.5503 30.3317 12.75 30.8265 12.75 31.4167C12.75 32.007 12.5503 32.5018 12.151 32.9011C11.7517 33.3004 11.2569 33.5001 10.6667 33.5001ZM27.3333 33.5001C26.7431 33.5001 26.2483 33.3004 25.849 32.9011C25.4497 32.5018 25.25 32.007 25.25 31.4167C25.25 30.8265 25.4497 30.3317 25.849 29.9324C26.2483 29.5331 26.7431 29.3334 27.3333 29.3334C27.9236 29.3334 28.4184 29.5331 28.8177 29.9324C29.217 30.3317 29.4167 30.8265 29.4167 31.4167C29.4167 32.007 29.217 32.5018 28.8177 32.9011C28.4184 33.3004 27.9236 33.5001 27.3333 33.5001Z" fill="white"/>
</svg>

