<svg width="42" height="42" viewBox="0 0 42 42" fill="none" xmlns="http://www.w3.org/2000/svg">
  <path d="M12.5833 41.8334C11.4374 41.8334 10.4565 41.4254 9.64054 40.6095C8.82457 39.7935 8.41658 38.8126 8.41658 37.6667C8.41658 36.5209 8.82457 35.54 9.64054 34.724C10.4565 33.9081 11.4374 33.5001 12.5833 33.5001C13.7291 33.5001 14.71 33.9081 15.526 34.724C16.3419 35.54 16.7499 36.5209 16.7499 37.6667C16.7499 38.8126 16.3419 39.7935 15.526 40.6095C14.71 41.4254 13.7291 41.8334 12.5833 41.8334ZM33.4166 41.8334C32.2708 41.8334 31.2898 41.4254 30.4739 40.6095C29.6579 39.7935 29.2499 38.8126 29.2499 37.6667C29.2499 36.5209 29.6579 35.54 30.4739 34.724C31.2898 33.9081 32.2708 33.5001 33.4166 33.5001C34.5624 33.5001 35.5433 33.9081 36.3593 34.724C37.1753 35.54 37.5833 36.5209 37.5833 37.6667C37.5833 38.8126 37.1753 39.7935 36.3593 40.6095C35.5433 41.4254 34.5624 41.8334 33.4166 41.8334ZM10.8124 8.50008L15.8124 18.9167H30.3958L36.1249 8.50008H10.8124ZM8.83325 4.33342H39.5624C40.361 4.33342 40.9687 4.68932 41.3853 5.40112C41.802 6.11293 41.8194 6.83342 41.4374 7.56258L34.0416 20.8959C33.6596 21.5904 33.1475 22.1286 32.5051 22.5105C31.8628 22.8924 31.1596 23.0834 30.3958 23.0834H14.8749L12.5833 27.2501H37.5833V31.4167H12.5833C11.0208 31.4167 9.8402 30.731 9.04158 29.3595C8.24297 27.9879 8.20825 26.6251 8.93742 25.2709L11.7499 20.1667L4.24992 4.33342H0.083252V0.166748H6.85408L8.83325 4.33342Z" fill="white"/>
</svg>

