<svg width="38" height="38" viewBox="0 0 38 38" fill="none" xmlns="http://www.w3.org/2000/svg">
<path d="M19 37.75C14.2083 37.75 10.033 36.1615 6.47396 32.9844C2.91493 29.8073 0.875 25.8403 0.354167 21.0833H4.625C5.11111 24.6944 6.71701 27.6806 9.44271 30.0417C12.1684 32.4028 15.3542 33.5833 19 33.5833C23.0625 33.5833 26.5087 32.1684 29.3385 29.3385C32.1684 26.5087 33.5833 23.0625 33.5833 19C33.5833 14.9375 32.1684 11.4913 29.3385 8.66146C26.5087 5.8316 23.0625 4.41667 19 4.41667C16.6042 4.41667 14.3646 4.97222 12.2812 6.08333C10.1979 7.19444 8.44444 8.72222 7.02083 10.6667H12.75V14.8333H0.25V2.33333H4.41667V7.22917C6.1875 5.00694 8.34896 3.28819 10.901 2.07292C13.4531 0.857639 16.1528 0.25 19 0.25C21.6042 0.25 24.0434 0.744792 26.3177 1.73438C28.592 2.72396 30.5712 4.06076 32.2552 5.74479C33.9392 7.42882 35.276 9.40799 36.2656 11.6823C37.2552 13.9566 37.75 16.3958 37.75 19C37.75 21.6042 37.2552 24.0434 36.2656 26.3177C35.276 28.592 33.9392 30.5712 32.2552 32.2552C30.5712 33.9392 28.592 35.276 26.3177 36.2656C24.0434 37.2552 21.6042 37.75 19 37.75ZM24.8333 27.75L16.9167 19.8333V8.58333H21.0833V18.1667L27.75 24.8333L24.8333 27.75Z" fill="white"/>
</svg>

