<svg width="187" height="72" viewBox="0 0 187 72" fill="none" xmlns="http://www.w3.org/2000/svg">
<g clip-path="url(#clip0_301_1493)">
<path d="M112.602 57.8864H117.094L119.591 45.4669H115.098L112.602 57.8864ZM115.345 43.9857H119.856L120.598 40.2698H116.088L115.345 43.9857ZM118.842 61.3812H123.335L126.08 47.9632H129.449L129.946 45.4669H126.641L126.766 44.9054C126.953 43.8469 127.328 42.6584 129.012 42.6584C130.012 42.6584 130.947 42.7208 131.883 43.1577L132.382 40.5368C131.34 40.1689 130.243 39.9788 129.137 39.9746C125.518 39.9746 123.023 42.0969 122.086 45.4669H120.527L120.028 47.9632H121.587L118.842 61.3812Z" fill="white"/>
<path d="M133.069 58.1365C138.373 58.1365 142.054 53.3304 142.054 49.3988C142.054 46.4656 139.371 45.2172 136.75 45.2172C130.946 45.2172 127.765 50.4002 127.765 53.9549C127.765 56.8881 130.511 58.1365 133.069 58.1365ZM147.297 58.1365C152.6 58.1365 156.282 53.3304 156.282 49.3988C156.282 46.4656 153.536 45.2172 150.915 45.2172C145.113 45.2172 141.931 50.3973 141.931 53.9549C141.931 56.8881 144.739 58.1365 147.297 58.1365ZM163.582 57.8866H168.012L171.63 40.2271H167.138L166.077 45.4695L164.205 45.2825C159.837 45.2825 155.844 50.8989 155.844 54.8934C155.844 56.5159 156.902 58.1389 158.714 58.1389C161.272 58.1389 163.082 56.8904 163.829 55.642H164.078L163.582 57.8866ZM149.729 67.1859C146.242 70.0757 141.763 71.4868 137.25 71.1176C131.322 70.743 127.079 66.1868 126.33 61.3813H126.579C127.952 64.3803 131.259 67.1859 135.315 67.6222C139.431 68.1215 144.363 66.2497 147.046 63.6906L144.051 61.3813H153.098L151.099 70.9929L149.789 67.2482L149.729 67.1859Z" fill="white"/>
</g>
<path d="M18.4904 56.1447C18.4904 56.2984 18.4135 56.3752 18.2598 56.3752H16.3328C16.1791 56.3752 16.1023 56.2984 16.1023 56.1447V44.7146C16.1023 44.5609 16.1791 44.484 16.3328 44.484H20.4009C21.3342 44.484 22.1467 44.6597 22.8384 45.0111C23.5301 45.3624 24.0627 45.851 24.436 46.4769C24.8093 47.1027 24.996 47.8164 24.996 48.618C24.996 49.4195 24.8093 50.1332 24.436 50.759C24.0627 51.3849 23.5246 51.8735 22.8219 52.2249C22.1302 52.5762 21.3232 52.7519 20.4009 52.7519H18.4904V56.1447ZM20.4009 50.512C21.0926 50.512 21.6196 50.3418 21.982 50.0014C22.3553 49.6611 22.5419 49.1999 22.5419 48.618C22.5419 48.047 22.3553 47.5913 21.982 47.251C21.6087 46.8996 21.0816 46.7239 20.4009 46.7239H18.4904V50.512H20.4009ZM30.1675 56.5894C29.333 56.5894 28.5919 56.4027 27.944 56.0294C27.2962 55.6561 26.7966 55.1345 26.4453 54.4647C26.0939 53.784 25.9183 53.0099 25.9183 52.1425C25.9183 51.308 26.0939 50.5559 26.4453 49.8861C26.8076 49.2054 27.3127 48.6729 27.9605 48.2886C28.6083 47.9043 29.344 47.7121 30.1675 47.7121C31.0019 47.7121 31.7376 47.8988 32.3744 48.2721C33.0222 48.6454 33.5218 49.1724 33.8732 49.8532C34.2245 50.523 34.4002 51.2861 34.4002 52.1425C34.4002 52.988 34.219 53.7511 33.8567 54.4318C33.5054 55.1016 33.0058 55.6286 32.358 56.0129C31.7211 56.3972 30.991 56.5894 30.1675 56.5894ZM30.1675 54.5306C30.7604 54.5306 31.2325 54.3165 31.5839 53.8883C31.9462 53.4601 32.1274 52.8836 32.1274 52.159C32.1274 51.4453 31.9462 50.8688 31.5839 50.4296C31.2215 49.9904 30.7494 49.7709 30.1675 49.7709C29.5855 49.7709 29.1079 49.9904 28.7346 50.4296C28.3723 50.8579 28.1911 51.4233 28.1911 52.126C28.1911 52.8507 28.3723 53.4326 28.7346 53.8718C29.1079 54.311 29.5855 54.5306 30.1675 54.5306ZM39.8682 56.1776C39.8352 56.3094 39.7474 56.3752 39.6047 56.3752H37.6777C37.5459 56.3752 37.4636 56.3094 37.4307 56.1776L35.2731 48.1897C35.2621 48.1678 35.2566 48.1403 35.2566 48.1074C35.2566 48.0525 35.2731 48.0086 35.3061 47.9756C35.35 47.9427 35.4049 47.9262 35.4707 47.9262H37.2989C37.4416 47.9262 37.5295 47.9921 37.5624 48.1239L38.88 53.5918L40.3293 48.9309C40.3623 48.7991 40.4501 48.7333 40.5929 48.7333H42.1904C42.3332 48.7333 42.421 48.7991 42.4539 48.9309L43.9198 53.6083L45.2703 48.1239C45.3032 47.9921 45.3856 47.9262 45.5173 47.9262H47.1973C47.2741 47.9262 47.329 47.9537 47.362 48.0086C47.4059 48.0525 47.4169 48.1129 47.3949 48.1897L45.2209 56.1776C45.1879 56.3094 45.1056 56.3752 44.9738 56.3752H43.0469C42.9041 56.3752 42.8163 56.3094 42.7833 56.1776L41.3175 51.5331L39.8682 56.1776ZM52.5664 56.5894C51.7319 56.5894 50.9908 56.4027 50.343 56.0294C49.6952 55.6561 49.1846 55.1345 48.8113 54.4647C48.449 53.784 48.2678 53.0044 48.2678 52.126C48.2678 51.2916 48.438 50.5394 48.7784 49.8697C49.1297 49.1999 49.6183 48.6729 50.2442 48.2886C50.881 47.9043 51.6057 47.7121 52.4182 47.7121C53.1868 47.7121 53.8566 47.8878 54.4275 48.2392C55.0094 48.5905 55.4596 49.0736 55.778 49.6885C56.0964 50.3034 56.2557 51.0061 56.2557 51.7966C56.2557 51.9394 56.2447 52.1645 56.2227 52.4719C56.2117 52.6146 56.1294 52.686 55.9757 52.686H50.5242C50.601 53.3119 50.8316 53.8005 51.2159 54.1518C51.6002 54.5032 52.0778 54.6789 52.6488 54.6789C53.3734 54.6789 53.9334 54.3879 54.3287 53.806C54.4165 53.6852 54.5208 53.6577 54.6416 53.7236L55.9921 54.3659C56.1349 54.4428 56.1843 54.5251 56.1404 54.613C55.8329 55.2169 55.3773 55.7 54.7734 56.0623C54.1695 56.4137 53.4338 56.5894 52.5664 56.5894ZM54.0981 51.1214C54.0432 50.6053 53.862 50.21 53.5546 49.9355C53.2472 49.6501 52.8629 49.5073 52.4017 49.5073C51.9406 49.5073 51.5453 49.6556 51.2159 49.952C50.8975 50.2375 50.6779 50.6273 50.5571 51.1214H54.0981ZM60.3402 56.1447C60.3402 56.2984 60.2633 56.3752 60.1096 56.3752H58.3308C58.1771 56.3752 58.1003 56.2984 58.1003 56.1447V48.1568C58.1003 48.0031 58.1771 47.9262 58.3308 47.9262H60.0272C60.181 47.9262 60.2578 48.0031 60.2578 48.1568V49.2768C60.6421 48.8815 61.0319 48.5576 61.4272 48.305C61.8334 48.0415 62.2726 47.8439 62.7448 47.7121L62.8106 47.6957C62.9204 47.6957 62.9918 47.7615 63.0247 47.8933L63.3706 49.7379L63.3871 49.8203C63.3871 49.9191 63.3212 49.9795 63.1894 50.0014C62.6075 50.0783 62.086 50.2046 61.6248 50.3802C61.1637 50.5559 60.7354 50.7975 60.3402 51.1049V56.1447ZM68.4927 56.5894C67.6582 56.5894 66.9171 56.4027 66.2693 56.0294C65.6215 55.6561 65.1109 55.1345 64.7376 54.4647C64.3753 53.784 64.1941 53.0044 64.1941 52.126C64.1941 51.2916 64.3643 50.5394 64.7047 49.8697C65.056 49.1999 65.5446 48.6729 66.1705 48.2886C66.8073 47.9043 67.532 47.7121 68.3445 47.7121C69.1131 47.7121 69.7829 47.8878 70.3538 48.2392C70.9357 48.5905 71.3859 49.0736 71.7043 49.6885C72.0227 50.3034 72.182 51.0061 72.182 51.7966C72.182 51.9394 72.171 52.1645 72.149 52.4719C72.138 52.6146 72.0557 52.686 71.902 52.686H66.4505C66.5273 53.3119 66.7579 53.8005 67.1422 54.1518C67.5265 54.5032 68.0041 54.6789 68.5751 54.6789C69.2997 54.6789 69.8597 54.3879 70.255 53.806C70.3428 53.6852 70.4471 53.6577 70.5679 53.7236L71.9184 54.3659C72.0612 54.4428 72.1106 54.5251 72.0667 54.613C71.7592 55.2169 71.3036 55.7 70.6997 56.0623C70.0958 56.4137 69.3601 56.5894 68.4927 56.5894ZM70.0244 51.1214C69.9695 50.6053 69.7883 50.21 69.4809 49.9355C69.1735 49.6501 68.7892 49.5073 68.328 49.5073C67.8669 49.5073 67.4716 49.6556 67.1422 49.952C66.8238 50.2375 66.6042 50.6273 66.4834 51.1214H70.0244ZM77.337 56.5894C76.6453 56.5894 76.0139 56.4137 75.443 56.0623C74.872 55.7 74.4164 55.1839 74.076 54.5142C73.7466 53.8444 73.5819 53.0593 73.5819 52.159C73.5819 51.3135 73.7466 50.5559 74.076 49.8861C74.4054 49.2054 74.861 48.6729 75.443 48.2886C76.0249 47.9043 76.6892 47.7121 77.4358 47.7121C78.4021 47.7121 79.1212 48.036 79.5934 48.6838V44.4017C79.5934 44.248 79.6702 44.1711 79.8239 44.1711H81.6027C81.7564 44.1711 81.8333 44.248 81.8333 44.4017V56.1447C81.8333 56.2984 81.7564 56.3752 81.6027 56.3752H79.9392C79.7855 56.3752 79.7087 56.2984 79.7087 56.1447V55.4365C79.4451 55.7988 79.1048 56.0843 78.6875 56.2929C78.2813 56.4905 77.8311 56.5894 77.337 56.5894ZM77.7817 54.5306C78.166 54.5306 78.5119 54.4373 78.8193 54.2506C79.1377 54.053 79.3957 53.784 79.5934 53.4436V51.6319C79.5934 51.061 79.4287 50.6108 79.0993 50.2814C78.7809 49.941 78.3526 49.7709 77.8146 49.7709C77.2327 49.7709 76.7606 49.985 76.3982 50.4132C76.0359 50.8304 75.8547 51.4069 75.8547 52.1425C75.8547 52.8782 76.0304 53.4601 76.3818 53.8883C76.7441 54.3165 77.2107 54.5306 77.7817 54.5306ZM92.901 56.5894C92.341 56.5894 91.8634 56.485 91.4681 56.2764C91.0838 56.0568 90.7873 55.7714 90.5787 55.42V56.1447C90.5787 56.2984 90.5019 56.3752 90.3482 56.3752H88.6847C88.531 56.3752 88.4541 56.2984 88.4541 56.1447V44.4017C88.4541 44.248 88.531 44.1711 88.6847 44.1711H90.4634C90.6172 44.1711 90.694 44.248 90.694 44.4017V48.7333C90.9795 48.4148 91.3199 48.1678 91.7151 47.9921C92.1104 47.8055 92.5386 47.7121 92.9998 47.7121C93.6915 47.7121 94.3174 47.8933 94.8774 48.2556C95.4483 48.607 95.8985 49.1175 96.2279 49.7873C96.5573 50.4571 96.722 51.2476 96.722 52.159C96.722 52.9934 96.5573 53.7511 96.2279 54.4318C95.9095 55.1016 95.4593 55.6286 94.8774 56.0129C94.2954 56.3972 93.6366 56.5894 92.901 56.5894ZM92.5222 54.5306C93.0821 54.5306 93.5378 54.322 93.8892 53.9048C94.2515 53.4766 94.4327 52.8946 94.4327 52.159C94.4327 51.4233 94.2625 50.8414 93.9221 50.4132C93.5817 49.985 93.1261 49.7709 92.5551 49.7709C92.1708 49.7709 91.814 49.8697 91.4846 50.0673C91.1552 50.254 90.8917 50.5175 90.694 50.8579V52.6695C90.694 53.2405 90.8642 53.6962 91.2046 54.0365C91.545 54.3659 91.9842 54.5306 92.5222 54.5306ZM98.0725 60.0315C97.9956 60.0315 97.9352 60.0151 97.8913 59.9821C97.8584 59.9492 97.8364 59.8943 97.8255 59.8174L97.6608 58.3022V58.2693C97.6608 58.1485 97.7266 58.0771 97.8584 58.0552L98.2372 58.0058C98.7642 57.9399 99.1705 57.852 99.456 57.7422C99.7414 57.6324 99.961 57.4842 100.115 57.2976C100.268 57.1219 100.411 56.8693 100.543 56.5399L100.691 56.1776L97.3643 48.1897C97.3533 48.1678 97.3478 48.1348 97.3478 48.0909C97.3478 47.9811 97.4137 47.9262 97.5455 47.9262H99.5548C99.6756 47.9262 99.7634 47.9866 99.8183 48.1074L101.877 53.6742L103.853 48.1074C103.908 47.9866 103.996 47.9262 104.117 47.9262H105.929C106.016 47.9262 106.077 47.9537 106.11 48.0086C106.143 48.0525 106.143 48.1129 106.11 48.1897L102.618 57.034C102.388 57.616 102.108 58.0991 101.778 58.4834C101.46 58.8787 101.032 59.2026 100.494 59.4551C99.9555 59.7076 99.2748 59.8888 98.4513 59.9986L98.0725 60.0315Z" fill="white"/>
<path d="M7.35212 30.3325C7.35212 30.52 7.29856 30.6807 7.19142 30.8146C7.08429 30.9218 6.92358 30.9753 6.70931 30.9753H1.32579C1.13831 30.9753 0.977605 30.9218 0.843686 30.8146C0.736551 30.6807 0.682984 30.52 0.682984 30.3325V10.8876C0.682984 10.6733 0.736551 10.5126 0.843686 10.4055C0.977605 10.2983 1.13831 10.2448 1.32579 10.2448H6.70931C6.92358 10.2448 7.08429 10.2983 7.19142 10.4055C7.29856 10.5126 7.35212 10.6733 7.35212 10.8876V30.3325ZM3.97738 7.35212C2.7989 7.35212 1.83468 7.01733 1.08474 6.34773C0.36158 5.67814 0 4.78089 0 3.65597C0 2.55784 0.36158 1.67398 1.08474 1.00439C1.83468 0.334796 2.7989 0 3.97738 0C5.15586 0 6.10668 0.334796 6.82984 1.00439C7.553 1.67398 7.91458 2.55784 7.91458 3.65597C7.91458 4.75411 7.553 5.65136 6.82984 6.34773C6.10668 7.01733 5.15586 7.35212 3.97738 7.35212Z" fill="white"/>
<path d="M19.9672 30.3325C19.9672 30.52 19.9137 30.6807 19.8065 30.8146C19.6994 30.9218 19.5387 30.9753 19.3244 30.9753H13.5392C13.3517 30.9753 13.191 30.9218 13.057 30.8146C12.9499 30.6807 12.8963 30.52 12.8963 30.3325V2.61141C12.8963 2.39714 12.9499 2.23644 13.057 2.1293C13.191 2.02217 13.3517 1.9686 13.5392 1.9686H32.9439C33.1582 1.9686 33.3189 2.02217 33.426 2.1293C33.5332 2.23644 33.5867 2.39714 33.5867 2.61141V7.99493C33.5867 8.18242 33.5332 8.34312 33.426 8.47704C33.3189 8.58417 33.1582 8.63774 32.9439 8.63774H19.9672V14.4632H31.0155C31.2298 14.4632 31.3905 14.5168 31.4976 14.6239C31.6048 14.731 31.6583 14.8917 31.6583 15.106V20.4895C31.6583 20.677 31.6048 20.8377 31.4976 20.9716C31.3905 21.0788 31.2298 21.1323 31.0155 21.1323H19.9672V30.3325Z" fill="white"/>
<path d="M44.6752 30.3325C44.6752 30.52 44.6216 30.6807 44.5145 30.8146C44.4074 30.9218 44.2467 30.9753 44.0324 30.9753H38.6489C38.4614 30.9753 38.3007 30.9218 38.1668 30.8146C38.0596 30.6807 38.0061 30.52 38.0061 30.3325V10.8876C38.0061 10.6733 38.0596 10.5126 38.1668 10.4055C38.3007 10.2983 38.4614 10.2448 38.6489 10.2448H44.0324C44.2467 10.2448 44.4074 10.2983 44.5145 10.4055C44.6216 10.5126 44.6752 10.6733 44.6752 10.8876V30.3325ZM41.3004 7.35212C40.122 7.35212 39.1578 7.01733 38.4078 6.34773C37.6847 5.67814 37.3231 4.78089 37.3231 3.65597C37.3231 2.55784 37.6847 1.67398 38.4078 1.00439C39.1578 0.334796 40.122 0 41.3004 0C42.4789 0 43.4298 0.334796 44.1529 1.00439C44.8761 1.67398 45.2377 2.55784 45.2377 3.65597C45.2377 4.75411 44.8761 5.65136 44.1529 6.34773C43.4298 7.01733 42.4789 7.35212 41.3004 7.35212Z" fill="white"/>
<path d="M56.527 30.3325C56.527 30.52 56.4734 30.6807 56.3663 30.8146C56.2591 30.9218 56.0984 30.9753 55.8842 30.9753H50.5408C50.3533 30.9753 50.1926 30.9218 50.0587 30.8146C49.9516 30.6807 49.898 30.52 49.898 30.3325V10.8876C49.898 10.6733 49.9516 10.5126 50.0587 10.4055C50.1926 10.2983 50.3533 10.2448 50.5408 10.2448H55.6029C55.8172 10.2448 55.9779 10.2983 56.085 10.4055C56.1922 10.5126 56.2458 10.6733 56.2458 10.8876V12.7758C57.2635 11.6777 58.3081 10.8876 59.3794 10.4055C60.4508 9.89657 61.6427 9.64213 62.9551 9.64213C65.3388 9.64213 67.1735 10.4189 68.4591 11.9723C69.7715 13.499 70.4277 15.5881 70.4277 18.2397V30.3325C70.4277 30.52 70.3741 30.6807 70.267 30.8146C70.1599 30.9218 69.9992 30.9753 69.7849 30.9753H64.4416C64.2541 30.9753 64.0934 30.9218 63.9594 30.8146C63.8523 30.6807 63.7987 30.52 63.7987 30.3325V18.9227C63.7987 17.9049 63.5711 17.1282 63.1158 16.5925C62.6604 16.03 61.9908 15.7488 61.107 15.7488C60.3838 15.7488 59.6205 15.9497 58.817 16.3514C58.0135 16.7532 57.2501 17.3558 56.527 18.1593V30.3325Z" fill="white"/>
<path d="M81.476 31.578C80.11 31.578 78.878 31.3101 77.7798 30.7745C76.7085 30.2388 75.8648 29.5022 75.2488 28.5648C74.6595 27.6006 74.3649 26.5159 74.3649 25.3106C74.3649 23.5429 75.0077 22.1233 76.2933 21.052C77.579 19.9539 79.3333 19.311 81.5563 19.1236L86.7792 18.7218V18.4406C86.7792 17.4764 86.4979 16.7264 85.9355 16.1907C85.3998 15.6551 84.6097 15.3872 83.5651 15.3872C81.9313 15.3872 80.7394 15.9765 79.9895 17.155C79.7752 17.5031 79.494 17.6103 79.1458 17.4764L75.0479 15.9497C74.7533 15.8158 74.606 15.6417 74.606 15.4274C74.606 15.3738 74.6328 15.2667 74.6863 15.106C75.463 13.4454 76.6415 12.1196 78.2218 11.1286C79.802 10.1376 81.7304 9.64213 84.007 9.64213C85.9087 9.64213 87.5425 10.0037 88.9085 10.7269C90.3012 11.45 91.3592 12.4544 92.0823 13.74C92.8323 15.0257 93.2072 16.4988 93.2072 18.1593V21.5341C93.2072 22.9001 93.3412 24.1187 93.609 25.1901C93.9036 26.2614 94.3723 27.3729 95.0151 28.5246C95.0955 28.6853 95.1357 28.8193 95.1357 28.9264C95.1357 29.1139 95.0151 29.2746 94.7741 29.4085L90.2744 31.4976L89.953 31.578C89.7388 31.578 89.5647 31.4708 89.4307 31.2566C88.7611 30.2388 88.279 29.2478 87.9844 28.2836C87.3148 29.2478 86.431 30.0379 85.3328 30.6539C84.2615 31.27 82.9759 31.578 81.476 31.578ZM82.9625 26.3552C84.5963 26.3552 85.8685 25.7123 86.7792 24.4267V22.5787L82.3598 23.1009C81.2349 23.2349 80.6725 23.7839 80.6725 24.7481C80.6725 25.2838 80.8734 25.6856 81.2751 25.9534C81.7036 26.2212 82.2661 26.3552 82.9625 26.3552Z" fill="white"/>
<path d="M105.139 30.3325C105.139 30.52 105.086 30.6807 104.979 30.8146C104.872 30.9218 104.711 30.9753 104.497 30.9753H99.1532C98.9657 30.9753 98.805 30.9218 98.6711 30.8146C98.564 30.6807 98.5104 30.52 98.5104 30.3325V10.8876C98.5104 10.6733 98.564 10.5126 98.6711 10.4055C98.805 10.2983 98.9657 10.2448 99.1532 10.2448H104.215C104.43 10.2448 104.59 10.2983 104.697 10.4055C104.805 10.5126 104.858 10.6733 104.858 10.8876V12.7758C105.876 11.6777 106.92 10.8876 107.992 10.4055C109.063 9.89657 110.255 9.64213 111.567 9.64213C113.951 9.64213 115.786 10.4189 117.072 11.9723C118.384 13.499 119.04 15.5881 119.04 18.2397V30.3325C119.04 30.52 118.987 30.6807 118.879 30.8146C118.772 30.9218 118.612 30.9753 118.397 30.9753H113.054C112.866 30.9753 112.706 30.9218 112.572 30.8146C112.465 30.6807 112.411 30.52 112.411 30.3325V18.9227C112.411 17.9049 112.183 17.1282 111.728 16.5925C111.273 16.03 110.603 15.7488 109.719 15.7488C108.996 15.7488 108.233 15.9497 107.429 16.3514C106.626 16.7532 105.863 17.3558 105.139 18.1593V30.3325Z" fill="white"/>
<path d="M133.785 31.578C131.669 31.578 129.794 31.1227 128.16 30.212C126.553 29.2746 125.294 27.9756 124.383 26.315C123.5 24.6544 123.058 22.7527 123.058 20.6101C123.058 18.5209 123.5 16.6461 124.383 14.9855C125.294 13.2981 126.566 11.9857 128.2 11.0483C129.834 10.1108 131.695 9.64213 133.785 9.64213C136.034 9.64213 137.882 10.1644 139.329 11.209C140.775 12.2535 141.86 13.6463 142.583 15.3872C142.637 15.5479 142.663 15.6417 142.663 15.6685C142.663 15.9095 142.516 16.097 142.221 16.2309L137.722 17.9585C137.561 18.012 137.467 18.0388 137.441 18.0388C137.253 18.0388 137.066 17.9049 136.878 17.6371C136.208 16.3782 135.177 15.7488 133.785 15.7488C132.579 15.7488 131.615 16.1907 130.892 17.0746C130.169 17.9317 129.807 19.0834 129.807 20.5297C129.807 22.0028 130.169 23.1947 130.892 24.1053C131.642 25.016 132.606 25.4713 133.785 25.4713C134.508 25.4713 135.164 25.2972 135.753 24.949C136.342 24.6008 136.824 24.1053 137.199 23.4625C137.414 23.0875 137.695 22.9804 138.043 23.1411L142.503 24.8285C142.904 25.016 143.052 25.2436 142.945 25.5115C142.195 27.2792 141.056 28.7389 139.53 29.8906C138.003 31.0155 136.088 31.578 133.785 31.578Z" fill="white"/>
<path d="M156.202 31.578C154.113 31.578 152.252 31.1227 150.618 30.212C148.984 29.3014 147.712 28.0157 146.801 26.3552C145.891 24.6678 145.435 22.726 145.435 20.5297C145.435 18.4674 145.851 16.6059 146.681 14.9453C147.538 13.2847 148.743 11.9857 150.297 11.0483C151.877 10.1108 153.698 9.64213 155.761 9.64213C157.716 9.64213 159.417 10.0841 160.863 10.9679C162.336 11.825 163.461 13.0303 164.238 14.5837C165.014 16.1104 165.403 17.8513 165.403 19.8065C165.403 20.1815 165.376 20.7172 165.322 21.4136C165.296 21.8153 165.068 22.0162 164.639 22.0162H152.064C152.252 23.275 152.734 24.266 153.511 24.9892C154.314 25.6856 155.305 26.0337 156.484 26.0337C157.957 26.0337 159.109 25.4445 159.939 24.266C160.1 24.0518 160.287 23.9446 160.501 23.9446L160.823 24.025L164.84 25.9132C165.242 26.1275 165.363 26.3552 165.202 26.5962C164.452 28.1229 163.327 29.3415 161.827 30.2522C160.327 31.136 158.452 31.578 156.202 31.578ZM159.095 18.1192C159.015 16.9943 158.667 16.1506 158.051 15.5881C157.461 14.9989 156.698 14.7042 155.761 14.7042C154.85 14.7042 154.06 15.0123 153.39 15.6283C152.747 16.2175 152.332 17.0478 152.145 18.1192H159.095Z" fill="white"/>
<path d="M176.973 31.578C172.875 31.578 169.983 30.1183 168.295 27.1988C168.242 27.1185 168.215 26.998 168.215 26.8373C168.215 26.623 168.322 26.4489 168.536 26.315L171.951 24.3464C172.085 24.266 172.206 24.2258 172.313 24.2258C172.5 24.2258 172.674 24.333 172.835 24.5473C173.344 25.2168 173.96 25.7123 174.683 26.0337C175.433 26.3552 176.237 26.5159 177.094 26.5159C177.951 26.5159 178.58 26.3953 178.982 26.1543C179.411 25.8864 179.625 25.5382 179.625 25.1097C179.625 24.6276 179.411 24.2794 178.982 24.0651C178.553 23.8509 177.723 23.6098 176.491 23.342C174.268 22.8063 172.393 22.0162 170.867 20.9716C169.367 19.9271 168.617 18.387 168.617 16.3514C168.617 15.0926 168.965 13.9543 169.661 12.9365C170.384 11.9187 171.402 11.1152 172.715 10.526C174.054 9.93675 175.607 9.64213 177.375 9.64213C181.285 9.64213 184.058 11.0617 185.691 13.9007C185.745 13.9811 185.772 14.0882 185.772 14.2221C185.772 14.4364 185.651 14.6105 185.41 14.7444L182.116 16.472L181.794 16.5523C181.607 16.5523 181.433 16.4452 181.272 16.2309C180.817 15.6685 180.268 15.2533 179.625 14.9855C178.982 14.6909 178.286 14.5435 177.536 14.5435C176.813 14.5435 176.237 14.6775 175.808 14.9453C175.406 15.1864 175.206 15.4944 175.206 15.8693C175.206 16.2979 175.406 16.6193 175.808 16.8336C176.237 17.0478 177.027 17.2889 178.178 17.5567C179.705 17.9585 181.018 18.4004 182.116 18.8825C183.214 19.3378 184.151 20.0342 184.928 20.9716C185.705 21.8823 186.093 23.0875 186.093 24.5874C186.093 25.8998 185.731 27.0917 185.008 28.1631C184.285 29.2344 183.241 30.0781 181.875 30.6941C180.509 31.2834 178.875 31.578 176.973 31.578Z" fill="white"/>
<defs>
<clipPath id="clip0_301_1493">
<rect width="59.0278" height="31.2004" fill="white" transform="translate(112.602 39.9746)"/>
</clipPath>
</defs>
</svg>
