<svg width="32" height="28" viewBox="0 0 32 28" fill="none" xmlns="http://www.w3.org/2000/svg">
<path d="M7.19961 13.8C12.866 13.8 16.7993 8.66629 16.7993 4.46662C16.7993 1.33352 13.9325 0 11.1329 0C4.93144 0 1.53326 5.53633 1.53326 9.33336C1.53326 12.4665 4.46662 13.8 7.19961 13.8ZM22.4003 13.8C28.0667 13.8 32 8.66629 32 4.46662C32 1.33352 29.0666 0 26.2664 0C20.0668 0 16.6674 5.53319 16.6674 9.33336C16.6674 12.4665 19.6673 13.8 22.4003 13.8ZM24.9989 23.4663C21.2734 26.553 16.4883 28.0603 11.6662 27.6659C5.33281 27.2658 0.799607 22.3991 0 17.266H0.266326C1.73301 20.4694 5.26623 23.4662 9.59969 23.9323C13.9966 24.4656 19.266 22.4663 22.1321 19.7327L18.9324 17.266H28.5987L26.463 27.5328L25.063 23.5328L24.9989 23.4663Z" fill="#EA1D2C"/>
</svg>
