<svg width="50" height="44" viewBox="0 0 50 44" fill="none" xmlns="http://www.w3.org/2000/svg">
<path d="M11.2494 21.5625C20.1031 21.5625 26.2489 13.5411 26.2489 6.9791C26.2489 2.08362 21.7696 0 17.3952 0C7.70537 0 2.39572 8.65051 2.39572 14.5834C2.39572 19.4789 6.97909 21.5625 11.2494 21.5625ZM35.0005 21.5625C43.8542 21.5625 50 13.5411 50 6.9791C50 2.08362 45.4166 0 41.0413 0C31.3544 0 26.0428 8.6456 26.0428 14.5834C26.0428 19.4789 30.7302 21.5625 35.0005 21.5625ZM39.0607 36.666C33.2396 41.4891 25.763 43.8442 18.2285 43.228C8.33251 42.6028 1.24939 34.9985 0 26.9781H0.416134C2.70782 31.9835 8.22848 36.666 14.9995 37.3943C21.8697 38.2275 30.1031 35.1035 34.5814 30.8323L29.5819 26.9781H44.6854L41.3485 43.0199L39.1609 36.7701L39.0607 36.666Z" fill="white"/>
</svg>
