<svg width="42" height="42" viewBox="0 0 42 42" fill="none" xmlns="http://www.w3.org/2000/svg">
<path d="M19.1251 35.5834H22.7709V32.9792C24.507 32.6667 26.0001 31.9897 27.2501 30.948C28.5001 29.9063 29.1251 28.3612 29.1251 26.3126C29.1251 24.8542 28.7084 23.5174 27.8751 22.3022C27.0417 21.0869 25.3751 20.0279 22.8751 19.1251C20.7917 18.4306 19.3508 17.823 18.5522 17.3022C17.7536 16.7813 17.3542 16.0695 17.3542 15.1667C17.3542 14.264 17.6754 13.5522 18.3178 13.0313C18.9602 12.5105 19.889 12.2501 21.1042 12.2501C22.2154 12.2501 23.0834 12.5192 23.7084 13.0574C24.3334 13.5956 24.7848 14.264 25.0626 15.0626L28.3959 13.7084C28.014 12.4931 27.3108 11.4341 26.2865 10.5313C25.2622 9.62855 24.1251 9.12508 22.8751 9.02092V6.41675H19.2292V9.02092C17.4931 9.40286 16.139 10.1667 15.1667 11.3126C14.1945 12.4584 13.7084 13.7431 13.7084 15.1667C13.7084 16.7987 14.1858 18.1181 15.1407 19.1251C16.0956 20.132 17.5973 21.0001 19.6459 21.7292C21.8334 22.5279 23.3525 23.2397 24.2032 23.8647C25.0539 24.4897 25.4792 25.3056 25.4792 26.3126C25.4792 27.4584 25.0713 28.3004 24.2553 28.8386C23.4393 29.3768 22.4584 29.6459 21.3126 29.6459C20.1667 29.6459 19.1511 29.29 18.2657 28.5782C17.3803 27.8664 16.7292 26.7987 16.3126 25.3751L12.8751 26.7292C13.3612 28.3959 14.1164 29.7414 15.1407 30.7657C16.165 31.79 17.4931 32.4931 19.1251 32.8751V35.5834ZM21.0001 41.8334C18.1181 41.8334 15.4098 41.2865 12.8751 40.1928C10.3404 39.099 8.1355 37.6147 6.2605 35.7397C4.3855 33.8647 2.90112 31.6598 1.80737 29.1251C0.713623 26.5904 0.166748 23.882 0.166748 21.0001C0.166748 18.1181 0.713623 15.4098 1.80737 12.8751C2.90112 10.3404 4.3855 8.1355 6.2605 6.2605C8.1355 4.3855 10.3404 2.90112 12.8751 1.80737C15.4098 0.713623 18.1181 0.166748 21.0001 0.166748C23.882 0.166748 26.5904 0.713623 29.1251 1.80737C31.6598 2.90112 33.8647 4.3855 35.7397 6.2605C37.6147 8.1355 39.099 10.3404 40.1928 12.8751C41.2865 15.4098 41.8334 18.1181 41.8334 21.0001C41.8334 23.882 41.2865 26.5904 40.1928 29.1251C39.099 31.6598 37.6147 33.8647 35.7397 35.7397C33.8647 37.6147 31.6598 39.099 29.1251 40.1928C26.5904 41.2865 23.882 41.8334 21.0001 41.8334ZM21.0001 37.6667C25.6529 37.6667 29.5938 36.0522 32.823 32.823C36.0522 29.5938 37.6667 25.6529 37.6667 21.0001C37.6667 16.3473 36.0522 12.4063 32.823 9.17717C29.5938 5.948 25.6529 4.33342 21.0001 4.33342C16.3473 4.33342 12.4063 5.948 9.17717 9.17717C5.948 12.4063 4.33342 16.3473 4.33342 21.0001C4.33342 25.6529 5.948 29.5938 9.17717 32.823C12.4063 36.0522 16.3473 37.6667 21.0001 37.6667Z" fill="white"/>
</svg>

