<svg width="43" height="32" viewBox="0 0 43 32" fill="none" xmlns="http://www.w3.org/2000/svg">
<g filter="url(#filter0_d_185_13371)">
<rect x="7" y="3" width="32.9535" height="21.4697" rx="6" fill="#343C6A"/>
<rect x="6.5" y="2.5" width="33.9535" height="22.4697" rx="6.5" fill="white" stroke="#EDEDED"/>
<path d="M18.4964 8.76269C19.1554 8.76269 19.7753 9.00785 20.2413 9.45289L22.77 11.8692C22.9522 12.0433 23.2495 12.0439 23.4321 11.869L25.9516 9.46169C26.4176 9.01665 27.0375 8.77149 27.6965 8.77149H28L24.8 5.71412C23.8033 4.76196 22.1875 4.76196 21.1909 5.71412L18 8.7627L18.4964 8.76269Z" fill="#32BCAD"/>
<path d="M18.4964 18.2373C19.1554 18.2373 19.7753 17.9922 20.2413 17.5471L22.77 15.1308C22.9522 14.9567 23.2495 14.9561 23.4321 15.131L25.9516 17.5383C26.4176 17.9833 27.0375 18.2285 27.6965 18.2285H28L24.8 21.2859C23.8033 22.238 22.1875 22.238 21.1909 21.2859L18 18.2373L18.4964 18.2373Z" fill="#32BCAD"/>
<path d="M31.1991 11.814L29.1269 10.0072C29.0813 10.0231 29.0319 10.0331 28.9797 10.0331H28.0375C27.5504 10.0331 27.0736 10.2053 26.7294 10.5057L24.0297 12.8597C23.7771 13.08 23.4451 13.1903 23.1134 13.1903C22.7814 13.1903 22.4497 13.08 22.1971 12.86L19.4872 10.4971C19.143 10.1967 18.6662 10.0245 18.1791 10.0245H17.0206C16.9712 10.0245 16.925 10.0143 16.8814 10L14.8009 11.814C13.733 12.7452 13.733 14.2549 14.8009 15.186L16.8813 17C16.925 16.9857 16.9712 16.9755 17.0206 16.9755H18.1791C18.6662 16.9755 19.143 16.8033 19.4872 16.503L22.1969 14.1403C22.6866 13.7136 23.5404 13.7135 24.0297 14.1405L26.7294 16.4944C27.0736 16.7947 27.5504 16.967 28.0375 16.967H28.9797C29.0319 16.967 29.0813 16.9769 29.1269 16.9929L31.1991 15.186C32.267 14.2548 32.267 12.7452 31.1991 11.814Z" fill="#32BCAD"/>
</g>
<defs>
<filter id="filter0_d_185_13371" x="0" y="0" width="42.9536" height="31.4697" filterUnits="userSpaceOnUse" color-interpolation-filters="sRGB">
<feFlood flood-opacity="0" result="BackgroundImageFix"/>
<feColorMatrix in="SourceAlpha" type="matrix" values="0 0 0 0 0 0 0 0 0 0 0 0 0 0 0 0 0 0 127 0" result="hardAlpha"/>
<feOffset dx="-2" dy="2"/>
<feGaussianBlur stdDeviation="2"/>
<feComposite in2="hardAlpha" operator="out"/>
<feColorMatrix type="matrix" values="0 0 0 0 0 0 0 0 0 0 0 0 0 0 0 0 0 0 0.05 0"/>
<feBlend mode="normal" in2="BackgroundImageFix" result="effect1_dropShadow_185_13371"/>
<feBlend mode="normal" in="SourceGraphic" in2="effect1_dropShadow_185_13371" result="shape"/>
</filter>
</defs>
</svg>
