<svg width="42" height="38" viewBox="0 0 42 38" fill="none" xmlns="http://www.w3.org/2000/svg">
  <path d="M39.802 17.0208V33.5833C39.802 34.7292 39.394 35.7101 38.578 36.526C37.762 37.342 36.7811 37.75 35.6353 37.75H6.46864C5.3228 37.75 4.3419 37.342 3.52593 36.526C2.70996 35.7101 2.30197 34.7292 2.30197 33.5833V17.0208C1.50336 16.2917 0.887041 15.3542 0.453014 14.2083C0.018986 13.0625 0.0103054 11.8125 0.426972 10.4583L2.61447 3.375C2.89225 2.47222 3.38704 1.72569 4.09885 1.13542C4.81065 0.545139 5.6353 0.25 6.5728 0.25H35.5311C36.4686 0.25 37.2846 0.536458 37.9791 1.10938C38.6735 1.68229 39.177 2.4375 39.4895 3.375L41.677 10.4583C42.0936 11.8125 42.085 13.0451 41.6509 14.1562C41.2169 15.2674 40.6006 16.2222 39.802 17.0208ZM25.6353 14.8333C26.5728 14.8333 27.2846 14.5122 27.7707 13.8698C28.2568 13.2274 28.4478 12.5069 28.3436 11.7083L27.1978 4.41667H23.1353V12.125C23.1353 12.8542 23.3784 13.4878 23.8645 14.026C24.3506 14.5642 24.9409 14.8333 25.6353 14.8333ZM16.2603 14.8333C17.0589 14.8333 17.71 14.5642 18.2134 14.026C18.7169 13.4878 18.9686 12.8542 18.9686 12.125V4.41667H14.9061L13.7603 11.7083C13.6214 12.5417 13.8037 13.2708 14.3072 13.8958C14.8107 14.5208 15.4617 14.8333 16.2603 14.8333ZM6.98947 14.8333C7.61447 14.8333 8.16135 14.6076 8.6301 14.1562C9.09885 13.7049 9.3853 13.1319 9.48947 12.4375L10.6353 4.41667H6.5728L4.48947 11.3958C4.28114 12.0903 4.39399 12.8368 4.82801 13.6354C5.26204 14.434 5.98253 14.8333 6.98947 14.8333ZM35.1145 14.8333C36.1214 14.8333 36.8506 14.434 37.302 13.6354C37.7534 12.8368 37.8575 12.0903 37.6145 11.3958L35.427 4.41667H31.4686L32.6145 12.4375C32.7186 13.1319 33.0051 13.7049 33.4738 14.1562C33.9426 14.6076 34.4895 14.8333 35.1145 14.8333ZM6.46864 33.5833H35.6353V18.8958C35.4617 18.9653 35.3488 19 35.2968 19H35.1145C34.177 19 33.3523 18.8438 32.6405 18.5312C31.9287 18.2188 31.2256 17.7153 30.5311 17.0208C29.9061 17.6458 29.1943 18.1319 28.3957 18.4792C27.5971 18.8264 26.7464 19 25.8436 19C24.9061 19 24.0294 18.8264 23.2134 18.4792C22.3975 18.1319 21.677 17.6458 21.052 17.0208C20.4617 17.6458 19.7759 18.1319 18.9947 18.4792C18.2134 18.8264 17.3714 19 16.4686 19C15.4617 19 14.5502 18.8264 13.7343 18.4792C12.9183 18.1319 12.1978 17.6458 11.5728 17.0208C10.8436 17.75 10.1232 18.2622 9.41135 18.5573C8.69954 18.8524 7.89225 19 6.98947 19H6.7551C6.66829 19 6.5728 18.9653 6.46864 18.8958V33.5833Z" fill="white"/>
</svg>
