<svg width="42" height="42" viewBox="0 0 42 42" fill="none" xmlns="http://www.w3.org/2000/svg">
<path d="M13.4998 31.4167L20.9998 23.9167L28.4998 31.4167L31.4165 28.5001L23.9165 21.0001L31.4165 13.5001L28.4998 10.5834L20.9998 18.0834L13.4998 10.5834L10.5832 13.5001L18.0832 21.0001L10.5832 28.5001L13.4998 31.4167ZM20.9998 41.8334C18.1179 41.8334 15.4096 41.2865 12.8748 40.1928C10.3401 39.099 8.13525 37.6147 6.26025 35.7397C4.38525 33.8647 2.90088 31.6598 1.80713 29.1251C0.713379 26.5904 0.166504 23.882 0.166504 21.0001C0.166504 18.1181 0.713379 15.4098 1.80713 12.8751C2.90088 10.3404 4.38525 8.1355 6.26025 6.2605C8.13525 4.3855 10.3401 2.90112 12.8748 1.80737C15.4096 0.713623 18.1179 0.166748 20.9998 0.166748C23.8818 0.166748 26.5901 0.713623 29.1248 1.80737C31.6596 2.90112 33.8644 4.3855 35.7394 6.2605C37.6144 8.1355 39.0988 10.3404 40.1925 12.8751C41.2863 15.4098 41.8332 18.1181 41.8332 21.0001C41.8332 23.882 41.2863 26.5904 40.1925 29.1251C39.0988 31.6598 37.6144 33.8647 35.7394 35.7397C33.8644 37.6147 31.6596 39.099 29.1248 40.1928C26.5901 41.2865 23.8818 41.8334 20.9998 41.8334ZM20.9998 37.6667C25.6526 37.6667 29.5936 36.0522 32.8228 32.823C36.0519 29.5938 37.6665 25.6529 37.6665 21.0001C37.6665 16.3473 36.0519 12.4063 32.8228 9.17717C29.5936 5.948 25.6526 4.33342 20.9998 4.33342C16.3471 4.33342 12.4061 5.948 9.17692 9.17717C5.94775 12.4063 4.33317 16.3473 4.33317 21.0001C4.33317 25.6529 5.94775 29.5938 9.17692 32.823C12.4061 36.0522 16.3471 37.6667 20.9998 37.6667Z" fill="white"/>
</svg>

